M48
INCH
T1C00.028
T2C00.032
T3C00.036
T4C00.040
T5C00.048
T6C00.052
T8C00.138
%
T1
X6.0020Y8.9650
X6.3270Y8.740
X6.3770Y8.9650
X6.5270Y8.740
X6.7520Y8.9150
X11.8270Y8.790
X6.0270Y9.940
X6.4270Y9.540
X6.6770Y9.8150
X6.8020Y9.8650
X7.2020Y9.640
X7.6270Y9.1150
X7.9770Y9.6150
X7.9770Y9.540
X8.1270Y9.440
X8.5520Y9.2650
X8.6020Y9.3150
X9.8020Y9.840
X10.0520Y9.840
X10.1770Y9.290
X10.4270Y9.3650
X11.0770Y9.740
X11.1270Y9.3650
X11.4020Y9.290
X12.0270Y9.5150
X12.0520Y9.290
X12.1270Y9.840
X12.1770Y9.190
X12.4770Y9.890
X6.7270Y10.540
X6.8520Y10.1650
X6.9270Y10.190
X7.0270Y10.7650
X7.0770Y10.190
X7.1270Y10.240
X7.1770Y10.190
X7.2270Y10.240
X7.2520Y10.3150
X7.3270Y10.340
X7.3520Y10.6650
X7.3520Y10.4150
X7.4020Y10.4650
X7.4020Y10.540
X7.4020Y10.6150
X7.8270Y10.440
X7.8770Y10.3650
X7.9270Y10.7150
X8.4770Y10.7650
X8.7020Y10.440
X8.8020Y10.3650
X10.2020Y10.090
X10.6020Y10.1150
X10.6520Y10.290
X11.2270Y10.090
X11.6270Y10.1150
X11.6770Y10.290
X12.2270Y10.090
X12.6520Y10.1150
X12.7020Y10.290
X5.7270Y10.840
X5.7770Y10.890
X5.8270Y10.940
X6.2770Y11.5150
X6.4270Y10.9650
X6.5270Y11.1150
X6.6770Y10.9150
X6.8520Y11.490
X6.9270Y11.0650
X7.0270Y10.940
X7.5020Y11.4650
X7.5520Y11.540
X7.8270Y10.890
X7.8770Y11.040
X8.1020Y10.840
X8.1270Y10.990
X8.1770Y11.190
X8.4270Y10.940
X8.4770Y11.490
X8.5270Y10.940
X9.1270Y11.540
X9.2270Y11.5150
X9.6520Y11.340
X9.6520Y11.240
X9.8770Y11.540
X10.6770Y11.290
X11.1020Y11.1150
X11.2020Y11.340
X11.2020Y11.4650
X11.2770Y11.340
X11.2770Y11.4650
X11.3520Y11.340
X11.3520Y11.4650
X12.1520Y11.2650
X12.7520Y11.190
X6.1770Y11.5650
X6.7520Y11.8150
X6.8520Y12.0650
X7.5020Y11.690
X7.5520Y11.790
X7.7270Y12.240
X7.8270Y11.940
X7.8520Y11.7150
X8.3770Y12.240
X8.4270Y11.690
X8.4520Y11.590
X8.5770Y11.990
X8.6770Y11.740
X8.7520Y12.040
X9.2270Y12.290
X10.2770Y11.740
X10.7020Y12.140
X10.7520Y12.090
X11.4020Y12.0650
X11.5520Y11.890
X11.8270Y12.190
X12.5270Y11.690
X12.5770Y11.740
X12.6270Y12.0650
X12.6270Y11.990
X12.7020Y12.090
X5.9270Y12.340
X6.0270Y13.040
X6.1270Y12.940
X6.2270Y12.840
X6.3270Y12.740
X6.4770Y12.340
X7.1770Y12.790
X7.2520Y12.790
X7.6520Y12.690
X7.6770Y12.790
X7.8770Y12.440
X8.1020Y13.040
X8.1770Y12.540
X8.2020Y12.640
X8.2270Y12.7150
X8.3520Y12.440
X8.3520Y12.340
X9.3270Y12.3650
X9.4270Y12.740
X10.6270Y13.040
X11.1020Y12.4150
X12.4520Y12.390
X7.7770Y13.090
X8.1020Y13.1150
X7.2520Y13.140
T2
X5.9270Y8.890
X6.0770Y8.790
X6.1770Y8.790
X6.2770Y8.790
X6.3770Y8.790
X6.4770Y8.790
X6.5770Y8.790
X6.6770Y8.790
X7.4770Y8.8650
X7.5270Y8.9650
X7.5770Y8.8650
X7.6270Y8.9650
X7.6770Y8.8650
X7.7270Y8.9650
X7.7770Y8.8650
X7.8270Y8.9650
X7.8770Y8.8650
X7.9270Y8.9650
X7.9770Y8.8650
X8.0270Y8.9650
X8.0770Y8.8650
X8.1270Y8.9650
X8.1770Y8.8650
X8.2270Y8.9650
X8.4270Y8.9150
X8.4270Y8.8150
X8.7270Y8.8150
X8.7270Y8.9150
X8.8770Y8.9150
X8.8770Y8.8150
X9.1770Y8.9150
X9.1770Y8.8150
X9.3270Y8.7650
X9.3270Y8.8650
X9.6270Y8.7650
X9.6270Y8.8650
X10.6770Y8.790
X10.9770Y8.790
X11.1520Y8.940
X11.1520Y8.740
X11.3270Y8.940
X11.3270Y8.740
X11.5270Y8.890
X11.6270Y8.890
X11.7270Y8.890
X11.8270Y8.890
X11.9270Y8.890
X12.0270Y8.890
X12.1270Y8.890
X12.2270Y8.890
X5.9270Y9.090
X6.0770Y9.090
X6.1770Y9.090
X6.2770Y9.090
X6.3770Y9.090
X6.4770Y9.090
X6.5770Y9.090
X6.6770Y9.090
X6.8270Y9.090
X7.0020Y9.240
X7.2020Y9.240
X7.3770Y9.090
X7.5270Y9.190
X7.8270Y9.190
X7.9770Y9.1150
X7.9770Y9.2150
X8.2770Y9.2150
X8.2770Y9.1150
X8.4270Y9.0150
X8.4270Y9.1150
X8.4270Y9.2150
X8.7270Y9.2150
X8.7270Y9.1150
X8.7270Y9.0150
X8.8770Y9.2150
X8.8770Y9.1150
X8.8770Y9.0150
X9.1770Y9.0150
X9.1770Y9.1150
X9.1770Y9.2150
X9.2770Y9.0150
X9.2770Y9.2150
X9.3770Y9.2150
X9.3770Y9.1150
X9.3770Y9.0150
X9.6770Y9.2150
X9.6770Y9.1150
X9.6770Y9.0150
X10.1270Y9.240
X10.2270Y9.240
X10.3270Y9.240
X10.4270Y9.240
X10.6770Y9.040
X10.9770Y9.040
X10.9770Y9.240
X11.0770Y9.090
X11.1520Y9.240
X11.2520Y9.240
X11.2770Y9.090
X11.3520Y9.240
X11.4520Y9.240
X11.5770Y8.990
X11.6770Y8.990
X11.7770Y8.990
X11.8770Y8.990
X11.9270Y9.240
X11.9770Y8.990
X12.0770Y8.990
X12.1770Y8.990
X12.2770Y9.240
X12.2770Y8.990
X12.3770Y9.240
X12.4770Y9.240
X12.5770Y9.240
X12.8270Y9.140
X5.4770Y9.390
X5.5770Y9.390
X5.6770Y9.390
X5.7770Y9.390
X5.8770Y9.390
X5.9770Y9.390
X6.0770Y9.390
X6.1770Y9.390
X6.2770Y9.390
X6.3770Y9.390
X6.4770Y9.390
X6.5770Y9.390
X6.6770Y9.390
X6.7770Y9.390
X6.8270Y9.290
X6.8770Y9.390
X6.9770Y9.390
X7.0770Y9.390
X7.1770Y9.390
X7.2770Y9.390
X7.3770Y9.290
X7.3770Y9.390
X7.5270Y9.690
X7.5270Y9.490
X7.5270Y9.290
X7.5270Y9.390
X7.5270Y9.590
X7.8270Y9.490
X7.8270Y9.290
X7.8270Y9.590
X7.8270Y9.390
X7.8270Y9.690
X7.9770Y9.4150
X7.9770Y9.3150
X8.2770Y9.4150
X8.2770Y9.3150
X8.4270Y9.4150
X8.4270Y9.3150
X8.7270Y9.3150
X8.7270Y9.4150
X8.8020Y9.6650
X8.8770Y9.3150
X8.8770Y9.4150
X9.0020Y9.6650
X9.1770Y9.4150
X9.1770Y9.3150
X9.3770Y9.4650
X9.3770Y9.6650
X9.3770Y9.3150
X9.6770Y9.3150
X9.7770Y9.490
X9.9770Y9.490
X10.1270Y9.540
X10.2270Y9.540
X10.3270Y9.540
X10.3770Y9.640
X10.4270Y9.540
X10.4770Y9.640
X10.6770Y9.640
X10.8770Y9.540
X10.8770Y9.340
X10.9770Y9.440
X11.1520Y9.540
X11.2520Y9.540
X11.3520Y9.540
X11.4020Y9.640
X11.4520Y9.540
X11.5020Y9.640
X11.7020Y9.640
X11.9270Y9.440
X11.9270Y9.540
X12.1270Y9.540
X12.2770Y9.540
X12.3770Y9.540
X12.4270Y9.640
X12.4770Y9.540
X12.5770Y9.540
X12.6270Y9.640
X12.8270Y9.640
X12.8270Y9.340
X5.4770Y9.990
X5.5020Y10.090
X5.5770Y9.990
X5.6770Y10.140
X5.6770Y9.990
X5.7770Y10.140
X5.7770Y9.990
X5.8770Y9.990
X5.8770Y10.140
X5.9770Y10.140
X5.9770Y9.990
X6.0770Y10.140
X6.0770Y9.990
X6.1770Y9.990
X6.1770Y10.140
X6.2770Y10.140
X6.2770Y9.990
X6.3770Y10.140
X6.3770Y9.990
X6.4770Y10.140
X6.4770Y9.990
X6.5770Y9.990
X6.5770Y10.140
X6.6770Y9.990
X6.7770Y9.990
X6.8770Y9.990
X6.9770Y9.990
X7.0770Y9.990
X7.1770Y9.990
X7.2770Y9.990
X7.3770Y9.990
X7.5270Y9.790
X7.5270Y10.190
X7.5270Y9.890
X7.5270Y9.990
X7.5270Y10.090
X7.8270Y9.990
X7.8270Y9.890
X7.8270Y10.090
X7.8270Y10.190
X7.8270Y9.790
X8.5020Y10.1650
X8.5020Y9.9650
X8.7520Y10.0650
X8.7520Y9.7650
X8.8520Y9.7650
X8.8520Y10.0650
X9.2020Y10.190
X9.2770Y10.040
X9.4770Y10.040
X9.5020Y10.190
X10.3770Y10.040
X10.3770Y9.840
X10.5770Y10.040
X11.4020Y10.040
X11.4020Y9.840
X11.6020Y10.040
X12.4270Y10.040
X12.4270Y9.840
X12.6270Y10.040
X5.5020Y10.290
X5.6770Y10.440
X5.7770Y10.590
X5.7770Y10.440
X5.8770Y10.440
X5.8770Y10.590
X5.9770Y10.590
X5.9770Y10.440
X6.0770Y10.440
X6.0770Y10.590
X6.1770Y10.590
X6.1770Y10.440
X6.2770Y10.440
X6.2770Y10.590
X6.3770Y10.590
X6.3770Y10.440
X6.4770Y10.440
X6.4770Y10.590
X6.5770Y10.590
X6.5770Y10.440
X6.6770Y10.590
X6.7770Y10.590
X6.8770Y10.590
X6.9770Y10.590
X7.0770Y10.590
X7.5270Y10.290
X7.8270Y10.290
X8.1270Y10.540
X8.1270Y10.740
X8.3020Y10.590
X8.3020Y10.690
X8.6020Y10.690
X8.6020Y10.590
X9.2020Y10.490
X9.2020Y10.390
X9.2020Y10.290
X9.2020Y10.690
X9.2020Y10.590
X9.5020Y10.690
X9.5020Y10.590
X9.5020Y10.490
X9.5020Y10.390
X9.5020Y10.290
X9.7770Y10.640
X9.7770Y10.440
X9.8770Y10.7150
X10.0770Y10.7150
X10.0770Y10.590
X10.1770Y10.490
X10.1770Y10.590
X10.2770Y10.5150
X10.2770Y10.7150
X10.8020Y10.390
X10.8020Y10.590
X10.9270Y10.3650
X10.9270Y10.5650
X11.2770Y10.7650
X11.8270Y10.390
X11.8270Y10.590
X11.9520Y10.3650
X11.9520Y10.5650
X12.3020Y10.7650
X12.8520Y10.390
X12.8520Y10.590
X5.4270Y11.190
X5.6270Y11.190
X5.7770Y11.190
X5.8770Y11.190
X5.9770Y11.190
X6.0770Y11.190
X6.1770Y11.190
X6.2770Y11.190
X6.3770Y11.190
X6.4770Y11.190
X6.5770Y11.190
X6.6770Y11.190
X6.7770Y11.190
X6.8770Y11.190
X6.9770Y11.190
X7.0770Y11.190
X7.3520Y10.790
X7.3520Y11.190
X7.3520Y10.990
X7.3520Y11.090
X7.3520Y10.890
X7.9520Y11.190
X7.9520Y11.090
X7.9520Y10.790
X7.9520Y10.990
X7.9520Y10.890
X8.3020Y11.190
X8.3020Y11.090
X8.3020Y10.790
X8.3020Y10.990
X8.3020Y10.890
X8.6020Y11.190
X8.6020Y10.990
X8.6020Y10.790
X8.6020Y10.890
X8.6020Y11.090
X8.7520Y11.040
X8.8520Y11.040
X8.9520Y11.040
X9.0520Y11.040
X9.1520Y11.040
X9.2020Y10.890
X9.2020Y10.790
X9.2520Y11.040
X9.3520Y11.040
X9.4520Y11.040
X9.5020Y10.790
X9.5020Y10.890
X10.5020Y10.940
X10.7020Y10.940
X10.9020Y10.9650
X10.9520Y11.2650
X11.1020Y10.9650
X11.1770Y10.8650
X11.2020Y10.9650
X11.2770Y10.8650
X11.4020Y10.9650
X11.5270Y10.940
X11.7270Y10.940
X11.9270Y10.9650
X12.1270Y10.9650
X12.2020Y10.8650
X12.2270Y10.9650
X12.3020Y10.8650
X12.4270Y10.9650
X12.5520Y10.940
X12.7520Y10.940
X5.4770Y11.340
X5.5770Y11.340
X5.6770Y11.340
X5.7770Y11.340
X5.8770Y11.340
X5.9770Y11.340
X6.0770Y11.340
X6.1770Y11.340
X6.2770Y11.340
X6.3770Y11.340
X6.6270Y11.340
X6.6270Y11.440
X6.6270Y11.540
X6.9270Y11.340
X6.9270Y11.440
X6.9270Y11.540
X7.0520Y11.4150
X7.3520Y11.290
X7.3520Y11.390
X7.3520Y11.490
X7.9520Y11.290
X7.9520Y11.390
X7.9520Y11.490
X8.3020Y11.490
X8.3020Y11.290
X8.6020Y11.290
X8.7520Y11.340
X8.8520Y11.340
X8.9020Y11.490
X8.9520Y11.340
X9.0520Y11.490
X9.0520Y11.340
X9.1520Y11.340
X9.2520Y11.340
X9.3520Y11.340
X9.4520Y11.340
X9.6520Y11.490
X9.8020Y11.490
X10.4020Y11.490
X10.5520Y11.340
X10.5520Y11.540
X10.5520Y11.440
X10.8520Y11.440
X10.8520Y11.340
X10.8520Y11.540
X10.9520Y11.4650
X11.4770Y11.340
X11.4770Y11.440
X11.4770Y11.540
X11.7770Y11.340
X11.7770Y11.440
X11.7770Y11.540
X11.9770Y11.340
X11.9770Y11.440
X11.9770Y11.540
X12.2770Y11.340
X12.2770Y11.440
X12.2770Y11.540
X12.4770Y11.340
X12.4770Y11.440
X12.4770Y11.540
X12.7770Y11.340
X12.7770Y11.440
X12.7770Y11.540
X5.4770Y11.640
X5.4770Y11.790
X5.5770Y11.790
X5.5770Y11.640
X5.6770Y11.640
X5.6770Y11.790
X5.7770Y11.790
X5.7770Y11.640
X5.8770Y11.640
X5.8770Y11.790
X5.9770Y11.790
X5.9770Y11.640
X6.0770Y11.640
X6.0770Y11.790
X6.1770Y11.790
X6.1770Y11.640
X6.2770Y11.640
X6.2770Y11.790
X6.3770Y11.640
X6.3770Y11.790
X6.6270Y11.740
X6.6270Y11.640
X6.9270Y11.640
X6.9270Y11.740
X7.0520Y11.6150
X7.3520Y11.690
X7.3520Y11.590
X7.3520Y11.790
X7.9520Y11.790
X7.9520Y11.590
X7.9520Y11.690
X8.3020Y11.690
X8.3020Y11.590
X8.3020Y11.790
X8.9020Y11.590
X8.9020Y11.690
X8.9020Y11.790
X9.0520Y11.590
X9.0520Y11.690
X9.0520Y11.790
X9.6520Y11.690
X9.6520Y11.590
X9.6520Y11.790
X9.8020Y11.790
X9.8020Y11.690
X9.8020Y11.590
X10.4020Y11.690
X10.4020Y11.790
X10.4020Y11.590
X10.5520Y11.640
X10.5520Y11.740
X10.8520Y11.740
X10.8520Y11.640
X11.0020Y11.740
X11.0020Y11.640
X11.3020Y11.640
X11.3020Y11.740
X11.4770Y11.640
X11.4770Y11.740
X11.7770Y11.740
X11.7770Y11.640
X11.9770Y11.740
X11.9770Y11.640
X12.2770Y11.640
X12.2770Y11.740
X12.4770Y11.740
X12.4770Y11.640
X12.7770Y11.640
X12.7770Y11.740
X5.4770Y12.090
X5.4770Y12.240
X5.5770Y12.090
X5.5770Y12.240
X5.6770Y12.240
X5.6770Y12.090
X5.7770Y12.240
X5.7770Y12.090
X5.8770Y12.090
X5.8770Y12.240
X5.9770Y12.240
X5.9770Y12.090
X6.0770Y12.240
X6.0770Y12.090
X6.1770Y12.090
X6.1770Y12.240
X6.2770Y12.090
X6.2770Y12.240
X6.3770Y12.090
X6.3770Y12.240
X6.4770Y12.240
X6.5270Y11.8650
X6.5270Y12.0650
X6.5770Y12.240
X6.6270Y11.940
X6.6270Y12.040
X6.6270Y11.840
X6.9270Y11.940
X6.9270Y12.040
X6.9270Y11.840
X7.3520Y12.090
X7.3520Y12.190
X7.3520Y11.890
X7.3520Y11.990
X7.3520Y12.290
X7.9520Y11.890
X7.9520Y12.090
X7.9520Y12.190
X7.9520Y12.290
X7.9520Y11.990
X8.3020Y11.890
X8.3020Y12.290
X8.3020Y12.090
X8.3020Y12.190
X8.3020Y11.990
X8.9020Y11.890
X8.9020Y12.190
X8.9020Y11.990
X8.9020Y12.290
X8.9020Y12.090
X9.0520Y11.890
X9.0520Y12.090
X9.0520Y12.190
X9.0520Y11.990
X9.0520Y12.290
X9.6520Y11.990
X9.6520Y12.290
X9.6520Y11.890
X9.6520Y12.090
X9.6520Y12.190
X9.8020Y11.890
X9.8020Y12.190
X9.8020Y11.990
X9.8020Y12.090
X9.8020Y12.290
X10.4020Y12.290
X10.4020Y11.890
X10.4020Y11.990
X10.4020Y12.190
X10.4020Y12.090
X10.5520Y12.040
X10.5520Y12.240
X10.5520Y11.940
X10.5520Y11.840
X10.5520Y12.140
X10.8520Y12.240
X10.8520Y11.840
X10.8520Y12.040
X10.8520Y12.140
X10.8520Y11.940
X11.0020Y12.040
X11.0020Y12.140
X11.0020Y12.240
X11.0020Y11.940
X11.0020Y11.840
X11.3020Y12.140
X11.3020Y12.240
X11.3020Y11.940
X11.3020Y12.040
X11.3020Y11.840
X11.4770Y12.240
X11.4770Y12.040
X11.4770Y12.140
X11.4770Y11.940
X11.4770Y11.840
X11.7770Y11.940
X11.7770Y12.140
X11.7770Y11.840
X11.7770Y12.240
X11.7770Y12.040
X11.9770Y12.190
X11.9770Y11.940
X11.9770Y11.840
X11.9770Y12.040
X12.0770Y12.290
X12.1770Y12.190
X12.2770Y12.290
X12.2770Y11.940
X12.2770Y11.840
X12.2770Y12.040
X12.4770Y12.040
X12.4770Y11.840
X12.4770Y12.190
X12.4770Y11.940
X12.5770Y12.290
X12.6770Y12.190
X12.7770Y11.840
X12.7770Y12.290
X12.7770Y11.940
X12.7770Y12.040
X5.4770Y12.540
X5.5770Y12.540
X5.6770Y12.540
X5.7770Y12.540
X5.8770Y12.540
X5.9770Y12.540
X6.0770Y12.540
X6.1770Y12.540
X6.2770Y12.540
X6.3770Y12.540
X6.4770Y12.540
X6.5770Y12.540
X7.3520Y12.490
X7.3520Y12.390
X7.3520Y12.790
X7.3520Y12.590
X7.3520Y12.690
X7.9520Y12.490
X7.9520Y12.390
X7.9520Y12.690
X7.9520Y12.590
X7.9520Y12.790
X8.3020Y12.690
X8.3020Y12.490
X8.3020Y12.590
X8.3020Y12.390
X8.3020Y12.790
X8.9020Y12.790
X8.9020Y12.490
X8.9020Y12.690
X8.9020Y12.390
X8.9020Y12.590
X9.0520Y12.790
X9.0520Y12.490
X9.0520Y12.390
X9.0520Y12.590
X9.0520Y12.690
X9.6520Y12.790
X9.6520Y12.690
X9.6520Y12.490
X9.6520Y12.390
X9.6520Y12.590
X9.8020Y12.390
X9.8020Y12.490
X9.8020Y12.790
X9.8020Y12.590
X9.8020Y12.690
X10.4020Y12.490
X10.4020Y12.690
X10.4020Y12.790
X10.4020Y12.590
X10.4020Y12.390
X10.5520Y12.340
X10.5520Y12.440
X10.6270Y12.640
X10.8270Y12.640
X10.8520Y12.440
X10.8520Y12.340
X10.9770Y12.490
X10.9770Y12.640
X11.0020Y12.340
X11.1770Y12.490
X11.1770Y12.640
X11.2770Y12.490
X11.2770Y12.690
X11.3020Y12.340
X11.4770Y12.440
X11.4770Y12.340
X11.7770Y12.440
X11.7770Y12.340
X12.2520Y12.440
X12.2520Y12.640
X12.4770Y12.490
X12.4770Y12.690
X12.5770Y12.490
X12.5770Y12.690
X12.7020Y12.490
X12.7020Y12.690
X7.2020Y13.240
X7.3020Y13.240
X7.3520Y12.890
X7.3520Y13.090
X7.3520Y12.990
X7.4020Y13.240
X7.5020Y13.240
X7.6020Y13.240
X7.7020Y13.240
X7.8020Y13.240
X7.9020Y13.240
X7.9520Y12.890
X7.9520Y13.090
X7.9520Y12.990
X8.0020Y13.240
X8.1020Y13.240
X8.2270Y13.040
X8.2270Y13.240
X8.3770Y13.240
X8.3770Y12.940
X8.4770Y12.940
X8.4770Y13.240
X8.5770Y12.940
X8.5770Y13.240
X8.6770Y12.940
X8.6770Y13.240
X8.7770Y12.940
X8.7770Y13.240
X8.8770Y12.940
X8.8770Y13.240
X8.9770Y12.940
X8.9770Y13.240
X9.0770Y13.240
X9.0770Y12.940
X9.1770Y13.240
X9.1770Y12.940
X9.2770Y13.240
X9.2770Y12.940
X9.3770Y12.940
X9.3770Y13.240
X9.4770Y13.240
X9.4770Y12.940
X9.7520Y12.990
X9.7520Y13.190
X10.5770Y12.9150
X10.5770Y13.2150
X10.6770Y12.9150
X10.6770Y13.2150
X10.7770Y13.2150
X10.7770Y12.9150
X10.8770Y13.2150
X10.8770Y12.9150
X10.9770Y12.9150
X10.9770Y13.2150
X11.0770Y12.9150
X11.0770Y13.2150
X11.1770Y13.2150
X11.1770Y12.9150
X11.3770Y13.2150
X11.3770Y12.9150
X11.4770Y13.2150
X11.4770Y12.9150
X11.5770Y12.9150
X11.5770Y13.2150
X11.6770Y12.9150
X11.6770Y13.2150
X11.7770Y13.2150
X11.7770Y12.9150
X11.8770Y13.2150
X11.8770Y12.9150
X11.9770Y13.2150
X11.9770Y12.9150
X12.1770Y12.9150
X12.1770Y13.2150
X12.2770Y12.9150
X12.2770Y13.2150
X12.3770Y13.2150
X12.3770Y12.9150
X12.4770Y13.2150
X12.4770Y12.9150
X12.5770Y13.2150
X12.5770Y12.9150
X12.6770Y12.9150
X12.6770Y13.2150
X12.7770Y13.2150
X12.7770Y12.9150
X11.2520Y13.340
X11.4520Y13.340
X11.8520Y13.340
X12.0520Y13.340
X12.4770Y13.340
X12.6770Y13.340
T3
X9.7770Y8.7150
X9.8770Y8.7150
X9.9770Y8.7150
X10.0770Y8.7150
X10.1770Y8.7150
X10.2770Y8.7150
X10.3770Y8.7150
X10.5770Y8.7150
X11.4520Y8.7150
X11.8520Y8.7150
X6.1770Y9.190
X6.1770Y9.290
X6.5770Y9.190
X6.5770Y9.290
X9.4770Y9.4650
X9.5770Y9.4650
X9.7770Y9.1150
X9.8770Y9.1150
X9.9770Y9.1150
X10.0770Y9.1150
X10.1770Y9.1150
X10.2770Y9.1150
X10.3770Y9.1150
X10.5770Y9.440
X10.5770Y9.1150
X10.7770Y9.2150
X11.6020Y9.440
X11.8020Y9.2150
X11.8270Y9.090
X11.9520Y8.790
X12.2270Y9.090
X12.3270Y9.140
X12.3520Y8.790
X12.7270Y9.140
X12.8270Y9.440
X8.4020Y9.5650
X8.4020Y9.9650
X8.6020Y9.5650
X9.0020Y9.5650
X9.1770Y9.5650
X9.1770Y9.9650
X9.4770Y9.8650
X9.5770Y9.8650
X9.8770Y9.640
X9.8770Y9.740
X9.8770Y9.840
X9.8770Y9.940
X10.2770Y9.740
X10.2770Y9.840
X10.2770Y9.640
X10.2770Y9.940
X10.3770Y9.940
X10.4770Y9.740
X10.4770Y9.840
X10.5770Y9.840
X10.5770Y9.540
X10.6770Y9.540
X10.6770Y9.740
X10.7770Y9.6150
X10.7770Y9.940
X10.7770Y9.740
X10.7770Y9.840
X10.9020Y9.640
X10.9020Y9.940
X10.9020Y9.840
X10.9020Y9.740
X11.3020Y9.740
X11.3020Y9.640
X11.3020Y9.940
X11.3020Y9.840
X11.4020Y9.940
X11.5020Y9.840
X11.5020Y9.740
X11.6020Y9.540
X11.6020Y9.840
X11.7020Y9.740
X11.7020Y9.540
X11.8020Y9.940
X11.8020Y9.840
X11.8020Y9.740
X11.8020Y9.6150
X11.9270Y9.640
X11.9270Y9.740
X11.9270Y9.840
X11.9270Y9.940
X12.3270Y9.640
X12.3270Y9.840
X12.3270Y9.740
X12.3270Y9.940
X12.4270Y9.940
X12.5270Y9.740
X12.5270Y9.840
X12.6270Y9.840
X12.7270Y9.540
X12.7270Y9.740
X12.8270Y9.540
X12.8270Y9.740
X12.8270Y9.940
X12.8270Y9.840
X7.9270Y10.140
X7.9270Y10.240
X8.3270Y10.240
X8.3270Y10.140
X9.8770Y10.040
X9.8770Y10.490
X9.9020Y10.390
X9.9520Y10.1650
X9.9770Y10.490
X10.0520Y10.1650
X10.0520Y10.2650
X10.1770Y10.2650
X10.1770Y10.1650
X10.2770Y10.2650
X10.2770Y10.040
X10.3020Y10.390
X10.3770Y10.190
X10.3770Y10.290
X10.7770Y10.190
X10.7770Y10.290
X10.9020Y10.040
X10.9770Y10.1650
X11.0770Y10.1650
X11.0770Y10.2650
X11.2020Y10.1650
X11.2020Y10.2650
X11.3020Y10.2650
X11.3020Y10.040
X11.4020Y10.190
X11.4020Y10.290
X11.8020Y10.190
X11.8020Y10.290
X11.9270Y10.040
X12.0020Y10.1650
X12.1020Y10.2650
X12.1020Y10.1650
X12.2270Y10.2650
X12.2270Y10.1650
X12.3270Y10.2650
X12.3270Y10.040
X12.4270Y10.290
X12.4270Y10.190
X12.8270Y10.290
X12.8270Y10.190
X9.8770Y10.8150
X9.9270Y10.9150
X9.9770Y10.590
X10.2770Y10.8150
X10.3270Y10.9150
X10.3770Y11.0650
X10.3770Y11.1650
X10.4020Y10.8150
X10.4020Y10.7150
X10.7770Y11.0650
X10.7770Y11.1650
X10.8020Y10.7150
X10.8020Y10.8150
X10.9020Y11.1650
X10.9020Y11.0650
X10.9270Y10.6650
X10.9520Y10.7650
X11.0520Y10.7650
X11.0520Y10.8650
X11.3020Y11.0650
X11.3020Y11.1650
X11.3270Y10.6650
X11.4020Y11.0650
X11.4020Y11.1650
X11.4270Y10.8150
X11.4270Y10.7150
X11.8020Y11.1650
X11.8020Y11.0650
X11.8270Y10.8150
X11.8270Y10.7150
X11.9270Y11.0650
X11.9270Y11.1650
X11.9520Y10.6650
X11.9770Y10.7650
X12.0770Y10.7650
X12.0770Y10.8650
X12.3270Y11.1650
X12.3270Y11.0650
X12.3520Y10.6650
X12.4270Y11.0650
X12.4270Y11.1650
X12.4520Y10.7150
X12.4520Y10.8150
X12.8270Y11.0650
X12.8270Y11.1650
X12.8520Y10.7150
X12.8520Y10.8150
X10.8270Y12.790
X11.2270Y12.790
X11.3270Y12.8150
X11.6270Y12.6150
X11.7270Y12.8150
X11.7270Y12.6150
X11.7270Y12.7150
X11.8270Y12.8150
X12.2270Y12.8150
X12.3770Y12.4150
X12.8270Y12.790
X12.8270Y12.390
X12.3770Y12.8150
T4
X5.4770Y9.190
X5.5770Y9.190
X5.6770Y9.190
X5.7770Y9.190
X5.8770Y9.190
X10.4770Y8.990
X10.4770Y8.8150
X10.4770Y8.7150
X10.4770Y9.090
X5.4770Y9.290
X5.5770Y9.290
X5.6770Y9.290
X5.7770Y9.290
X5.8770Y9.290
X8.5020Y9.5650
X8.5020Y9.6650
T5
X8.5270Y9.790
X10.5520Y10.440
X11.0770Y10.3650
X11.1770Y10.4650
X11.2770Y10.3650
X11.5770Y10.440
X12.1020Y10.3650
X12.2020Y10.4650
X12.3020Y10.3650
X12.6020Y10.440
X10.4520Y10.540
X10.6520Y10.540
X11.4770Y10.540
X11.6770Y10.540
X12.5020Y10.540
X12.7020Y10.540
T6
X8.0020Y9.7650
X8.2020Y9.7650
T8
X9.0020Y10.490
X5.5520Y10.940
X6.8520Y12.4650
X11.9770Y12.5650
X10.0520Y13.3650
M30
