G70*
%FSLAX55Y55*%
%ADD11C,0.01200*%
D11*
X507675Y1441525D02*
X507675Y1443087*
X507675Y1449025D01*
X512050Y1449025*
X512675Y1448400*
X512675Y1446837*
X512050Y1446212*
X507675Y1446212*
X520175Y1443712D02*
X519550Y1443087D01*
X515800Y1443087*
X515175Y1443712*
X515175Y1448400*
X515800Y1449025*
X519550Y1449025*
X520175Y1448400*
X522674Y1443087D02*
X522674Y1449025D01*
X527049Y1449025*
X527674Y1448400*
X527674Y1446837*
X527049Y1446212*
X522674Y1446212D02*
X527049Y1446212D01*
X527674Y1445587*
X527674Y1443712*
X527049Y1443087*
X522674Y1443087*
X535174Y1441525D02*
X537673Y1443087*
X537673Y1449025D01*
X542048Y1449025*
X542673Y1448400*
X542673Y1446837*
X542048Y1446212*
X537673Y1446212*
X541423Y1446212D02*
X542048Y1446212D01*
X542673Y1443087*
X549548Y1443087D02*
X545173Y1443087D01*
X545173Y1449025*
X549548Y1449025*
X549548Y1446212D02*
X545173Y1446212D01*
X552672Y1449025D02*
X557672Y1449025D01*
X555172Y1449025D02*
X555172Y1443087D01*
X560172Y1449025D02*
X565172Y1449025D01*
X562672Y1449025D02*
X562672Y1443087D01*
X572046Y1443087D02*
X567671Y1443087D01*
X567671Y1449025*
X572046Y1449025*
X572046Y1446212D02*
X567671Y1446212D01*
X575171Y1449025D02*
X580171Y1449025D01*
X577671Y1449025D02*
X577671Y1443087D01*
X587670Y1441525D02*
X590170Y1449025*
X593295Y1449025D01*
X594545Y1448400*
X595170Y1447150*
X595170Y1444962*
X594545Y1443712*
X593295Y1443087*
X590170Y1443087*
X591420Y1443087D02*
X591420Y1449025D01*
X602044Y1443087D02*
X597669Y1443087D01*
X597669Y1449025*
X602044Y1449025*
X602044Y1446212D02*
X597669Y1446212D01*
X605169Y1443087D02*
X605169Y1449025D01*
X610169Y1443087*
X610169Y1449025*
X613606Y1443087D02*
X613450Y1443087D01*
X613450Y1443400*
X613606Y1443400*
X613606Y1443087*
X613606Y1446212D02*
X613450Y1446212D01*
X613450Y1446525*
X613606Y1446525*
X613606Y1446212*
X732675Y1504025D02*
X732675Y1505587*
X732675Y1511525D01*
X737050Y1511525*
X737675Y1510900*
X737675Y1509337*
X737050Y1508712*
X732675Y1508712*
X740175Y1505587D02*
X740175Y1511525D01*
X742987Y1505587*
X745800Y1511525*
X745800Y1505587*
X750175Y1446525D02*
X750175Y1448712*
X750800Y1448087D01*
X753925Y1448087*
X754550Y1448712*
X754550Y1450587*
X753925Y1451212*
X750800Y1451212*
X750175Y1451837*
X750175Y1453400*
X750800Y1454025*
X753925Y1454025*
X754550Y1453400*
X762675Y1448712D02*
X762050Y1448087D01*
X758300Y1448087*
X757675Y1448712*
X757675Y1453400*
X758300Y1454025*
X762050Y1454025*
X762675Y1453400*
X765174Y1448087D02*
X765174Y1454025D01*
X767987Y1448087*
X770799Y1454025*
X770799Y1448087*
X777674Y1446525D02*
X780173Y1448087*
X780173Y1454025D01*
X784548Y1454025*
X785173Y1453400*
X785173Y1451837*
X784548Y1451212*
X780173Y1451212*
X783923Y1451212D02*
X784548Y1451212D01*
X785173Y1448087*
X792048Y1448087D02*
X787673Y1448087D01*
X787673Y1454025*
X792048Y1454025*
X792048Y1451212D02*
X787673Y1451212D01*
X795172Y1448087D02*
X795172Y1454025D01*
X799547Y1454025*
X799547Y1451212D02*
X795172Y1451212D01*
X803609Y1448087D02*
X803453Y1448087D01*
X803453Y1448400*
X803609Y1448400*
X803609Y1448087*
X807359Y1448087D02*
X807203Y1448087D01*
X807203Y1448400*
X807359Y1448400*
X807359Y1448087*
X807359Y1451212D02*
X807203Y1451212D01*
X807203Y1451525*
X807359Y1451525*
X807359Y1451212*
X710175Y1284025D02*
X710175Y1285483*
X710592Y1285067D01*
X712675Y1285067*
X713092Y1285483*
X713092Y1286733*
X712675Y1287150*
X710592Y1287150*
X710175Y1287567*
X710175Y1288608*
X710592Y1289025*
X712675Y1289025*
X713092Y1288608*
X715174Y1285067D02*
X715174Y1289025D01*
X718091Y1289025*
X718508Y1288608*
X718508Y1287567*
X718091Y1287150*
X715174Y1287150*
X720903Y1285067D02*
X720903Y1289025D01*
X720486Y1288192*
X723403Y1285067D02*
X723403Y1289025D01*
X722986Y1288192*
X800175Y1294025D02*
X800175Y1295483*
X800592Y1295067D01*
X802675Y1295067*
X803092Y1295483*
X803092Y1296733*
X802675Y1297150*
X800592Y1297150*
X800175Y1297567*
X800175Y1298608*
X800592Y1299025*
X802675Y1299025*
X803092Y1298608*
X805174Y1295067D02*
X805174Y1299025D01*
X808091Y1299025*
X808508Y1298608*
X808508Y1297567*
X808091Y1297150*
X805174Y1297150*
X810903Y1295067D02*
X810903Y1299025D01*
X810486Y1298192*
X812673Y1298608D02*
X813090Y1299025D01*
X815173Y1299025*
X815590Y1298608*
X815590Y1297775*
X815173Y1297358*
X812673Y1295067*
X815590Y1295067*
X742675Y1306525D02*
X743404Y1307567*
X743404Y1311525D01*
X742987Y1310692*
X835175Y1276525D02*
X835904Y1277567*
X835904Y1281525D01*
X835487Y1280692*
X835175Y1299025D02*
X835904Y1300067*
X835904Y1304025D01*
X835487Y1303192*
X545175Y1229025D02*
X545904Y1230067*
X545904Y1234025D01*
X545487Y1233192*
X545175Y1184025D02*
X545904Y1185067*
X545904Y1189025D01*
X545487Y1188192*
X545175Y1139025D02*
X545904Y1140067*
X545904Y1144025D01*
X545487Y1143192*
X667675Y1201525D02*
X668404Y1202567*
X668404Y1206525D01*
X667987Y1205692*
X837675Y1124025D02*
X838404Y1125067*
X838404Y1129025D01*
X837987Y1128192*
X875175Y1109025D02*
X875904Y1110067*
X875904Y1114025D01*
X875487Y1113192*
X927675Y1086525D02*
X928404Y1087567*
X928404Y1091525D01*
X927987Y1090692*
X565175Y1019025D02*
X565904Y1020067*
X565904Y1024025D01*
X565487Y1023192*
X757675Y1026525D02*
X758404Y1027567*
X758404Y1031525D01*
X757987Y1030692*
X545175Y944025D02*
X545904Y945067*
X545904Y949025D01*
X545487Y948192*
X602675Y884025D02*
X603404Y885067*
X603404Y889025D01*
X602987Y888192*
X740175Y884025D02*
X740904Y885067*
X740904Y889025D01*
X740487Y888192*
X802675Y939025D02*
X803404Y940067*
X803404Y944025D01*
X802987Y943192*
X847675Y939025D02*
X848404Y940067*
X848404Y944025D01*
X847987Y943192*
X892675Y939025D02*
X893404Y940067*
X893404Y944025D01*
X892987Y943192*
X942675Y929025D02*
X943404Y930067*
X943404Y934025D01*
X942987Y933192*
X1145175Y886525D02*
X1145904Y887567*
X1145904Y891525D01*
X1145487Y890692*
X1010175Y929025D02*
X1010904Y930067*
X1010904Y934025D01*
X1010487Y933192*
X1112675Y929025D02*
X1113404Y930067*
X1113404Y934025D01*
X1112987Y933192*
X1225175Y929025D02*
X1225904Y930067*
X1225904Y934025D01*
X1225487Y933192*
X1117675Y1124025D02*
X1117675Y1125483*
X1118092Y1125067D01*
X1120175Y1125067*
X1120592Y1125483*
X1120592Y1126733*
X1120175Y1127150*
X1118092Y1127150*
X1117675Y1127567*
X1117675Y1128608*
X1118092Y1129025*
X1120175Y1129025*
X1120592Y1128608*
X1122674Y1125067D02*
X1122674Y1129025D01*
X1125591Y1129025*
X1126008Y1128608*
X1126008Y1127567*
X1125591Y1127150*
X1122674Y1127150*
X1128403Y1125067D02*
X1128403Y1129025D01*
X1127986Y1128192*
X1130173Y1128608D02*
X1130590Y1129025D01*
X1132673Y1129025*
X1133090Y1128608*
X1133090Y1127567*
X1132673Y1127150*
X1131423Y1127150*
X1132673Y1127150*
X1133090Y1126733*
X1133090Y1125692*
X1132673Y1125067*
X1130590Y1125067*
X1130173Y1125483*
X1117675Y1151525D02*
X1117675Y1152983*
X1118092Y1152567D01*
X1120175Y1152567*
X1120592Y1152983*
X1120592Y1154233*
X1120175Y1154650*
X1118092Y1154650*
X1117675Y1155067*
X1117675Y1156108*
X1118092Y1156525*
X1120175Y1156525*
X1120592Y1156108*
X1122674Y1152567D02*
X1122674Y1156525D01*
X1125591Y1156525*
X1126008Y1156108*
X1126008Y1155067*
X1125591Y1154650*
X1122674Y1154650*
X1128403Y1152567D02*
X1128403Y1156525D01*
X1127986Y1155692*
X1132257Y1152567D02*
X1132257Y1156525D01*
X1130173Y1154025*
X1133090Y1154025*
X1252675Y1201525D02*
X1253404Y1202567*
X1253404Y1206525D01*
X1252987Y1205692*
X1202675Y1201525D02*
X1203404Y1202567*
X1203404Y1206525D01*
X1202987Y1205692*
X1105175Y1231525D02*
X1105904Y1232567*
X1105904Y1236525D01*
X1105487Y1235692*
X1060175Y1241525D02*
X1060904Y1242567*
X1060904Y1246525D01*
X1060487Y1245692*
X985175Y1276525D02*
X985904Y1277567*
X985904Y1281525D01*
X985487Y1280692*
X1055175Y1296525D02*
X1055904Y1297567*
X1055904Y1301525D01*
X1055487Y1300692*
X1135175Y1296525D02*
X1135904Y1297567*
X1135904Y1301525D01*
X1135487Y1300692*
X1215175Y1296525D02*
X1215904Y1297567*
X1215904Y1301525D01*
X1215487Y1300692*
X1152675Y1241525D02*
X1153404Y1242567*
X1153404Y1246525D01*
X1152987Y1245692*
X812675Y1326525D02*
X813404Y1327567*
X813404Y1331525D01*
X812987Y1330692*
X1112675Y879025D02*
X1113092Y882150*
X1115592Y882150D01*
X1114342Y880900D02*
X1114342Y883400D01*
X822675Y981525D02*
X820800Y983192*
X819550Y981525D01*
X818092Y983192*
X1267675Y1249025D02*
X1268092Y1252150*
X1270592Y1252150D01*
X1269342Y1250900D02*
X1269342Y1253400D01*
X1222675Y1249025D02*
X1223092Y1252150*
X1225592Y1252150D01*
X1224342Y1250900D02*
X1224342Y1253400D01*
X1075175Y1259025D02*
X1075592Y1262150*
X1078092Y1262150D01*
X1076842Y1260900D02*
X1076842Y1263400D01*
X1040175Y1061525D02*
X1040175Y1066525*
X1041842Y1064650D01*
X1043508Y1066525*
X1041842Y1064650D02*
X1041842Y1062567D01*
X1045591Y1064650D02*
X1048091Y1064650D01*
X1051840Y1064233D02*
X1053507Y1064233D01*
X1053507Y1062983*
X1053090Y1062567*
X1050590Y1062567*
X1050174Y1062983*
X1050174Y1066108*
X1050590Y1066525*
X1053090Y1066525*
X1053507Y1066108*
X1055173Y1062567D02*
X1056840Y1066525D01*
X1058506Y1062567*
X1055798Y1064025D02*
X1057881Y1064025D01*
X1061006Y1062567D02*
X1061006Y1066525D01*
X1060589Y1062567D02*
X1061422Y1062567D01*
X1060589Y1066525D02*
X1061422Y1066525D01*
X1062672Y1062567D02*
X1062672Y1066525D01*
X1066005Y1062567*
X1066005Y1066525*
X1142675Y1061525D02*
X1142675Y1066525*
X1144342Y1062567D01*
X1146008Y1066525*
X1148091Y1064650D02*
X1150591Y1064650D01*
X1154340Y1064233D02*
X1156007Y1064233D01*
X1156007Y1062983*
X1155590Y1062567*
X1153090Y1062567*
X1152674Y1062983*
X1152674Y1066108*
X1153090Y1066525*
X1155590Y1066525*
X1156007Y1066108*
X1157673Y1062567D02*
X1159340Y1066525D01*
X1161006Y1062567*
X1158298Y1064025D02*
X1160381Y1064025D01*
X1163506Y1062567D02*
X1163506Y1066525D01*
X1163089Y1062567D02*
X1163922Y1062567D01*
X1163089Y1066525D02*
X1163922Y1066525D01*
X1165172Y1062567D02*
X1165172Y1066525D01*
X1168505Y1062567*
X1168505Y1066525*
X1107675Y1056525D02*
X1107675Y1061525*
X1109342Y1057567D01*
X1111008Y1061525*
X1113091Y1059650D02*
X1115591Y1059650D01*
X1117674Y1061525D02*
X1119757Y1061525D01*
X1120590Y1061108*
X1121007Y1060275*
X1121007Y1058817*
X1120590Y1057983*
X1119757Y1057567*
X1117674Y1057567*
X1118507Y1057567D02*
X1118507Y1061525D01*
X1125590Y1057567D02*
X1122673Y1057567D01*
X1122673Y1061525*
X1125590Y1061525*
X1125590Y1059650D02*
X1122673Y1059650D01*
X1130589Y1057567D02*
X1127672Y1057567D01*
X1127672Y1061525*
X1210175Y1056525D02*
X1210175Y1061525*
X1210175Y1057983D01*
X1210592Y1057567*
X1213092Y1057567*
X1213508Y1057983*
X1213508Y1061525*
X1215591Y1059650D02*
X1218091Y1059650D01*
X1220174Y1061525D02*
X1222257Y1061525D01*
X1223090Y1061108*
X1223507Y1060275*
X1223507Y1058817*
X1223090Y1057983*
X1222257Y1057567*
X1220174Y1057567*
X1221007Y1057567D02*
X1221007Y1061525D01*
X1228090Y1057567D02*
X1225173Y1057567D01*
X1225173Y1061525*
X1228090Y1061525*
X1228090Y1059650D02*
X1225173Y1059650D01*
X1233089Y1057567D02*
X1230172Y1057567D01*
X1230172Y1061525*
X1245175Y1061525D02*
X1245175Y1066525*
X1245175Y1062983D01*
X1245592Y1062567*
X1248092Y1062567*
X1248508Y1062983*
X1248508Y1066525*
X1250591Y1064650D02*
X1253091Y1064650D01*
X1256840Y1064233D02*
X1258507Y1064233D01*
X1258507Y1062983*
X1258090Y1062567*
X1255590Y1062567*
X1255174Y1062983*
X1255174Y1066108*
X1255590Y1066525*
X1258090Y1066525*
X1258507Y1066108*
X1260173Y1062567D02*
X1261840Y1066525D01*
X1263506Y1062567*
X1260798Y1064025D02*
X1262881Y1064025D01*
X1266006Y1062567D02*
X1266006Y1066525D01*
X1265589Y1062567D02*
X1266422Y1062567D01*
X1265589Y1066525D02*
X1266422Y1066525D01*
X1267672Y1062567D02*
X1267672Y1066525D01*
X1271005Y1062567*
X1271005Y1066525*
X575175Y1064025D02*
X575904Y1065067*
X575904Y1069025D01*
X575487Y1068192*
X872675Y999025D02*
X873092Y1002775*
X875592Y1002775D01*
X873508Y1001525D02*
X875175Y1004025D01*
X873508Y1004025D02*
X875175Y1001525D01*
X882675Y999025D02*
X883092Y1002775*
X885592Y1002775D01*
X883508Y1001525D02*
X885175Y1004025D01*
X883508Y1004025D02*
X885175Y1001525D01*
X955175Y884025D02*
X955592Y887775*
X958092Y887775D01*
X956008Y886525D02*
X957675Y889025D01*
X956008Y889025D02*
X957675Y886525D01*
X955175Y874025D02*
X955592Y877775*
X958092Y877775D01*
X956008Y876525D02*
X957675Y879025D01*
X956008Y879025D02*
X957675Y876525D01*
X1267675Y1226525D02*
X1268092Y1229650*
X1270592Y1229650D01*
X1269342Y1228400D02*
X1269342Y1230900D01*
X1220175Y1226525D02*
X1220592Y1229650*
X1223092Y1229650D01*
X1221842Y1228400D02*
X1221842Y1230900D01*
X1125175Y1261525D02*
X1125592Y1264650*
X1128092Y1264650D01*
X1126842Y1263400D02*
X1126842Y1265900D01*
X1040175Y886525D02*
X1040175Y887567*
X1040175Y891525D01*
X1043092Y891525*
X1043508Y891108*
X1043508Y890067*
X1043092Y889650*
X1040175Y889650*
X1045174Y887567D02*
X1045174Y891525D01*
X1048091Y891525*
X1048508Y891108*
X1048508Y890067*
X1048091Y889650*
X1045174Y889650*
X1050174Y889442D02*
X1050590Y889858D01*
X1052674Y889858*
X1053090Y889442*
X1053090Y887983*
X1052674Y887567*
X1050590Y887567*
X1050174Y887983*
X1050174Y891108*
X1050590Y891525*
X1052674Y891525*
X1053090Y891108*
X1040175Y914025D02*
X1040175Y915067*
X1040175Y919025D01*
X1043092Y919025*
X1043508Y918608*
X1043508Y917567*
X1043092Y917150*
X1040175Y917150*
X1045174Y915067D02*
X1045174Y919025D01*
X1048091Y919025*
X1048508Y918608*
X1048508Y917567*
X1048091Y917150*
X1045174Y917150*
X1050174Y919025D02*
X1053090Y919025D01*
X1050590Y915067*
X545175Y914025D02*
X546217Y914025*
X550175Y914025D01*
X550175Y911108*
X549758Y910692*
X548717Y910692*
X548300Y911108*
X548300Y914025*
X546217Y909026D02*
X550175Y909026D01*
X550175Y906109*
X549758Y905692*
X548717Y905692*
X548300Y906109*
X548300Y909026*
X546217Y903297D02*
X550175Y903297D01*
X549342Y903714*
X555175Y914025D02*
X556217Y914025*
X560175Y914025D01*
X560175Y911108*
X559758Y910692*
X558717Y910692*
X558300Y911108*
X558300Y914025*
X556217Y909026D02*
X560175Y909026D01*
X560175Y906109*
X559758Y905692*
X558717Y905692*
X558300Y906109*
X558300Y909026*
X559758Y904026D02*
X560175Y903610D01*
X560175Y901526*
X559758Y901110*
X558925Y901110*
X558508Y901526*
X556217Y904026*
X556217Y901110*
X565175Y914025D02*
X566217Y914025*
X570175Y914025D01*
X570175Y911108*
X569758Y910692*
X568717Y910692*
X568300Y911108*
X568300Y914025*
X566217Y909026D02*
X570175Y909026D01*
X570175Y906109*
X569758Y905692*
X568717Y905692*
X568300Y906109*
X568300Y909026*
X569758Y904026D02*
X570175Y903610D01*
X570175Y901526*
X569758Y901110*
X568717Y901110*
X568300Y901526*
X568300Y902776*
X568300Y901526*
X567883Y901110*
X566842Y901110*
X566217Y901526*
X566217Y903610*
X566633Y904026*
X575175Y914025D02*
X576217Y914025*
X580175Y914025D01*
X580175Y911108*
X579758Y910692*
X578717Y910692*
X578300Y911108*
X578300Y914025*
X576217Y909026D02*
X580175Y909026D01*
X580175Y906109*
X579758Y905692*
X578717Y905692*
X578300Y906109*
X578300Y909026*
X576217Y901943D02*
X580175Y901943D01*
X577675Y904026*
X577675Y901110*
X582675Y914025D02*
X583717Y914025*
X587675Y914025D01*
X587675Y911108*
X587258Y910692*
X586217Y910692*
X585800Y911108*
X585800Y914025*
X583717Y909026D02*
X587675Y909026D01*
X587675Y906109*
X587258Y905692*
X586217Y905692*
X585800Y906109*
X585800Y909026*
X584133Y904026D02*
X583717Y903610D01*
X583717Y901526*
X584133Y901110*
X585592Y901110*
X586008Y901526*
X586008Y903610*
X585592Y904026*
X587675Y904026*
X587675Y901110*
X507675Y1504025D02*
X507675Y1505587*
X510175Y1511525D01*
X512675Y1505587*
X508612Y1507775D02*
X511737Y1507775D01*
X562675Y1504025D02*
X562675Y1505587*
X562675Y1511525D01*
X567050Y1511525*
X567675Y1510900*
X567675Y1509337*
X567050Y1508712*
X562675Y1508712*
X575175Y1506212D02*
X574550Y1505587D01*
X570800Y1505587*
X570175Y1506212*
X570175Y1510900*
X570800Y1511525*
X574550Y1511525*
X575175Y1510900*
X577674Y1505587D02*
X577674Y1511525D01*
X582049Y1511525*
X582674Y1510900*
X582674Y1509337*
X582049Y1508712*
X577674Y1508712D02*
X582049Y1508712D01*
X582674Y1508087*
X582674Y1506212*
X582049Y1505587*
X577674Y1505587*
X590174Y1504025D02*
X592673Y1505587*
X592673Y1511525D01*
X597673Y1505587*
X597673Y1511525*
X600173Y1505587D02*
X602673Y1511525D01*
X605173Y1505587*
X601110Y1507775D02*
X604235Y1507775D01*
X607672Y1505587D02*
X607672Y1511525D01*
X610485Y1505587*
X613297Y1511525*
X613297Y1505587*
X619547Y1505587D02*
X615172Y1505587D01*
X615172Y1511525*
X619547Y1511525*
X619547Y1508712D02*
X615172Y1508712D01*
X670175Y1504025D02*
X670175Y1505587*
X670175Y1511525D01*
X674550Y1511525*
X675175Y1510900*
X675175Y1509337*
X674550Y1508712*
X670175Y1508712D02*
X674550Y1508712D01*
X675175Y1508087*
X675175Y1506212*
X674550Y1505587*
X670175Y1505587*
X682675Y1506525D02*
X681737Y1505587D01*
X678612Y1505587*
X677675Y1506525*
X677675Y1510587*
X678612Y1511525*
X681737Y1511525*
X682675Y1510587*
X682675Y1506525*
X685174Y1505587D02*
X687674Y1511525D01*
X690174Y1505587*
X686112Y1507775D02*
X689237Y1507775D01*
X693767Y1505587D02*
X693767Y1511525D01*
X693142Y1510275*
X696423Y1511525D02*
X700798Y1511525D01*
X697048Y1505587*
X708298Y1506212D02*
X707673Y1505587D01*
X704548Y1505587*
X703923Y1506212*
X703923Y1510900*
X704548Y1511525*
X707673Y1511525*
X708298Y1510900*
X708298Y1506212*
X703923Y1506212D02*
X708298Y1510900D01*
X750175Y1504025D02*
X750175Y1506212*
X750800Y1505587D01*
X753925Y1505587*
X754550Y1506212*
X754550Y1508400*
X753925Y1509025*
X750800Y1509025*
X750175Y1508400*
X750175Y1511525*
X754550Y1511525*
X757675Y1508400D02*
X758300Y1509025D01*
X761425Y1509025*
X762050Y1508400*
X762050Y1506212*
X761425Y1505587*
X758300Y1505587*
X757675Y1506212*
X757675Y1510900*
X758300Y1511525*
X761425Y1511525*
X762050Y1510900*
X768299Y1505587D02*
X768299Y1511525D01*
X765174Y1507775*
X769549Y1507775*
X775799Y1505587D02*
X775799Y1511525D01*
X772674Y1507775*
X777049Y1507775*
X780173Y1505587D02*
X785173Y1511525D01*
X787673Y1511525D02*
X787673Y1506212D01*
X788298Y1505587*
X792048Y1505587*
X792673Y1506212*
X792673Y1511525*
X795172Y1506212D02*
X795797Y1505587D01*
X798922Y1505587*
X799547Y1506212*
X799547Y1508400*
X798922Y1509025*
X795797Y1509025*
X795172Y1508400*
X795172Y1511525*
X799547Y1511525*
X560175Y1456525D02*
X565175Y1458712*
X564550Y1458087D01*
X560800Y1458087*
X560175Y1458712*
X560175Y1463400*
X560800Y1464025*
X564550Y1464025*
X565175Y1463400*
X572675Y1459025D02*
X571737Y1458087D01*
X568612Y1458087*
X567675Y1459025*
X567675Y1463087*
X568612Y1464025*
X571737Y1464025*
X572675Y1463087*
X572675Y1459025*
X575174Y1458087D02*
X575174Y1464025D01*
X577987Y1458087*
X580799Y1464025*
X580799Y1458087*
X582674Y1458087D02*
X582674Y1464025D01*
X587049Y1464025*
X587674Y1463400*
X587674Y1461837*
X587049Y1461212*
X582674Y1461212*
X595173Y1459025D02*
X594236Y1458087D01*
X591111Y1458087*
X590173Y1459025*
X590173Y1463087*
X591111Y1464025*
X594236Y1464025*
X595173Y1463087*
X595173Y1459025*
X597673Y1458087D02*
X597673Y1464025D01*
X602673Y1458087*
X602673Y1464025*
X609547Y1458087D02*
X605172Y1458087D01*
X605172Y1464025*
X609547Y1464025*
X609547Y1461212D02*
X605172Y1461212D01*
X612672Y1458087D02*
X612672Y1464025D01*
X617672Y1458087*
X617672Y1464025*
X620171Y1464025D02*
X625171Y1464025D01*
X622671Y1464025D02*
X622671Y1458087D01*
X632671Y1456525D02*
X635170Y1458087*
X635170Y1464025D01*
X640170Y1458087*
X640170Y1464025*
X647670Y1459025D02*
X646732Y1458087D01*
X643607Y1458087*
X642670Y1459025*
X642670Y1463087*
X643607Y1464025*
X646732Y1464025*
X647670Y1463087*
X647670Y1459025*
X650169Y1464025D02*
X655169Y1464025D01*
X652669Y1464025D02*
X652669Y1458087D01*
X657669Y1458087D02*
X660169Y1464025D01*
X662669Y1458087*
X658606Y1460275D02*
X661731Y1460275D01*
X665168Y1464025D02*
X670168Y1464025D01*
X667668Y1464025D02*
X667668Y1458087D01*
X673918Y1458087D02*
X673918Y1464025D01*
X673293Y1458087D02*
X674543Y1458087D01*
X673293Y1464025D02*
X674543Y1464025D01*
X681418Y1459025D02*
X680480Y1458087D01*
X677355Y1458087*
X676418Y1459025*
X676418Y1463087*
X677355Y1464025*
X680480Y1464025*
X681418Y1463087*
X681418Y1459025*
X683917Y1458087D02*
X683917Y1464025D01*
X688917Y1458087*
X688917Y1464025*
X507675Y1456525D02*
X512050Y1458087*
X507675Y1458087D01*
X507675Y1464025*
X515175Y1463400D02*
X515800Y1464025D01*
X518925Y1464025*
X519550Y1463400*
X519550Y1462150*
X518925Y1461525*
X515175Y1458087*
X519550Y1458087*
X817675Y1446525D02*
X820800Y1448087*
X820800Y1454025D01*
X817675Y1450275*
X822050Y1450275*
X829550Y1448712D02*
X828925Y1448087D01*
X825800Y1448087*
X825175Y1448712*
X825175Y1453400*
X825800Y1454025*
X828925Y1454025*
X829550Y1453400*
X829550Y1448712*
X825175Y1448712D02*
X829550Y1453400D01*
X837049Y1448712D02*
X836424Y1448087D01*
X833299Y1448087*
X832674Y1448712*
X832674Y1453400*
X833299Y1454025*
X836424Y1454025*
X837049Y1453400*
X837049Y1448712*
X832674Y1448712D02*
X837049Y1453400D01*
X840174Y1448712D02*
X840174Y1450587D01*
X840799Y1451212*
X843924Y1451212*
X844549Y1451837*
X844549Y1453400*
X843924Y1454025*
X840799Y1454025*
X840174Y1453400*
X840174Y1451837*
X840799Y1451212*
X843924Y1451212*
X844549Y1450587*
X844549Y1448712*
X843924Y1448087*
X840799Y1448087*
X840174Y1448712*
X852673Y1446525D02*
X856266Y1448087*
X856266Y1454025D01*
X855641Y1452775*
X863297Y1448712D02*
X862672Y1448087D01*
X859547Y1448087*
X858922Y1448712*
X858922Y1453400*
X859547Y1454025*
X862672Y1454025*
X863297Y1453400*
X863297Y1448712*
X858922Y1448712D02*
X863297Y1453400D01*
X870797Y1451525D02*
X870172Y1450900D01*
X866734Y1450900*
X866422Y1451525*
X866422Y1453400*
X867047Y1454025*
X870172Y1454025*
X870797Y1453400*
X870797Y1448712*
X870172Y1448087*
X867047Y1448087*
X866422Y1448712*
X878921Y1446525D02*
X881421Y1454025*
X885796Y1454025D01*
X882046Y1448087*
X888921Y1453400D02*
X889546Y1454025D01*
X892671Y1454025*
X893296Y1453400*
X893296Y1452150*
X892671Y1451525*
X888921Y1448087*
X893296Y1448087*
X900795Y1451525D02*
X900170Y1450900D01*
X896733Y1450900*
X896420Y1451525*
X896420Y1453400*
X897045Y1454025*
X900170Y1454025*
X900795Y1453400*
X900795Y1448712*
X900170Y1448087*
X897045Y1448087*
X896420Y1448712*
X903920Y1450900D02*
X904545Y1451525D01*
X907670Y1451525*
X908295Y1450900*
X908295Y1448712*
X907670Y1448087*
X904545Y1448087*
X903920Y1448712*
X903920Y1453400*
X904545Y1454025*
X907670Y1454025*
X908295Y1453400*
X517675Y1504025D02*
X522050Y1506212*
X521425Y1505587D01*
X518300Y1505587*
X517675Y1506212*
X517675Y1510900*
X518300Y1511525*
X521425Y1511525*
X522050Y1510900*
X522050Y1506212*
X517675Y1506212D02*
X522050Y1510900D01*
X525175Y1506212D02*
X525800Y1505587D01*
X528925Y1505587*
X529550Y1506212*
X529550Y1508400*
X528925Y1509025*
X525800Y1509025*
X525175Y1508400*
X525175Y1511525*
X529550Y1511525*
X537049Y1506212D02*
X536424Y1505587D01*
X533299Y1505587*
X532674Y1506212*
X532674Y1510900*
X533299Y1511525*
X536424Y1511525*
X537049Y1510900*
X537049Y1506212*
X532674Y1506212D02*
X537049Y1510900D01*
X540174Y1511525D02*
X544549Y1511525D01*
X540799Y1505587*
X547673Y1510900D02*
X548298Y1511525D01*
X551423Y1511525*
X552048Y1510900*
X552048Y1509650*
X551423Y1509025*
X547673Y1505587*
X552048Y1505587*
X685175Y1441525D02*
X685175Y1443087*
X690175Y1449025D01*
X692675Y1443087D02*
X692675Y1449025D01*
X697050Y1449025*
X697675Y1448400*
X697675Y1446837*
X697050Y1446212*
X692675Y1446212*
X705174Y1443712D02*
X704549Y1443087D01*
X700799Y1443087*
X700174Y1443712*
X700174Y1448400*
X700799Y1449025*
X704549Y1449025*
X705174Y1448400*
X707674Y1443087D02*
X712674Y1449025D01*
X715173Y1443712D02*
X715798Y1443087D01*
X717673Y1443087*
X718298Y1443712*
X718298Y1449025*
X722673Y1443087D02*
X722673Y1449025D01*
X725485Y1443087*
X728298Y1449025*
X728298Y1443087*
X734547Y1443087D02*
X730172Y1443087D01*
X730172Y1449025*
X910175Y1276525D02*
X910904Y1277567*
X910904Y1281525D01*
X910487Y1280692*
X622675Y1441525D02*
X627050Y1446525*
X626425Y1445900D01*
X622987Y1445900*
X622675Y1446525*
X622675Y1448400*
X623300Y1449025*
X626425Y1449025*
X627050Y1448400*
X627050Y1443712*
X626425Y1443087*
X623300Y1443087*
X622675Y1443712*
X630175Y1443712D02*
X630800Y1443087D01*
X633925Y1443087*
X634550Y1443712*
X634550Y1445900*
X633925Y1446525*
X630800Y1446525*
X630175Y1445900*
X630175Y1449025*
X634550Y1449025*
X638299Y1446212D02*
X642049Y1446212D01*
X649549Y1443712D02*
X648924Y1443087D01*
X645799Y1443087*
X645174Y1443712*
X645174Y1448400*
X645799Y1449025*
X648924Y1449025*
X649549Y1448400*
X649549Y1443712*
X645174Y1443712D02*
X649549Y1448400D01*
X652673Y1448400D02*
X653298Y1449025D01*
X656423Y1449025*
X657048Y1448400*
X657048Y1446837*
X656423Y1446212*
X654548Y1446212*
X656423Y1446212*
X657048Y1445587*
X657048Y1444025*
X656423Y1443087*
X653298Y1443087*
X652673Y1443712*
X660798Y1446212D02*
X664548Y1446212D01*
X668766Y1443087D02*
X668766Y1449025D01*
X668141Y1447775*
X671422Y1443712D02*
X672047Y1443087D01*
X675172Y1443087*
X675797Y1443712*
X675797Y1445900*
X675172Y1446525*
X672047Y1446525*
X671422Y1445900*
X671422Y1449025*
X675797Y1449025*
M02*
