G04 Created by GerbView*
%FSLAX25Y25*%
%MOIN*%
G75*
%ADD10C,0.0010*%
%ADD11C,0.0500*%
%ADD12C,0.1880*%
%ADD13C,0.1380*%
%ADD14C,0.1000*%
%ADD15C,0.0800*%
%ADD16C,0.1200*%
%ADD17C,0.0600*%
%ADD18R,0.0800X0.0800*%
%ADD19R,0.0600X0.0600*%
%ADD20C,0.0700*%
%LNEXPORT*%
D02*
G36*
X525175Y1361525D02*
X1297675D01*
Y854025D01*
X525175D01*
Y1361525D01*
G37*
D10*
%LPC*%
X525175Y854025D02*
Y1361525D01*
X837675D01*
Y1349025D01*
X987675D01*
Y1361525D01*
X1297675D01*
Y854025D01*
X525175D01*
D11*
X525175Y1361525D02*
X837675D01*
Y1349025D01*
X987675D01*
Y1361525D01*
X1297675D01*
Y854025D01*
X525175D01*
Y1361525D01*
D12*
X560175Y886525D03*
D12*
X1262675Y886525D03*
D12*
X685175Y1246525D03*
D12*
X1005175Y1336525D03*
D12*
X1197675Y1256525D03*
D12*
X555175Y1094025D03*
D12*
X900175Y1049025D03*
D14*
X1127675Y909025D03*
D11*
%LPD*%
D15*
X1127675Y909025D03*
D11*
%LPC*%
D14*
X1107675Y909025D03*
D11*
%LPD*%
D15*
X1107675Y909025D03*
D11*
%LPC*%
D14*
X1212675Y954025D03*
D11*
%LPD*%
D15*
X1212675Y954025D03*
D11*
%LPC*%
D14*
X1192675Y954025D03*
D11*
%LPD*%
D15*
X1192675Y954025D03*
D11*
%LPC*%
D14*
X1195175Y1036525D03*
D11*
%LPD*%
D15*
X1195175Y1036525D03*
D11*
%LPC*%
D14*
X1195175Y1056525D03*
D11*
%LPD*%
D15*
X1195175Y1056525D03*
D11*
%LPC*%
D14*
X1097675Y944025D03*
D11*
%LPD*%
D15*
X1097675Y944025D03*
D11*
%LPC*%
D14*
X1097675Y924025D03*
D11*
%LPD*%
D15*
X1097675Y924025D03*
D11*
%LPC*%
D14*
X1092675Y1036525D03*
D11*
%LPD*%
D15*
X1092675Y1036525D03*
D11*
%LPC*%
D14*
X1092675Y1056525D03*
D11*
%LPD*%
D15*
X1092675Y1056525D03*
D11*
%LPC*%
D14*
X997675Y949025D03*
D11*
%LPD*%
D15*
X997675Y949025D03*
D11*
%LPC*%
D14*
X977675Y949025D03*
D11*
%LPD*%
D15*
X977675Y949025D03*
D11*
%LPC*%
D14*
X977675Y1044025D03*
D11*
%LPD*%
D15*
X977675Y1044025D03*
D11*
%LPC*%
D14*
X977675Y1064025D03*
D11*
%LPD*%
D15*
X977675Y1064025D03*
D11*
%LPC*%
D14*
X1132675Y894025D03*
D11*
%LPD*%
D15*
X1132675Y894025D03*
D11*
%LPC*%
D14*
X1132675Y874025D03*
D11*
%LPD*%
D15*
X1132675Y874025D03*
D11*
%LPC*%
D14*
X1282675Y934025D03*
D11*
%LPD*%
D15*
X1282675Y934025D03*
D11*
%LPC*%
D14*
X1282675Y914025D03*
D11*
%LPD*%
D15*
X1282675Y914025D03*
D11*
%LPC*%
D14*
X1285175Y1039025D03*
D11*
%LPD*%
D15*
X1285175Y1039025D03*
D11*
%LPC*%
D14*
X1285175Y1059025D03*
D11*
%LPD*%
D15*
X1285175Y1059025D03*
D11*
%LPC*%
D14*
X1192675Y944025D03*
D11*
%LPD*%
D15*
X1192675Y944025D03*
D11*
%LPC*%
D14*
X1192675Y924025D03*
D11*
%LPD*%
D15*
X1192675Y924025D03*
D11*
%LPC*%
D14*
X1182675Y1039025D03*
D11*
%LPD*%
D15*
X1182675Y1039025D03*
D11*
%LPC*%
D14*
X1182675Y1059025D03*
D11*
%LPD*%
D15*
X1182675Y1059025D03*
D11*
%LPC*%
D14*
X1087675Y954025D03*
D11*
%LPD*%
D15*
X1087675Y954025D03*
D11*
%LPC*%
D14*
X1087675Y934025D03*
D11*
%LPD*%
D15*
X1087675Y934025D03*
D11*
%LPC*%
D14*
X1080175Y1039025D03*
D11*
%LPD*%
D15*
X1080175Y1039025D03*
D11*
%LPC*%
D14*
X1080175Y1059025D03*
D11*
%LPD*%
D15*
X1080175Y1059025D03*
D11*
%LPC*%
D14*
X1115175Y874025D03*
D11*
%LPD*%
D15*
X1115175Y874025D03*
D11*
%LPC*%
%LPD*%
G36*
X1110932Y876853D02*
X1112346Y878267D01*
X1119417Y871196D01*
X1118003Y869782D01*
X1110932Y876853D01*
G37*
%LPC*%
%LPD*%
G36*
X1112346Y869782D02*
X1110932Y871196D01*
X1118003Y878267D01*
X1119417Y876853D01*
X1112346Y869782D01*
G37*
%LPC*%
D14*
X1115175Y894025D03*
D11*
%LPD*%
D15*
X1115175Y894025D03*
D11*
%LPC*%
D14*
X592675Y909025D03*
D11*
%LPD*%
D15*
X592675Y909025D03*
D11*
%LPC*%
%LPD*%
G36*
X588432Y911853D02*
X589846Y913267D01*
X596917Y906196D01*
X595503Y904782D01*
X588432Y911853D01*
G37*
%LPC*%
%LPD*%
G36*
X589846Y904782D02*
X588432Y906196D01*
X595503Y913267D01*
X596917Y911853D01*
X589846Y904782D01*
G37*
%LPC*%
D14*
X592675Y889025D03*
D11*
%LPD*%
D15*
X592675Y889025D03*
D11*
%LPC*%
D14*
X550175Y1029025D03*
D11*
%LPD*%
D15*
X550175Y1029025D03*
D11*
%LPC*%
%LPD*%
G36*
X545932Y1031853D02*
X547346Y1033267D01*
X554417Y1026196D01*
X553003Y1024782D01*
X545932Y1031853D01*
G37*
%LPC*%
%LPD*%
G36*
X547346Y1024782D02*
X545932Y1026196D01*
X553003Y1033267D01*
X554417Y1031853D01*
X547346Y1024782D01*
G37*
%LPC*%
D14*
X550175Y1009025D03*
D11*
%LPD*%
D15*
X550175Y1009025D03*
D11*
%LPC*%
D14*
X562675Y1119025D03*
D11*
%LPD*%
D15*
X562675Y1119025D03*
D11*
%LPC*%
%LPD*%
G36*
X558432Y1121853D02*
X559846Y1123267D01*
X566917Y1116196D01*
X565503Y1114782D01*
X558432Y1121853D01*
G37*
%LPC*%
%LPD*%
G36*
X559846Y1114782D02*
X558432Y1116196D01*
X565503Y1123267D01*
X566917Y1121853D01*
X559846Y1114782D01*
G37*
%LPC*%
D14*
X542675Y1119025D03*
D11*
%LPD*%
D15*
X542675Y1119025D03*
D11*
%LPC*%
D14*
X705175Y1161525D03*
D11*
%LPD*%
D15*
X705175Y1161525D03*
D11*
%LPC*%
%LPD*%
G36*
X700932Y1164353D02*
X702346Y1165767D01*
X709417Y1158696D01*
X708003Y1157282D01*
X700932Y1164353D01*
G37*
%LPC*%
%LPD*%
G36*
X702346Y1157282D02*
X700932Y1158696D01*
X708003Y1165767D01*
X709417Y1164353D01*
X702346Y1157282D01*
G37*
%LPC*%
D14*
X705175Y1141525D03*
D11*
%LPD*%
D15*
X705175Y1141525D03*
D11*
%LPC*%
D14*
X652675Y1206525D03*
D11*
%LPD*%
D15*
X652675Y1206525D03*
D11*
%LPC*%
%LPD*%
G36*
X648432Y1209353D02*
X649846Y1210767D01*
X656917Y1203696D01*
X655503Y1202282D01*
X648432Y1209353D01*
G37*
%LPC*%
%LPD*%
G36*
X649846Y1202282D02*
X648432Y1203696D01*
X655503Y1210767D01*
X656917Y1209353D01*
X649846Y1202282D01*
G37*
%LPC*%
D14*
X652675Y1186525D03*
D11*
%LPD*%
D15*
X652675Y1186525D03*
D11*
%LPC*%
D14*
X822675Y1324025D03*
D11*
%LPD*%
D15*
X822675Y1324025D03*
D11*
%LPC*%
%LPD*%
G36*
X818432Y1326853D02*
X819846Y1328267D01*
X826917Y1321196D01*
X825503Y1319782D01*
X818432Y1326853D01*
G37*
%LPC*%
%LPD*%
G36*
X819846Y1319782D02*
X818432Y1321196D01*
X825503Y1328267D01*
X826917Y1326853D01*
X819846Y1319782D01*
G37*
%LPC*%
D14*
X822675Y1304025D03*
D11*
%LPD*%
D15*
X822675Y1304025D03*
D11*
%LPC*%
D14*
X975175Y1299025D03*
D11*
%LPD*%
D15*
X975175Y1299025D03*
D11*
%LPC*%
%LPD*%
G36*
X970932Y1301853D02*
X972346Y1303267D01*
X979417Y1296196D01*
X978003Y1294782D01*
X970932Y1301853D01*
G37*
%LPC*%
%LPD*%
G36*
X972346Y1294782D02*
X970932Y1296196D01*
X978003Y1303267D01*
X979417Y1301853D01*
X972346Y1294782D01*
G37*
%LPC*%
D14*
X975175Y1319025D03*
D11*
%LPD*%
D15*
X975175Y1319025D03*
D11*
%LPC*%
D14*
X1125175Y1334025D03*
D11*
%LPD*%
D15*
X1125175Y1334025D03*
D11*
%LPC*%
%LPD*%
G36*
X1120932Y1336853D02*
X1122346Y1338267D01*
X1129417Y1331196D01*
X1128003Y1329782D01*
X1120932Y1336853D01*
G37*
%LPC*%
%LPD*%
G36*
X1122346Y1329782D02*
X1120932Y1331196D01*
X1128003Y1338267D01*
X1129417Y1336853D01*
X1122346Y1329782D01*
G37*
%LPC*%
D14*
X1145175Y1334025D03*
D11*
%LPD*%
D15*
X1145175Y1334025D03*
D11*
%LPC*%
D14*
X1185175Y1334025D03*
D11*
%LPD*%
D15*
X1185175Y1334025D03*
D11*
%LPC*%
%LPD*%
G36*
X1180932Y1336853D02*
X1182346Y1338267D01*
X1189417Y1331196D01*
X1188003Y1329782D01*
X1180932Y1336853D01*
G37*
%LPC*%
%LPD*%
G36*
X1182346Y1329782D02*
X1180932Y1331196D01*
X1188003Y1338267D01*
X1189417Y1336853D01*
X1182346Y1329782D01*
G37*
%LPC*%
D14*
X1205175Y1334025D03*
D11*
%LPD*%
D15*
X1205175Y1334025D03*
D11*
%LPC*%
D14*
X1247675Y1334025D03*
D11*
%LPD*%
D15*
X1247675Y1334025D03*
D11*
%LPC*%
%LPD*%
G36*
X1243432Y1336853D02*
X1244846Y1338267D01*
X1251917Y1331196D01*
X1250503Y1329782D01*
X1243432Y1336853D01*
G37*
%LPC*%
%LPD*%
G36*
X1244846Y1329782D02*
X1243432Y1331196D01*
X1250503Y1338267D01*
X1251917Y1336853D01*
X1244846Y1329782D01*
G37*
%LPC*%
D14*
X1267675Y1334025D03*
D11*
%LPD*%
D15*
X1267675Y1334025D03*
D11*
%LPC*%
D14*
X812675Y1074025D03*
D11*
%LPD*%
D15*
X812675Y1074025D03*
D11*
%LPC*%
%LPD*%
G36*
X808432Y1076853D02*
X809846Y1078267D01*
X816917Y1071196D01*
X815503Y1069782D01*
X808432Y1076853D01*
G37*
%LPC*%
%LPD*%
G36*
X809846Y1069782D02*
X808432Y1071196D01*
X815503Y1078267D01*
X816917Y1076853D01*
X809846Y1069782D01*
G37*
%LPC*%
D14*
X812675Y1054025D03*
D11*
%LPD*%
D15*
X812675Y1054025D03*
D11*
%LPC*%
D14*
X947675Y1004025D03*
D11*
%LPD*%
D15*
X947675Y1004025D03*
D11*
%LPC*%
%LPD*%
G36*
X943432Y1006853D02*
X944846Y1008267D01*
X951917Y1001196D01*
X950503Y999782D01*
X943432Y1006853D01*
G37*
%LPC*%
%LPD*%
G36*
X944846Y999782D02*
X943432Y1001196D01*
X950503Y1008267D01*
X951917Y1006853D01*
X944846Y999782D01*
G37*
%LPC*%
D14*
X927675Y1004025D03*
D11*
%LPD*%
D15*
X927675Y1004025D03*
D11*
%LPC*%
D16*
X820175Y976525D03*
D11*
%LPD*%
D14*
X820175Y976525D03*
D11*
%LPC*%
D16*
X800175Y976525D03*
D11*
%LPD*%
D14*
X800175Y976525D03*
D11*
%LPC*%
D15*
X737675Y929025D03*
D11*
%LPD*%
D17*
X737675Y929025D03*
D11*
%LPC*%
D15*
X737675Y909025D03*
D11*
%LPD*%
D17*
X737675Y909025D03*
D11*
%LPC*%
D15*
X682675Y929025D03*
D11*
%LPD*%
D17*
X682675Y929025D03*
D11*
%LPC*%
D15*
X682675Y909025D03*
D11*
%LPD*%
D17*
X682675Y909025D03*
D11*
%LPC*%
D15*
X900175Y966525D03*
D11*
%LPD*%
D17*
X900175Y966525D03*
D11*
%LPC*%
D15*
X880175Y966525D03*
D11*
%LPD*%
D17*
X880175Y966525D03*
D11*
%LPC*%
D14*
X1097675Y879025D03*
D11*
%LPD*%
D15*
X1097675Y879025D03*
D11*
%LPC*%
D14*
X1067675Y879025D03*
D11*
%LPD*%
D15*
X1067675Y879025D03*
D11*
%LPC*%
D14*
X1097675Y904025D03*
D11*
%LPD*%
D15*
X1097675Y904025D03*
D11*
%LPC*%
D14*
X1067675Y904025D03*
D11*
%LPD*%
D15*
X1067675Y904025D03*
D11*
%LPC*%
D15*
X927675Y901525D03*
D11*
%LPD*%
D17*
X927675Y901525D03*
D11*
%LPC*%
D15*
X927675Y921525D03*
D11*
%LPD*%
D17*
X927675Y921525D03*
D11*
%LPC*%
D15*
X937675Y946525D03*
D11*
%LPD*%
D17*
X937675Y946525D03*
D11*
%LPC*%
D15*
X937675Y966525D03*
D11*
%LPD*%
D17*
X937675Y966525D03*
D11*
%LPC*%
D14*
X1082675Y1264025D03*
D11*
%LPD*%
D15*
X1082675Y1264025D03*
D11*
%LPC*%
D14*
X1062675Y1264025D03*
D11*
%LPD*%
D15*
X1062675Y1264025D03*
D11*
%LPC*%
D14*
X1117675Y1264025D03*
D11*
%LPD*%
D15*
X1117675Y1264025D03*
D11*
%LPC*%
D14*
X1097675Y1264025D03*
D11*
%LPD*%
D15*
X1097675Y1264025D03*
D11*
%LPC*%
D14*
X1127675Y1269025D03*
D11*
%LPD*%
D15*
X1127675Y1269025D03*
D11*
%LPC*%
D14*
X1127675Y1249025D03*
D11*
%LPD*%
D15*
X1127675Y1249025D03*
D11*
%LPC*%
D14*
X1050175Y1094025D03*
D11*
%LPD*%
D15*
X1050175Y1094025D03*
D11*
%LPC*%
D14*
X1070175Y1094025D03*
D11*
%LPD*%
D15*
X1070175Y1094025D03*
D11*
%LPC*%
D15*
X1027675Y1051525D03*
D11*
%LPD*%
D17*
X1027675Y1051525D03*
D11*
%LPC*%
D15*
X1027675Y1071525D03*
D11*
%LPD*%
D17*
X1027675Y1071525D03*
D11*
%LPC*%
D15*
X1007675Y1071525D03*
D11*
%LPD*%
D17*
X1007675Y1071525D03*
D11*
%LPC*%
D15*
X987675Y1071525D03*
D11*
%LPD*%
D17*
X987675Y1071525D03*
D11*
%LPC*%
D15*
X1037675Y1004025D03*
D11*
%LPD*%
D17*
X1037675Y1004025D03*
D11*
%LPC*%
D15*
X1057675Y1004025D03*
D11*
%LPD*%
D17*
X1057675Y1004025D03*
D11*
%LPC*%
D15*
X1037675Y984025D03*
D11*
%LPD*%
D17*
X1037675Y984025D03*
D11*
%LPC*%
D15*
X1037675Y964025D03*
D11*
%LPD*%
D17*
X1037675Y964025D03*
D11*
%LPC*%
D15*
X1067675Y964025D03*
D11*
%LPD*%
D17*
X1067675Y964025D03*
D11*
%LPC*%
D15*
X1047675Y964025D03*
D11*
%LPD*%
D17*
X1047675Y964025D03*
D11*
%LPC*%
D14*
X1270175Y1249025D03*
D11*
%LPD*%
D15*
X1270175Y1249025D03*
D11*
%LPC*%
D14*
X1270175Y1269025D03*
D11*
%LPD*%
D15*
X1270175Y1269025D03*
D11*
%LPC*%
D14*
X1257675Y1249025D03*
D11*
%LPD*%
D15*
X1257675Y1249025D03*
D11*
%LPC*%
D14*
X1257675Y1269025D03*
D11*
%LPD*%
D15*
X1257675Y1269025D03*
D11*
%LPC*%
D14*
X1277675Y1229025D03*
D11*
%LPD*%
D15*
X1277675Y1229025D03*
D11*
%LPC*%
D14*
X1257675Y1229025D03*
D11*
%LPD*%
D15*
X1257675Y1229025D03*
D11*
%LPC*%
D14*
X1152675Y1094025D03*
D11*
%LPD*%
D15*
X1152675Y1094025D03*
D11*
%LPC*%
D14*
X1172675Y1094025D03*
D11*
%LPD*%
D15*
X1172675Y1094025D03*
D11*
%LPC*%
D15*
X1120175Y1096525D03*
D11*
%LPD*%
D17*
X1120175Y1096525D03*
D11*
%LPC*%
D15*
X1140175Y1096525D03*
D11*
%LPD*%
D17*
X1140175Y1096525D03*
D11*
%LPC*%
D15*
X1110175Y1096525D03*
D11*
%LPD*%
D17*
X1110175Y1096525D03*
D11*
%LPC*%
D15*
X1090175Y1096525D03*
D11*
%LPD*%
D17*
X1090175Y1096525D03*
D11*
%LPC*%
D15*
X1140175Y1004025D03*
D11*
%LPD*%
D17*
X1140175Y1004025D03*
D11*
%LPC*%
D15*
X1160175Y1004025D03*
D11*
%LPD*%
D17*
X1160175Y1004025D03*
D11*
%LPC*%
D15*
X1140175Y984025D03*
D11*
%LPD*%
D17*
X1140175Y984025D03*
D11*
%LPC*%
D15*
X1140175Y964025D03*
D11*
%LPD*%
D17*
X1140175Y964025D03*
D11*
%LPC*%
D15*
X1170175Y964025D03*
D11*
%LPD*%
D17*
X1170175Y964025D03*
D11*
%LPC*%
D15*
X1150175Y964025D03*
D11*
%LPD*%
D17*
X1150175Y964025D03*
D11*
%LPC*%
D14*
X1225175Y1244025D03*
D11*
%LPD*%
D15*
X1225175Y1244025D03*
D11*
%LPC*%
D14*
X1225175Y1264025D03*
D11*
%LPD*%
D15*
X1225175Y1264025D03*
D11*
%LPC*%
D14*
X1247675Y1249025D03*
D11*
%LPD*%
D15*
X1247675Y1249025D03*
D11*
%LPC*%
D14*
X1247675Y1269025D03*
D11*
%LPD*%
D15*
X1247675Y1269025D03*
D11*
%LPC*%
D14*
X1227675Y1229025D03*
D11*
%LPD*%
D15*
X1227675Y1229025D03*
D11*
%LPC*%
D14*
X1207675Y1229025D03*
D11*
%LPD*%
D15*
X1207675Y1229025D03*
D11*
%LPC*%
D15*
X1222675Y1096525D03*
D11*
%LPD*%
D17*
X1222675Y1096525D03*
D11*
%LPC*%
D15*
X1242675Y1096525D03*
D11*
%LPD*%
D17*
X1242675Y1096525D03*
D11*
%LPC*%
D15*
X1212675Y1096525D03*
D11*
%LPD*%
D17*
X1212675Y1096525D03*
D11*
%LPC*%
D15*
X1192675Y1096525D03*
D11*
%LPD*%
D17*
X1192675Y1096525D03*
D11*
%LPC*%
D15*
X1242675Y1004025D03*
D11*
%LPD*%
D17*
X1242675Y1004025D03*
D11*
%LPC*%
D15*
X1262675Y1004025D03*
D11*
%LPD*%
D17*
X1262675Y1004025D03*
D11*
%LPC*%
D15*
X1242675Y984025D03*
D11*
%LPD*%
D17*
X1242675Y984025D03*
D11*
%LPC*%
D15*
X1242675Y964025D03*
D11*
%LPD*%
D17*
X1242675Y964025D03*
D11*
%LPC*%
D15*
X1282675Y964025D03*
D11*
%LPD*%
D17*
X1282675Y964025D03*
D11*
%LPC*%
D15*
X1262675Y964025D03*
D11*
%LPD*%
D17*
X1262675Y964025D03*
D11*
%LPC*%
D15*
X1182675Y909025D03*
D11*
%LPD*%
D17*
X1182675Y909025D03*
D11*
%LPC*%
D15*
X1222675Y909025D03*
D11*
%LPD*%
D17*
X1222675Y909025D03*
D11*
%LPC*%
D15*
X1195175Y879025D03*
D11*
%LPD*%
D17*
X1195175Y879025D03*
D11*
%LPC*%
D15*
X1235175Y879025D03*
D11*
%LPD*%
D17*
X1235175Y879025D03*
D11*
%LPC*%
D15*
X1082675Y1279025D03*
D11*
%LPD*%
D17*
X1082675Y1279025D03*
D11*
%LPC*%
%LPD*%
G36*
X1079139Y1281146D02*
X1080553Y1282560D01*
X1086210Y1276903D01*
X1084796Y1275489D01*
X1079139Y1281146D01*
G37*
%LPC*%
%LPD*%
G36*
X1080553Y1275489D02*
X1079139Y1276903D01*
X1084796Y1282560D01*
X1086210Y1281146D01*
X1080553Y1275489D01*
G37*
%LPC*%
D15*
X1122675Y1279025D03*
D11*
%LPD*%
D17*
X1122675Y1279025D03*
D11*
%LPC*%
D15*
X1282675Y1279025D03*
D11*
%LPD*%
D17*
X1282675Y1279025D03*
D11*
%LPC*%
%LPD*%
G36*
X1279139Y1281146D02*
X1280553Y1282560D01*
X1286210Y1276903D01*
X1284796Y1275489D01*
X1279139Y1281146D01*
G37*
%LPC*%
%LPD*%
G36*
X1280553Y1275489D02*
X1279139Y1276903D01*
X1284796Y1282560D01*
X1286210Y1281146D01*
X1280553Y1275489D01*
G37*
%LPC*%
D15*
X1282675Y1239025D03*
D11*
%LPD*%
D17*
X1282675Y1239025D03*
D11*
%LPC*%
D15*
X1237675Y1281525D03*
D11*
%LPD*%
D17*
X1237675Y1281525D03*
D11*
%LPC*%
%LPD*%
G36*
X1234139Y1283646D02*
X1235553Y1285060D01*
X1241210Y1279403D01*
X1239796Y1277989D01*
X1234139Y1283646D01*
G37*
%LPC*%
%LPD*%
G36*
X1235553Y1277989D02*
X1234139Y1279403D01*
X1239796Y1285060D01*
X1241210Y1283646D01*
X1235553Y1277989D01*
G37*
%LPC*%
D15*
X1237675Y1241525D03*
D11*
%LPD*%
D17*
X1237675Y1241525D03*
D11*
%LPC*%
D15*
X547675Y919025D03*
D11*
%LPD*%
D17*
X547675Y919025D03*
D11*
%LPC*%
D15*
X547675Y929025D03*
D11*
%LPD*%
D17*
X547675Y929025D03*
D11*
%LPC*%
D15*
X557675Y919025D03*
D11*
%LPD*%
D17*
X557675Y919025D03*
D11*
%LPC*%
D15*
X557675Y929025D03*
D11*
%LPD*%
D17*
X557675Y929025D03*
D11*
%LPC*%
D15*
X567675Y919025D03*
D11*
%LPD*%
D17*
X567675Y919025D03*
D11*
%LPC*%
D15*
X567675Y929025D03*
D11*
%LPD*%
D17*
X567675Y929025D03*
D11*
%LPC*%
D15*
X577675Y919025D03*
D11*
%LPD*%
D17*
X577675Y919025D03*
D11*
%LPC*%
D15*
X577675Y929025D03*
D11*
%LPD*%
D17*
X577675Y929025D03*
D11*
%LPC*%
D15*
X587675Y919025D03*
D11*
%LPD*%
D17*
X587675Y919025D03*
D11*
%LPC*%
D15*
X587675Y929025D03*
D11*
%LPD*%
D17*
X587675Y929025D03*
D11*
%LPC*%
D15*
X1182675Y1281525D03*
D11*
%LPD*%
D17*
X1182675Y1281525D03*
D11*
%LPC*%
D15*
X1222675Y1281525D03*
D11*
%LPD*%
D17*
X1222675Y1281525D03*
D11*
%LPC*%
D15*
X1172675Y1281525D03*
D11*
%LPD*%
D17*
X1172675Y1281525D03*
D11*
%LPC*%
D15*
X1132675Y1281525D03*
D11*
%LPD*%
D17*
X1132675Y1281525D03*
D11*
%LPC*%
D15*
X792675Y1014025D03*
D11*
%LPD*%
D17*
X792675Y1014025D03*
D11*
%LPC*%
%LPD*%
G36*
X789139Y1016146D02*
X790553Y1017560D01*
X796210Y1011903D01*
X794796Y1010489D01*
X789139Y1016146D01*
G37*
%LPC*%
%LPD*%
G36*
X790553Y1010489D02*
X789139Y1011903D01*
X794796Y1017560D01*
X796210Y1016146D01*
X790553Y1010489D01*
G37*
%LPC*%
D15*
X832675Y1014025D03*
D11*
%LPD*%
D17*
X832675Y1014025D03*
D11*
%LPC*%
D15*
X617675Y919025D03*
D11*
%LPD*%
D17*
X617675Y919025D03*
D11*
%LPC*%
%LPD*%
G36*
X614139Y921146D02*
X615553Y922560D01*
X621210Y916903D01*
X619796Y915489D01*
X614139Y921146D01*
G37*
%LPC*%
%LPD*%
G36*
X615553Y915489D02*
X614139Y916903D01*
X619796Y922560D01*
X621210Y921146D01*
X615553Y915489D01*
G37*
%LPC*%
D15*
X657675Y919025D03*
D11*
%LPD*%
D17*
X657675Y919025D03*
D11*
%LPC*%
D15*
X832675Y1024025D03*
D11*
%LPD*%
D17*
X832675Y1024025D03*
D11*
%LPC*%
D15*
X792675Y1024025D03*
D11*
%LPD*%
D17*
X792675Y1024025D03*
D11*
%LPC*%
D15*
X657675Y929025D03*
D11*
%LPD*%
D17*
X657675Y929025D03*
D11*
%LPC*%
D15*
X617675Y929025D03*
D11*
%LPD*%
D17*
X617675Y929025D03*
D11*
%LPC*%
D15*
X977675Y911525D03*
D11*
%LPD*%
D17*
X977675Y911525D03*
D11*
%LPC*%
D15*
X977675Y871525D03*
D11*
%LPD*%
D17*
X977675Y871525D03*
D11*
%LPC*%
D15*
X1007675Y871525D03*
D11*
%LPD*%
D17*
X1007675Y871525D03*
D11*
%LPC*%
%LPD*%
G36*
X1004139Y873646D02*
X1005553Y875060D01*
X1011210Y869403D01*
X1009796Y867989D01*
X1004139Y873646D01*
G37*
%LPC*%
%LPD*%
G36*
X1005553Y867989D02*
X1004139Y869403D01*
X1009796Y875060D01*
X1011210Y873646D01*
X1005553Y867989D01*
G37*
%LPC*%
D15*
X1007675Y911525D03*
D11*
%LPD*%
D17*
X1007675Y911525D03*
D11*
%LPC*%
D15*
X1037675Y911525D03*
D11*
%LPD*%
D17*
X1037675Y911525D03*
D11*
%LPC*%
D15*
X1037675Y871525D03*
D11*
%LPD*%
D17*
X1037675Y871525D03*
D11*
%LPC*%
D15*
X947675Y946525D03*
D11*
%LPD*%
D17*
X947675Y946525D03*
D11*
%LPC*%
D15*
X947675Y986525D03*
D11*
%LPD*%
D17*
X947675Y986525D03*
D11*
%LPC*%
D15*
X957675Y986525D03*
D11*
%LPD*%
D17*
X957675Y986525D03*
D11*
%LPC*%
%LPD*%
G36*
X954139Y988646D02*
X955553Y990060D01*
X961210Y984403D01*
X959796Y982989D01*
X954139Y988646D01*
G37*
%LPC*%
%LPD*%
G36*
X955553Y982989D02*
X954139Y984403D01*
X959796Y990060D01*
X961210Y988646D01*
X955553Y982989D01*
G37*
%LPC*%
D15*
X957675Y946525D03*
D11*
%LPD*%
D17*
X957675Y946525D03*
D11*
%LPC*%
D15*
X1077675Y1116525D03*
D11*
%LPD*%
D17*
X1077675Y1116525D03*
D11*
%LPC*%
D15*
X1037675Y1116525D03*
D11*
%LPD*%
D17*
X1037675Y1116525D03*
D11*
%LPC*%
D15*
X1077675Y1106525D03*
D11*
%LPD*%
D17*
X1077675Y1106525D03*
D11*
%LPC*%
D15*
X1037675Y1106525D03*
D11*
%LPD*%
D17*
X1037675Y1106525D03*
D11*
%LPC*%
D15*
X860175Y956525D03*
D11*
%LPD*%
D17*
X860175Y956525D03*
D11*
%LPC*%
D15*
X900175Y956525D03*
D11*
%LPD*%
D17*
X900175Y956525D03*
D11*
%LPC*%
D15*
X987675Y911525D03*
D11*
%LPD*%
D17*
X987675Y911525D03*
D11*
%LPC*%
D15*
X987675Y871525D03*
D11*
%LPD*%
D17*
X987675Y871525D03*
D11*
%LPC*%
D15*
X997675Y911525D03*
D11*
%LPD*%
D17*
X997675Y911525D03*
D11*
%LPC*%
D15*
X997675Y871525D03*
D11*
%LPD*%
D17*
X997675Y871525D03*
D11*
%LPC*%
D15*
X1027675Y911525D03*
D11*
%LPD*%
D17*
X1027675Y911525D03*
D11*
%LPC*%
D15*
X1027675Y871525D03*
D11*
%LPD*%
D17*
X1027675Y871525D03*
D11*
%LPC*%
D15*
X1032675Y1091525D03*
D11*
%LPD*%
D17*
X1032675Y1091525D03*
D11*
%LPC*%
D15*
X992675Y1091525D03*
D11*
%LPD*%
D17*
X992675Y1091525D03*
D11*
%LPC*%
D15*
X987675Y1081525D03*
D11*
%LPD*%
D17*
X987675Y1081525D03*
D11*
%LPC*%
D15*
X1027675Y1081525D03*
D11*
%LPD*%
D17*
X1027675Y1081525D03*
D11*
%LPC*%
D15*
X1040175Y1081525D03*
D11*
%LPD*%
D17*
X1040175Y1081525D03*
D11*
%LPC*%
D15*
X1080175Y1081525D03*
D11*
%LPD*%
D17*
X1080175Y1081525D03*
D11*
%LPC*%
D15*
X1030175Y1039025D03*
D11*
%LPD*%
D17*
X1030175Y1039025D03*
D11*
%LPC*%
D15*
X990175Y1039025D03*
D11*
%LPD*%
D17*
X990175Y1039025D03*
D11*
%LPC*%
D15*
X987675Y1004025D03*
D11*
%LPD*%
D17*
X987675Y1004025D03*
D11*
%LPC*%
D15*
X1027675Y1004025D03*
D11*
%LPD*%
D17*
X1027675Y1004025D03*
D11*
%LPC*%
D15*
X1037675Y1029025D03*
D11*
%LPD*%
D17*
X1037675Y1029025D03*
D11*
%LPC*%
D15*
X1077675Y1029025D03*
D11*
%LPD*%
D17*
X1077675Y1029025D03*
D11*
%LPC*%
D15*
X1037675Y1019025D03*
D11*
%LPD*%
D17*
X1037675Y1019025D03*
D11*
%LPC*%
D15*
X1077675Y1019025D03*
D11*
%LPD*%
D17*
X1077675Y1019025D03*
D11*
%LPC*%
D16*
X1065175Y1054025D03*
D11*
%LPD*%
D14*
X1065175Y1054025D03*
D11*
%LPC*%
D16*
X1055175Y1044025D03*
D11*
%LPD*%
D14*
X1055175Y1044025D03*
D11*
%LPC*%
D16*
X1045175Y1054025D03*
D11*
%LPD*%
D14*
X1045175Y1054025D03*
D11*
%LPC*%
D15*
X1040175Y1071525D03*
D11*
%LPD*%
D17*
X1040175Y1071525D03*
D11*
%LPC*%
D15*
X1080175Y1071525D03*
D11*
%LPD*%
D17*
X1080175Y1071525D03*
D11*
%LPC*%
D15*
X987675Y994025D03*
D11*
%LPD*%
D17*
X987675Y994025D03*
D11*
%LPC*%
D15*
X1027675Y994025D03*
D11*
%LPD*%
D17*
X1027675Y994025D03*
D11*
%LPC*%
D15*
X1037675Y994025D03*
D11*
%LPD*%
D17*
X1037675Y994025D03*
D11*
%LPC*%
D15*
X1077675Y994025D03*
D11*
%LPD*%
D17*
X1077675Y994025D03*
D11*
%LPC*%
D15*
X987675Y984025D03*
D11*
%LPD*%
D17*
X987675Y984025D03*
D11*
%LPC*%
D15*
X1027675Y984025D03*
D11*
%LPD*%
D17*
X1027675Y984025D03*
D11*
%LPC*%
D15*
X1027675Y974025D03*
D11*
%LPD*%
D17*
X1027675Y974025D03*
D11*
%LPC*%
D15*
X987675Y974025D03*
D11*
%LPD*%
D17*
X987675Y974025D03*
D11*
%LPC*%
D15*
X1027675Y964025D03*
D11*
%LPD*%
D17*
X1027675Y964025D03*
D11*
%LPC*%
D15*
X987675Y964025D03*
D11*
%LPD*%
D17*
X987675Y964025D03*
D11*
%LPC*%
D15*
X1180175Y1116525D03*
D11*
%LPD*%
D17*
X1180175Y1116525D03*
D11*
%LPC*%
D15*
X1140175Y1116525D03*
D11*
%LPD*%
D17*
X1140175Y1116525D03*
D11*
%LPC*%
D15*
X1180175Y1106525D03*
D11*
%LPD*%
D17*
X1180175Y1106525D03*
D11*
%LPC*%
D15*
X1140175Y1106525D03*
D11*
%LPD*%
D17*
X1140175Y1106525D03*
D11*
%LPC*%
D15*
X1130175Y1116525D03*
D11*
%LPD*%
D17*
X1130175Y1116525D03*
D11*
%LPC*%
D15*
X1090175Y1116525D03*
D11*
%LPD*%
D17*
X1090175Y1116525D03*
D11*
%LPC*%
D15*
X1090175Y1106525D03*
D11*
%LPD*%
D17*
X1090175Y1106525D03*
D11*
%LPC*%
D15*
X1130175Y1106525D03*
D11*
%LPD*%
D17*
X1130175Y1106525D03*
D11*
%LPC*%
D15*
X1142675Y1081525D03*
D11*
%LPD*%
D17*
X1142675Y1081525D03*
D11*
%LPC*%
D15*
X1182675Y1081525D03*
D11*
%LPD*%
D17*
X1182675Y1081525D03*
D11*
%LPC*%
D15*
X1132675Y1066525D03*
D11*
%LPD*%
D17*
X1132675Y1066525D03*
D11*
%LPC*%
D15*
X1092675Y1066525D03*
D11*
%LPD*%
D17*
X1092675Y1066525D03*
D11*
%LPC*%
D16*
X1107675Y1036525D03*
D11*
%LPD*%
D14*
X1107675Y1036525D03*
D11*
%LPC*%
D16*
X1117675Y1046525D03*
D11*
%LPD*%
D14*
X1117675Y1046525D03*
D11*
%LPC*%
D16*
X1127675Y1036525D03*
D11*
%LPD*%
D14*
X1127675Y1036525D03*
D11*
%LPC*%
D15*
X1090175Y1004025D03*
D11*
%LPD*%
D17*
X1090175Y1004025D03*
D11*
%LPC*%
D15*
X1130175Y1004025D03*
D11*
%LPD*%
D17*
X1130175Y1004025D03*
D11*
%LPC*%
D15*
X1140175Y1029025D03*
D11*
%LPD*%
D17*
X1140175Y1029025D03*
D11*
%LPC*%
D15*
X1180175Y1029025D03*
D11*
%LPD*%
D17*
X1180175Y1029025D03*
D11*
%LPC*%
D15*
X1140175Y1019025D03*
D11*
%LPD*%
D17*
X1140175Y1019025D03*
D11*
%LPC*%
D15*
X1180175Y1019025D03*
D11*
%LPD*%
D17*
X1180175Y1019025D03*
D11*
%LPC*%
D16*
X1167675Y1054025D03*
D11*
%LPD*%
D14*
X1167675Y1054025D03*
D11*
%LPC*%
D16*
X1157675Y1044025D03*
D11*
%LPD*%
D14*
X1157675Y1044025D03*
D11*
%LPC*%
D16*
X1147675Y1054025D03*
D11*
%LPD*%
D14*
X1147675Y1054025D03*
D11*
%LPC*%
D15*
X1142675Y1071525D03*
D11*
%LPD*%
D17*
X1142675Y1071525D03*
D11*
%LPC*%
D15*
X1182675Y1071525D03*
D11*
%LPD*%
D17*
X1182675Y1071525D03*
D11*
%LPC*%
D15*
X1090175Y994025D03*
D11*
%LPD*%
D17*
X1090175Y994025D03*
D11*
%LPC*%
D15*
X1130175Y994025D03*
D11*
%LPD*%
D17*
X1130175Y994025D03*
D11*
%LPC*%
D15*
X1140175Y994025D03*
D11*
%LPD*%
D17*
X1140175Y994025D03*
D11*
%LPC*%
D15*
X1180175Y994025D03*
D11*
%LPD*%
D17*
X1180175Y994025D03*
D11*
%LPC*%
D15*
X1090175Y984025D03*
D11*
%LPD*%
D17*
X1090175Y984025D03*
D11*
%LPC*%
D15*
X1130175Y984025D03*
D11*
%LPD*%
D17*
X1130175Y984025D03*
D11*
%LPC*%
D15*
X1130175Y974025D03*
D11*
%LPD*%
D17*
X1130175Y974025D03*
D11*
%LPC*%
D15*
X1090175Y974025D03*
D11*
%LPD*%
D17*
X1090175Y974025D03*
D11*
%LPC*%
D15*
X1130175Y964025D03*
D11*
%LPD*%
D17*
X1130175Y964025D03*
D11*
%LPC*%
D15*
X1090175Y964025D03*
D11*
%LPD*%
D17*
X1090175Y964025D03*
D11*
%LPC*%
D15*
X1282675Y1116525D03*
D11*
%LPD*%
D17*
X1282675Y1116525D03*
D11*
%LPC*%
D15*
X1242675Y1116525D03*
D11*
%LPD*%
D17*
X1242675Y1116525D03*
D11*
%LPC*%
D15*
X1282675Y1106525D03*
D11*
%LPD*%
D17*
X1282675Y1106525D03*
D11*
%LPC*%
D15*
X1242675Y1106525D03*
D11*
%LPD*%
D17*
X1242675Y1106525D03*
D11*
%LPC*%
D15*
X1232675Y1116525D03*
D11*
%LPD*%
D17*
X1232675Y1116525D03*
D11*
%LPC*%
D15*
X1192675Y1116525D03*
D11*
%LPD*%
D17*
X1192675Y1116525D03*
D11*
%LPC*%
D15*
X1192675Y1106525D03*
D11*
%LPD*%
D17*
X1192675Y1106525D03*
D11*
%LPC*%
D15*
X1232675Y1106525D03*
D11*
%LPD*%
D17*
X1232675Y1106525D03*
D11*
%LPC*%
D15*
X1245175Y1081525D03*
D11*
%LPD*%
D17*
X1245175Y1081525D03*
D11*
%LPC*%
D15*
X1285175Y1081525D03*
D11*
%LPD*%
D17*
X1285175Y1081525D03*
D11*
%LPC*%
D15*
X1235175Y1066525D03*
D11*
%LPD*%
D17*
X1235175Y1066525D03*
D11*
%LPC*%
D15*
X1195175Y1066525D03*
D11*
%LPD*%
D17*
X1195175Y1066525D03*
D11*
%LPC*%
D16*
X1210175Y1036525D03*
D11*
%LPD*%
D14*
X1210175Y1036525D03*
D11*
%LPC*%
D16*
X1220175Y1046525D03*
D11*
%LPD*%
D14*
X1220175Y1046525D03*
D11*
%LPC*%
D16*
X1230175Y1036525D03*
D11*
%LPD*%
D14*
X1230175Y1036525D03*
D11*
%LPC*%
D15*
X1192675Y1004025D03*
D11*
%LPD*%
D17*
X1192675Y1004025D03*
D11*
%LPC*%
D15*
X1232675Y1004025D03*
D11*
%LPD*%
D17*
X1232675Y1004025D03*
D11*
%LPC*%
D15*
X1242675Y1029025D03*
D11*
%LPD*%
D17*
X1242675Y1029025D03*
D11*
%LPC*%
D15*
X1282675Y1029025D03*
D11*
%LPD*%
D17*
X1282675Y1029025D03*
D11*
%LPC*%
D15*
X1242675Y1019025D03*
D11*
%LPD*%
D17*
X1242675Y1019025D03*
D11*
%LPC*%
D15*
X1282675Y1019025D03*
D11*
%LPD*%
D17*
X1282675Y1019025D03*
D11*
%LPC*%
D16*
X1270175Y1054025D03*
D11*
%LPD*%
D14*
X1270175Y1054025D03*
D11*
%LPC*%
D16*
X1260175Y1044025D03*
D11*
%LPD*%
D14*
X1260175Y1044025D03*
D11*
%LPC*%
D16*
X1250175Y1054025D03*
D11*
%LPD*%
D14*
X1250175Y1054025D03*
D11*
%LPC*%
D15*
X1245175Y1071525D03*
D11*
%LPD*%
D17*
X1245175Y1071525D03*
D11*
%LPC*%
D15*
X1285175Y1071525D03*
D11*
%LPD*%
D17*
X1285175Y1071525D03*
D11*
%LPC*%
D15*
X1192675Y994025D03*
D11*
%LPD*%
D17*
X1192675Y994025D03*
D11*
%LPC*%
D15*
X1232675Y994025D03*
D11*
%LPD*%
D17*
X1232675Y994025D03*
D11*
%LPC*%
D15*
X1242675Y994025D03*
D11*
%LPD*%
D17*
X1242675Y994025D03*
D11*
%LPC*%
D15*
X1282675Y994025D03*
D11*
%LPD*%
D17*
X1282675Y994025D03*
D11*
%LPC*%
D15*
X1192675Y984025D03*
D11*
%LPD*%
D17*
X1192675Y984025D03*
D11*
%LPC*%
D15*
X1232675Y984025D03*
D11*
%LPD*%
D17*
X1232675Y984025D03*
D11*
%LPC*%
D15*
X1232675Y974025D03*
D11*
%LPD*%
D17*
X1232675Y974025D03*
D11*
%LPC*%
D15*
X1192675Y974025D03*
D11*
%LPD*%
D17*
X1192675Y974025D03*
D11*
%LPC*%
D15*
X1232675Y964025D03*
D11*
%LPD*%
D17*
X1232675Y964025D03*
D11*
%LPC*%
D15*
X1192675Y964025D03*
D11*
%LPD*%
D17*
X1192675Y964025D03*
D11*
%LPC*%
D18*
X717675Y1279025D03*
D11*
%LPD*%
D19*
X717675Y1279025D03*
D11*
%LPC*%
D18*
X725175Y1279025D03*
D11*
%LPD*%
D19*
X725175Y1279025D03*
D11*
%LPC*%
D18*
X810175Y1311525D03*
D11*
%LPD*%
D19*
X810175Y1311525D03*
D11*
%LPC*%
D18*
X810175Y1304025D03*
D11*
%LPD*%
D19*
X810175Y1304025D03*
D11*
%LPC*%
G36*
X1139175Y1130025D02*
X1131175D01*
Y1138025D01*
X1139175D01*
Y1130025D01*
G37*
%LPD*%
G36*
X1138175Y1131025D02*
X1132175D01*
Y1137025D01*
X1138175D01*
Y1131025D01*
G37*
%LPC*%
%LPD*%
G36*
X1136175Y1130025D02*
X1134175D01*
Y1138025D01*
X1136175D01*
Y1130025D01*
G37*
%LPC*%
%LPD*%
G36*
X1139175Y1133025D02*
X1132175D01*
Y1135025D01*
X1139175D01*
Y1133025D01*
G37*
%LPC*%
D18*
X1127675Y1134025D03*
D11*
%LPD*%
D19*
X1127675Y1134025D03*
D11*
%LPC*%
D18*
X1120175Y1134025D03*
D11*
%LPD*%
D19*
X1120175Y1134025D03*
D11*
%LPC*%
D18*
X1120175Y1146525D03*
D11*
%LPD*%
D19*
X1120175Y1146525D03*
D11*
%LPC*%
D18*
X1127675Y1146525D03*
D11*
%LPD*%
D19*
X1127675Y1146525D03*
D11*
%LPC*%
G36*
X1139175Y1142525D02*
X1131175D01*
Y1150525D01*
X1139175D01*
Y1142525D01*
G37*
%LPD*%
G36*
X1138175Y1143525D02*
X1132175D01*
Y1149525D01*
X1138175D01*
Y1143525D01*
G37*
%LPC*%
%LPD*%
G36*
X1136175Y1142525D02*
X1134175D01*
Y1150525D01*
X1136175D01*
Y1142525D01*
G37*
%LPC*%
%LPD*%
G36*
X1139175Y1145525D02*
X1132175D01*
Y1147525D01*
X1139175D01*
Y1145525D01*
G37*
%LPC*%
D15*
X747675Y886525D03*
D11*
%LPD*%
D17*
X747675Y886525D03*
D11*
%LPC*%
D15*
X752675Y896525D03*
D11*
%LPD*%
D17*
X752675Y896525D03*
D11*
%LPC*%
D15*
X757675Y886525D03*
D11*
%LPD*%
D17*
X757675Y886525D03*
D11*
%LPC*%
D15*
X762675Y896525D03*
D11*
%LPD*%
D17*
X762675Y896525D03*
D11*
%LPC*%
D15*
X767675Y886525D03*
D11*
%LPD*%
D17*
X767675Y886525D03*
D11*
%LPC*%
D15*
X772675Y896525D03*
D11*
%LPD*%
D17*
X772675Y896525D03*
D11*
%LPC*%
D15*
X777675Y886525D03*
D11*
%LPD*%
D17*
X777675Y886525D03*
D11*
%LPC*%
D15*
X782675Y896525D03*
D11*
%LPD*%
D17*
X782675Y896525D03*
D11*
%LPC*%
D15*
X787675Y886525D03*
D11*
%LPD*%
D17*
X787675Y886525D03*
D11*
%LPC*%
D15*
X792675Y896525D03*
D11*
%LPD*%
D17*
X792675Y896525D03*
D11*
%LPC*%
D15*
X797675Y886525D03*
D11*
%LPD*%
D17*
X797675Y886525D03*
D11*
%LPC*%
D15*
X802675Y896525D03*
D11*
%LPD*%
D17*
X802675Y896525D03*
D11*
%LPC*%
D15*
X807675Y886525D03*
D11*
%LPD*%
D17*
X807675Y886525D03*
D11*
%LPC*%
D15*
X812675Y896525D03*
D11*
%LPD*%
D17*
X812675Y896525D03*
D11*
%LPC*%
D15*
X817675Y886525D03*
D11*
%LPD*%
D17*
X817675Y886525D03*
D11*
%LPC*%
D15*
X822675Y896525D03*
D11*
%LPD*%
D17*
X822675Y896525D03*
D11*
%LPC*%
D14*
X742675Y894025D03*
D15*
X1152675Y889025D03*
D11*
%LPD*%
D17*
X1152675Y889025D03*
D11*
%LPC*%
D15*
X1157675Y899025D03*
D11*
%LPD*%
D17*
X1157675Y899025D03*
D11*
%LPC*%
D15*
X1162675Y889025D03*
D11*
%LPD*%
D17*
X1162675Y889025D03*
D11*
%LPC*%
D15*
X1167675Y899025D03*
D11*
%LPD*%
D17*
X1167675Y899025D03*
D11*
%LPC*%
D15*
X1172675Y889025D03*
D11*
%LPD*%
D17*
X1172675Y889025D03*
D11*
%LPC*%
D15*
X1177675Y899025D03*
D11*
%LPD*%
D17*
X1177675Y899025D03*
D11*
%LPC*%
D15*
X1182675Y889025D03*
D11*
%LPD*%
D17*
X1182675Y889025D03*
D11*
%LPC*%
D15*
X1187675Y899025D03*
D11*
%LPD*%
D17*
X1187675Y899025D03*
D11*
%LPC*%
D15*
X1192675Y889025D03*
D11*
%LPD*%
D17*
X1192675Y889025D03*
D11*
%LPC*%
D15*
X1197675Y899025D03*
D11*
%LPD*%
D17*
X1197675Y899025D03*
D11*
%LPC*%
D15*
X1202675Y889025D03*
D11*
%LPD*%
D17*
X1202675Y889025D03*
D11*
%LPC*%
D15*
X1207675Y899025D03*
D11*
%LPD*%
D17*
X1207675Y899025D03*
D11*
%LPC*%
D15*
X1212675Y889025D03*
D11*
%LPD*%
D17*
X1212675Y889025D03*
D11*
%LPC*%
D15*
X1217675Y899025D03*
D11*
%LPD*%
D17*
X1217675Y899025D03*
D11*
%LPC*%
D15*
X1222675Y889025D03*
D11*
%LPD*%
D17*
X1222675Y889025D03*
D11*
%LPC*%
D15*
X1227675Y899025D03*
D11*
%LPD*%
D17*
X1227675Y899025D03*
D11*
%LPC*%
D14*
X1147675Y896525D03*
D20*
X797675Y954025D03*
D11*
%LPD*%
X797675Y954025D03*
D11*
%LPC*%
D20*
X797675Y961525D03*
D11*
%LPD*%
X797675Y961525D03*
D11*
%LPC*%
D14*
X720175Y924025D03*
D11*
%LPD*%
D15*
X720175Y924025D03*
D11*
%LPC*%
D14*
X700175Y924025D03*
D11*
%LPD*%
D15*
X700175Y924025D03*
D11*
%LPC*%
D14*
X1255175Y1094025D03*
D11*
%LPD*%
D15*
X1255175Y1094025D03*
D11*
%LPC*%
D14*
X1275175Y1094025D03*
D11*
%LPD*%
D15*
X1275175Y1094025D03*
D11*
%LPC*%
D15*
X1017675Y1059025D03*
D11*
%LPD*%
D17*
X1017675Y1059025D03*
D11*
%LPC*%
D15*
X1007675Y1059025D03*
D11*
%LPD*%
D17*
X1007675Y1059025D03*
D11*
%LPC*%
D15*
X1017675Y1049025D03*
D11*
%LPD*%
D17*
X1017675Y1049025D03*
D11*
%LPC*%
D15*
X987675Y1049025D03*
D11*
%LPD*%
D17*
X987675Y1049025D03*
D11*
%LPC*%
D15*
X997675Y1049025D03*
D11*
%LPD*%
D17*
X997675Y1049025D03*
D11*
%LPC*%
D15*
X997675Y1059025D03*
D11*
%LPD*%
D17*
X997675Y1059025D03*
D11*
%LPC*%
D15*
X1027675Y1026525D03*
D11*
%LPD*%
D17*
X1027675Y1026525D03*
D11*
%LPC*%
D15*
X1017675Y1026525D03*
D11*
%LPD*%
D17*
X1017675Y1026525D03*
D11*
%LPC*%
D15*
X1017675Y1016525D03*
D11*
%LPD*%
D17*
X1017675Y1016525D03*
D11*
%LPC*%
D15*
X995175Y1016525D03*
D11*
%LPD*%
D17*
X995175Y1016525D03*
D11*
%LPC*%
D15*
X1005175Y1016525D03*
D11*
%LPD*%
D17*
X1005175Y1016525D03*
D11*
%LPC*%
D15*
X1005175Y1026525D03*
D11*
%LPD*%
D17*
X1005175Y1026525D03*
D11*
%LPC*%
D15*
X1067675Y974025D03*
D11*
%LPD*%
D17*
X1067675Y974025D03*
D11*
%LPC*%
D15*
X1077675Y974025D03*
D11*
%LPD*%
D17*
X1077675Y974025D03*
D11*
%LPC*%
D15*
X1077675Y984025D03*
D11*
%LPD*%
D17*
X1077675Y984025D03*
D11*
%LPC*%
D15*
X1057675Y984025D03*
D11*
%LPD*%
D17*
X1057675Y984025D03*
D11*
%LPC*%
D15*
X1047675Y984025D03*
D11*
%LPD*%
D17*
X1047675Y984025D03*
D11*
%LPC*%
D15*
X1047675Y974025D03*
D11*
%LPD*%
D17*
X1047675Y974025D03*
D11*
%LPC*%
D15*
X1067675Y954025D03*
D11*
%LPD*%
D17*
X1067675Y954025D03*
D11*
%LPC*%
D15*
X1057675Y954025D03*
D11*
%LPD*%
D17*
X1057675Y954025D03*
D11*
%LPC*%
D15*
X1057675Y944025D03*
D11*
%LPD*%
D17*
X1057675Y944025D03*
D11*
%LPC*%
D15*
X1127675Y1086525D03*
D11*
%LPD*%
D17*
X1127675Y1086525D03*
D11*
%LPC*%
D15*
X1117675Y1086525D03*
D11*
%LPD*%
D17*
X1117675Y1086525D03*
D11*
%LPC*%
D15*
X1127675Y1076525D03*
D11*
%LPD*%
D17*
X1127675Y1076525D03*
D11*
%LPC*%
D15*
X1095175Y1076525D03*
D11*
%LPD*%
D17*
X1095175Y1076525D03*
D11*
%LPC*%
D15*
X1105175Y1076525D03*
D11*
%LPD*%
D17*
X1105175Y1076525D03*
D11*
%LPC*%
D15*
X1105175Y1086525D03*
D11*
%LPD*%
D17*
X1105175Y1086525D03*
D11*
%LPC*%
D15*
X1130175Y1026525D03*
D11*
%LPD*%
D17*
X1130175Y1026525D03*
D11*
%LPC*%
D15*
X1120175Y1026525D03*
D11*
%LPD*%
D17*
X1120175Y1026525D03*
D11*
%LPC*%
D15*
X1120175Y1016525D03*
D11*
%LPD*%
D17*
X1120175Y1016525D03*
D11*
%LPC*%
D15*
X1097675Y1016525D03*
D11*
%LPD*%
D17*
X1097675Y1016525D03*
D11*
%LPC*%
D15*
X1107675Y1016525D03*
D11*
%LPD*%
D17*
X1107675Y1016525D03*
D11*
%LPC*%
D15*
X1107675Y1026525D03*
D11*
%LPD*%
D17*
X1107675Y1026525D03*
D11*
%LPC*%
D15*
X1170175Y974025D03*
D11*
%LPD*%
D17*
X1170175Y974025D03*
D11*
%LPC*%
D15*
X1180175Y974025D03*
D11*
%LPD*%
D17*
X1180175Y974025D03*
D11*
%LPC*%
D15*
X1180175Y984025D03*
D11*
%LPD*%
D17*
X1180175Y984025D03*
D11*
%LPC*%
D15*
X1160175Y984025D03*
D11*
%LPD*%
D17*
X1160175Y984025D03*
D11*
%LPC*%
D15*
X1150175Y984025D03*
D11*
%LPD*%
D17*
X1150175Y984025D03*
D11*
%LPC*%
D15*
X1150175Y974025D03*
D11*
%LPD*%
D17*
X1150175Y974025D03*
D11*
%LPC*%
D15*
X1170175Y954025D03*
D11*
%LPD*%
D17*
X1170175Y954025D03*
D11*
%LPC*%
D15*
X1160175Y954025D03*
D11*
%LPD*%
D17*
X1160175Y954025D03*
D11*
%LPC*%
D15*
X1160175Y944025D03*
D11*
%LPD*%
D17*
X1160175Y944025D03*
D11*
%LPC*%
D15*
X1230175Y1086525D03*
D11*
%LPD*%
D17*
X1230175Y1086525D03*
D11*
%LPC*%
D15*
X1220175Y1086525D03*
D11*
%LPD*%
D17*
X1220175Y1086525D03*
D11*
%LPC*%
D15*
X1230175Y1076525D03*
D11*
%LPD*%
D17*
X1230175Y1076525D03*
D11*
%LPC*%
D15*
X1197675Y1076525D03*
D11*
%LPD*%
D17*
X1197675Y1076525D03*
D11*
%LPC*%
D15*
X1207675Y1076525D03*
D11*
%LPD*%
D17*
X1207675Y1076525D03*
D11*
%LPC*%
D15*
X1207675Y1086525D03*
D11*
%LPD*%
D17*
X1207675Y1086525D03*
D11*
%LPC*%
D15*
X1232675Y1026525D03*
D11*
%LPD*%
D17*
X1232675Y1026525D03*
D11*
%LPC*%
D15*
X1222675Y1026525D03*
D11*
%LPD*%
D17*
X1222675Y1026525D03*
D11*
%LPC*%
D15*
X1222675Y1016525D03*
D11*
%LPD*%
D17*
X1222675Y1016525D03*
D11*
%LPC*%
D15*
X1200175Y1016525D03*
D11*
%LPD*%
D17*
X1200175Y1016525D03*
D11*
%LPC*%
D15*
X1210175Y1016525D03*
D11*
%LPD*%
D17*
X1210175Y1016525D03*
D11*
%LPC*%
D15*
X1210175Y1026525D03*
D11*
%LPD*%
D17*
X1210175Y1026525D03*
D11*
%LPC*%
D15*
X1272675Y974025D03*
D11*
%LPD*%
D17*
X1272675Y974025D03*
D11*
%LPC*%
D15*
X1282675Y974025D03*
D11*
%LPD*%
D17*
X1282675Y974025D03*
D11*
%LPC*%
D15*
X1282675Y984025D03*
D11*
%LPD*%
D17*
X1282675Y984025D03*
D11*
%LPC*%
D15*
X1262675Y984025D03*
D11*
%LPD*%
D17*
X1262675Y984025D03*
D11*
%LPC*%
D15*
X1252675Y984025D03*
D11*
%LPD*%
D17*
X1252675Y984025D03*
D11*
%LPC*%
D15*
X1252675Y974025D03*
D11*
%LPD*%
D17*
X1252675Y974025D03*
D11*
%LPC*%
D15*
X1282675Y944025D03*
D11*
%LPD*%
D17*
X1282675Y944025D03*
D11*
%LPC*%
D15*
X1282675Y954025D03*
D11*
%LPD*%
D17*
X1282675Y954025D03*
D11*
%LPC*%
D15*
X1272675Y954025D03*
D11*
%LPD*%
D17*
X1272675Y954025D03*
D11*
%LPC*%
D15*
X810175Y1324025D03*
D11*
%LPD*%
D17*
X810175Y1324025D03*
D11*
%LPC*%
%LPD*%
G36*
X806639Y1326146D02*
X808053Y1327560D01*
X813710Y1321903D01*
X812296Y1320489D01*
X806639Y1326146D01*
G37*
%LPC*%
%LPD*%
G36*
X808053Y1320489D02*
X806639Y1321903D01*
X812296Y1327560D01*
X813710Y1326146D01*
X808053Y1320489D01*
G37*
%LPC*%
D15*
X800175Y1324025D03*
D11*
%LPD*%
D17*
X800175Y1324025D03*
D11*
%LPC*%
D15*
X790175Y1324025D03*
D11*
%LPD*%
D17*
X790175Y1324025D03*
D11*
%LPC*%
D15*
X780175Y1324025D03*
D11*
%LPD*%
D17*
X780175Y1324025D03*
D11*
%LPC*%
D15*
X770175Y1324025D03*
D11*
%LPD*%
D17*
X770175Y1324025D03*
D11*
%LPC*%
D15*
X760175Y1324025D03*
D11*
%LPD*%
D17*
X760175Y1324025D03*
D11*
%LPC*%
D15*
X750175Y1324025D03*
D11*
%LPD*%
D17*
X750175Y1324025D03*
D11*
%LPC*%
D15*
X740175Y1324025D03*
D11*
%LPD*%
D17*
X740175Y1324025D03*
D11*
%LPC*%
D15*
X730175Y1324025D03*
D11*
%LPD*%
D17*
X730175Y1324025D03*
D11*
%LPC*%
D15*
X720175Y1324025D03*
D11*
%LPD*%
D17*
X720175Y1324025D03*
D11*
%LPC*%
D15*
X1162675Y1261525D03*
D11*
%LPD*%
D17*
X1162675Y1261525D03*
D11*
%LPC*%
D15*
X1172675Y1261525D03*
D11*
%LPD*%
D17*
X1172675Y1261525D03*
D11*
%LPC*%
D15*
X1172675Y1271525D03*
D11*
%LPD*%
D17*
X1172675Y1271525D03*
D11*
%LPC*%
D15*
X797675Y941525D03*
D11*
%LPD*%
D17*
X797675Y941525D03*
D11*
%LPC*%
D15*
X797675Y931525D03*
D11*
%LPD*%
D17*
X797675Y931525D03*
D11*
%LPC*%
D15*
X797675Y921525D03*
D11*
%LPD*%
D17*
X797675Y921525D03*
D11*
%LPC*%
D15*
X797675Y911525D03*
D11*
%LPD*%
D17*
X797675Y911525D03*
D11*
%LPC*%
D15*
X827675Y911525D03*
D11*
%LPD*%
D17*
X827675Y911525D03*
D11*
%LPC*%
D15*
X827675Y921525D03*
D11*
%LPD*%
D17*
X827675Y921525D03*
D11*
%LPC*%
D15*
X827675Y931525D03*
D11*
%LPD*%
D17*
X827675Y931525D03*
D11*
%LPC*%
D15*
X827675Y941525D03*
D11*
%LPD*%
D17*
X827675Y941525D03*
D11*
%LPC*%
D15*
X547675Y939025D03*
D11*
%LPD*%
D17*
X547675Y939025D03*
D11*
%LPC*%
D15*
X557675Y939025D03*
D11*
%LPD*%
D17*
X557675Y939025D03*
D11*
%LPC*%
D15*
X567675Y939025D03*
D11*
%LPD*%
D17*
X567675Y939025D03*
D11*
%LPC*%
D15*
X577675Y939025D03*
D11*
%LPD*%
D17*
X577675Y939025D03*
D11*
%LPC*%
D15*
X587675Y939025D03*
D11*
%LPD*%
D17*
X587675Y939025D03*
D11*
%LPC*%
D15*
X597675Y939025D03*
D11*
%LPD*%
D17*
X597675Y939025D03*
D11*
%LPC*%
D15*
X607675Y939025D03*
D11*
%LPD*%
D17*
X607675Y939025D03*
D11*
%LPC*%
D15*
X617675Y939025D03*
D11*
%LPD*%
D17*
X617675Y939025D03*
D11*
%LPC*%
D15*
X627675Y939025D03*
D11*
%LPD*%
D17*
X627675Y939025D03*
D11*
%LPC*%
D15*
X637675Y939025D03*
D11*
%LPD*%
D17*
X637675Y939025D03*
D11*
%LPC*%
D15*
X647675Y939025D03*
D11*
%LPD*%
D17*
X647675Y939025D03*
D11*
%LPC*%
D15*
X657675Y939025D03*
D11*
%LPD*%
D17*
X657675Y939025D03*
D11*
%LPC*%
D15*
X667675Y939025D03*
D11*
%LPD*%
D17*
X667675Y939025D03*
D11*
%LPC*%
D15*
X677675Y939025D03*
D11*
%LPD*%
D17*
X677675Y939025D03*
D11*
%LPC*%
D15*
X687675Y939025D03*
D11*
%LPD*%
D17*
X687675Y939025D03*
D11*
%LPC*%
D15*
X697675Y939025D03*
D11*
%LPD*%
D17*
X697675Y939025D03*
D11*
%LPC*%
D15*
X707675Y939025D03*
D11*
%LPD*%
D17*
X707675Y939025D03*
D11*
%LPC*%
D15*
X717675Y939025D03*
D11*
%LPD*%
D17*
X717675Y939025D03*
D11*
%LPC*%
D15*
X727675Y939025D03*
D11*
%LPD*%
D17*
X727675Y939025D03*
D11*
%LPC*%
D15*
X737675Y939025D03*
D11*
%LPD*%
D17*
X737675Y939025D03*
D11*
%LPC*%
D15*
X737675Y999025D03*
D11*
%LPD*%
D17*
X737675Y999025D03*
D11*
%LPC*%
D15*
X727675Y999025D03*
D11*
%LPD*%
D17*
X727675Y999025D03*
D11*
%LPC*%
D15*
X717675Y999025D03*
D11*
%LPD*%
D17*
X717675Y999025D03*
D11*
%LPC*%
D15*
X707675Y999025D03*
D11*
%LPD*%
D17*
X707675Y999025D03*
D11*
%LPC*%
D15*
X697675Y999025D03*
D11*
%LPD*%
D17*
X697675Y999025D03*
D11*
%LPC*%
D15*
X687675Y999025D03*
D11*
%LPD*%
D17*
X687675Y999025D03*
D11*
%LPC*%
D15*
X677675Y999025D03*
D11*
%LPD*%
D17*
X677675Y999025D03*
D11*
%LPC*%
D15*
X667675Y999025D03*
D11*
%LPD*%
D17*
X667675Y999025D03*
D11*
%LPC*%
D15*
X657675Y999025D03*
D11*
%LPD*%
D17*
X657675Y999025D03*
D11*
%LPC*%
D15*
X647675Y999025D03*
D11*
%LPD*%
D17*
X647675Y999025D03*
D11*
%LPC*%
D15*
X637675Y999025D03*
D11*
%LPD*%
D17*
X637675Y999025D03*
D11*
%LPC*%
D15*
X627675Y999025D03*
D11*
%LPD*%
D17*
X627675Y999025D03*
D11*
%LPC*%
D15*
X617675Y999025D03*
D11*
%LPD*%
D17*
X617675Y999025D03*
D11*
%LPC*%
D15*
X607675Y999025D03*
D11*
%LPD*%
D17*
X607675Y999025D03*
D11*
%LPC*%
D15*
X597675Y999025D03*
D11*
%LPD*%
D17*
X597675Y999025D03*
D11*
%LPC*%
D15*
X587675Y999025D03*
D11*
%LPD*%
D17*
X587675Y999025D03*
D11*
%LPC*%
D15*
X577675Y999025D03*
D11*
%LPD*%
D17*
X577675Y999025D03*
D11*
%LPC*%
D15*
X567675Y999025D03*
D11*
%LPD*%
D17*
X567675Y999025D03*
D11*
%LPC*%
D15*
X557675Y999025D03*
D11*
%LPD*%
D17*
X557675Y999025D03*
D11*
%LPC*%
D15*
X547675Y999025D03*
D11*
%LPD*%
D17*
X547675Y999025D03*
D11*
%LPC*%
%LPD*%
G36*
X544139Y1001146D02*
X545553Y1002560D01*
X551210Y996903D01*
X549796Y995489D01*
X544139Y1001146D01*
G37*
%LPC*%
%LPD*%
G36*
X545553Y995489D02*
X544139Y996903D01*
X549796Y1002560D01*
X551210Y1001146D01*
X545553Y995489D01*
G37*
%LPC*%
D15*
X567675Y1014025D03*
D11*
%LPD*%
D17*
X567675Y1014025D03*
D11*
%LPC*%
D15*
X577675Y1014025D03*
D11*
%LPD*%
D17*
X577675Y1014025D03*
D11*
%LPC*%
D15*
X587675Y1014025D03*
D11*
%LPD*%
D17*
X587675Y1014025D03*
D11*
%LPC*%
D15*
X597675Y1014025D03*
D11*
%LPD*%
D17*
X597675Y1014025D03*
D11*
%LPC*%
D15*
X607675Y1014025D03*
D11*
%LPD*%
D17*
X607675Y1014025D03*
D11*
%LPC*%
D15*
X617675Y1014025D03*
D11*
%LPD*%
D17*
X617675Y1014025D03*
D11*
%LPC*%
D15*
X627675Y1014025D03*
D11*
%LPD*%
D17*
X627675Y1014025D03*
D11*
%LPC*%
D15*
X637675Y1014025D03*
D11*
%LPD*%
D17*
X637675Y1014025D03*
D11*
%LPC*%
D15*
X647675Y1014025D03*
D11*
%LPD*%
D17*
X647675Y1014025D03*
D11*
%LPC*%
D15*
X657675Y1014025D03*
D11*
%LPD*%
D17*
X657675Y1014025D03*
D11*
%LPC*%
D15*
X657675Y1044025D03*
D11*
%LPD*%
D17*
X657675Y1044025D03*
D11*
%LPC*%
D15*
X647675Y1044025D03*
D11*
%LPD*%
D17*
X647675Y1044025D03*
D11*
%LPC*%
D15*
X637675Y1044025D03*
D11*
%LPD*%
D17*
X637675Y1044025D03*
D11*
%LPC*%
D15*
X627675Y1044025D03*
D11*
%LPD*%
D17*
X627675Y1044025D03*
D11*
%LPC*%
D15*
X617675Y1044025D03*
D11*
%LPD*%
D17*
X617675Y1044025D03*
D11*
%LPC*%
D15*
X607675Y1044025D03*
D11*
%LPD*%
D17*
X607675Y1044025D03*
D11*
%LPC*%
D15*
X597675Y1044025D03*
D11*
%LPD*%
D17*
X597675Y1044025D03*
D11*
%LPC*%
D15*
X587675Y1044025D03*
D11*
%LPD*%
D17*
X587675Y1044025D03*
D11*
%LPC*%
D15*
X577675Y1044025D03*
D11*
%LPD*%
D17*
X577675Y1044025D03*
D11*
%LPC*%
D15*
X567675Y1044025D03*
D11*
%LPD*%
D17*
X567675Y1044025D03*
D11*
%LPC*%
%LPD*%
G36*
X564139Y1046146D02*
X565553Y1047560D01*
X571210Y1041903D01*
X569796Y1040489D01*
X564139Y1046146D01*
G37*
%LPC*%
%LPD*%
G36*
X565553Y1040489D02*
X564139Y1041903D01*
X569796Y1047560D01*
X571210Y1046146D01*
X565553Y1040489D01*
G37*
%LPC*%
D15*
X577675Y1059025D03*
D11*
%LPD*%
D17*
X577675Y1059025D03*
D11*
%LPC*%
%LPD*%
G36*
X574139Y1061146D02*
X575553Y1062560D01*
X581210Y1056903D01*
X579796Y1055489D01*
X574139Y1061146D01*
G37*
%LPC*%
%LPD*%
G36*
X575553Y1055489D02*
X574139Y1056903D01*
X579796Y1062560D01*
X581210Y1061146D01*
X575553Y1055489D01*
G37*
%LPC*%
D15*
X587675Y1059025D03*
D11*
%LPD*%
D17*
X587675Y1059025D03*
D11*
%LPC*%
D15*
X597675Y1059025D03*
D11*
%LPD*%
D17*
X597675Y1059025D03*
D11*
%LPC*%
D15*
X607675Y1059025D03*
D11*
%LPD*%
D17*
X607675Y1059025D03*
D11*
%LPC*%
D15*
X617675Y1059025D03*
D11*
%LPD*%
D17*
X617675Y1059025D03*
D11*
%LPC*%
D15*
X627675Y1059025D03*
D11*
%LPD*%
D17*
X627675Y1059025D03*
D11*
%LPC*%
D15*
X637675Y1059025D03*
D11*
%LPD*%
D17*
X637675Y1059025D03*
D11*
%LPC*%
D15*
X647675Y1059025D03*
D11*
%LPD*%
D17*
X647675Y1059025D03*
D11*
%LPC*%
D15*
X657675Y1059025D03*
D11*
%LPD*%
D17*
X657675Y1059025D03*
D11*
%LPC*%
D15*
X667675Y1059025D03*
D11*
%LPD*%
D17*
X667675Y1059025D03*
D11*
%LPC*%
D15*
X677675Y1059025D03*
D11*
%LPD*%
D17*
X677675Y1059025D03*
D11*
%LPC*%
D15*
X687675Y1059025D03*
D11*
%LPD*%
D17*
X687675Y1059025D03*
D11*
%LPC*%
D15*
X697675Y1059025D03*
D11*
%LPD*%
D17*
X697675Y1059025D03*
D11*
%LPC*%
D15*
X707675Y1059025D03*
D11*
%LPD*%
D17*
X707675Y1059025D03*
D11*
%LPC*%
D15*
X707675Y1119025D03*
D11*
%LPD*%
D17*
X707675Y1119025D03*
D11*
%LPC*%
D15*
X697675Y1119025D03*
D11*
%LPD*%
D17*
X697675Y1119025D03*
D11*
%LPC*%
D15*
X687675Y1119025D03*
D11*
%LPD*%
D17*
X687675Y1119025D03*
D11*
%LPC*%
D15*
X677675Y1119025D03*
D11*
%LPD*%
D17*
X677675Y1119025D03*
D11*
%LPC*%
D15*
X667675Y1119025D03*
D11*
%LPD*%
D17*
X667675Y1119025D03*
D11*
%LPC*%
D15*
X657675Y1119025D03*
D11*
%LPD*%
D17*
X657675Y1119025D03*
D11*
%LPC*%
D15*
X647675Y1119025D03*
D11*
%LPD*%
D17*
X647675Y1119025D03*
D11*
%LPC*%
D15*
X637675Y1119025D03*
D11*
%LPD*%
D17*
X637675Y1119025D03*
D11*
%LPC*%
D15*
X627675Y1119025D03*
D11*
%LPD*%
D17*
X627675Y1119025D03*
D11*
%LPC*%
D15*
X617675Y1119025D03*
D11*
%LPD*%
D17*
X617675Y1119025D03*
D11*
%LPC*%
D15*
X607675Y1119025D03*
D11*
%LPD*%
D17*
X607675Y1119025D03*
D11*
%LPC*%
D15*
X597675Y1119025D03*
D11*
%LPD*%
D17*
X597675Y1119025D03*
D11*
%LPC*%
D15*
X587675Y1119025D03*
D11*
%LPD*%
D17*
X587675Y1119025D03*
D11*
%LPC*%
D15*
X577675Y1119025D03*
D11*
%LPD*%
D17*
X577675Y1119025D03*
D11*
%LPC*%
%LPD*%
G36*
X574139Y1121146D02*
X575553Y1122560D01*
X581210Y1116903D01*
X579796Y1115489D01*
X574139Y1121146D01*
G37*
%LPC*%
%LPD*%
G36*
X575553Y1115489D02*
X574139Y1116903D01*
X579796Y1122560D01*
X581210Y1121146D01*
X575553Y1115489D01*
G37*
%LPC*%
D15*
X607675Y879025D03*
D11*
%LPD*%
D17*
X607675Y879025D03*
D11*
%LPC*%
D15*
X617675Y879025D03*
D11*
%LPD*%
D17*
X617675Y879025D03*
D11*
%LPC*%
D15*
X627675Y879025D03*
D11*
%LPD*%
D17*
X627675Y879025D03*
D11*
%LPC*%
D15*
X637675Y879025D03*
D11*
%LPD*%
D17*
X637675Y879025D03*
D11*
%LPC*%
D15*
X647675Y879025D03*
D11*
%LPD*%
D17*
X647675Y879025D03*
D11*
%LPC*%
D15*
X657675Y879025D03*
D11*
%LPD*%
D17*
X657675Y879025D03*
D11*
%LPC*%
D15*
X667675Y879025D03*
D11*
%LPD*%
D17*
X667675Y879025D03*
D11*
%LPC*%
D15*
X667675Y909025D03*
D11*
%LPD*%
D17*
X667675Y909025D03*
D11*
%LPC*%
D15*
X657675Y909025D03*
D11*
%LPD*%
D17*
X657675Y909025D03*
D11*
%LPC*%
D15*
X647675Y909025D03*
D11*
%LPD*%
D17*
X647675Y909025D03*
D11*
%LPC*%
D15*
X637675Y909025D03*
D11*
%LPD*%
D17*
X637675Y909025D03*
D11*
%LPC*%
D15*
X627675Y909025D03*
D11*
%LPD*%
D17*
X627675Y909025D03*
D11*
%LPC*%
D15*
X617675Y909025D03*
D11*
%LPD*%
D17*
X617675Y909025D03*
D11*
%LPC*%
D15*
X607675Y909025D03*
D11*
%LPD*%
D17*
X607675Y909025D03*
D11*
%LPC*%
%LPD*%
G36*
X604139Y911146D02*
X605553Y912560D01*
X611210Y906903D01*
X609796Y905489D01*
X604139Y911146D01*
G37*
%LPC*%
%LPD*%
G36*
X605553Y905489D02*
X604139Y906903D01*
X609796Y912560D01*
X611210Y911146D01*
X605553Y905489D01*
G37*
%LPC*%
D15*
X937675Y931525D03*
D11*
%LPD*%
D17*
X937675Y931525D03*
D11*
%LPC*%
D15*
X937675Y921525D03*
D11*
%LPD*%
D17*
X937675Y921525D03*
D11*
%LPC*%
D15*
X937675Y911525D03*
D11*
%LPD*%
D17*
X937675Y911525D03*
D11*
%LPC*%
D15*
X937675Y901525D03*
D11*
%LPD*%
D17*
X937675Y901525D03*
D11*
%LPC*%
D15*
X967675Y901525D03*
D11*
%LPD*%
D17*
X967675Y901525D03*
D11*
%LPC*%
D15*
X967675Y911525D03*
D11*
%LPD*%
D17*
X967675Y911525D03*
D11*
%LPC*%
D15*
X967675Y921525D03*
D11*
%LPD*%
D17*
X967675Y921525D03*
D11*
%LPC*%
D15*
X967675Y931525D03*
D11*
%LPD*%
D17*
X967675Y931525D03*
D11*
%LPC*%
%LPD*%
G36*
X964139Y933646D02*
X965553Y935060D01*
X971210Y929403D01*
X969796Y927989D01*
X964139Y933646D01*
G37*
%LPC*%
%LPD*%
G36*
X965553Y927989D02*
X964139Y929403D01*
X969796Y935060D01*
X971210Y933646D01*
X965553Y927989D01*
G37*
%LPC*%
D15*
X752675Y1029025D03*
D11*
%LPD*%
D17*
X752675Y1029025D03*
D11*
%LPC*%
D15*
X752675Y1019025D03*
D11*
%LPD*%
D17*
X752675Y1019025D03*
D11*
%LPC*%
D15*
X752675Y1009025D03*
D11*
%LPD*%
D17*
X752675Y1009025D03*
D11*
%LPC*%
D15*
X752675Y999025D03*
D11*
%LPD*%
D17*
X752675Y999025D03*
D11*
%LPC*%
D15*
X752675Y989025D03*
D11*
%LPD*%
D17*
X752675Y989025D03*
D11*
%LPC*%
D15*
X752675Y979025D03*
D11*
%LPD*%
D17*
X752675Y979025D03*
D11*
%LPC*%
D15*
X752675Y969025D03*
D11*
%LPD*%
D17*
X752675Y969025D03*
D11*
%LPC*%
D15*
X752675Y959025D03*
D11*
%LPD*%
D17*
X752675Y959025D03*
D11*
%LPC*%
D15*
X752675Y949025D03*
D11*
%LPD*%
D17*
X752675Y949025D03*
D11*
%LPC*%
D15*
X752675Y939025D03*
D11*
%LPD*%
D17*
X752675Y939025D03*
D11*
%LPC*%
D15*
X752675Y929025D03*
D11*
%LPD*%
D17*
X752675Y929025D03*
D11*
%LPC*%
D15*
X752675Y919025D03*
D11*
%LPD*%
D17*
X752675Y919025D03*
D11*
%LPC*%
D15*
X782675Y919025D03*
D11*
%LPD*%
D17*
X782675Y919025D03*
D11*
%LPC*%
D15*
X782675Y929025D03*
D11*
%LPD*%
D17*
X782675Y929025D03*
D11*
%LPC*%
D15*
X782675Y939025D03*
D11*
%LPD*%
D17*
X782675Y939025D03*
D11*
%LPC*%
D15*
X782675Y949025D03*
D11*
%LPD*%
D17*
X782675Y949025D03*
D11*
%LPC*%
D15*
X782675Y959025D03*
D11*
%LPD*%
D17*
X782675Y959025D03*
D11*
%LPC*%
D15*
X782675Y969025D03*
D11*
%LPD*%
D17*
X782675Y969025D03*
D11*
%LPC*%
D15*
X782675Y979025D03*
D11*
%LPD*%
D17*
X782675Y979025D03*
D11*
%LPC*%
D15*
X782675Y989025D03*
D11*
%LPD*%
D17*
X782675Y989025D03*
D11*
%LPC*%
D15*
X782675Y999025D03*
D11*
%LPD*%
D17*
X782675Y999025D03*
D11*
%LPC*%
D15*
X782675Y1009025D03*
D11*
%LPD*%
D17*
X782675Y1009025D03*
D11*
%LPC*%
D15*
X782675Y1019025D03*
D11*
%LPD*%
D17*
X782675Y1019025D03*
D11*
%LPC*%
D15*
X782675Y1029025D03*
D11*
%LPD*%
D17*
X782675Y1029025D03*
D11*
%LPC*%
%LPD*%
G36*
X779139Y1031146D02*
X780553Y1032560D01*
X786210Y1026903D01*
X784796Y1025489D01*
X779139Y1031146D01*
G37*
%LPC*%
%LPD*%
G36*
X780553Y1025489D02*
X779139Y1026903D01*
X784796Y1032560D01*
X786210Y1031146D01*
X780553Y1025489D01*
G37*
%LPC*%
D15*
X842675Y941525D03*
D11*
%LPD*%
D17*
X842675Y941525D03*
D11*
%LPC*%
%LPD*%
G36*
X839139Y943646D02*
X840553Y945060D01*
X846210Y939403D01*
X844796Y937989D01*
X839139Y943646D01*
G37*
%LPC*%
%LPD*%
G36*
X840553Y937989D02*
X839139Y939403D01*
X844796Y945060D01*
X846210Y943646D01*
X840553Y937989D01*
G37*
%LPC*%
D15*
X842675Y931525D03*
D11*
%LPD*%
D17*
X842675Y931525D03*
D11*
%LPC*%
D15*
X842675Y921525D03*
D11*
%LPD*%
D17*
X842675Y921525D03*
D11*
%LPC*%
D15*
X842675Y911525D03*
D11*
%LPD*%
D17*
X842675Y911525D03*
D11*
%LPC*%
%LPD*%
G36*
X839139Y913646D02*
X840553Y915060D01*
X846210Y909403D01*
X844796Y907989D01*
X839139Y913646D01*
G37*
%LPC*%
%LPD*%
G36*
X840553Y907989D02*
X839139Y909403D01*
X844796Y915060D01*
X846210Y913646D01*
X840553Y907989D01*
G37*
%LPC*%
D15*
X842675Y901525D03*
D11*
%LPD*%
D17*
X842675Y901525D03*
D11*
%LPC*%
D15*
X842675Y891525D03*
D11*
%LPD*%
D17*
X842675Y891525D03*
D11*
%LPC*%
D15*
X842675Y881525D03*
D11*
%LPD*%
D17*
X842675Y881525D03*
D11*
%LPC*%
D15*
X872675Y881525D03*
D11*
%LPD*%
D17*
X872675Y881525D03*
D11*
%LPC*%
D15*
X872675Y891525D03*
D11*
%LPD*%
D17*
X872675Y891525D03*
D11*
%LPC*%
D15*
X872675Y901525D03*
D11*
%LPD*%
D17*
X872675Y901525D03*
D11*
%LPC*%
D15*
X872675Y911525D03*
D11*
%LPD*%
D17*
X872675Y911525D03*
D11*
%LPC*%
D15*
X872675Y921525D03*
D11*
%LPD*%
D17*
X872675Y921525D03*
D11*
%LPC*%
D15*
X872675Y931525D03*
D11*
%LPD*%
D17*
X872675Y931525D03*
D11*
%LPC*%
D15*
X872675Y941525D03*
D11*
%LPD*%
D17*
X872675Y941525D03*
D11*
%LPC*%
%LPD*%
G36*
X869139Y943646D02*
X870553Y945060D01*
X876210Y939403D01*
X874796Y937989D01*
X869139Y943646D01*
G37*
%LPC*%
%LPD*%
G36*
X870553Y937989D02*
X869139Y939403D01*
X874796Y945060D01*
X876210Y943646D01*
X870553Y937989D01*
G37*
%LPC*%
D15*
X887675Y941525D03*
D11*
%LPD*%
D17*
X887675Y941525D03*
D11*
%LPC*%
D15*
X887675Y931525D03*
D11*
%LPD*%
D17*
X887675Y931525D03*
D11*
%LPC*%
D15*
X887675Y921525D03*
D11*
%LPD*%
D17*
X887675Y921525D03*
D11*
%LPC*%
D15*
X887675Y911525D03*
D11*
%LPD*%
D17*
X887675Y911525D03*
D11*
%LPC*%
%LPD*%
G36*
X884139Y913646D02*
X885553Y915060D01*
X891210Y909403D01*
X889796Y907989D01*
X884139Y913646D01*
G37*
%LPC*%
%LPD*%
G36*
X885553Y907989D02*
X884139Y909403D01*
X889796Y915060D01*
X891210Y913646D01*
X885553Y907989D01*
G37*
%LPC*%
D15*
X887675Y901525D03*
D11*
%LPD*%
D17*
X887675Y901525D03*
D11*
%LPC*%
D15*
X887675Y891525D03*
D11*
%LPD*%
D17*
X887675Y891525D03*
D11*
%LPC*%
D15*
X887675Y881525D03*
D11*
%LPD*%
D17*
X887675Y881525D03*
D11*
%LPC*%
D15*
X917675Y881525D03*
D11*
%LPD*%
D17*
X917675Y881525D03*
D11*
%LPC*%
D15*
X917675Y891525D03*
D11*
%LPD*%
D17*
X917675Y891525D03*
D11*
%LPC*%
%LPD*%
G36*
X914139Y893646D02*
X915553Y895060D01*
X921210Y889403D01*
X919796Y887989D01*
X914139Y893646D01*
G37*
%LPC*%
%LPD*%
G36*
X915553Y887989D02*
X914139Y889403D01*
X919796Y895060D01*
X921210Y893646D01*
X915553Y887989D01*
G37*
%LPC*%
D15*
X917675Y901525D03*
D11*
%LPD*%
D17*
X917675Y901525D03*
D11*
%LPC*%
D15*
X917675Y911525D03*
D11*
%LPD*%
D17*
X917675Y911525D03*
D11*
%LPC*%
D15*
X917675Y921525D03*
D11*
%LPD*%
D17*
X917675Y921525D03*
D11*
%LPC*%
D15*
X917675Y931525D03*
D11*
%LPD*%
D17*
X917675Y931525D03*
D11*
%LPC*%
D15*
X917675Y941525D03*
D11*
%LPD*%
D17*
X917675Y941525D03*
D11*
%LPC*%
%LPD*%
G36*
X914139Y943646D02*
X915553Y945060D01*
X921210Y939403D01*
X919796Y937989D01*
X914139Y943646D01*
G37*
%LPC*%
%LPD*%
G36*
X915553Y937989D02*
X914139Y939403D01*
X919796Y945060D01*
X921210Y943646D01*
X915553Y937989D01*
G37*
%LPC*%
D15*
X547675Y1134025D03*
D11*
%LPD*%
D17*
X547675Y1134025D03*
D11*
%LPC*%
D15*
X557675Y1134025D03*
D11*
%LPD*%
D17*
X557675Y1134025D03*
D11*
%LPC*%
D15*
X567675Y1134025D03*
D11*
%LPD*%
D17*
X567675Y1134025D03*
D11*
%LPC*%
D15*
X577675Y1134025D03*
D11*
%LPD*%
D17*
X577675Y1134025D03*
D11*
%LPC*%
D15*
X587675Y1134025D03*
D11*
%LPD*%
D17*
X587675Y1134025D03*
D11*
%LPC*%
D15*
X597675Y1134025D03*
D11*
%LPD*%
D17*
X597675Y1134025D03*
D11*
%LPC*%
D15*
X607675Y1134025D03*
D11*
%LPD*%
D17*
X607675Y1134025D03*
D11*
%LPC*%
D15*
X617675Y1134025D03*
D11*
%LPD*%
D17*
X617675Y1134025D03*
D11*
%LPC*%
D15*
X627675Y1134025D03*
D11*
%LPD*%
D17*
X627675Y1134025D03*
D11*
%LPC*%
D15*
X637675Y1134025D03*
D11*
%LPD*%
D17*
X637675Y1134025D03*
D11*
%LPC*%
D15*
X637675Y1164025D03*
D11*
%LPD*%
D17*
X637675Y1164025D03*
D11*
%LPC*%
D15*
X627675Y1164025D03*
D11*
%LPD*%
D17*
X627675Y1164025D03*
D11*
%LPC*%
D15*
X617675Y1164025D03*
D11*
%LPD*%
D17*
X617675Y1164025D03*
D11*
%LPC*%
D15*
X607675Y1164025D03*
D11*
%LPD*%
D17*
X607675Y1164025D03*
D11*
%LPC*%
D15*
X597675Y1164025D03*
D11*
%LPD*%
D17*
X597675Y1164025D03*
D11*
%LPC*%
D15*
X587675Y1164025D03*
D11*
%LPD*%
D17*
X587675Y1164025D03*
D11*
%LPC*%
D15*
X577675Y1164025D03*
D11*
%LPD*%
D17*
X577675Y1164025D03*
D11*
%LPC*%
D15*
X567675Y1164025D03*
D11*
%LPD*%
D17*
X567675Y1164025D03*
D11*
%LPC*%
D15*
X557675Y1164025D03*
D11*
%LPD*%
D17*
X557675Y1164025D03*
D11*
%LPC*%
D15*
X547675Y1164025D03*
D11*
%LPD*%
D17*
X547675Y1164025D03*
D11*
%LPC*%
%LPD*%
G36*
X544139Y1166146D02*
X545553Y1167560D01*
X551210Y1161903D01*
X549796Y1160489D01*
X544139Y1166146D01*
G37*
%LPC*%
%LPD*%
G36*
X545553Y1160489D02*
X544139Y1161903D01*
X549796Y1167560D01*
X551210Y1166146D01*
X545553Y1160489D01*
G37*
%LPC*%
D15*
X1100175Y1234025D03*
D11*
%LPD*%
D17*
X1100175Y1234025D03*
D11*
%LPC*%
D15*
X1100175Y1224025D03*
D11*
%LPD*%
D17*
X1100175Y1224025D03*
D11*
%LPC*%
D15*
X1100175Y1214025D03*
D11*
%LPD*%
D17*
X1100175Y1214025D03*
D11*
%LPC*%
D15*
X1100175Y1204025D03*
D11*
%LPD*%
D17*
X1100175Y1204025D03*
D11*
%LPC*%
D15*
X1100175Y1194025D03*
D11*
%LPD*%
D17*
X1100175Y1194025D03*
D11*
%LPC*%
D15*
X1100175Y1184025D03*
D11*
%LPD*%
D17*
X1100175Y1184025D03*
D11*
%LPC*%
D15*
X1100175Y1174025D03*
D11*
%LPD*%
D17*
X1100175Y1174025D03*
D11*
%LPC*%
D15*
X1100175Y1164025D03*
D11*
%LPD*%
D17*
X1100175Y1164025D03*
D11*
%LPC*%
D15*
X1130175Y1164025D03*
D11*
%LPD*%
D17*
X1130175Y1164025D03*
D11*
%LPC*%
D15*
X1130175Y1174025D03*
D11*
%LPD*%
D17*
X1130175Y1174025D03*
D11*
%LPC*%
D15*
X1130175Y1184025D03*
D11*
%LPD*%
D17*
X1130175Y1184025D03*
D11*
%LPC*%
D15*
X1130175Y1194025D03*
D11*
%LPD*%
D17*
X1130175Y1194025D03*
D11*
%LPC*%
D15*
X1130175Y1204025D03*
D11*
%LPD*%
D17*
X1130175Y1204025D03*
D11*
%LPC*%
D15*
X1130175Y1214025D03*
D11*
%LPD*%
D17*
X1130175Y1214025D03*
D11*
%LPC*%
D15*
X1130175Y1224025D03*
D11*
%LPD*%
D17*
X1130175Y1224025D03*
D11*
%LPC*%
D15*
X1130175Y1234025D03*
D11*
%LPD*%
D17*
X1130175Y1234025D03*
D11*
%LPC*%
D15*
X547675Y1179025D03*
D11*
%LPD*%
D17*
X547675Y1179025D03*
D11*
%LPC*%
D15*
X557675Y1179025D03*
D11*
%LPD*%
D17*
X557675Y1179025D03*
D11*
%LPC*%
D15*
X567675Y1179025D03*
D11*
%LPD*%
D17*
X567675Y1179025D03*
D11*
%LPC*%
D15*
X577675Y1179025D03*
D11*
%LPD*%
D17*
X577675Y1179025D03*
D11*
%LPC*%
D15*
X587675Y1179025D03*
D11*
%LPD*%
D17*
X587675Y1179025D03*
D11*
%LPC*%
D15*
X597675Y1179025D03*
D11*
%LPD*%
D17*
X597675Y1179025D03*
D11*
%LPC*%
D15*
X607675Y1179025D03*
D11*
%LPD*%
D17*
X607675Y1179025D03*
D11*
%LPC*%
D15*
X617675Y1179025D03*
D11*
%LPD*%
D17*
X617675Y1179025D03*
D11*
%LPC*%
D15*
X627675Y1179025D03*
D11*
%LPD*%
D17*
X627675Y1179025D03*
D11*
%LPC*%
D15*
X637675Y1179025D03*
D11*
%LPD*%
D17*
X637675Y1179025D03*
D11*
%LPC*%
D15*
X637675Y1209025D03*
D11*
%LPD*%
D17*
X637675Y1209025D03*
D11*
%LPC*%
D15*
X627675Y1209025D03*
D11*
%LPD*%
D17*
X627675Y1209025D03*
D11*
%LPC*%
D15*
X617675Y1209025D03*
D11*
%LPD*%
D17*
X617675Y1209025D03*
D11*
%LPC*%
D15*
X607675Y1209025D03*
D11*
%LPD*%
D17*
X607675Y1209025D03*
D11*
%LPC*%
D15*
X597675Y1209025D03*
D11*
%LPD*%
D17*
X597675Y1209025D03*
D11*
%LPC*%
D15*
X587675Y1209025D03*
D11*
%LPD*%
D17*
X587675Y1209025D03*
D11*
%LPC*%
D15*
X577675Y1209025D03*
D11*
%LPD*%
D17*
X577675Y1209025D03*
D11*
%LPC*%
D15*
X567675Y1209025D03*
D11*
%LPD*%
D17*
X567675Y1209025D03*
D11*
%LPC*%
D15*
X557675Y1209025D03*
D11*
%LPD*%
D17*
X557675Y1209025D03*
D11*
%LPC*%
D15*
X547675Y1209025D03*
D11*
%LPD*%
D17*
X547675Y1209025D03*
D11*
%LPC*%
%LPD*%
G36*
X544139Y1211146D02*
X545553Y1212560D01*
X551210Y1206903D01*
X549796Y1205489D01*
X544139Y1211146D01*
G37*
%LPC*%
%LPD*%
G36*
X545553Y1205489D02*
X544139Y1206903D01*
X549796Y1212560D01*
X551210Y1211146D01*
X545553Y1205489D01*
G37*
%LPC*%
D15*
X662675Y1204025D03*
D11*
%LPD*%
D17*
X662675Y1204025D03*
D11*
%LPC*%
%LPD*%
G36*
X659139Y1206146D02*
X660553Y1207560D01*
X666210Y1201903D01*
X664796Y1200489D01*
X659139Y1206146D01*
G37*
%LPC*%
%LPD*%
G36*
X660553Y1200489D02*
X659139Y1201903D01*
X664796Y1207560D01*
X666210Y1206146D01*
X660553Y1200489D01*
G37*
%LPC*%
D15*
X662675Y1194025D03*
D11*
%LPD*%
D17*
X662675Y1194025D03*
D11*
%LPC*%
D15*
X662675Y1184025D03*
D11*
%LPD*%
D17*
X662675Y1184025D03*
D11*
%LPC*%
D15*
X662675Y1174025D03*
D11*
%LPD*%
D17*
X662675Y1174025D03*
D11*
%LPC*%
D15*
X662675Y1164025D03*
D11*
%LPD*%
D17*
X662675Y1164025D03*
D11*
%LPC*%
D15*
X662675Y1154025D03*
D11*
%LPD*%
D17*
X662675Y1154025D03*
D11*
%LPC*%
%LPD*%
G36*
X659139Y1156146D02*
X660553Y1157560D01*
X666210Y1151903D01*
X664796Y1150489D01*
X659139Y1156146D01*
G37*
%LPC*%
%LPD*%
G36*
X660553Y1150489D02*
X659139Y1151903D01*
X664796Y1157560D01*
X666210Y1156146D01*
X660553Y1150489D01*
G37*
%LPC*%
D15*
X662675Y1144025D03*
D11*
%LPD*%
D17*
X662675Y1144025D03*
D11*
%LPC*%
%LPD*%
G36*
X659139Y1146146D02*
X660553Y1147560D01*
X666210Y1141903D01*
X664796Y1140489D01*
X659139Y1146146D01*
G37*
%LPC*%
%LPD*%
G36*
X660553Y1140489D02*
X659139Y1141903D01*
X664796Y1147560D01*
X666210Y1146146D01*
X660553Y1140489D01*
G37*
%LPC*%
D15*
X662675Y1134025D03*
D11*
%LPD*%
D17*
X662675Y1134025D03*
D11*
%LPC*%
D15*
X692675Y1134025D03*
D11*
%LPD*%
D17*
X692675Y1134025D03*
D11*
%LPC*%
D15*
X692675Y1144025D03*
D11*
%LPD*%
D17*
X692675Y1144025D03*
D11*
%LPC*%
%LPD*%
G36*
X689139Y1146146D02*
X690553Y1147560D01*
X696210Y1141903D01*
X694796Y1140489D01*
X689139Y1146146D01*
G37*
%LPC*%
%LPD*%
G36*
X690553Y1140489D02*
X689139Y1141903D01*
X694796Y1147560D01*
X696210Y1146146D01*
X690553Y1140489D01*
G37*
%LPC*%
D15*
X692675Y1154025D03*
D11*
%LPD*%
D17*
X692675Y1154025D03*
D11*
%LPC*%
D15*
X692675Y1164025D03*
D11*
%LPD*%
D17*
X692675Y1164025D03*
D11*
%LPC*%
D15*
X692675Y1174025D03*
D11*
%LPD*%
D17*
X692675Y1174025D03*
D11*
%LPC*%
D15*
X692675Y1184025D03*
D11*
%LPD*%
D17*
X692675Y1184025D03*
D11*
%LPC*%
D15*
X692675Y1194025D03*
D11*
%LPD*%
D17*
X692675Y1194025D03*
D11*
%LPC*%
D15*
X692675Y1204025D03*
D11*
%LPD*%
D17*
X692675Y1204025D03*
D11*
%LPC*%
%LPD*%
G36*
X689139Y1206146D02*
X690553Y1207560D01*
X696210Y1201903D01*
X694796Y1200489D01*
X689139Y1206146D01*
G37*
%LPC*%
%LPD*%
G36*
X690553Y1200489D02*
X689139Y1201903D01*
X694796Y1207560D01*
X696210Y1206146D01*
X690553Y1200489D01*
G37*
%LPC*%
D15*
X547675Y1224025D03*
D11*
%LPD*%
D17*
X547675Y1224025D03*
D11*
%LPC*%
D15*
X557675Y1224025D03*
D11*
%LPD*%
D17*
X557675Y1224025D03*
D11*
%LPC*%
D15*
X567675Y1224025D03*
D11*
%LPD*%
D17*
X567675Y1224025D03*
D11*
%LPC*%
D15*
X577675Y1224025D03*
D11*
%LPD*%
D17*
X577675Y1224025D03*
D11*
%LPC*%
D15*
X587675Y1224025D03*
D11*
%LPD*%
D17*
X587675Y1224025D03*
D11*
%LPC*%
D15*
X597675Y1224025D03*
D11*
%LPD*%
D17*
X597675Y1224025D03*
D11*
%LPC*%
D15*
X607675Y1224025D03*
D11*
%LPD*%
D17*
X607675Y1224025D03*
D11*
%LPC*%
D15*
X617675Y1224025D03*
D11*
%LPD*%
D17*
X617675Y1224025D03*
D11*
%LPC*%
D15*
X627675Y1224025D03*
D11*
%LPD*%
D17*
X627675Y1224025D03*
D11*
%LPC*%
D15*
X637675Y1224025D03*
D11*
%LPD*%
D17*
X637675Y1224025D03*
D11*
%LPC*%
D15*
X647675Y1224025D03*
D11*
%LPD*%
D17*
X647675Y1224025D03*
D11*
%LPC*%
D15*
X657675Y1224025D03*
D11*
%LPD*%
D17*
X657675Y1224025D03*
D11*
%LPC*%
D15*
X657675Y1254025D03*
D11*
%LPD*%
D17*
X657675Y1254025D03*
D11*
%LPC*%
D15*
X647675Y1254025D03*
D11*
%LPD*%
D17*
X647675Y1254025D03*
D11*
%LPC*%
D15*
X637675Y1254025D03*
D11*
%LPD*%
D17*
X637675Y1254025D03*
D11*
%LPC*%
D15*
X627675Y1254025D03*
D11*
%LPD*%
D17*
X627675Y1254025D03*
D11*
%LPC*%
D15*
X617675Y1254025D03*
D11*
%LPD*%
D17*
X617675Y1254025D03*
D11*
%LPC*%
D15*
X607675Y1254025D03*
D11*
%LPD*%
D17*
X607675Y1254025D03*
D11*
%LPC*%
D15*
X597675Y1254025D03*
D11*
%LPD*%
D17*
X597675Y1254025D03*
D11*
%LPC*%
D15*
X587675Y1254025D03*
D11*
%LPD*%
D17*
X587675Y1254025D03*
D11*
%LPC*%
D15*
X577675Y1254025D03*
D11*
%LPD*%
D17*
X577675Y1254025D03*
D11*
%LPC*%
D15*
X567675Y1254025D03*
D11*
%LPD*%
D17*
X567675Y1254025D03*
D11*
%LPC*%
D15*
X557675Y1254025D03*
D11*
%LPD*%
D17*
X557675Y1254025D03*
D11*
%LPC*%
D15*
X547675Y1254025D03*
D11*
%LPD*%
D17*
X547675Y1254025D03*
D11*
%LPC*%
%LPD*%
G36*
X544139Y1256146D02*
X545553Y1257560D01*
X551210Y1251903D01*
X549796Y1250489D01*
X544139Y1256146D01*
G37*
%LPC*%
%LPD*%
G36*
X545553Y1250489D02*
X544139Y1251903D01*
X549796Y1257560D01*
X551210Y1256146D01*
X545553Y1250489D01*
G37*
%LPC*%
D15*
X735175Y1309025D03*
D11*
%LPD*%
D17*
X735175Y1309025D03*
D11*
%LPC*%
D15*
X735175Y1299025D03*
D11*
%LPD*%
D17*
X735175Y1299025D03*
D11*
%LPC*%
D15*
X735175Y1289025D03*
D11*
%LPD*%
D17*
X735175Y1289025D03*
D11*
%LPC*%
D15*
X735175Y1279025D03*
D11*
%LPD*%
D17*
X735175Y1279025D03*
D11*
%LPC*%
D15*
X735175Y1269025D03*
D11*
%LPD*%
D17*
X735175Y1269025D03*
D11*
%LPC*%
D15*
X735175Y1259025D03*
D11*
%LPD*%
D17*
X735175Y1259025D03*
D11*
%LPC*%
D15*
X735175Y1249025D03*
D11*
%LPD*%
D17*
X735175Y1249025D03*
D11*
%LPC*%
D15*
X735175Y1239025D03*
D11*
%LPD*%
D17*
X735175Y1239025D03*
D11*
%LPC*%
D15*
X735175Y1229025D03*
D11*
%LPD*%
D17*
X735175Y1229025D03*
D11*
%LPC*%
D15*
X735175Y1219025D03*
D11*
%LPD*%
D17*
X735175Y1219025D03*
D11*
%LPC*%
D15*
X735175Y1209025D03*
D11*
%LPD*%
D17*
X735175Y1209025D03*
D11*
%LPC*%
D15*
X735175Y1199025D03*
D11*
%LPD*%
D17*
X735175Y1199025D03*
D11*
%LPC*%
D15*
X735175Y1189025D03*
D11*
%LPD*%
D17*
X735175Y1189025D03*
D11*
%LPC*%
D15*
X735175Y1179025D03*
D11*
%LPD*%
D17*
X735175Y1179025D03*
D11*
%LPC*%
D15*
X735175Y1169025D03*
D11*
%LPD*%
D17*
X735175Y1169025D03*
D11*
%LPC*%
D15*
X735175Y1159025D03*
D11*
%LPD*%
D17*
X735175Y1159025D03*
D11*
%LPC*%
D15*
X735175Y1149025D03*
D11*
%LPD*%
D17*
X735175Y1149025D03*
D11*
%LPC*%
D15*
X735175Y1139025D03*
D11*
%LPD*%
D17*
X735175Y1139025D03*
D11*
%LPC*%
D15*
X735175Y1129025D03*
D11*
%LPD*%
D17*
X735175Y1129025D03*
D11*
%LPC*%
D15*
X735175Y1119025D03*
D11*
%LPD*%
D17*
X735175Y1119025D03*
D11*
%LPC*%
D15*
X735175Y1109025D03*
D11*
%LPD*%
D17*
X735175Y1109025D03*
D11*
%LPC*%
D15*
X735175Y1099025D03*
D11*
%LPD*%
D17*
X735175Y1099025D03*
D11*
%LPC*%
D15*
X735175Y1089025D03*
D11*
%LPD*%
D17*
X735175Y1089025D03*
D11*
%LPC*%
D15*
X735175Y1079025D03*
D11*
%LPD*%
D17*
X735175Y1079025D03*
D11*
%LPC*%
D15*
X795175Y1079025D03*
D11*
%LPD*%
D17*
X795175Y1079025D03*
D11*
%LPC*%
D15*
X795175Y1089025D03*
D11*
%LPD*%
D17*
X795175Y1089025D03*
D11*
%LPC*%
D15*
X795175Y1099025D03*
D11*
%LPD*%
D17*
X795175Y1099025D03*
D11*
%LPC*%
D15*
X795175Y1109025D03*
D11*
%LPD*%
D17*
X795175Y1109025D03*
D11*
%LPC*%
D15*
X795175Y1119025D03*
D11*
%LPD*%
D17*
X795175Y1119025D03*
D11*
%LPC*%
D15*
X795175Y1129025D03*
D11*
%LPD*%
D17*
X795175Y1129025D03*
D11*
%LPC*%
D15*
X795175Y1139025D03*
D11*
%LPD*%
D17*
X795175Y1139025D03*
D11*
%LPC*%
D15*
X795175Y1149025D03*
D11*
%LPD*%
D17*
X795175Y1149025D03*
D11*
%LPC*%
D15*
X795175Y1159025D03*
D11*
%LPD*%
D17*
X795175Y1159025D03*
D11*
%LPC*%
D15*
X795175Y1169025D03*
D11*
%LPD*%
D17*
X795175Y1169025D03*
D11*
%LPC*%
D15*
X795175Y1179025D03*
D11*
%LPD*%
D17*
X795175Y1179025D03*
D11*
%LPC*%
D15*
X795175Y1189025D03*
D11*
%LPD*%
D17*
X795175Y1189025D03*
D11*
%LPC*%
D15*
X795175Y1199025D03*
D11*
%LPD*%
D17*
X795175Y1199025D03*
D11*
%LPC*%
D15*
X795175Y1209025D03*
D11*
%LPD*%
D17*
X795175Y1209025D03*
D11*
%LPC*%
D15*
X795175Y1219025D03*
D11*
%LPD*%
D17*
X795175Y1219025D03*
D11*
%LPC*%
D15*
X795175Y1229025D03*
D11*
%LPD*%
D17*
X795175Y1229025D03*
D11*
%LPC*%
D15*
X795175Y1239025D03*
D11*
%LPD*%
D17*
X795175Y1239025D03*
D11*
%LPC*%
D15*
X795175Y1249025D03*
D11*
%LPD*%
D17*
X795175Y1249025D03*
D11*
%LPC*%
D15*
X795175Y1259025D03*
D11*
%LPD*%
D17*
X795175Y1259025D03*
D11*
%LPC*%
D15*
X795175Y1269025D03*
D11*
%LPD*%
D17*
X795175Y1269025D03*
D11*
%LPC*%
D15*
X795175Y1279025D03*
D11*
%LPD*%
D17*
X795175Y1279025D03*
D11*
%LPC*%
D15*
X795175Y1289025D03*
D11*
%LPD*%
D17*
X795175Y1289025D03*
D11*
%LPC*%
D15*
X795175Y1299025D03*
D11*
%LPD*%
D17*
X795175Y1299025D03*
D11*
%LPC*%
D15*
X795175Y1309025D03*
D11*
%LPD*%
D17*
X795175Y1309025D03*
D11*
%LPC*%
%LPD*%
G36*
X791639Y1311146D02*
X793053Y1312560D01*
X798710Y1306903D01*
X797296Y1305489D01*
X791639Y1311146D01*
G37*
%LPC*%
%LPD*%
G36*
X793053Y1305489D02*
X791639Y1306903D01*
X797296Y1312560D01*
X798710Y1311146D01*
X793053Y1305489D01*
G37*
%LPC*%
D15*
X830175Y1279025D03*
D11*
%LPD*%
D17*
X830175Y1279025D03*
D11*
%LPC*%
D15*
X830175Y1269025D03*
D11*
%LPD*%
D17*
X830175Y1269025D03*
D11*
%LPC*%
D15*
X830175Y1259025D03*
D11*
%LPD*%
D17*
X830175Y1259025D03*
D11*
%LPC*%
D15*
X830175Y1249025D03*
D11*
%LPD*%
D17*
X830175Y1249025D03*
D11*
%LPC*%
D15*
X830175Y1239025D03*
D11*
%LPD*%
D17*
X830175Y1239025D03*
D11*
%LPC*%
D15*
X830175Y1229025D03*
D11*
%LPD*%
D17*
X830175Y1229025D03*
D11*
%LPC*%
D15*
X830175Y1219025D03*
D11*
%LPD*%
D17*
X830175Y1219025D03*
D11*
%LPC*%
D15*
X830175Y1209025D03*
D11*
%LPD*%
D17*
X830175Y1209025D03*
D11*
%LPC*%
D15*
X830175Y1199025D03*
D11*
%LPD*%
D17*
X830175Y1199025D03*
D11*
%LPC*%
D15*
X830175Y1189025D03*
D11*
%LPD*%
D17*
X830175Y1189025D03*
D11*
%LPC*%
D15*
X830175Y1179025D03*
D11*
%LPD*%
D17*
X830175Y1179025D03*
D11*
%LPC*%
D15*
X830175Y1169025D03*
D11*
%LPD*%
D17*
X830175Y1169025D03*
D11*
%LPC*%
D15*
X830175Y1159025D03*
D11*
%LPD*%
D17*
X830175Y1159025D03*
D11*
%LPC*%
D15*
X830175Y1149025D03*
D11*
%LPD*%
D17*
X830175Y1149025D03*
D11*
%LPC*%
D15*
X890175Y1149025D03*
D11*
%LPD*%
D17*
X890175Y1149025D03*
D11*
%LPC*%
D15*
X890175Y1159025D03*
D11*
%LPD*%
D17*
X890175Y1159025D03*
D11*
%LPC*%
D15*
X890175Y1169025D03*
D11*
%LPD*%
D17*
X890175Y1169025D03*
D11*
%LPC*%
D15*
X890175Y1179025D03*
D11*
%LPD*%
D17*
X890175Y1179025D03*
D11*
%LPC*%
D15*
X890175Y1189025D03*
D11*
%LPD*%
D17*
X890175Y1189025D03*
D11*
%LPC*%
D15*
X890175Y1199025D03*
D11*
%LPD*%
D17*
X890175Y1199025D03*
D11*
%LPC*%
D15*
X890175Y1209025D03*
D11*
%LPD*%
D17*
X890175Y1209025D03*
D11*
%LPC*%
D15*
X890175Y1219025D03*
D11*
%LPD*%
D17*
X890175Y1219025D03*
D11*
%LPC*%
D15*
X890175Y1229025D03*
D11*
%LPD*%
D17*
X890175Y1229025D03*
D11*
%LPC*%
D15*
X890175Y1239025D03*
D11*
%LPD*%
D17*
X890175Y1239025D03*
D11*
%LPC*%
D15*
X890175Y1249025D03*
D11*
%LPD*%
D17*
X890175Y1249025D03*
D11*
%LPC*%
D15*
X890175Y1259025D03*
D11*
%LPD*%
D17*
X890175Y1259025D03*
D11*
%LPC*%
D15*
X890175Y1269025D03*
D11*
%LPD*%
D17*
X890175Y1269025D03*
D11*
%LPC*%
D15*
X890175Y1279025D03*
D11*
%LPD*%
D17*
X890175Y1279025D03*
D11*
%LPC*%
%LPD*%
G36*
X886639Y1281146D02*
X888053Y1282560D01*
X893710Y1276903D01*
X892296Y1275489D01*
X886639Y1281146D01*
G37*
%LPC*%
%LPD*%
G36*
X888053Y1275489D02*
X886639Y1276903D01*
X892296Y1282560D01*
X893710Y1281146D01*
X888053Y1275489D01*
G37*
%LPC*%
D15*
X980175Y1279025D03*
D11*
%LPD*%
D17*
X980175Y1279025D03*
D11*
%LPC*%
D15*
X980175Y1269025D03*
D11*
%LPD*%
D17*
X980175Y1269025D03*
D11*
%LPC*%
D15*
X980175Y1259025D03*
D11*
%LPD*%
D17*
X980175Y1259025D03*
D11*
%LPC*%
D15*
X980175Y1249025D03*
D11*
%LPD*%
D17*
X980175Y1249025D03*
D11*
%LPC*%
D15*
X980175Y1239025D03*
D11*
%LPD*%
D17*
X980175Y1239025D03*
D11*
%LPC*%
D15*
X980175Y1229025D03*
D11*
%LPD*%
D17*
X980175Y1229025D03*
D11*
%LPC*%
D15*
X980175Y1219025D03*
D11*
%LPD*%
D17*
X980175Y1219025D03*
D11*
%LPC*%
D15*
X980175Y1209025D03*
D11*
%LPD*%
D17*
X980175Y1209025D03*
D11*
%LPC*%
D15*
X980175Y1199025D03*
D11*
%LPD*%
D17*
X980175Y1199025D03*
D11*
%LPC*%
D15*
X980175Y1189025D03*
D11*
%LPD*%
D17*
X980175Y1189025D03*
D11*
%LPC*%
D15*
X980175Y1179025D03*
D11*
%LPD*%
D17*
X980175Y1179025D03*
D11*
%LPC*%
D15*
X980175Y1169025D03*
D11*
%LPD*%
D17*
X980175Y1169025D03*
D11*
%LPC*%
D15*
X980175Y1159025D03*
D11*
%LPD*%
D17*
X980175Y1159025D03*
D11*
%LPC*%
D15*
X980175Y1149025D03*
D11*
%LPD*%
D17*
X980175Y1149025D03*
D11*
%LPC*%
D15*
X1040175Y1149025D03*
D11*
%LPD*%
D17*
X1040175Y1149025D03*
D11*
%LPC*%
D15*
X1040175Y1159025D03*
D11*
%LPD*%
D17*
X1040175Y1159025D03*
D11*
%LPC*%
D15*
X1040175Y1169025D03*
D11*
%LPD*%
D17*
X1040175Y1169025D03*
D11*
%LPC*%
D15*
X1040175Y1179025D03*
D11*
%LPD*%
D17*
X1040175Y1179025D03*
D11*
%LPC*%
D15*
X1040175Y1189025D03*
D11*
%LPD*%
D17*
X1040175Y1189025D03*
D11*
%LPC*%
D15*
X1040175Y1199025D03*
D11*
%LPD*%
D17*
X1040175Y1199025D03*
D11*
%LPC*%
D15*
X1040175Y1209025D03*
D11*
%LPD*%
D17*
X1040175Y1209025D03*
D11*
%LPC*%
D15*
X1040175Y1219025D03*
D11*
%LPD*%
D17*
X1040175Y1219025D03*
D11*
%LPC*%
D15*
X1040175Y1229025D03*
D11*
%LPD*%
D17*
X1040175Y1229025D03*
D11*
%LPC*%
D15*
X1040175Y1239025D03*
D11*
%LPD*%
D17*
X1040175Y1239025D03*
D11*
%LPC*%
D15*
X1040175Y1249025D03*
D11*
%LPD*%
D17*
X1040175Y1249025D03*
D11*
%LPC*%
D15*
X1040175Y1259025D03*
D11*
%LPD*%
D17*
X1040175Y1259025D03*
D11*
%LPC*%
D15*
X1040175Y1269025D03*
D11*
%LPD*%
D17*
X1040175Y1269025D03*
D11*
%LPC*%
D15*
X1040175Y1279025D03*
D11*
%LPD*%
D17*
X1040175Y1279025D03*
D11*
%LPC*%
%LPD*%
G36*
X1036639Y1281146D02*
X1038053Y1282560D01*
X1043710Y1276903D01*
X1042296Y1275489D01*
X1036639Y1281146D01*
G37*
%LPC*%
%LPD*%
G36*
X1038053Y1275489D02*
X1036639Y1276903D01*
X1042296Y1282560D01*
X1043710Y1281146D01*
X1038053Y1275489D01*
G37*
%LPC*%
D15*
X830175Y1129025D03*
D11*
%LPD*%
D17*
X830175Y1129025D03*
D11*
%LPC*%
D15*
X830175Y1119025D03*
D11*
%LPD*%
D17*
X830175Y1119025D03*
D11*
%LPC*%
D15*
X830175Y1109025D03*
D11*
%LPD*%
D17*
X830175Y1109025D03*
D11*
%LPC*%
D15*
X830175Y1099025D03*
D11*
%LPD*%
D17*
X830175Y1099025D03*
D11*
%LPC*%
D15*
X830175Y1089025D03*
D11*
%LPD*%
D17*
X830175Y1089025D03*
D11*
%LPC*%
D15*
X830175Y1079025D03*
D11*
%LPD*%
D17*
X830175Y1079025D03*
D11*
%LPC*%
D15*
X830175Y1069025D03*
D11*
%LPD*%
D17*
X830175Y1069025D03*
D11*
%LPC*%
D15*
X830175Y1059025D03*
D11*
%LPD*%
D17*
X830175Y1059025D03*
D11*
%LPC*%
D15*
X860175Y1059025D03*
D11*
%LPD*%
D17*
X860175Y1059025D03*
D11*
%LPC*%
%LPD*%
G36*
X856639Y1061146D02*
X858053Y1062560D01*
X863710Y1056903D01*
X862296Y1055489D01*
X856639Y1061146D01*
G37*
%LPC*%
%LPD*%
G36*
X858053Y1055489D02*
X856639Y1056903D01*
X862296Y1062560D01*
X863710Y1061146D01*
X858053Y1055489D01*
G37*
%LPC*%
D15*
X860175Y1069025D03*
D11*
%LPD*%
D17*
X860175Y1069025D03*
D11*
%LPC*%
D15*
X860175Y1079025D03*
D11*
%LPD*%
D17*
X860175Y1079025D03*
D11*
%LPC*%
D15*
X860175Y1089025D03*
D11*
%LPD*%
D17*
X860175Y1089025D03*
D11*
%LPC*%
D15*
X860175Y1099025D03*
D11*
%LPD*%
D17*
X860175Y1099025D03*
D11*
%LPC*%
D15*
X860175Y1109025D03*
D11*
%LPD*%
D17*
X860175Y1109025D03*
D11*
%LPC*%
D15*
X860175Y1119025D03*
D11*
%LPD*%
D17*
X860175Y1119025D03*
D11*
%LPC*%
D15*
X860175Y1129025D03*
D11*
%LPD*%
D17*
X860175Y1129025D03*
D11*
%LPC*%
%LPD*%
G36*
X856639Y1131146D02*
X858053Y1132560D01*
X863710Y1126903D01*
X862296Y1125489D01*
X856639Y1131146D01*
G37*
%LPC*%
%LPD*%
G36*
X858053Y1125489D02*
X856639Y1126903D01*
X862296Y1132560D01*
X863710Y1131146D01*
X858053Y1125489D01*
G37*
%LPC*%
D15*
X875175Y1104025D03*
D11*
%LPD*%
D17*
X875175Y1104025D03*
D11*
%LPC*%
D15*
X885175Y1104025D03*
D11*
%LPD*%
D17*
X885175Y1104025D03*
D11*
%LPC*%
D15*
X895175Y1104025D03*
D11*
%LPD*%
D17*
X895175Y1104025D03*
D11*
%LPC*%
D15*
X905175Y1104025D03*
D11*
%LPD*%
D17*
X905175Y1104025D03*
D11*
%LPC*%
D15*
X915175Y1104025D03*
D11*
%LPD*%
D17*
X915175Y1104025D03*
D11*
%LPC*%
D15*
X925175Y1104025D03*
D11*
%LPD*%
D17*
X925175Y1104025D03*
D11*
%LPC*%
D15*
X935175Y1104025D03*
D11*
%LPD*%
D17*
X935175Y1104025D03*
D11*
%LPC*%
D15*
X945175Y1104025D03*
D11*
%LPD*%
D17*
X945175Y1104025D03*
D11*
%LPC*%
D15*
X945175Y1134025D03*
D11*
%LPD*%
D17*
X945175Y1134025D03*
D11*
%LPC*%
%LPD*%
G36*
X941639Y1136146D02*
X943053Y1137560D01*
X948710Y1131903D01*
X947296Y1130489D01*
X941639Y1136146D01*
G37*
%LPC*%
%LPD*%
G36*
X943053Y1130489D02*
X941639Y1131903D01*
X947296Y1137560D01*
X948710Y1136146D01*
X943053Y1130489D01*
G37*
%LPC*%
D15*
X935175Y1134025D03*
D11*
%LPD*%
D17*
X935175Y1134025D03*
D11*
%LPC*%
D15*
X925175Y1134025D03*
D11*
%LPD*%
D17*
X925175Y1134025D03*
D11*
%LPC*%
D15*
X915175Y1134025D03*
D11*
%LPD*%
D17*
X915175Y1134025D03*
D11*
%LPC*%
D15*
X905175Y1134025D03*
D11*
%LPD*%
D17*
X905175Y1134025D03*
D11*
%LPC*%
D15*
X895175Y1134025D03*
D11*
%LPD*%
D17*
X895175Y1134025D03*
D11*
%LPC*%
D15*
X885175Y1134025D03*
D11*
%LPD*%
D17*
X885175Y1134025D03*
D11*
%LPC*%
D15*
X875175Y1134025D03*
D11*
%LPD*%
D17*
X875175Y1134025D03*
D11*
%LPC*%
%LPD*%
G36*
X871639Y1136146D02*
X873053Y1137560D01*
X878710Y1131903D01*
X877296Y1130489D01*
X871639Y1136146D01*
G37*
%LPC*%
%LPD*%
G36*
X873053Y1130489D02*
X871639Y1131903D01*
X877296Y1137560D01*
X878710Y1136146D01*
X873053Y1130489D01*
G37*
%LPC*%
D15*
X920175Y1089025D03*
D11*
%LPD*%
D17*
X920175Y1089025D03*
D11*
%LPC*%
D15*
X920175Y1079025D03*
D11*
%LPD*%
D17*
X920175Y1079025D03*
D11*
%LPC*%
D15*
X920175Y1069025D03*
D11*
%LPD*%
D17*
X920175Y1069025D03*
D11*
%LPC*%
D15*
X920175Y1059025D03*
D11*
%LPD*%
D17*
X920175Y1059025D03*
D11*
%LPC*%
D15*
X920175Y1049025D03*
D11*
%LPD*%
D17*
X920175Y1049025D03*
D11*
%LPC*%
D15*
X920175Y1039025D03*
D11*
%LPD*%
D17*
X920175Y1039025D03*
D11*
%LPC*%
D15*
X920175Y1029025D03*
D11*
%LPD*%
D17*
X920175Y1029025D03*
D11*
%LPC*%
D15*
X920175Y1019025D03*
D11*
%LPD*%
D17*
X920175Y1019025D03*
D11*
%LPC*%
D15*
X950175Y1019025D03*
D11*
%LPD*%
D17*
X950175Y1019025D03*
D11*
%LPC*%
%LPD*%
G36*
X946639Y1021146D02*
X948053Y1022560D01*
X953710Y1016903D01*
X952296Y1015489D01*
X946639Y1021146D01*
G37*
%LPC*%
%LPD*%
G36*
X948053Y1015489D02*
X946639Y1016903D01*
X952296Y1022560D01*
X953710Y1021146D01*
X948053Y1015489D01*
G37*
%LPC*%
D15*
X950175Y1029025D03*
D11*
%LPD*%
D17*
X950175Y1029025D03*
D11*
%LPC*%
D15*
X950175Y1039025D03*
D11*
%LPD*%
D17*
X950175Y1039025D03*
D11*
%LPC*%
D15*
X950175Y1049025D03*
D11*
%LPD*%
D17*
X950175Y1049025D03*
D11*
%LPC*%
D15*
X950175Y1059025D03*
D11*
%LPD*%
D17*
X950175Y1059025D03*
D11*
%LPC*%
D15*
X950175Y1069025D03*
D11*
%LPD*%
D17*
X950175Y1069025D03*
D11*
%LPC*%
D15*
X950175Y1079025D03*
D11*
%LPD*%
D17*
X950175Y1079025D03*
D11*
%LPC*%
D15*
X950175Y1089025D03*
D11*
%LPD*%
D17*
X950175Y1089025D03*
D11*
%LPC*%
%LPD*%
G36*
X946639Y1091146D02*
X948053Y1092560D01*
X953710Y1086903D01*
X952296Y1085489D01*
X946639Y1091146D01*
G37*
%LPC*%
%LPD*%
G36*
X948053Y1085489D02*
X946639Y1086903D01*
X952296Y1092560D01*
X953710Y1091146D01*
X948053Y1085489D01*
G37*
%LPC*%
D15*
X1217675Y1291525D03*
D11*
%LPD*%
D17*
X1217675Y1291525D03*
D11*
%LPC*%
D15*
X1227675Y1291525D03*
D11*
%LPD*%
D17*
X1227675Y1291525D03*
D11*
%LPC*%
D15*
X1237675Y1291525D03*
D11*
%LPD*%
D17*
X1237675Y1291525D03*
D11*
%LPC*%
D15*
X1247675Y1291525D03*
D11*
%LPD*%
D17*
X1247675Y1291525D03*
D11*
%LPC*%
D15*
X1257675Y1291525D03*
D11*
%LPD*%
D17*
X1257675Y1291525D03*
D11*
%LPC*%
D15*
X1267675Y1291525D03*
D11*
%LPD*%
D17*
X1267675Y1291525D03*
D11*
%LPC*%
D15*
X1277675Y1291525D03*
D11*
%LPD*%
D17*
X1277675Y1291525D03*
D11*
%LPC*%
D15*
X1277675Y1321525D03*
D11*
%LPD*%
D17*
X1277675Y1321525D03*
D11*
%LPC*%
D15*
X1267675Y1321525D03*
D11*
%LPD*%
D17*
X1267675Y1321525D03*
D11*
%LPC*%
%LPD*%
G36*
X1264139Y1323646D02*
X1265553Y1325060D01*
X1271210Y1319403D01*
X1269796Y1317989D01*
X1264139Y1323646D01*
G37*
%LPC*%
%LPD*%
G36*
X1265553Y1317989D02*
X1264139Y1319403D01*
X1269796Y1325060D01*
X1271210Y1323646D01*
X1265553Y1317989D01*
G37*
%LPC*%
D15*
X1257675Y1321525D03*
D11*
%LPD*%
D17*
X1257675Y1321525D03*
D11*
%LPC*%
D15*
X1247675Y1321525D03*
D11*
%LPD*%
D17*
X1247675Y1321525D03*
D11*
%LPC*%
D15*
X1237675Y1321525D03*
D11*
%LPD*%
D17*
X1237675Y1321525D03*
D11*
%LPC*%
D15*
X1227675Y1321525D03*
D11*
%LPD*%
D17*
X1227675Y1321525D03*
D11*
%LPC*%
D15*
X1217675Y1321525D03*
D11*
%LPD*%
D17*
X1217675Y1321525D03*
D11*
%LPC*%
%LPD*%
G36*
X1214139Y1323646D02*
X1215553Y1325060D01*
X1221210Y1319403D01*
X1219796Y1317989D01*
X1214139Y1323646D01*
G37*
%LPC*%
%LPD*%
G36*
X1215553Y1317989D02*
X1214139Y1319403D01*
X1219796Y1325060D01*
X1221210Y1323646D01*
X1215553Y1317989D01*
G37*
%LPC*%
D15*
X1012675Y924025D03*
D11*
%LPD*%
D17*
X1012675Y924025D03*
D11*
%LPC*%
D15*
X1022675Y924025D03*
D11*
%LPD*%
D17*
X1022675Y924025D03*
D11*
%LPC*%
D15*
X1032675Y924025D03*
D11*
%LPD*%
D17*
X1032675Y924025D03*
D11*
%LPC*%
D15*
X1042675Y924025D03*
D11*
%LPD*%
D17*
X1042675Y924025D03*
D11*
%LPC*%
D15*
X1042675Y954025D03*
D11*
%LPD*%
D17*
X1042675Y954025D03*
D11*
%LPC*%
D15*
X1032675Y954025D03*
D11*
%LPD*%
D17*
X1032675Y954025D03*
D11*
%LPC*%
D15*
X1022675Y954025D03*
D11*
%LPD*%
D17*
X1022675Y954025D03*
D11*
%LPC*%
D15*
X1012675Y954025D03*
D11*
%LPD*%
D17*
X1012675Y954025D03*
D11*
%LPC*%
D15*
X837675Y1294025D03*
D11*
%LPD*%
D17*
X837675Y1294025D03*
D11*
%LPC*%
D15*
X847675Y1294025D03*
D11*
%LPD*%
D17*
X847675Y1294025D03*
D11*
%LPC*%
D15*
X857675Y1294025D03*
D11*
%LPD*%
D17*
X857675Y1294025D03*
D11*
%LPC*%
D15*
X867675Y1294025D03*
D11*
%LPD*%
D17*
X867675Y1294025D03*
D11*
%LPC*%
D15*
X877675Y1294025D03*
D11*
%LPD*%
D17*
X877675Y1294025D03*
D11*
%LPC*%
D15*
X887675Y1294025D03*
D11*
%LPD*%
D17*
X887675Y1294025D03*
D11*
%LPC*%
D15*
X897675Y1294025D03*
D11*
%LPD*%
D17*
X897675Y1294025D03*
D11*
%LPC*%
D15*
X907675Y1294025D03*
D11*
%LPD*%
D17*
X907675Y1294025D03*
D11*
%LPC*%
D15*
X917675Y1294025D03*
D11*
%LPD*%
D17*
X917675Y1294025D03*
D11*
%LPC*%
D15*
X927675Y1294025D03*
D11*
%LPD*%
D17*
X927675Y1294025D03*
D11*
%LPC*%
D15*
X937675Y1294025D03*
D11*
%LPD*%
D17*
X937675Y1294025D03*
D11*
%LPC*%
D15*
X947675Y1294025D03*
D11*
%LPD*%
D17*
X947675Y1294025D03*
D11*
%LPC*%
D15*
X947675Y1324025D03*
D11*
%LPD*%
D17*
X947675Y1324025D03*
D11*
%LPC*%
D15*
X937675Y1324025D03*
D11*
%LPD*%
D17*
X937675Y1324025D03*
D11*
%LPC*%
D15*
X927675Y1324025D03*
D11*
%LPD*%
D17*
X927675Y1324025D03*
D11*
%LPC*%
D15*
X917675Y1324025D03*
D11*
%LPD*%
D17*
X917675Y1324025D03*
D11*
%LPC*%
D15*
X907675Y1324025D03*
D11*
%LPD*%
D17*
X907675Y1324025D03*
D11*
%LPC*%
D15*
X897675Y1324025D03*
D11*
%LPD*%
D17*
X897675Y1324025D03*
D11*
%LPC*%
D15*
X887675Y1324025D03*
D11*
%LPD*%
D17*
X887675Y1324025D03*
D11*
%LPC*%
D15*
X877675Y1324025D03*
D11*
%LPD*%
D17*
X877675Y1324025D03*
D11*
%LPC*%
D15*
X867675Y1324025D03*
D11*
%LPD*%
D17*
X867675Y1324025D03*
D11*
%LPC*%
D15*
X857675Y1324025D03*
D11*
%LPD*%
D17*
X857675Y1324025D03*
D11*
%LPC*%
D15*
X847675Y1324025D03*
D11*
%LPD*%
D17*
X847675Y1324025D03*
D11*
%LPC*%
D15*
X837675Y1324025D03*
D11*
%LPD*%
D17*
X837675Y1324025D03*
D11*
%LPC*%
%LPD*%
G36*
X834139Y1326146D02*
X835553Y1327560D01*
X841210Y1321903D01*
X839796Y1320489D01*
X834139Y1326146D01*
G37*
%LPC*%
%LPD*%
G36*
X835553Y1320489D02*
X834139Y1321903D01*
X839796Y1327560D01*
X841210Y1326146D01*
X835553Y1320489D01*
G37*
%LPC*%
D15*
X905175Y1279025D03*
D11*
%LPD*%
D17*
X905175Y1279025D03*
D11*
%LPC*%
D15*
X905175Y1269025D03*
D11*
%LPD*%
D17*
X905175Y1269025D03*
D11*
%LPC*%
D15*
X905175Y1259025D03*
D11*
%LPD*%
D17*
X905175Y1259025D03*
D11*
%LPC*%
D15*
X905175Y1249025D03*
D11*
%LPD*%
D17*
X905175Y1249025D03*
D11*
%LPC*%
D15*
X905175Y1239025D03*
D11*
%LPD*%
D17*
X905175Y1239025D03*
D11*
%LPC*%
D15*
X905175Y1229025D03*
D11*
%LPD*%
D17*
X905175Y1229025D03*
D11*
%LPC*%
D15*
X905175Y1219025D03*
D11*
%LPD*%
D17*
X905175Y1219025D03*
D11*
%LPC*%
D15*
X905175Y1209025D03*
D11*
%LPD*%
D17*
X905175Y1209025D03*
D11*
%LPC*%
D15*
X905175Y1199025D03*
D11*
%LPD*%
D17*
X905175Y1199025D03*
D11*
%LPC*%
D15*
X905175Y1189025D03*
D11*
%LPD*%
D17*
X905175Y1189025D03*
D11*
%LPC*%
D15*
X905175Y1179025D03*
D11*
%LPD*%
D17*
X905175Y1179025D03*
D11*
%LPC*%
D15*
X905175Y1169025D03*
D11*
%LPD*%
D17*
X905175Y1169025D03*
D11*
%LPC*%
D15*
X905175Y1159025D03*
D11*
%LPD*%
D17*
X905175Y1159025D03*
D11*
%LPC*%
D15*
X905175Y1149025D03*
D11*
%LPD*%
D17*
X905175Y1149025D03*
D11*
%LPC*%
D15*
X965175Y1149025D03*
D11*
%LPD*%
D17*
X965175Y1149025D03*
D11*
%LPC*%
D15*
X965175Y1159025D03*
D11*
%LPD*%
D17*
X965175Y1159025D03*
D11*
%LPC*%
D15*
X965175Y1169025D03*
D11*
%LPD*%
D17*
X965175Y1169025D03*
D11*
%LPC*%
D15*
X965175Y1179025D03*
D11*
%LPD*%
D17*
X965175Y1179025D03*
D11*
%LPC*%
D15*
X965175Y1189025D03*
D11*
%LPD*%
D17*
X965175Y1189025D03*
D11*
%LPC*%
D15*
X965175Y1199025D03*
D11*
%LPD*%
D17*
X965175Y1199025D03*
D11*
%LPC*%
D15*
X965175Y1209025D03*
D11*
%LPD*%
D17*
X965175Y1209025D03*
D11*
%LPC*%
D15*
X965175Y1219025D03*
D11*
%LPD*%
D17*
X965175Y1219025D03*
D11*
%LPC*%
D15*
X965175Y1229025D03*
D11*
%LPD*%
D17*
X965175Y1229025D03*
D11*
%LPC*%
D15*
X965175Y1239025D03*
D11*
%LPD*%
D17*
X965175Y1239025D03*
D11*
%LPC*%
D15*
X965175Y1249025D03*
D11*
%LPD*%
D17*
X965175Y1249025D03*
D11*
%LPC*%
D15*
X965175Y1259025D03*
D11*
%LPD*%
D17*
X965175Y1259025D03*
D11*
%LPC*%
D15*
X965175Y1269025D03*
D11*
%LPD*%
D17*
X965175Y1269025D03*
D11*
%LPC*%
D15*
X965175Y1279025D03*
D11*
%LPD*%
D17*
X965175Y1279025D03*
D11*
%LPC*%
%LPD*%
G36*
X961639Y1281146D02*
X963053Y1282560D01*
X968710Y1276903D01*
X967296Y1275489D01*
X961639Y1281146D01*
G37*
%LPC*%
%LPD*%
G36*
X963053Y1275489D02*
X961639Y1276903D01*
X967296Y1282560D01*
X968710Y1281146D01*
X963053Y1275489D01*
G37*
%LPC*%
D15*
X1137675Y1291525D03*
D11*
%LPD*%
D17*
X1137675Y1291525D03*
D11*
%LPC*%
D15*
X1147675Y1291525D03*
D11*
%LPD*%
D17*
X1147675Y1291525D03*
D11*
%LPC*%
D15*
X1157675Y1291525D03*
D11*
%LPD*%
D17*
X1157675Y1291525D03*
D11*
%LPC*%
D15*
X1167675Y1291525D03*
D11*
%LPD*%
D17*
X1167675Y1291525D03*
D11*
%LPC*%
D15*
X1177675Y1291525D03*
D11*
%LPD*%
D17*
X1177675Y1291525D03*
D11*
%LPC*%
D15*
X1187675Y1291525D03*
D11*
%LPD*%
D17*
X1187675Y1291525D03*
D11*
%LPC*%
D15*
X1197675Y1291525D03*
D11*
%LPD*%
D17*
X1197675Y1291525D03*
D11*
%LPC*%
D15*
X1197675Y1321525D03*
D11*
%LPD*%
D17*
X1197675Y1321525D03*
D11*
%LPC*%
D15*
X1187675Y1321525D03*
D11*
%LPD*%
D17*
X1187675Y1321525D03*
D11*
%LPC*%
%LPD*%
G36*
X1184139Y1323646D02*
X1185553Y1325060D01*
X1191210Y1319403D01*
X1189796Y1317989D01*
X1184139Y1323646D01*
G37*
%LPC*%
%LPD*%
G36*
X1185553Y1317989D02*
X1184139Y1319403D01*
X1189796Y1325060D01*
X1191210Y1323646D01*
X1185553Y1317989D01*
G37*
%LPC*%
D15*
X1177675Y1321525D03*
D11*
%LPD*%
D17*
X1177675Y1321525D03*
D11*
%LPC*%
D15*
X1167675Y1321525D03*
D11*
%LPD*%
D17*
X1167675Y1321525D03*
D11*
%LPC*%
D15*
X1157675Y1321525D03*
D11*
%LPD*%
D17*
X1157675Y1321525D03*
D11*
%LPC*%
D15*
X1147675Y1321525D03*
D11*
%LPD*%
D17*
X1147675Y1321525D03*
D11*
%LPC*%
D15*
X1137675Y1321525D03*
D11*
%LPD*%
D17*
X1137675Y1321525D03*
D11*
%LPC*%
%LPD*%
G36*
X1134139Y1323646D02*
X1135553Y1325060D01*
X1141210Y1319403D01*
X1139796Y1317989D01*
X1134139Y1323646D01*
G37*
%LPC*%
%LPD*%
G36*
X1135553Y1317989D02*
X1134139Y1319403D01*
X1139796Y1325060D01*
X1141210Y1323646D01*
X1135553Y1317989D01*
G37*
%LPC*%
D15*
X1057675Y1291525D03*
D11*
%LPD*%
D17*
X1057675Y1291525D03*
D11*
%LPC*%
D15*
X1067675Y1291525D03*
D11*
%LPD*%
D17*
X1067675Y1291525D03*
D11*
%LPC*%
D15*
X1077675Y1291525D03*
D11*
%LPD*%
D17*
X1077675Y1291525D03*
D11*
%LPC*%
D15*
X1087675Y1291525D03*
D11*
%LPD*%
D17*
X1087675Y1291525D03*
D11*
%LPC*%
D15*
X1097675Y1291525D03*
D11*
%LPD*%
D17*
X1097675Y1291525D03*
D11*
%LPC*%
D15*
X1107675Y1291525D03*
D11*
%LPD*%
D17*
X1107675Y1291525D03*
D11*
%LPC*%
D15*
X1117675Y1291525D03*
D11*
%LPD*%
D17*
X1117675Y1291525D03*
D11*
%LPC*%
D15*
X1117675Y1321525D03*
D11*
%LPD*%
D17*
X1117675Y1321525D03*
D11*
%LPC*%
D15*
X1107675Y1321525D03*
D11*
%LPD*%
D17*
X1107675Y1321525D03*
D11*
%LPC*%
%LPD*%
G36*
X1104139Y1323646D02*
X1105553Y1325060D01*
X1111210Y1319403D01*
X1109796Y1317989D01*
X1104139Y1323646D01*
G37*
%LPC*%
%LPD*%
G36*
X1105553Y1317989D02*
X1104139Y1319403D01*
X1109796Y1325060D01*
X1111210Y1323646D01*
X1105553Y1317989D01*
G37*
%LPC*%
D15*
X1097675Y1321525D03*
D11*
%LPD*%
D17*
X1097675Y1321525D03*
D11*
%LPC*%
D15*
X1087675Y1321525D03*
D11*
%LPD*%
D17*
X1087675Y1321525D03*
D11*
%LPC*%
D15*
X1077675Y1321525D03*
D11*
%LPD*%
D17*
X1077675Y1321525D03*
D11*
%LPC*%
D15*
X1067675Y1321525D03*
D11*
%LPD*%
D17*
X1067675Y1321525D03*
D11*
%LPC*%
D15*
X1057675Y1321525D03*
D11*
%LPD*%
D17*
X1057675Y1321525D03*
D11*
%LPC*%
%LPD*%
G36*
X1054139Y1323646D02*
X1055553Y1325060D01*
X1061210Y1319403D01*
X1059796Y1317989D01*
X1054139Y1323646D01*
G37*
%LPC*%
%LPD*%
G36*
X1055553Y1317989D02*
X1054139Y1319403D01*
X1059796Y1325060D01*
X1061210Y1323646D01*
X1055553Y1317989D01*
G37*
%LPC*%
D15*
X1055175Y1244025D03*
D11*
%LPD*%
D17*
X1055175Y1244025D03*
D11*
%LPC*%
D15*
X1055175Y1234025D03*
D11*
%LPD*%
D17*
X1055175Y1234025D03*
D11*
%LPC*%
D15*
X1055175Y1224025D03*
D11*
%LPD*%
D17*
X1055175Y1224025D03*
D11*
%LPC*%
D15*
X1055175Y1214025D03*
D11*
%LPD*%
D17*
X1055175Y1214025D03*
D11*
%LPC*%
D15*
X1055175Y1204025D03*
D11*
%LPD*%
D17*
X1055175Y1204025D03*
D11*
%LPC*%
D15*
X1055175Y1194025D03*
D11*
%LPD*%
D17*
X1055175Y1194025D03*
D11*
%LPC*%
D15*
X1055175Y1184025D03*
D11*
%LPD*%
D17*
X1055175Y1184025D03*
D11*
%LPC*%
D15*
X1055175Y1174025D03*
D11*
%LPD*%
D17*
X1055175Y1174025D03*
D11*
%LPC*%
D15*
X1055175Y1164025D03*
D11*
%LPD*%
D17*
X1055175Y1164025D03*
D11*
%LPC*%
D15*
X1055175Y1154025D03*
D11*
%LPD*%
D17*
X1055175Y1154025D03*
D11*
%LPC*%
D15*
X1055175Y1144025D03*
D11*
%LPD*%
D17*
X1055175Y1144025D03*
D11*
%LPC*%
D15*
X1055175Y1134025D03*
D11*
%LPD*%
D17*
X1055175Y1134025D03*
D11*
%LPC*%
D15*
X1085175Y1134025D03*
D11*
%LPD*%
D17*
X1085175Y1134025D03*
D11*
%LPC*%
D15*
X1085175Y1144025D03*
D11*
%LPD*%
D17*
X1085175Y1144025D03*
D11*
%LPC*%
D15*
X1085175Y1154025D03*
D11*
%LPD*%
D17*
X1085175Y1154025D03*
D11*
%LPC*%
D15*
X1085175Y1164025D03*
D11*
%LPD*%
D17*
X1085175Y1164025D03*
D11*
%LPC*%
D15*
X1085175Y1174025D03*
D11*
%LPD*%
D17*
X1085175Y1174025D03*
D11*
%LPC*%
D15*
X1085175Y1184025D03*
D11*
%LPD*%
D17*
X1085175Y1184025D03*
D11*
%LPC*%
D15*
X1085175Y1194025D03*
D11*
%LPD*%
D17*
X1085175Y1194025D03*
D11*
%LPC*%
D15*
X1085175Y1204025D03*
D11*
%LPD*%
D17*
X1085175Y1204025D03*
D11*
%LPC*%
D15*
X1085175Y1214025D03*
D11*
%LPD*%
D17*
X1085175Y1214025D03*
D11*
%LPC*%
D15*
X1085175Y1224025D03*
D11*
%LPD*%
D17*
X1085175Y1224025D03*
D11*
%LPC*%
D15*
X1085175Y1234025D03*
D11*
%LPD*%
D17*
X1085175Y1234025D03*
D11*
%LPC*%
D15*
X1085175Y1244025D03*
D11*
%LPD*%
D17*
X1085175Y1244025D03*
D11*
%LPC*%
%LPD*%
G36*
X1081639Y1246146D02*
X1083053Y1247560D01*
X1088710Y1241903D01*
X1087296Y1240489D01*
X1081639Y1246146D01*
G37*
%LPC*%
%LPD*%
G36*
X1083053Y1240489D02*
X1081639Y1241903D01*
X1087296Y1247560D01*
X1088710Y1246146D01*
X1083053Y1240489D01*
G37*
%LPC*%
D15*
X1147675Y1244025D03*
D11*
%LPD*%
D17*
X1147675Y1244025D03*
D11*
%LPC*%
D15*
X1147675Y1234025D03*
D11*
%LPD*%
D17*
X1147675Y1234025D03*
D11*
%LPC*%
D15*
X1147675Y1224025D03*
D11*
%LPD*%
D17*
X1147675Y1224025D03*
D11*
%LPC*%
D15*
X1147675Y1214025D03*
D11*
%LPD*%
D17*
X1147675Y1214025D03*
D11*
%LPC*%
D15*
X1147675Y1204025D03*
D11*
%LPD*%
D17*
X1147675Y1204025D03*
D11*
%LPC*%
D15*
X1147675Y1194025D03*
D11*
%LPD*%
D17*
X1147675Y1194025D03*
D11*
%LPC*%
D15*
X1147675Y1184025D03*
D11*
%LPD*%
D17*
X1147675Y1184025D03*
D11*
%LPC*%
D15*
X1147675Y1174025D03*
D11*
%LPD*%
D17*
X1147675Y1174025D03*
D11*
%LPC*%
D15*
X1147675Y1164025D03*
D11*
%LPD*%
D17*
X1147675Y1164025D03*
D11*
%LPC*%
D15*
X1147675Y1154025D03*
D11*
%LPD*%
D17*
X1147675Y1154025D03*
D11*
%LPC*%
D15*
X1147675Y1144025D03*
D11*
%LPD*%
D17*
X1147675Y1144025D03*
D11*
%LPC*%
%LPD*%
G36*
X1144139Y1146146D02*
X1145553Y1147560D01*
X1151210Y1141903D01*
X1149796Y1140489D01*
X1144139Y1146146D01*
G37*
%LPC*%
%LPD*%
G36*
X1145553Y1140489D02*
X1144139Y1141903D01*
X1149796Y1147560D01*
X1151210Y1146146D01*
X1145553Y1140489D01*
G37*
%LPC*%
D15*
X1147675Y1134025D03*
D11*
%LPD*%
D17*
X1147675Y1134025D03*
D11*
%LPC*%
D15*
X1177675Y1134025D03*
D11*
%LPD*%
D17*
X1177675Y1134025D03*
D11*
%LPC*%
D15*
X1177675Y1144025D03*
D11*
%LPD*%
D17*
X1177675Y1144025D03*
D11*
%LPC*%
D15*
X1177675Y1154025D03*
D11*
%LPD*%
D17*
X1177675Y1154025D03*
D11*
%LPC*%
D15*
X1177675Y1164025D03*
D11*
%LPD*%
D17*
X1177675Y1164025D03*
D11*
%LPC*%
D15*
X1177675Y1174025D03*
D11*
%LPD*%
D17*
X1177675Y1174025D03*
D11*
%LPC*%
D15*
X1177675Y1184025D03*
D11*
%LPD*%
D17*
X1177675Y1184025D03*
D11*
%LPC*%
D15*
X1177675Y1194025D03*
D11*
%LPD*%
D17*
X1177675Y1194025D03*
D11*
%LPC*%
D15*
X1177675Y1204025D03*
D11*
%LPD*%
D17*
X1177675Y1204025D03*
D11*
%LPC*%
D15*
X1177675Y1214025D03*
D11*
%LPD*%
D17*
X1177675Y1214025D03*
D11*
%LPC*%
D15*
X1177675Y1224025D03*
D11*
%LPD*%
D17*
X1177675Y1224025D03*
D11*
%LPC*%
D15*
X1177675Y1234025D03*
D11*
%LPD*%
D17*
X1177675Y1234025D03*
D11*
%LPC*%
D15*
X1177675Y1244025D03*
D11*
%LPD*%
D17*
X1177675Y1244025D03*
D11*
%LPC*%
%LPD*%
G36*
X1174139Y1246146D02*
X1175553Y1247560D01*
X1181210Y1241903D01*
X1179796Y1240489D01*
X1174139Y1246146D01*
G37*
%LPC*%
%LPD*%
G36*
X1175553Y1240489D02*
X1174139Y1241903D01*
X1179796Y1247560D01*
X1181210Y1246146D01*
X1175553Y1240489D01*
G37*
%LPC*%
D15*
X1247675Y1204025D03*
D11*
%LPD*%
D17*
X1247675Y1204025D03*
D11*
%LPC*%
D15*
X1247675Y1194025D03*
D11*
%LPD*%
D17*
X1247675Y1194025D03*
D11*
%LPC*%
D15*
X1247675Y1184025D03*
D11*
%LPD*%
D17*
X1247675Y1184025D03*
D11*
%LPC*%
D15*
X1247675Y1174025D03*
D11*
%LPD*%
D17*
X1247675Y1174025D03*
D11*
%LPC*%
D15*
X1247675Y1164025D03*
D11*
%LPD*%
D17*
X1247675Y1164025D03*
D11*
%LPC*%
D15*
X1247675Y1154025D03*
D11*
%LPD*%
D17*
X1247675Y1154025D03*
D11*
%LPC*%
D15*
X1247675Y1144025D03*
D11*
%LPD*%
D17*
X1247675Y1144025D03*
D11*
%LPC*%
D15*
X1247675Y1134025D03*
D11*
%LPD*%
D17*
X1247675Y1134025D03*
D11*
%LPC*%
D15*
X1277675Y1134025D03*
D11*
%LPD*%
D17*
X1277675Y1134025D03*
D11*
%LPC*%
D15*
X1277675Y1144025D03*
D11*
%LPD*%
D17*
X1277675Y1144025D03*
D11*
%LPC*%
D15*
X1277675Y1154025D03*
D11*
%LPD*%
D17*
X1277675Y1154025D03*
D11*
%LPC*%
D15*
X1277675Y1164025D03*
D11*
%LPD*%
D17*
X1277675Y1164025D03*
D11*
%LPC*%
D15*
X1277675Y1174025D03*
D11*
%LPD*%
D17*
X1277675Y1174025D03*
D11*
%LPC*%
D15*
X1277675Y1184025D03*
D11*
%LPD*%
D17*
X1277675Y1184025D03*
D11*
%LPC*%
D15*
X1277675Y1194025D03*
D11*
%LPD*%
D17*
X1277675Y1194025D03*
D11*
%LPC*%
D15*
X1277675Y1204025D03*
D11*
%LPD*%
D17*
X1277675Y1204025D03*
D11*
%LPC*%
D15*
X1115175Y924025D03*
D11*
%LPD*%
D17*
X1115175Y924025D03*
D11*
%LPC*%
D15*
X1125175Y924025D03*
D11*
%LPD*%
D17*
X1125175Y924025D03*
D11*
%LPC*%
D15*
X1135175Y924025D03*
D11*
%LPD*%
D17*
X1135175Y924025D03*
D11*
%LPC*%
D15*
X1145175Y924025D03*
D11*
%LPD*%
D17*
X1145175Y924025D03*
D11*
%LPC*%
D15*
X1145175Y954025D03*
D11*
%LPD*%
D17*
X1145175Y954025D03*
D11*
%LPC*%
D15*
X1135175Y954025D03*
D11*
%LPD*%
D17*
X1135175Y954025D03*
D11*
%LPC*%
D15*
X1125175Y954025D03*
D11*
%LPD*%
D17*
X1125175Y954025D03*
D11*
%LPC*%
D15*
X1115175Y954025D03*
D11*
%LPD*%
D17*
X1115175Y954025D03*
D11*
%LPC*%
D15*
X1197675Y1204025D03*
D11*
%LPD*%
D17*
X1197675Y1204025D03*
D11*
%LPC*%
D15*
X1197675Y1194025D03*
D11*
%LPD*%
D17*
X1197675Y1194025D03*
D11*
%LPC*%
D15*
X1197675Y1184025D03*
D11*
%LPD*%
D17*
X1197675Y1184025D03*
D11*
%LPC*%
D15*
X1197675Y1174025D03*
D11*
%LPD*%
D17*
X1197675Y1174025D03*
D11*
%LPC*%
D15*
X1197675Y1164025D03*
D11*
%LPD*%
D17*
X1197675Y1164025D03*
D11*
%LPC*%
D15*
X1197675Y1154025D03*
D11*
%LPD*%
D17*
X1197675Y1154025D03*
D11*
%LPC*%
D15*
X1197675Y1144025D03*
D11*
%LPD*%
D17*
X1197675Y1144025D03*
D11*
%LPC*%
D15*
X1197675Y1134025D03*
D11*
%LPD*%
D17*
X1197675Y1134025D03*
D11*
%LPC*%
D15*
X1227675Y1134025D03*
D11*
%LPD*%
D17*
X1227675Y1134025D03*
D11*
%LPC*%
D15*
X1227675Y1144025D03*
D11*
%LPD*%
D17*
X1227675Y1144025D03*
D11*
%LPC*%
D15*
X1227675Y1154025D03*
D11*
%LPD*%
D17*
X1227675Y1154025D03*
D11*
%LPC*%
D15*
X1227675Y1164025D03*
D11*
%LPD*%
D17*
X1227675Y1164025D03*
D11*
%LPC*%
D15*
X1227675Y1174025D03*
D11*
%LPD*%
D17*
X1227675Y1174025D03*
D11*
%LPC*%
D15*
X1227675Y1184025D03*
D11*
%LPD*%
D17*
X1227675Y1184025D03*
D11*
%LPC*%
D15*
X1227675Y1194025D03*
D11*
%LPD*%
D17*
X1227675Y1194025D03*
D11*
%LPC*%
D15*
X1227675Y1204025D03*
D11*
%LPD*%
D17*
X1227675Y1204025D03*
D11*
%LPC*%
D15*
X1227675Y924025D03*
D11*
%LPD*%
D17*
X1227675Y924025D03*
D11*
%LPC*%
D15*
X1237675Y924025D03*
D11*
%LPD*%
D17*
X1237675Y924025D03*
D11*
%LPC*%
D15*
X1247675Y924025D03*
D11*
%LPD*%
D17*
X1247675Y924025D03*
D11*
%LPC*%
D15*
X1257675Y924025D03*
D11*
%LPD*%
D17*
X1257675Y924025D03*
D11*
%LPC*%
D15*
X1257675Y954025D03*
D11*
%LPD*%
D17*
X1257675Y954025D03*
D11*
%LPC*%
D15*
X1247675Y954025D03*
D11*
%LPD*%
D17*
X1247675Y954025D03*
D11*
%LPC*%
D15*
X1237675Y954025D03*
D11*
%LPD*%
D17*
X1237675Y954025D03*
D11*
%LPC*%
D15*
X1227675Y954025D03*
D11*
%LPD*%
D17*
X1227675Y954025D03*
D11*
%LPC*%
D15*
X1185175Y871525D03*
D11*
%LPD*%
D17*
X1185175Y871525D03*
D11*
%LPC*%
D15*
X1145175Y871525D03*
D11*
%LPD*%
D17*
X1145175Y871525D03*
D11*
%LPC*%
%LPD*%
G36*
X1141639Y873646D02*
X1143053Y875060D01*
X1148710Y869403D01*
X1147296Y867989D01*
X1141639Y873646D01*
G37*
%LPC*%
%LPD*%
G36*
X1143053Y867989D02*
X1141639Y869403D01*
X1147296Y875060D01*
X1148710Y873646D01*
X1143053Y867989D01*
G37*
%LPC*%
D14*
X1267675Y1219025D03*
D11*
%LPD*%
D15*
X1267675Y1219025D03*
D11*
%LPC*%
D14*
X1247675Y1219025D03*
D11*
%LPD*%
D15*
X1247675Y1219025D03*
D11*
%LPC*%
D14*
X1197675Y1219025D03*
D11*
%LPD*%
D15*
X1197675Y1219025D03*
D11*
%LPC*%
D14*
X1217675Y1219025D03*
D11*
%LPD*%
D15*
X1217675Y1219025D03*
D11*
%LPC*%
D14*
X1097675Y1249025D03*
D11*
%LPD*%
D15*
X1097675Y1249025D03*
D11*
%LPC*%
D14*
X1117675Y1249025D03*
D11*
%LPD*%
D15*
X1117675Y1249025D03*
D11*
%LPC*%
D15*
X1232675Y914025D03*
D11*
%LPD*%
D17*
X1232675Y914025D03*
D11*
%LPC*%
D15*
X1272675Y914025D03*
D11*
%LPD*%
D17*
X1272675Y914025D03*
D11*
%LPC*%
D15*
X1180175Y921525D03*
D11*
%LPD*%
D17*
X1180175Y921525D03*
D11*
%LPC*%
D15*
X1180175Y961525D03*
D11*
%LPD*%
D17*
X1180175Y961525D03*
D11*
%LPC*%
D15*
X1077675Y921525D03*
D11*
%LPD*%
D17*
X1077675Y921525D03*
D11*
%LPC*%
D15*
X1077675Y961525D03*
D11*
%LPD*%
D17*
X1077675Y961525D03*
D11*
%LPC*%
D15*
X850175Y996525D03*
D11*
%LPD*%
D17*
X850175Y996525D03*
D11*
%LPC*%
D15*
X850175Y1016525D03*
D11*
%LPD*%
D17*
X850175Y1016525D03*
D11*
%LPC*%
D15*
X875175Y1006525D03*
D11*
%LPD*%
D17*
X875175Y1006525D03*
D11*
%LPC*%
D15*
X875175Y976525D03*
D11*
%LPD*%
D17*
X875175Y976525D03*
D11*
%LPC*%
D15*
X885175Y1006525D03*
D11*
%LPD*%
D17*
X885175Y1006525D03*
D11*
%LPC*%
D15*
X885175Y976525D03*
D11*
%LPD*%
D17*
X885175Y976525D03*
D11*
%LPC*%
%LPD*%
G36*
X881639Y978646D02*
X883053Y980060D01*
X888710Y974403D01*
X887296Y972989D01*
X881639Y978646D01*
G37*
%LPC*%
%LPD*%
G36*
X883053Y972989D02*
X881639Y974403D01*
X887296Y980060D01*
X888710Y978646D01*
X883053Y972989D01*
G37*
%LPC*%
D15*
X917675Y996525D03*
D11*
%LPD*%
D17*
X917675Y996525D03*
D11*
%LPC*%
%LPD*%
G36*
X914139Y998646D02*
X915553Y1000060D01*
X921210Y994403D01*
X919796Y992989D01*
X914139Y998646D01*
G37*
%LPC*%
%LPD*%
G36*
X915553Y992989D02*
X914139Y994403D01*
X919796Y1000060D01*
X921210Y998646D01*
X915553Y992989D01*
G37*
%LPC*%
D15*
X917675Y956525D03*
D11*
%LPD*%
D17*
X917675Y956525D03*
D11*
%LPC*%
D15*
X1017675Y911525D03*
D11*
%LPD*%
D17*
X1017675Y911525D03*
D11*
%LPC*%
D15*
X1017675Y871525D03*
D11*
%LPD*%
D17*
X1017675Y871525D03*
D11*
%LPC*%
D15*
X962675Y886525D03*
D11*
%LPD*%
D17*
X962675Y886525D03*
D11*
%LPC*%
D15*
X932675Y886525D03*
D11*
%LPD*%
D17*
X932675Y886525D03*
D11*
%LPC*%
D15*
X962675Y876525D03*
D11*
%LPD*%
D17*
X962675Y876525D03*
D11*
%LPC*%
D15*
X932675Y876525D03*
D11*
%LPD*%
D17*
X932675Y876525D03*
D11*
%LPC*%
D15*
X1057675Y911525D03*
D11*
%LPD*%
D17*
X1057675Y911525D03*
D11*
%LPC*%
D15*
X1057675Y871525D03*
D11*
%LPD*%
D17*
X1057675Y871525D03*
D11*
%LPC*%
D15*
X1047675Y871525D03*
D11*
%LPD*%
D17*
X1047675Y871525D03*
D11*
%LPC*%
D15*
X1047675Y881525D03*
D11*
%LPD*%
D17*
X1047675Y881525D03*
D11*
%LPC*%
D15*
X1047675Y909025D03*
D11*
%LPD*%
D17*
X1047675Y909025D03*
D11*
%LPC*%
D15*
X1047675Y899025D03*
D11*
%LPD*%
D17*
X1047675Y899025D03*
D11*
%LPC*%
D14*
X1095175Y1126525D03*
D11*
%LPD*%
D15*
X1095175Y1126525D03*
D11*
%LPC*%
D14*
X1095175Y1146525D03*
D11*
%LPD*%
D15*
X1095175Y1146525D03*
D11*
%LPC*%
D20*
X545175Y1341525D03*
D11*
%LPD*%
X545175Y1341525D03*
D11*
%LPC*%
D20*
X1277675Y874025D03*
D11*
%LPD*%
X1277675Y874025D03*
D11*
%LPC*%
D15*
X840175Y996525D03*
D11*
%LPD*%
D17*
X840175Y996525D03*
D11*
%LPC*%
D15*
X840175Y956525D03*
D11*
%LPD*%
D17*
X840175Y956525D03*
D11*
%LPC*%
D15*
X850175Y966525D03*
D11*
%LPD*%
D17*
X850175Y966525D03*
D11*
%LPC*%
D15*
X850175Y956525D03*
D11*
%LPD*%
D17*
X850175Y956525D03*
D11*
%LPC*%
D16*
X852675Y979025D03*
D11*
%LPD*%
D14*
X852675Y979025D03*
D11*
%LPC*%
D20*
X675175Y891525D03*
D11*
%LPD*%
X675175Y891525D03*
D11*
%LPC*%
D20*
X600175Y896525D03*
D11*
%LPD*%
X600175Y896525D03*
D11*
%LPC*%
D20*
X602675Y994025D03*
D11*
%LPD*%
X602675Y994025D03*
D11*
%LPC*%
D20*
X672675Y1054025D03*
D11*
%LPD*%
X672675Y1054025D03*
D11*
%LPC*%
D20*
X702675Y1076525D03*
D11*
%LPD*%
X702675Y1076525D03*
D11*
%LPC*%
D20*
X755175Y1179025D03*
D11*
%LPD*%
X755175Y1179025D03*
D11*
%LPC*%
D20*
X755175Y1154025D03*
D11*
%LPD*%
X755175Y1154025D03*
D11*
%LPC*%
D20*
X617675Y1156525D03*
D11*
%LPD*%
X617675Y1156525D03*
D11*
%LPC*%
D20*
X755175Y1179025D03*
D11*
%LPD*%
X755175Y1179025D03*
D11*
%LPC*%
D20*
X685175Y1016525D03*
D11*
%LPD*%
X685175Y1016525D03*
D11*
%LPC*%
D20*
X582675Y1094025D03*
D11*
%LPD*%
X582675Y1094025D03*
D11*
%LPC*%
D20*
X735175Y1066525D03*
D11*
%LPD*%
X735175Y1066525D03*
D11*
%LPC*%
D20*
X572675Y1084025D03*
D11*
%LPD*%
X572675Y1084025D03*
D11*
%LPC*%
D20*
X740175Y1054025D03*
D11*
%LPD*%
X740175Y1054025D03*
D11*
%LPC*%
D20*
X667675Y1091525D03*
D11*
%LPD*%
X667675Y1091525D03*
D11*
%LPC*%
D20*
X627675Y1151525D03*
D11*
%LPD*%
X627675Y1151525D03*
D11*
%LPC*%
D20*
X750175Y1146525D03*
D11*
%LPD*%
X750175Y1146525D03*
D11*
%LPC*%
D20*
X750175Y1169025D03*
D11*
%LPD*%
X750175Y1169025D03*
D11*
%LPC*%
D20*
X750175Y1169025D03*
D11*
%LPD*%
X750175Y1169025D03*
D11*
%LPC*%
D20*
X740175Y1046525D03*
D11*
%LPD*%
X740175Y1046525D03*
D11*
%LPC*%
D20*
X732675Y1034025D03*
D11*
%LPD*%
X732675Y1034025D03*
D11*
%LPC*%
D20*
X722675Y1024025D03*
D11*
%LPD*%
X722675Y1024025D03*
D11*
%LPC*%
D20*
X712675Y1024025D03*
D11*
%LPD*%
X712675Y1024025D03*
D11*
%LPC*%
D20*
X740175Y1061525D03*
D11*
%LPD*%
X740175Y1061525D03*
D11*
%LPC*%
D20*
X577675Y1089025D03*
D11*
%LPD*%
X577675Y1089025D03*
D11*
%LPC*%
D20*
X692675Y1019025D03*
D11*
%LPD*%
X692675Y1019025D03*
D11*
%LPC*%
D20*
X680175Y986525D03*
D11*
%LPD*%
X680175Y986525D03*
D11*
%LPC*%
D20*
X707675Y1019025D03*
D11*
%LPD*%
X707675Y1019025D03*
D11*
%LPC*%
D20*
X717675Y1019025D03*
D11*
%LPD*%
X717675Y1019025D03*
D11*
%LPC*%
D20*
X725175Y1031525D03*
D11*
%LPD*%
X725175Y1031525D03*
D11*
%LPC*%
D20*
X735175Y1041525D03*
D11*
%LPD*%
X735175Y1041525D03*
D11*
%LPC*%
D20*
X637675Y896525D03*
D11*
%LPD*%
X637675Y896525D03*
D11*
%LPC*%
D20*
X632675Y874025D03*
D11*
%LPD*%
X632675Y874025D03*
D11*
%LPC*%
D20*
X652675Y874025D03*
D11*
%LPD*%
X652675Y874025D03*
D11*
%LPC*%
D20*
X765175Y1269025D03*
D11*
%LPD*%
X765175Y1269025D03*
D11*
%LPC*%
D20*
X667675Y981525D03*
D11*
%LPD*%
X667675Y981525D03*
D11*
%LPC*%
D20*
X1155175Y1189025D03*
D11*
%LPD*%
X1155175Y1189025D03*
D11*
%LPC*%
D20*
X1110175Y1241525D03*
D11*
%LPD*%
X1110175Y1241525D03*
D11*
%LPC*%
D20*
X1155175Y1189025D03*
D11*
%LPD*%
X1155175Y1189025D03*
D11*
%LPC*%
D20*
X692675Y1106525D03*
D11*
%LPD*%
X692675Y1106525D03*
D11*
%LPC*%
D20*
X675175Y1181525D03*
D11*
%LPD*%
X675175Y1181525D03*
D11*
%LPC*%
D20*
X965175Y1134025D03*
D11*
%LPD*%
X965175Y1134025D03*
D11*
%LPC*%
D20*
X1067675Y1129025D03*
D11*
%LPD*%
X1067675Y1129025D03*
D11*
%LPC*%
D20*
X762675Y911525D03*
D11*
%LPD*%
X762675Y911525D03*
D11*
%LPC*%
D20*
X837675Y1224025D03*
D11*
%LPD*%
X837675Y1224025D03*
D11*
%LPC*%
D20*
X772675Y1224025D03*
D11*
%LPD*%
X772675Y1224025D03*
D11*
%LPC*%
D20*
X1205175Y929025D03*
D11*
%LPD*%
X1205175Y929025D03*
D11*
%LPC*%
D20*
X1202675Y951525D03*
D11*
%LPD*%
X1202675Y951525D03*
D11*
%LPC*%
D20*
X1112675Y936525D03*
D11*
%LPD*%
X1112675Y936525D03*
D11*
%LPC*%
D20*
X1042675Y936525D03*
D11*
%LPD*%
X1042675Y936525D03*
D11*
%LPC*%
D20*
X1112675Y936525D03*
D11*
%LPD*%
X1112675Y936525D03*
D11*
%LPC*%
D20*
X1042675Y936525D03*
D11*
%LPD*%
X1042675Y936525D03*
D11*
%LPC*%
D20*
X1265175Y1011525D03*
D11*
%LPD*%
X1265175Y1011525D03*
D11*
%LPC*%
D20*
X1222675Y1009025D03*
D11*
%LPD*%
X1222675Y1009025D03*
D11*
%LPC*%
D20*
X1107675Y974025D03*
D11*
%LPD*%
X1107675Y974025D03*
D11*
%LPC*%
D20*
X1122675Y1009025D03*
D11*
%LPD*%
X1122675Y1009025D03*
D11*
%LPC*%
D20*
X1162675Y1011525D03*
D11*
%LPD*%
X1162675Y1011525D03*
D11*
%LPC*%
D20*
X1020175Y1009025D03*
D11*
%LPD*%
X1020175Y1009025D03*
D11*
%LPC*%
D20*
X1060175Y1011525D03*
D11*
%LPD*%
X1060175Y1011525D03*
D11*
%LPC*%
D20*
X1182675Y879025D03*
D11*
%LPD*%
X1182675Y879025D03*
D11*
%LPC*%
D20*
X1217675Y919025D03*
D11*
%LPD*%
X1217675Y919025D03*
D11*
%LPC*%
D20*
X1005175Y984025D03*
D11*
%LPD*%
X1005175Y984025D03*
D11*
%LPC*%
D20*
X980175Y984025D03*
D11*
%LPD*%
X980175Y984025D03*
D11*
%LPC*%
D20*
X1212675Y984025D03*
D11*
%LPD*%
X1212675Y984025D03*
D11*
%LPC*%
D20*
X1215175Y1126525D03*
D11*
%LPD*%
X1215175Y1126525D03*
D11*
%LPC*%
D20*
X642675Y1096525D03*
D11*
%LPD*%
X642675Y1096525D03*
D11*
%LPC*%
D20*
X792675Y1071525D03*
D11*
%LPD*%
X792675Y1071525D03*
D11*
%LPC*%
D20*
X785175Y1171525D03*
D11*
%LPD*%
X785175Y1171525D03*
D11*
%LPC*%
D20*
X777675Y1309025D03*
D11*
%LPD*%
X777675Y1309025D03*
D11*
%LPC*%
D20*
X937675Y966525D03*
D11*
%LPD*%
X937675Y966525D03*
D11*
%LPC*%
D20*
X787675Y1244025D03*
D11*
%LPD*%
X787675Y1244025D03*
D11*
%LPC*%
D20*
X782675Y1194025D03*
D11*
%LPD*%
X782675Y1194025D03*
D11*
%LPC*%
D20*
X647675Y1234025D03*
D11*
%LPD*%
X647675Y1234025D03*
D11*
%LPC*%
D20*
X592675Y1234025D03*
D11*
%LPD*%
X592675Y1234025D03*
D11*
%LPC*%
D20*
X602675Y1304025D03*
D11*
%LPD*%
X602675Y1304025D03*
D11*
%LPC*%
D20*
X612675Y1294025D03*
D11*
%LPD*%
X612675Y1294025D03*
D11*
%LPC*%
D20*
X622675Y1284025D03*
D11*
%LPD*%
X622675Y1284025D03*
D11*
%LPC*%
D20*
X632675Y1274025D03*
D11*
%LPD*%
X632675Y1274025D03*
D11*
%LPC*%
D20*
X652675Y1111525D03*
D11*
%LPD*%
X652675Y1111525D03*
D11*
%LPC*%
D20*
X810175Y1084025D03*
D11*
%LPD*%
X810175Y1084025D03*
D11*
%LPC*%
D20*
X852675Y1094025D03*
D11*
%LPD*%
X852675Y1094025D03*
D11*
%LPC*%
D20*
X857675Y1199025D03*
D11*
%LPD*%
X857675Y1199025D03*
D11*
%LPC*%
D20*
X875175Y1204025D03*
D11*
%LPD*%
X875175Y1204025D03*
D11*
%LPC*%
D20*
X1245175Y1239025D03*
D11*
%LPD*%
X1245175Y1239025D03*
D11*
%LPC*%
D20*
X922675Y1229025D03*
D11*
%LPD*%
X922675Y1229025D03*
D11*
%LPC*%
D20*
X1270175Y1209025D03*
D11*
%LPD*%
X1270175Y1209025D03*
D11*
%LPC*%
D20*
X932675Y1236525D03*
D11*
%LPD*%
X932675Y1236525D03*
D11*
%LPC*%
D20*
X1262675Y1199025D03*
D11*
%LPD*%
X1262675Y1199025D03*
D11*
%LPC*%
D20*
X942675Y1274025D03*
D11*
%LPD*%
X942675Y1274025D03*
D11*
%LPC*%
D20*
X820175Y1264025D03*
D11*
%LPD*%
X820175Y1264025D03*
D11*
%LPC*%
D20*
X817675Y1119025D03*
D11*
%LPD*%
X817675Y1119025D03*
D11*
%LPC*%
D20*
X835175Y1234025D03*
D11*
%LPD*%
X835175Y1234025D03*
D11*
%LPC*%
D20*
X842675Y1094025D03*
D11*
%LPD*%
X842675Y1094025D03*
D11*
%LPC*%
D20*
X835175Y1244025D03*
D11*
%LPD*%
X835175Y1244025D03*
D11*
%LPC*%
D20*
X812675Y1099025D03*
D11*
%LPD*%
X812675Y1099025D03*
D11*
%LPC*%
D20*
X817675Y1254025D03*
D11*
%LPD*%
X817675Y1254025D03*
D11*
%LPC*%
D20*
X822675Y1271525D03*
D11*
%LPD*%
X822675Y1271525D03*
D11*
%LPC*%
D20*
X767675Y1279025D03*
D11*
%LPD*%
X767675Y1279025D03*
D11*
%LPC*%
D20*
X725175Y1314025D03*
D11*
%LPD*%
X725175Y1314025D03*
D11*
%LPC*%
D20*
X842675Y1169025D03*
D11*
%LPD*%
X842675Y1169025D03*
D11*
%LPC*%
D20*
X845175Y1159025D03*
D11*
%LPD*%
X845175Y1159025D03*
D11*
%LPC*%
D20*
X847675Y1149025D03*
D11*
%LPD*%
X847675Y1149025D03*
D11*
%LPC*%
D20*
X922675Y1151525D03*
D11*
%LPD*%
X922675Y1151525D03*
D11*
%LPC*%
D20*
X987675Y1154025D03*
D11*
%LPD*%
X987675Y1154025D03*
D11*
%LPC*%
D20*
X1140175Y1206525D03*
D11*
%LPD*%
X1140175Y1206525D03*
D11*
%LPC*%
D20*
X1257675Y1174025D03*
D11*
%LPD*%
X1257675Y1174025D03*
D11*
%LPC*%
D20*
X1252675Y1169025D03*
D11*
%LPD*%
X1252675Y1169025D03*
D11*
%LPC*%
D20*
X912675Y1154025D03*
D11*
%LPD*%
X912675Y1154025D03*
D11*
%LPC*%
D20*
X1075175Y1209025D03*
D11*
%LPD*%
X1075175Y1209025D03*
D11*
%LPC*%
D20*
X1182675Y1219025D03*
D11*
%LPD*%
X1182675Y1219025D03*
D11*
%LPC*%
D20*
X867675Y1174025D03*
D11*
%LPD*%
X867675Y1174025D03*
D11*
%LPC*%
D20*
X1027675Y1174025D03*
D11*
%LPD*%
X1027675Y1174025D03*
D11*
%LPC*%
D20*
X1070175Y1214025D03*
D11*
%LPD*%
X1070175Y1214025D03*
D11*
%LPC*%
D20*
X1062675Y1304025D03*
D11*
%LPD*%
X1062675Y1304025D03*
D11*
%LPC*%
D20*
X1110175Y1111525D03*
D11*
%LPD*%
X1110175Y1111525D03*
D11*
%LPC*%
D20*
X1065175Y1029025D03*
D11*
%LPD*%
X1065175Y1029025D03*
D11*
%LPC*%
D20*
X1017675Y929025D03*
D11*
%LPD*%
X1017675Y929025D03*
D11*
%LPC*%
D20*
X1140175Y929025D03*
D11*
%LPD*%
X1140175Y929025D03*
D11*
%LPC*%
D20*
X1167675Y1029025D03*
D11*
%LPD*%
X1167675Y1029025D03*
D11*
%LPC*%
D20*
X1275175Y1119025D03*
D11*
%LPD*%
X1275175Y1119025D03*
D11*
%LPC*%
D20*
X1247675Y989025D03*
D11*
%LPD*%
X1247675Y989025D03*
D11*
%LPC*%
D20*
X1270175Y1029025D03*
D11*
%LPD*%
X1270175Y1029025D03*
D11*
%LPC*%
D20*
X1262675Y1206525D03*
D11*
%LPD*%
X1262675Y1206525D03*
D11*
%LPC*%
D20*
X685175Y1206525D03*
D11*
%LPD*%
X685175Y1206525D03*
D11*
%LPC*%
D20*
X685175Y1149025D03*
D11*
%LPD*%
X685175Y1149025D03*
D11*
%LPC*%
D20*
X787675Y1104025D03*
D11*
%LPD*%
X787675Y1104025D03*
D11*
%LPC*%
D20*
X787675Y1036525D03*
D11*
%LPD*%
X787675Y1036525D03*
D11*
%LPC*%
D20*
X880175Y1036525D03*
D11*
%LPD*%
X880175Y1036525D03*
D11*
%LPC*%
D20*
X685175Y1206525D03*
D11*
%LPD*%
X685175Y1206525D03*
D11*
%LPC*%
D20*
X720175Y964025D03*
D11*
%LPD*%
X720175Y964025D03*
D11*
%LPC*%
D20*
X855175Y926525D03*
D11*
%LPD*%
X855175Y926525D03*
D11*
%LPC*%
D20*
X965175Y1124025D03*
D11*
%LPD*%
X965175Y1124025D03*
D11*
%LPC*%
D20*
X812675Y944025D03*
D11*
%LPD*%
X812675Y944025D03*
D11*
%LPC*%
D20*
X870175Y1044025D03*
D11*
%LPD*%
X870175Y1044025D03*
D11*
%LPC*%
D20*
X782675Y1044025D03*
D11*
%LPD*%
X782675Y1044025D03*
D11*
%LPC*%
D20*
X782675Y1089025D03*
D11*
%LPD*%
X782675Y1089025D03*
D11*
%LPC*%
D20*
X702675Y1094025D03*
D11*
%LPD*%
X702675Y1094025D03*
D11*
%LPC*%
D20*
X847675Y1076525D03*
D11*
%LPD*%
X847675Y1076525D03*
D11*
%LPC*%
D20*
X642675Y954025D03*
D11*
%LPD*%
X642675Y954025D03*
D11*
%LPC*%
D20*
X860175Y931525D03*
D11*
%LPD*%
X860175Y931525D03*
D11*
%LPC*%
D02*
M02*
