G70*
%FSLAX55Y55*%
%ADD11C,0.04000*%
%ADD12C,0.01200*%
%ADD13C,0.05000*%
%ADD14C,0.06000*%
%ADD15C,0.08000*%
%ADD16C,0.10000*%
%ADD17R,0.06000X0.06000*%
%ADD18C,0.05500*%
%ADD19C,0.05000*%
%AMUSER20*
1, 1, 0.05000, 0.0, 0.0*
1, 0, 0.02000, 0.0, 0.0*%
%ADD20USER20*%
D11*
X1172675Y889025D02*
X1167675Y899025D01*
X1172675Y889025D02*
X1172675Y879025D01*
X1180175Y871525*
X1185175Y871525*
D12*
X657675Y909025D02*
X647675Y909025D01*
X757675Y886525D02*
X747675Y876525D01*
X690175Y876525*
X675175Y891525*
X607675Y939025D02*
X642675Y974025D01*
X762675Y974025*
X772675Y984025*
X787675Y984025*
X787675Y1021525*
X792675Y1024025*
X767675Y886525D02*
X755175Y874025D01*
X682675Y874025*
X665175Y891525*
X605175Y891525*
X600175Y896525*
X602675Y994025D02*
X677675Y994025D01*
X677675Y999025*
X677675Y994025*
X740175Y994025*
X745175Y999025*
X752675Y999025*
X587675Y1059025D02*
X587675Y1061525D01*
X607675Y1081525*
X652675Y1081525*
X672675Y1061525*
X672675Y1054025*
X702675Y1076525D02*
X672675Y1101525D01*
X650175Y1101525*
X647675Y1104025*
X647675Y1119025*
X735175Y1179025D02*
X755175Y1179025D01*
X755175Y1154025D02*
X725175Y1154025D01*
X710175Y1169025*
X657675Y1169025*
X647675Y1159025*
X620175Y1159025*
X617675Y1156525*
X755175Y1179025D02*
X735175Y1179025D01*
X617675Y999025D02*
X637675Y1014025D01*
X642675Y1019025*
X682675Y1019025*
X685175Y1016525*
X677675Y1119025D02*
X677675Y1111525D01*
X695175Y1099025*
X735175Y1099025*
X677675Y1119025D02*
X670175Y1126525D01*
X657675Y1126525*
X645175Y1139025*
X622675Y1139025*
X617675Y1134025*
X597675Y999025D02*
X617675Y1014025D01*
X735175Y1119025D02*
X730175Y1124025D01*
X697675Y1124025*
X697675Y1119025*
X735175Y1119025D02*
X730175Y1124025D01*
X687675Y1124025*
X672675Y1139025*
X657675Y1139025*
X652675Y1144025*
X607675Y1144025*
X597675Y1134025*
X577675Y999025D02*
X597675Y1014025D01*
X582675Y1094025D02*
X590175Y1089025D01*
X660175Y1089025*
X697675Y1064025*
X697675Y1059025*
X702675Y1054025*
X722675Y1054025*
X735175Y1066525*
X557675Y999025D02*
X577675Y1014025D01*
X572675Y1084025D02*
X655175Y1084025D01*
X677675Y1064025*
X677675Y1059025*
X687675Y1049025*
X735175Y1049025*
X740175Y1054025*
X687675Y999025D02*
X697675Y1009025D01*
X752675Y1009025*
X597675Y1119025D02*
X607675Y1096525D01*
X610175Y1091525*
X667675Y1091525*
X627675Y1151525D02*
X650175Y1151525D01*
X657675Y1159025*
X697675Y1159025*
X697675Y1154025*
X707675Y1154025*
X717675Y1144025*
X747675Y1144025*
X750175Y1146525*
X750175Y1169025D02*
X735175Y1169025D01*
X750175Y1169025*
X647675Y1044025D02*
X662675Y1054025D01*
X662675Y1061525*
X647675Y1076525*
X612675Y1076525*
X597675Y1061525*
X597675Y1059025*
X740175Y1046525D02*
X670175Y1046525D01*
X662675Y1054025*
X647675Y1044025*
X617675Y1059025D02*
X617675Y1061525D01*
X622675Y1066525*
X637675Y1066525*
X642675Y1061525*
X642675Y1054025*
X627675Y1044025*
X732675Y1034025D02*
X730175Y1036525D01*
X635175Y1036525*
X627675Y1044025*
X642675Y1054025*
X642675Y1061525*
X637675Y1066525*
X622675Y1066525*
X617675Y1061525*
X617675Y1059025*
X607675Y1044025D02*
X622675Y1054025D01*
X622675Y1061525*
X625175Y1064025*
X632675Y1064025*
X637675Y1059025*
X722675Y1024025D02*
X722675Y1026525D01*
X717675Y1031525*
X620175Y1031525*
X607675Y1044025*
X622675Y1054025*
X622675Y1061525*
X625175Y1064025*
X632675Y1064025*
X637675Y1059025*
X587675Y1044025D02*
X602675Y1054025D01*
X602675Y1061525*
X615175Y1074025*
X645175Y1074025*
X657675Y1061525*
X657675Y1059025*
X712675Y1024025D02*
X710175Y1026525D01*
X605175Y1026525*
X587675Y1044025*
X602675Y1054025*
X602675Y1061525*
X615175Y1074025*
X645175Y1074025*
X657675Y1061525*
X657675Y1059025*
X687675Y1059025D02*
X695175Y1051525D01*
X730175Y1051525*
X740175Y1061525*
X567675Y999025D02*
X587675Y1014025D01*
X577675Y1089025D02*
X587675Y1086525D01*
X657675Y1086525*
X687675Y1064025*
X687675Y1059025*
X607675Y1014025D02*
X587675Y999025D01*
X707675Y1119025D02*
X727675Y1119025D01*
X732675Y1114025*
X737675Y1114025*
X740175Y1116525*
X740175Y1124025*
X735175Y1129025*
X587675Y1134025D02*
X600175Y1146525D01*
X655175Y1146525*
X657675Y1149025*
X667675Y1149025*
X687675Y1129025*
X735175Y1129025*
X607675Y999025D02*
X627675Y1014025D01*
X692675Y1019025D02*
X690175Y1021525D01*
X635175Y1021525*
X627675Y1014025*
X687675Y1119025D02*
X697675Y1109025D01*
X735175Y1109025*
X687675Y1119025D02*
X677675Y1129025D01*
X660175Y1129025*
X647675Y1141525*
X615175Y1141525*
X607675Y1134025*
X627675Y999025D02*
X647675Y1014025D01*
X667675Y1119025D02*
X662675Y1124025D01*
X637675Y1124025*
X627675Y1134025*
X667675Y1119025D02*
X667675Y1114025D01*
X700175Y1089025*
X735175Y1089025*
X752675Y989025D02*
X747675Y986525D01*
X680175Y986525*
X577675Y1044025D02*
X592675Y1054025D01*
X592675Y1061525*
X610175Y1079025*
X650175Y1079025*
X667675Y1061525*
X667675Y1059025*
X707675Y1019025D02*
X702675Y1024025D01*
X597675Y1024025*
X577675Y1044025*
X592675Y1054025*
X592675Y1061525*
X610175Y1079025*
X650175Y1079025*
X667675Y1061525*
X667675Y1059025*
X647675Y1059025D02*
X647675Y1061525D01*
X640175Y1069025*
X620175Y1069025*
X612675Y1061525*
X612675Y1054025*
X597675Y1044025*
X717675Y1019025D02*
X717675Y1026525D01*
X715175Y1029025*
X612675Y1029025*
X597675Y1044025*
X612675Y1054025*
X612675Y1061525*
X620175Y1069025*
X640175Y1069025*
X647675Y1061525*
X647675Y1059025*
X617675Y1044025D02*
X627675Y1054025D01*
X627675Y1059025*
X725175Y1031525D02*
X722675Y1034025D01*
X627675Y1034025*
X617675Y1044025*
X627675Y1054025*
X627675Y1059025*
X607675Y1059025D02*
X607675Y1061525D01*
X617675Y1071525*
X642675Y1071525*
X652675Y1061525*
X652675Y1054025*
X637675Y1044025*
X642675Y1039025*
X672675Y1039025*
X675175Y1041525*
X735175Y1041525*
X827675Y911525D02*
X807675Y911525D01*
X802675Y906525*
X750175Y906525*
X742675Y914025*
X677675Y914025*
X672675Y919025*
X657675Y919025*
X1162675Y889025D02*
X1162675Y881525D01*
X1147675Y866525*
X630175Y866525*
X617675Y879025*
X752675Y896525D02*
X747675Y901525D01*
X642675Y901525*
X637675Y896525*
X577675Y939025D02*
X582675Y934025D01*
X592675Y934025*
X617675Y909025*
X627675Y909025*
X632675Y874025D02*
X637675Y869025D01*
X770175Y869025*
X787675Y886525*
X652675Y874025D02*
X655175Y871525D01*
X762675Y871525*
X777675Y886525*
X735175Y1269025D02*
X765175Y1269025D01*
X587675Y939025D02*
X625175Y976525D01*
X740175Y976525*
X747675Y984025*
X757675Y984025*
X782675Y1009025*
X782675Y1019025D02*
X757675Y994025D01*
X745175Y994025*
X742675Y991525*
X677675Y991525*
X667675Y981525*
X1100175Y1194025D02*
X1105175Y1191525D01*
X1107675Y1189025*
X1155175Y1189025*
X1110175Y1241525D02*
X1095175Y1241525D01*
X1087675Y1249025*
X1060175Y1249025*
X1055175Y1244025*
X1197675Y1321525D02*
X1197675Y1326525D01*
X1122675Y1326525*
X1117675Y1321525*
X1197675Y1321525D02*
X1197675Y1326525D01*
X1272675Y1326525*
X1277675Y1321525*
X1197675Y1164025D02*
X1182675Y1179025D01*
X1165175Y1179025*
X1155175Y1189025*
X1247675Y1164025D02*
X1242675Y1169025D01*
X1202675Y1169025*
X1197675Y1164025*
X830175Y1069025D02*
X822675Y1071525D01*
X822675Y1086525*
X807675Y1094025*
X772675Y1094025*
X762675Y1104025*
X697675Y1104025*
X692675Y1106525*
X675175Y1181525D02*
X662675Y1194025D01*
X547675Y1224025D02*
X542675Y1219025D01*
X542675Y1204025*
X552675Y1194025*
X662675Y1194025*
X965175Y1134025D02*
X970175Y1129025D01*
X1067675Y1129025*
X830175Y1069025D02*
X832675Y1064025D01*
X915175Y1064025*
X915175Y1029025*
X920175Y1029025*
X842675Y901525D02*
X807675Y901525D01*
X802675Y896525*
X887675Y901525D02*
X882675Y896525D01*
X847675Y896525*
X842675Y891525*
X872675Y901525D02*
X867675Y906525D01*
X807675Y906525*
X805175Y904025*
X800175Y904025*
X792675Y896525*
X917675Y901525D02*
X902675Y886525D01*
X877675Y886525*
X872675Y881525*
X762675Y911525D02*
X787675Y911525D01*
X792675Y916525*
X912675Y916525*
X917675Y921525*
X1057675Y1291525D02*
X1062675Y1296525D01*
X1137675Y1296525*
X1137675Y1291525*
X1137675Y1296525*
X1212675Y1296525*
X1217675Y1291525*
X837675Y1224025D02*
X772675Y1224025D01*
D11*
X1257675Y924025D02*
X1282675Y924025D01*
X1282675Y914025*
X1282675Y924025*
X1257675Y924025*
X1257675Y914025*
X1242675Y914025*
X1237675Y909025*
X1237675Y881525*
X1235175Y879025*
X1145175Y924025D02*
X1150175Y929025D01*
X1192675Y929025*
X1192675Y924025*
X1192675Y929025*
X1205175Y929025*
X1202675Y951525D02*
X1202675Y974025D01*
X1192675Y974025*
X1112675Y936525D02*
X1090175Y936525D01*
X1087675Y934025*
X1042675Y936525D02*
X1045175Y936525D01*
X1052675Y929025*
X1067675Y929025*
X1072675Y934025*
X1087675Y934025*
X1180175Y1029025D02*
X1172675Y1036525D01*
X1172675Y1044025*
X1182675Y1054025*
X1182675Y1059025*
X1145175Y924025D02*
X1150175Y929025D01*
X1142675Y936525*
X1112675Y936525*
X1182675Y1071525D02*
X1182675Y1059025D01*
X1182675Y1071525D02*
X1182675Y1081525D01*
X1080175Y1059025D02*
X1080175Y1054025D01*
X1070175Y1044025*
X1070175Y1036525*
X1077675Y1029025*
X1080175Y1059025D02*
X1080175Y1071525D01*
X1080175Y1081525D02*
X1080175Y1071525D01*
X987675Y974025D02*
X997675Y974025D01*
X997675Y961525*
X987675Y951525*
X987675Y946525*
X997675Y936525*
X1042675Y936525*
X1285175Y1059025D02*
X1285175Y1071525D01*
X1285175Y1081525*
X1285175Y1059025D02*
X1285175Y1054025D01*
X1275175Y1044025*
X1275175Y1036525*
X1282675Y1029025*
X1192675Y924025D02*
X1192675Y929025D01*
X1222675Y929025*
X1222675Y931525*
X1257675Y931525*
X1257675Y924025*
X1282675Y1029025D02*
X1265175Y1011525D01*
X1222675Y1009025D02*
X1200175Y986525D01*
X1200175Y974025*
X1192675Y974025*
X1107675Y974025D02*
X1107675Y994025D01*
X1122675Y1009025*
X1162675Y1011525D02*
X1180175Y1029025D01*
X987675Y974025D02*
X995175Y974025D01*
X995175Y984025*
X1020175Y1009025*
X1060175Y1011525D02*
X1077675Y1029025D01*
X1195175Y879025D02*
X1182675Y879025D01*
X1182675Y889025*
X1182675Y879025*
X1195175Y879025D02*
X1235175Y879025D01*
X1212675Y954025D02*
X1212675Y946525D01*
X1237675Y946525*
X1237675Y954025*
X1200175Y1016525D02*
X1192675Y1016525D01*
X1192675Y1004025*
X1217675Y919025D02*
X1217675Y909025D01*
X1222675Y909025*
X1097675Y944025D02*
X1125175Y944025D01*
X1125175Y954025*
X1022675Y954025D02*
X1022675Y946525D01*
X997675Y946525*
X997675Y949025*
X997675Y946525*
X1005175Y946525*
X1005175Y984025*
X977675Y1044025D02*
X980175Y1041525D01*
X980175Y1016525*
X995175Y1016525*
X977675Y1044025D02*
X987675Y1049025D01*
X1097675Y1016525D02*
X1090175Y1016525D01*
X1090175Y1004025*
X987675Y1004025D02*
X980175Y1004025D01*
X980175Y984025*
X1200175Y1016525D02*
X1195175Y1016525D01*
X1195175Y1036525*
X1092675Y1036525D02*
X1092675Y1016525D01*
X1097675Y1016525*
X1092675Y1036525D02*
X1092675Y1041525D01*
X1100175Y1049025*
X1100175Y1071525*
X1095175Y1076525*
X1095175Y1079025*
X1082675Y1091525*
X1082675Y1099025*
X1090175Y1106525*
X1197675Y1076525D02*
X1205175Y1069025D01*
X1205175Y1051525*
X1195175Y1041525*
X1195175Y1036525*
X1197675Y1076525D02*
X1197675Y1079025D01*
X1182675Y1094025*
X1182675Y1099025*
X1192675Y1106525*
X987675Y1004025D02*
X980175Y1004025D01*
X980175Y1016525*
X995175Y1016525*
X987675Y1049025D02*
X987675Y1061525D01*
X997675Y1069025*
X997675Y1074025*
X987675Y1081525*
X1097675Y944025D02*
X1067675Y944025D01*
X1060175Y936525*
X1055175Y936525*
X1045175Y946525*
X1022675Y946525*
X1022675Y954025*
X1212675Y954025D02*
X1212675Y936525D01*
X1157675Y936525*
X1150175Y944025*
X1125175Y944025*
X1125175Y954025*
X1097675Y1016525D02*
X1090175Y1016525D01*
X1090175Y1004025*
X1077675Y1004025*
X1057675Y984025*
X1097675Y944025D02*
X1097675Y984025D01*
X1090175Y984025*
X1212675Y954025D02*
X1212675Y984025D01*
X1160175Y984025D02*
X1177675Y1004025D01*
X1192675Y1004025*
D12*
X1237675Y954025D02*
X1242675Y959025D01*
X1247675Y959025*
X1262675Y974025*
X1262675Y984025*
D11*
X1127675Y909025D02*
X1182675Y909025D01*
X1187675Y909025*
X1187675Y899025*
X1182675Y909025D02*
X1222675Y909025D01*
X1172675Y1261525D02*
X1152675Y1281525D01*
X1132675Y1281525*
X1132675Y1274025*
X1127675Y1269025*
X1130175Y1234025D02*
X1130175Y1236525D01*
X1142675Y1249025*
X1142675Y1261525*
X1127675Y1269025*
X1180175Y1116525D02*
X1180175Y1119025D01*
X1190175Y1126525*
X1215175Y1126525*
X1077675Y1116525D02*
X1085175Y1124025D01*
X1142675Y1124025*
X1150175Y1116525*
X1180175Y1116525*
X1180175Y1119025*
X1190175Y1126525*
X1282675Y1126525*
X1282675Y1116525*
X1227675Y1229025D02*
X1245175Y1229025D01*
X1252675Y1236525*
X1270175Y1236525*
X1277675Y1229025*
X1277675Y1204025D02*
X1277675Y1229025D01*
X1270175Y1236525*
X1280175Y1246525*
X1280175Y1251525*
X1270175Y1261525*
X1242675Y1261525*
X1230175Y1274025*
X1185175Y1274025*
X1172675Y1261525*
X1095175Y1126525D02*
X1095175Y1124025D01*
X1085175Y1124025*
X1077675Y1116525*
D12*
X1172675Y1281525D02*
X1182675Y1281525D01*
X642675Y1096525D02*
X670175Y1096525D01*
X697675Y1071525*
X792675Y1071525*
X785175Y1171525D02*
X780175Y1174025D01*
X720175Y1174025*
X695175Y1199025*
X675175Y1199025*
X660175Y1214025*
X642675Y1214025*
X637675Y1209025*
X777675Y1309025D02*
X735175Y1309025D01*
X927675Y901525D02*
X927675Y906525D01*
X937675Y911525*
X977675Y871525D02*
X970175Y876525D01*
X962675Y876525*
X955175Y884025*
X955175Y894025*
X940175Y911525*
X937675Y911525*
X937675Y921525D02*
X927675Y921525D01*
X937675Y946525D02*
X927675Y936525D01*
X927675Y921525*
X937675Y946525D02*
X947675Y946525D01*
X1027675Y871525D02*
X1022675Y876525D01*
X992675Y876525*
X987675Y871525*
X962675Y886525D02*
X962675Y896525D01*
X942675Y921525*
X937675Y921525*
X987675Y871525D02*
X972675Y886525D01*
X962675Y886525*
X1067675Y904025D02*
X1057675Y894025D01*
X1005175Y894025*
X987675Y911525*
X977675Y911525D02*
X1000175Y889025D01*
X1057675Y889025*
X1067675Y879025*
X957675Y946525D02*
X937675Y966525D01*
X957675Y946525D02*
X937675Y966525D01*
X957675Y946525D02*
X957675Y931525D01*
X967675Y921525*
X752675Y1019025D02*
X757675Y1024025D01*
X785175Y1024025*
X790175Y1029025*
X885175Y1029025*
X897675Y1019025*
X897675Y989025*
X900175Y986525*
X947675Y986525*
X1152675Y889025D02*
X1142675Y889025D01*
X1140175Y886525*
X1105175Y886525*
X1097675Y879025*
X1097675Y904025D02*
X1100175Y901525D01*
X1135175Y901525*
X1137675Y904025*
X1152675Y904025*
X1157675Y899025*
X1097675Y904025D02*
X1080175Y904025D01*
X1072675Y911525*
X1057675Y911525*
X820175Y976525D02*
X820175Y989025D01*
X840175Y996525*
X850175Y996525D02*
X840175Y996525D01*
X875175Y1006525D02*
X860175Y1006525D01*
X850175Y996525*
X875175Y1006525D02*
X885175Y1006525D01*
X557675Y1164025D02*
X567675Y1174025D01*
X652675Y1174025*
X662675Y1184025*
X567675Y1164025D02*
X575175Y1171525D01*
X655175Y1171525*
X657675Y1174025*
X662675Y1174025*
X577675Y1164025D02*
X590175Y1151525D01*
X620175Y1151525*
X625175Y1156525*
X650175Y1156525*
X657675Y1164025*
X662675Y1164025*
X830175Y1249025D02*
X805175Y1249025D01*
X800175Y1254025*
X770175Y1254025*
X760175Y1264025*
X730175Y1264025*
X722675Y1271525*
X637675Y1271525*
X635175Y1269025*
X570175Y1269025*
X557675Y1256525*
X557675Y1254025*
X830175Y1249025D02*
X862675Y1249025D01*
X867675Y1244025*
X895175Y1244025*
X900175Y1249025*
X905175Y1249025*
X980175Y1249025D02*
X975175Y1249025D01*
X970175Y1244025*
X940175Y1244025*
X935175Y1249025*
X905175Y1249025*
X795175Y1249025D02*
X765175Y1249025D01*
X760175Y1254025*
X730175Y1254025*
X715175Y1269025*
X640175Y1269025*
X637675Y1266525*
X577675Y1266525*
X567675Y1256525*
X567675Y1254025*
X577675Y1254025D02*
X577675Y1256525D01*
X585175Y1264025*
X640175Y1264025*
X642675Y1266525*
X707675Y1266525*
X730175Y1244025*
X787675Y1244025*
X587675Y1254025D02*
X600175Y1241525D01*
X652675Y1241525*
X680175Y1214025*
X710175Y1214025*
X730175Y1194025*
X782675Y1194025*
X597675Y1254025D02*
X607675Y1244025D01*
X655175Y1244025*
X682675Y1216525*
X717675Y1216525*
X730175Y1204025*
X780175Y1204025*
X795175Y1189025*
X607675Y1254025D02*
X600175Y1261525D01*
X587675Y1261525*
X582675Y1256525*
X582675Y1249025*
X592675Y1239025*
X650175Y1239025*
X677675Y1211525*
X702675Y1211525*
X730175Y1184025*
X790175Y1184025*
X795175Y1179025*
X617675Y1254025D02*
X625175Y1246525D01*
X657675Y1246525*
X685175Y1219025*
X725175Y1219025*
X730175Y1214025*
X800175Y1214025*
X800175Y1204025*
X795175Y1199025*
X627675Y1254025D02*
X632675Y1249025D01*
X642675Y1249025*
X642675Y1256525*
X647675Y1261525*
X697675Y1261525*
X727675Y1231525*
X727675Y1224025*
X750175Y1224025*
X757675Y1219025*
X795175Y1219025*
X637675Y1254025D02*
X637675Y1256525D01*
X645175Y1264025*
X700175Y1264025*
X730175Y1234025*
X760175Y1234025*
X765175Y1239025*
X795175Y1239025*
X627675Y1224025D02*
X622675Y1219025D01*
X567675Y1219025*
X557675Y1209025*
X567675Y1209025D02*
X575175Y1216525D01*
X630175Y1216525*
X637675Y1224025*
X577675Y1209025D02*
X582675Y1214025D01*
X637675Y1214025*
X647675Y1224025*
X647675Y1234025D02*
X592675Y1234025D01*
X602675Y1304025D02*
X800175Y1304025D01*
X807675Y1296525*
X825175Y1296525*
X830175Y1301525*
X857675Y1301525*
X857675Y1294025*
X612675Y1294025D02*
X827675Y1294025D01*
X832675Y1299025*
X852675Y1299025*
X852675Y1289025*
X862675Y1289025*
X867675Y1294025*
X877675Y1294025D02*
X870175Y1286525D01*
X822675Y1286525*
X820175Y1284025*
X622675Y1284025*
X887675Y1294025D02*
X877675Y1284025D01*
X827675Y1284025*
X817675Y1274025*
X632675Y1274025*
X950175Y1079025D02*
X930175Y1099025D01*
X930175Y1109025*
X915175Y1124025*
X895175Y1124025*
X885175Y1134025*
X870175Y1119025*
X860175Y1119025*
X652675Y1111525D02*
X665175Y1111525D01*
X700175Y1084025*
X730175Y1074025*
X775175Y1074025*
X787675Y1081525*
X792675Y1084025*
X810175Y1084025*
X852675Y1094025D02*
X852675Y1114025D01*
X860175Y1119025*
X905175Y1189025D02*
X935175Y1189025D01*
X940175Y1184025*
X975175Y1184025*
X980175Y1189025*
X830175Y1189025D02*
X862675Y1189025D01*
X867675Y1184025*
X900175Y1184025*
X905175Y1189025*
X980175Y1199025D02*
X975175Y1194025D01*
X940175Y1194025*
X935175Y1199025*
X905175Y1199025*
X900175Y1194025*
X867675Y1194025*
X862675Y1199025*
X830175Y1199025*
X857675Y1199025D02*
X830175Y1199025D01*
X905175Y1209025D02*
X935175Y1209025D01*
X940175Y1204025*
X975175Y1204025*
X980175Y1209025*
X830175Y1209025D02*
X862675Y1209025D01*
X867675Y1204025*
X900175Y1204025*
X905175Y1209025*
X830175Y1209025D02*
X862675Y1209025D01*
X867675Y1204025*
X875175Y1204025*
X905175Y1219025D02*
X935175Y1219025D01*
X940175Y1214025*
X970175Y1214025*
X975175Y1219025*
X980175Y1219025*
X830175Y1219025D02*
X862675Y1219025D01*
X867675Y1214025*
X895175Y1214025*
X900175Y1219025*
X905175Y1219025*
X1177675Y1234025D02*
X1180175Y1236525D01*
X1242675Y1236525*
X1245175Y1239025*
X980175Y1229025D02*
X975175Y1229025D01*
X970175Y1224025*
X930175Y1224025*
X925175Y1229025*
X905175Y1229025*
X830175Y1229025D02*
X862675Y1229025D01*
X867675Y1224025*
X895175Y1224025*
X900175Y1229025*
X905175Y1229025*
X922675Y1229025*
X1270175Y1209025D02*
X1267675Y1211525D01*
X1215175Y1211525*
X1200175Y1226525*
X1180175Y1226525*
X1177675Y1224025*
X905175Y1239025D02*
X930175Y1239025D01*
X935175Y1234025*
X970175Y1234025*
X975175Y1239025*
X980175Y1239025*
X830175Y1239025D02*
X862675Y1239025D01*
X867675Y1234025*
X895175Y1234025*
X900175Y1239025*
X905175Y1239025*
X930175Y1239025*
X932675Y1236525*
X1177675Y1214025D02*
X1192675Y1199025D01*
X1262675Y1199025*
X980175Y1279025D02*
X975175Y1279025D01*
X970175Y1274025*
X940175Y1274025*
X935175Y1279025*
X905175Y1279025*
X830175Y1279025D02*
X862675Y1279025D01*
X867675Y1274025*
X892675Y1274025*
X897675Y1279025*
X905175Y1279025*
X942675Y1274025D02*
X940175Y1274025D01*
X935175Y1279025*
X905175Y1279025*
X890175Y1259025D02*
X895175Y1259025D01*
X900175Y1264025*
X935175Y1264025*
X940175Y1259025*
X965175Y1259025*
X970175Y1259025*
X975175Y1264025*
X1012675Y1264025*
X1017675Y1259025*
X1040175Y1259025*
X820175Y1264025D02*
X862675Y1264025D01*
X867675Y1259025*
X890175Y1259025*
X830175Y1269025D02*
X862675Y1269025D01*
X867675Y1264025*
X895175Y1264025*
X900175Y1269025*
X905175Y1269025*
X980175Y1269025D02*
X975175Y1269025D01*
X970175Y1264025*
X940175Y1264025*
X935175Y1269025*
X905175Y1269025*
X890175Y1229025D02*
X895175Y1229025D01*
X900175Y1234025*
X927675Y1234025*
X932675Y1229025*
X965175Y1229025*
X970175Y1229025*
X975175Y1234025*
X985175Y1234025*
X990175Y1229025*
X1040175Y1229025*
X795175Y1119025D02*
X817675Y1119025D01*
X835175Y1234025D02*
X862675Y1234025D01*
X867675Y1229025*
X890175Y1229025*
X890175Y1209025D02*
X895175Y1209025D01*
X900175Y1214025*
X935175Y1214025*
X940175Y1209025*
X965175Y1209025*
X1040175Y1209025D02*
X992675Y1209025D01*
X985175Y1214025*
X975175Y1214025*
X970175Y1209025*
X965175Y1209025*
X795175Y1109025D02*
X812675Y1109025D01*
X827675Y1094025*
X842675Y1094025*
X890175Y1239025D02*
X895175Y1239025D01*
X900175Y1244025*
X935175Y1244025*
X940175Y1239025*
X965175Y1239025*
X1040175Y1239025D02*
X1017675Y1239025D01*
X1012675Y1244025*
X975175Y1244025*
X970175Y1239025*
X965175Y1239025*
X890175Y1239025D02*
X867675Y1239025D01*
X862675Y1244025*
X835175Y1244025*
X812675Y1099025D02*
X795175Y1099025D01*
X890175Y1249025D02*
X895175Y1249025D01*
X900175Y1254025*
X935175Y1254025*
X940175Y1249025*
X965175Y1249025*
X970175Y1249025*
X975175Y1254025*
X1012675Y1254025*
X1017675Y1249025*
X1040175Y1249025*
X817675Y1254025D02*
X862675Y1254025D01*
X867675Y1249025*
X890175Y1249025*
X830175Y1259025D02*
X862675Y1259025D01*
X867675Y1254025*
X895175Y1254025*
X900175Y1259025*
X905175Y1259025*
X935175Y1259025*
X940175Y1254025*
X970175Y1254025*
X975175Y1259025*
X980175Y1259025*
X890175Y1269025D02*
X895175Y1269025D01*
X900175Y1274025*
X935175Y1274025*
X940175Y1269025*
X965175Y1269025*
X970175Y1269025*
X975175Y1274025*
X1012675Y1274025*
X1017675Y1269025*
X1040175Y1269025*
X890175Y1269025D02*
X867675Y1269025D01*
X862675Y1274025*
X827675Y1274025*
X822675Y1271525*
X767675Y1279025D02*
X795175Y1279025D01*
X725175Y1314025D02*
X790175Y1314025D01*
X800175Y1324025*
X842675Y1169025D02*
X830175Y1169025D01*
X830175Y1159025D02*
X845175Y1159025D01*
X890175Y1149025D02*
X847675Y1149025D01*
X922675Y1151525D02*
X912675Y1141525D01*
X902675Y1141525*
X895175Y1134025*
X987675Y1154025D02*
X1035175Y1154025D01*
X1040175Y1149025*
X1085175Y1164025D02*
X1092675Y1164025D01*
X1097675Y1159025*
X1125175Y1159025*
X1130175Y1164025*
X1130175Y1174025D02*
X1110175Y1174025D01*
X1105175Y1179025*
X1095175Y1179025*
X1090175Y1174025*
X1085175Y1174025*
X1085175Y1204025D02*
X1090175Y1209025D01*
X1135175Y1209025*
X1140175Y1206525*
X1177675Y1204025D02*
X1192675Y1189025D01*
X1252675Y1189025*
X1257675Y1184025*
X1257675Y1174025*
X1177675Y1194025D02*
X1192675Y1179025D01*
X1252675Y1179025*
X1252675Y1169025*
X1197675Y1174025D02*
X1192675Y1174025D01*
X1182675Y1184025*
X1177675Y1184025*
X1227675Y1144025D02*
X1222675Y1149025D01*
X1192675Y1149025*
X1192675Y1159025*
X1177675Y1174025*
X1177675Y1164025D02*
X1172675Y1159025D01*
X1172675Y1139025*
X1222675Y1139025*
X1227675Y1134025*
X1197675Y1144025D02*
X1177675Y1144025D01*
X1055175Y1184025D02*
X1060175Y1189025D01*
X1102675Y1189025*
X1112675Y1179025*
X1142675Y1179025*
X1147675Y1184025*
X1055175Y1184025D02*
X1022675Y1184025D01*
X1002675Y1164025*
X922675Y1164025*
X912675Y1154025*
X1147675Y1164025D02*
X1137675Y1154025D01*
X1127675Y1154025*
X1127675Y1146525*
X1055175Y1164025D02*
X1060175Y1159025D01*
X1090175Y1159025*
X1095175Y1154025*
X1127675Y1154025*
X1127675Y1146525*
X1055175Y1154025D02*
X1065175Y1144025D01*
X1077675Y1144025*
X1082675Y1139025*
X1127675Y1139025*
X1127675Y1134025*
X1055175Y1204025D02*
X1060175Y1209025D01*
X1075175Y1209025*
X1182675Y1219025D02*
X1172675Y1219025D01*
X1147675Y1194025*
X1142675Y1199025*
X1060175Y1199025*
X1055175Y1194025*
X867675Y1174025D02*
X1002675Y1174025D01*
X1022675Y1194025*
X1055175Y1194025*
X1147675Y1174025D02*
X1142675Y1169025D01*
X1060175Y1169025*
X1055175Y1174025*
X1027675Y1174025D02*
X1055175Y1174025D01*
X1070175Y1214025D02*
X1055175Y1214025D01*
X1227675Y1321525D02*
X1210175Y1304025D01*
X1062675Y1304025*
X1117675Y1264025D02*
X1117675Y1274025D01*
X1122675Y1279025*
X1082675Y1264025D02*
X1090175Y1271525D01*
X1117675Y1271525*
X1117675Y1264025*
X1050175Y1094025D02*
X1050175Y1104025D01*
X1037675Y1116525*
X1050175Y1094025D02*
X1050175Y1104025D01*
X1057675Y1111525*
X1110175Y1111525*
X1077675Y1106525D02*
X1077675Y1101525D01*
X1070175Y1094025*
X1055175Y1079025*
X1055175Y1054025*
X1045175Y1044025*
X1045175Y991525*
X1042675Y989025*
X1042675Y959025*
X1037675Y959025*
X1032675Y954025*
X1037675Y1106525D02*
X1037675Y1096525D01*
X1032675Y1091525*
X1027675Y1071525D02*
X1032675Y1076525D01*
X1032675Y1091525*
X992675Y1091525D02*
X992675Y1086525D01*
X1007675Y1071525*
X1007675Y1059025*
X1057675Y944025D02*
X1047675Y954025D01*
X1042675Y954025*
X1027675Y1081525D02*
X1012675Y1066525D01*
X1012675Y1054025*
X1017675Y1049025*
X997675Y1049025D02*
X1017675Y1049025D01*
X1027675Y1051525D02*
X1017675Y1059025D01*
X1022675Y1059025*
X1035175Y1071525*
X1035175Y1076525*
X1040175Y1081525*
X1037675Y1004025D02*
X1037675Y1006525D01*
X1017675Y1026525*
X1037675Y1029025D02*
X1030175Y1029025D01*
X1027675Y1026525*
X1037675Y1019025D02*
X1037675Y1029025D01*
X1005175Y1016525D02*
X1017675Y1016525D01*
X1022675Y1016525*
X1027675Y1011525*
X1027675Y1004025*
X1065175Y1029025D02*
X1065175Y1054025D01*
X1045175Y1054025D02*
X1045175Y1066525D01*
X1040175Y1071525*
X1005175Y1026525D02*
X1022675Y1044025D01*
X1035175Y1044025*
X1045175Y1054025*
X987675Y994025D02*
X1000175Y1006525D01*
X1000175Y1021525*
X1005175Y1026525*
X1047675Y984025D02*
X1052675Y979025D01*
X1072675Y979025*
X1077675Y984025*
X1077675Y994025D02*
X1082675Y989025D01*
X1082675Y979025*
X1077675Y974025*
X1067675Y964025D02*
X1077675Y974025D01*
X1027675Y994025D02*
X1037675Y994025D01*
X1037675Y984025D02*
X1037675Y994025D01*
X1027675Y974025D02*
X1027675Y964025D01*
X1037675Y964025*
X1067675Y974025D02*
X1047675Y974025D01*
X1017675Y929025D02*
X1020175Y931525D01*
X1042675Y931525*
X1050175Y924025*
X1070175Y924025*
X1072675Y926525*
X1090175Y926525*
X1095175Y931525*
X1137675Y931525*
X1140175Y929025*
X1180175Y974025D02*
X1185175Y979025D01*
X1185175Y989025*
X1180175Y994025*
X1180175Y974025D02*
X1170175Y964025D01*
X1140175Y984025D02*
X1140175Y994025D01*
X1130175Y994025D02*
X1140175Y994025D01*
X1107675Y1026525D02*
X1102675Y1019025D01*
X1102675Y1006525*
X1090175Y994025*
X1147675Y1054025D02*
X1135175Y1054025D01*
X1107675Y1026525*
X1147675Y1054025D02*
X1147675Y1066525D01*
X1142675Y1071525*
X1130175Y1026525D02*
X1132675Y1029025D01*
X1140175Y1029025*
X1140175Y1019025D02*
X1140175Y1029025D01*
X1127675Y1076525D02*
X1105175Y1076525D01*
X1130175Y1106525D02*
X1130175Y1096525D01*
X1135175Y1091525*
X1135175Y1084025*
X1127675Y1076525*
X1120175Y1016525D02*
X1107675Y1016525D01*
X1130175Y1004025D02*
X1130175Y1011525D01*
X1125175Y1016525*
X1120175Y1016525*
X1120175Y1096525D02*
X1120175Y1094025D01*
X1127675Y1086525*
X1105175Y1086525D02*
X1110175Y1086525D01*
X1120175Y1096525*
X1142675Y1081525D02*
X1132675Y1071525D01*
X1132675Y1066525*
X1140175Y1096525D02*
X1140175Y1106525D01*
X1130175Y1116525*
X1130175Y964025D02*
X1140175Y964025D01*
X1130175Y974025D02*
X1130175Y964025D01*
X1170175Y974025D02*
X1150175Y974025D01*
X1180175Y984025D02*
X1175175Y979025D01*
X1155175Y979025*
X1150175Y984025*
X1167675Y1029025D02*
X1167675Y1054025D01*
X1120175Y1026525D02*
X1140175Y1006525D01*
X1140175Y1004025*
X1090175Y1116525D02*
X1112675Y1116525D01*
X1117675Y1111525*
X1117675Y1104025*
X1110175Y1096525*
X1145175Y954025D02*
X1150175Y954025D01*
X1160175Y944025*
X1135175Y954025D02*
X1140175Y959025D01*
X1145175Y959025*
X1145175Y989025*
X1147675Y991525*
X1147675Y1044025*
X1157675Y1054025*
X1157675Y1079025*
X1172675Y1094025*
X1180175Y1106525D02*
X1172675Y1099025D01*
X1172675Y1094025*
X1152675Y1094025D02*
X1152675Y1104025D01*
X1140175Y1116525*
X1152675Y1104025*
X1160175Y1111525*
X1185175Y1111525*
X1185175Y1116525*
X1190175Y1121525*
X1270175Y1121525*
X1275175Y1119025*
X1257675Y1249025D02*
X1270175Y1249025D01*
X1237675Y1241525D02*
X1247675Y1249025D01*
X1225175Y1244025D02*
X1235175Y1244025D01*
X1237675Y1241525*
X1242675Y1116525D02*
X1255175Y1104025D01*
X1255175Y1094025*
X1282675Y1106525D02*
X1275175Y1099025D01*
X1275175Y1094025*
X1260175Y1079025*
X1260175Y1054025*
X1250175Y1044025*
X1250175Y991525*
X1247675Y989025*
X1242675Y1106525D02*
X1232675Y1116525D01*
X1242675Y1096525D02*
X1242675Y1106525D01*
X1192675Y1116525D02*
X1212675Y1096525D01*
X1257675Y954025D02*
X1272675Y954025D01*
X1232675Y1106525D02*
X1232675Y1096525D01*
X1237675Y1091525*
X1237675Y1084025*
X1230175Y1076525*
X1207675Y1076525*
X1207675Y1086525D02*
X1212675Y1086525D01*
X1222675Y1096525*
X1222675Y1094025*
X1230175Y1086525*
X1245175Y1081525D02*
X1235175Y1071525D01*
X1235175Y1066525*
X1222675Y1026525D02*
X1242675Y1006525D01*
X1242675Y1004025*
X1232675Y1026525D02*
X1235175Y1029025D01*
X1242675Y1029025*
X1242675Y1019025*
X1222675Y1016525D02*
X1210175Y1016525D01*
X1222675Y1016525D02*
X1227675Y1016525D01*
X1232675Y1011525*
X1232675Y1004025*
X1252675Y984025D02*
X1257675Y989025D01*
X1277675Y989025*
X1282675Y984025*
X1252675Y984025D02*
X1247675Y979025D01*
X1237675Y979025*
X1232675Y984025*
X1282675Y994025D02*
X1287675Y989025D01*
X1287675Y979025*
X1282675Y974025*
X1282675Y964025*
X1232675Y994025D02*
X1242675Y994025D01*
X1242675Y984025D02*
X1242675Y994025D01*
X1232675Y974025D02*
X1232675Y964025D01*
X1242675Y964025D02*
X1232675Y964025D01*
X1242675Y964025D02*
X1252675Y974025D01*
X1192675Y994025D02*
X1205175Y1006525D01*
X1205175Y1019025*
X1210175Y1026525*
X1250175Y1054025D02*
X1237675Y1054025D01*
X1210175Y1026525*
X1250175Y1054025D02*
X1250175Y1066525D01*
X1245175Y1071525*
X1270175Y1029025D02*
X1270175Y1054025D01*
X887675Y941525D02*
X882675Y936525D01*
X870175Y936525*
X865175Y931525*
X865175Y921525*
X842675Y921525*
X1197675Y1204025D02*
X1197675Y1219025D01*
X1262675Y1206525D02*
X1260175Y1204025D01*
X1247675Y1204025*
X567675Y1224025D02*
X572675Y1229025D01*
X652675Y1229025*
X652675Y1216525*
X665175Y1216525*
X675175Y1206525*
X685175Y1206525*
X685175Y1149025D02*
X707675Y1149025D01*
X722675Y1134025*
X757675Y1134025*
X787675Y1104025*
X787675Y1036525D02*
X880175Y1036525D01*
X685175Y1206525D02*
X675175Y1206525D01*
X665175Y1216525*
X652675Y1216525*
X652675Y1229025*
X572675Y1229025*
X567675Y1224025*
X1077675Y961525D02*
X1075175Y961525D01*
X1067675Y954025*
X1180175Y961525D02*
X1177675Y961525D01*
X1170175Y954025*
X1180175Y921525D02*
X1185175Y916525D01*
X1205175Y916525*
X1212675Y924025*
X1220175Y924025*
X1230175Y914025*
X1232675Y914025*
X1077675Y921525D02*
X1072675Y916525D01*
X997675Y916525*
X932675Y981525*
X870175Y981525*
X867675Y979025*
X867675Y974025*
X865175Y971525*
X832675Y971525*
X827675Y969025*
X792675Y969025*
X787675Y964025*
X720175Y964025*
X1077675Y921525D02*
X1082675Y916525D01*
X1175175Y916525*
X1180175Y921525*
X997675Y911525D02*
X1007675Y911525D01*
X1017675Y911525*
X1047675Y899025D02*
X1025175Y899025D01*
X1017675Y911525*
X1027675Y911525D02*
X1037675Y911525D01*
X1047675Y909025D02*
X1042675Y911525D01*
X1037675Y911525*
X1047675Y871525D02*
X1057675Y871525D01*
X637675Y909025D02*
X637675Y916525D01*
X645175Y924025*
X687675Y924025*
X695175Y931525*
X725175Y931525*
X732675Y924025*
X787675Y924025*
X790175Y926525*
X855175Y926525*
X965175Y1124025D02*
X1072675Y1124025D01*
X1077675Y1129025*
X1087675Y1129025*
X1092675Y1134025*
X1097675Y1134025*
X1102675Y1129025*
X1142675Y1129025*
X1142675Y1139025*
X1160175Y1139025*
X1165175Y1134025*
X1177675Y1134025*
X875175Y976525D02*
X875175Y954025D01*
X870175Y949025*
X817675Y949025*
X812675Y944025*
X870175Y1044025D02*
X782675Y1044025D01*
X782675Y1089025D02*
X760175Y1089025D01*
X755175Y1094025*
X702675Y1094025*
X692675Y1174025D02*
X712675Y1174025D01*
X722675Y1164025*
X755175Y1164025*
X760175Y1159025*
X760175Y1144025*
X790175Y1114025*
X817675Y1114025*
X827675Y1104025*
X842675Y1104025*
X847675Y1099025*
X847675Y1076525*
X642675Y954025D02*
X760175Y954025D01*
X770175Y944025*
X790175Y944025*
X790175Y936525*
X852675Y936525*
X860175Y931525*
X850175Y956525D02*
X840175Y956525D01*
D13*
G36*
X565175Y1084025D02*
X565175Y1104025D01*
X545175Y1104025*
X545175Y1084025*
X565175Y1084025*
G37*
X565175Y1104025*
X545175Y1104025*
X545175Y1084025*
X565175Y1084025*
G36*
X675175Y1256525D02*
X675175Y1236525D01*
X695175Y1236525*
X695175Y1256525*
X675175Y1256525*
G37*
X675175Y1236525*
X695175Y1236525*
X695175Y1256525*
X675175Y1256525*
G36*
X1015175Y1326525D02*
X1015175Y1346525D01*
X995175Y1346525*
X995175Y1326525*
X1015175Y1326525*
G37*
X1015175Y1346525*
X995175Y1346525*
X995175Y1326525*
X1015175Y1326525*
G36*
X1207675Y1246525D02*
X1207675Y1266525D01*
X1187675Y1266525*
X1187675Y1246525*
X1207675Y1246525*
G37*
X1207675Y1266525*
X1187675Y1266525*
X1187675Y1246525*
X1207675Y1246525*
G36*
X910175Y1039025D02*
X910175Y1059025D01*
X890175Y1059025*
X890175Y1039025*
X910175Y1039025*
G37*
X910175Y1059025*
X890175Y1059025*
X890175Y1039025*
X910175Y1039025*
G36*
X522675Y1336525D02*
X522675Y1364025D01*
X550175Y1364025*
X550175Y1366525*
X520175Y1366525*
X520175Y1336525*
X522675Y1336525*
G37*
X522675Y1364025*
X550175Y1364025*
X550175Y1366525*
X520175Y1366525*
X520175Y1336525*
X522675Y1336525*
G36*
X825175Y1366525D02*
X825175Y1364025D01*
X840175Y1364025*
X840175Y1351525*
X857675Y1351525*
X857675Y1354025*
X842675Y1354025*
X842675Y1366525*
X825175Y1366525*
G37*
X825175Y1364025*
X840175Y1364025*
X840175Y1351525*
X857675Y1351525*
X857675Y1354025*
X842675Y1354025*
X842675Y1366525*
X825175Y1366525*
G36*
X982675Y1366525D02*
X982675Y1354025D01*
X967675Y1354025*
X967675Y1351525*
X985175Y1351525*
X985175Y1364025*
X1000175Y1364025*
X1000175Y1366525*
X982675Y1366525*
G37*
X982675Y1354025*
X967675Y1354025*
X967675Y1351525*
X985175Y1351525*
X985175Y1364025*
X1000175Y1364025*
X1000175Y1366525*
X982675Y1366525*
G36*
X1300175Y1364025D02*
X1300175Y1336525D01*
X1302675Y1336525*
X1302675Y1366525*
X1272675Y1366525*
X1272675Y1364025*
X1300175Y1364025*
G37*
X1300175Y1336525*
X1302675Y1336525*
X1302675Y1366525*
X1272675Y1366525*
X1272675Y1364025*
X1300175Y1364025*
G36*
X1300175Y879025D02*
X1300175Y851525D01*
X1272675Y851525*
X1272675Y849025*
X1302675Y849025*
X1302675Y879025*
X1300175Y879025*
G37*
X1300175Y851525*
X1272675Y851525*
X1272675Y849025*
X1302675Y849025*
X1302675Y879025*
X1300175Y879025*
G36*
X522675Y851525D02*
X522675Y879025D01*
X520175Y879025*
X520175Y849025*
X550175Y849025*
X550175Y851525*
X522675Y851525*
G37*
X522675Y879025*
X520175Y879025*
X520175Y849025*
X550175Y849025*
X550175Y851525*
X522675Y851525*
D14*
X560175Y886525D03*
X1262675Y886525D03*
X685175Y1246525D03*
X1005175Y1336525D03*
X1197675Y1256525D03*
X555175Y1094025D03*
X900175Y1049025D03*
D15*
X1127675Y909025D03*
X1107675Y909025D03*
X1212675Y954025D03*
X1192675Y954025D03*
X1195175Y1036525D03*
X1195175Y1056525D03*
X1097675Y944025D03*
X1097675Y924025D03*
X1092675Y1036525D03*
X1092675Y1056525D03*
X997675Y949025D03*
X977675Y949025D03*
X977675Y1044025D03*
X977675Y1064025D03*
X1132675Y894025D03*
X1132675Y874025D03*
X1282675Y934025D03*
X1282675Y914025D03*
X1285175Y1039025D03*
X1285175Y1059025D03*
X1192675Y944025D03*
X1192675Y924025D03*
X1182675Y1039025D03*
X1182675Y1059025D03*
X1087675Y954025D03*
X1087675Y934025D03*
X1080175Y1039025D03*
X1080175Y1059025D03*
X1115175Y874025D03*
X1115175Y894025D03*
X592675Y909025D03*
X592675Y889025D03*
X550175Y1029025D03*
X550175Y1009025D03*
X562675Y1119025D03*
X542675Y1119025D03*
X705175Y1161525D03*
X705175Y1141525D03*
X652675Y1206525D03*
X652675Y1186525D03*
X822675Y1324025D03*
X822675Y1304025D03*
X975175Y1299025D03*
X975175Y1319025D03*
X1125175Y1334025D03*
X1145175Y1334025D03*
X1185175Y1334025D03*
X1205175Y1334025D03*
X1247675Y1334025D03*
X1267675Y1334025D03*
X812675Y1074025D03*
X812675Y1054025D03*
X947675Y1004025D03*
X927675Y1004025D03*
D16*
X820175Y976525D03*
X800175Y976525D03*
D14*
X737675Y929025D03*
X737675Y909025D03*
X682675Y929025D03*
X682675Y909025D03*
X900175Y966525D03*
X880175Y966525D03*
D15*
X1097675Y879025D03*
X1067675Y879025D03*
X1097675Y904025D03*
X1067675Y904025D03*
D14*
X927675Y901525D03*
X927675Y921525D03*
X937675Y946525D03*
X937675Y966525D03*
D15*
X1082675Y1264025D03*
X1062675Y1264025D03*
X1117675Y1264025D03*
X1097675Y1264025D03*
X1127675Y1269025D03*
X1127675Y1249025D03*
X1050175Y1094025D03*
X1070175Y1094025D03*
D14*
X1027675Y1051525D03*
X1027675Y1071525D03*
X1007675Y1071525D03*
X987675Y1071525D03*
X1037675Y1004025D03*
X1057675Y1004025D03*
X1037675Y984025D03*
X1037675Y964025D03*
X1067675Y964025D03*
X1047675Y964025D03*
D15*
X1270175Y1249025D03*
X1270175Y1269025D03*
X1257675Y1249025D03*
X1257675Y1269025D03*
X1277675Y1229025D03*
X1257675Y1229025D03*
X1152675Y1094025D03*
X1172675Y1094025D03*
D14*
X1120175Y1096525D03*
X1140175Y1096525D03*
X1110175Y1096525D03*
X1090175Y1096525D03*
X1140175Y1004025D03*
X1160175Y1004025D03*
X1140175Y984025D03*
X1140175Y964025D03*
X1170175Y964025D03*
X1150175Y964025D03*
D15*
X1225175Y1244025D03*
X1225175Y1264025D03*
X1247675Y1249025D03*
X1247675Y1269025D03*
X1227675Y1229025D03*
X1207675Y1229025D03*
D14*
X1222675Y1096525D03*
X1242675Y1096525D03*
X1212675Y1096525D03*
X1192675Y1096525D03*
X1242675Y1004025D03*
X1262675Y1004025D03*
X1242675Y984025D03*
X1242675Y964025D03*
X1282675Y964025D03*
X1262675Y964025D03*
X1182675Y909025D03*
X1222675Y909025D03*
X1195175Y879025D03*
X1235175Y879025D03*
X1082675Y1279025D03*
X1122675Y1279025D03*
X1282675Y1279025D03*
X1282675Y1239025D03*
X1237675Y1281525D03*
X1237675Y1241525D03*
X547675Y919025D03*
X547675Y929025D03*
X557675Y919025D03*
X557675Y929025D03*
X567675Y919025D03*
X567675Y929025D03*
X577675Y919025D03*
X577675Y929025D03*
X587675Y919025D03*
X587675Y929025D03*
X1182675Y1281525D03*
X1222675Y1281525D03*
X1172675Y1281525D03*
X1132675Y1281525D03*
X792675Y1014025D03*
X832675Y1014025D03*
X617675Y919025D03*
X657675Y919025D03*
X832675Y1024025D03*
X792675Y1024025D03*
X657675Y929025D03*
X617675Y929025D03*
X977675Y911525D03*
X977675Y871525D03*
X1007675Y871525D03*
X1007675Y911525D03*
X1037675Y911525D03*
X1037675Y871525D03*
X947675Y946525D03*
X947675Y986525D03*
X957675Y986525D03*
X957675Y946525D03*
X1077675Y1116525D03*
X1037675Y1116525D03*
X1077675Y1106525D03*
X1037675Y1106525D03*
X860175Y956525D03*
X900175Y956525D03*
X987675Y911525D03*
X987675Y871525D03*
X997675Y911525D03*
X997675Y871525D03*
X1027675Y911525D03*
X1027675Y871525D03*
X1032675Y1091525D03*
X992675Y1091525D03*
X987675Y1081525D03*
X1027675Y1081525D03*
X1040175Y1081525D03*
X1080175Y1081525D03*
X1030175Y1039025D03*
X990175Y1039025D03*
X987675Y1004025D03*
X1027675Y1004025D03*
X1037675Y1029025D03*
X1077675Y1029025D03*
X1037675Y1019025D03*
X1077675Y1019025D03*
D16*
X1065175Y1054025D03*
X1055175Y1044025D03*
X1045175Y1054025D03*
D14*
X1040175Y1071525D03*
X1080175Y1071525D03*
X987675Y994025D03*
X1027675Y994025D03*
X1037675Y994025D03*
X1077675Y994025D03*
X987675Y984025D03*
X1027675Y984025D03*
X1027675Y974025D03*
X987675Y974025D03*
X1027675Y964025D03*
X987675Y964025D03*
X1180175Y1116525D03*
X1140175Y1116525D03*
X1180175Y1106525D03*
X1140175Y1106525D03*
X1130175Y1116525D03*
X1090175Y1116525D03*
X1090175Y1106525D03*
X1130175Y1106525D03*
X1142675Y1081525D03*
X1182675Y1081525D03*
X1132675Y1066525D03*
X1092675Y1066525D03*
D16*
X1107675Y1036525D03*
X1117675Y1046525D03*
X1127675Y1036525D03*
D14*
X1090175Y1004025D03*
X1130175Y1004025D03*
X1140175Y1029025D03*
X1180175Y1029025D03*
X1140175Y1019025D03*
X1180175Y1019025D03*
D16*
X1167675Y1054025D03*
X1157675Y1044025D03*
X1147675Y1054025D03*
D14*
X1142675Y1071525D03*
X1182675Y1071525D03*
X1090175Y994025D03*
X1130175Y994025D03*
X1140175Y994025D03*
X1180175Y994025D03*
X1090175Y984025D03*
X1130175Y984025D03*
X1130175Y974025D03*
X1090175Y974025D03*
X1130175Y964025D03*
X1090175Y964025D03*
X1282675Y1116525D03*
X1242675Y1116525D03*
X1282675Y1106525D03*
X1242675Y1106525D03*
X1232675Y1116525D03*
X1192675Y1116525D03*
X1192675Y1106525D03*
X1232675Y1106525D03*
X1245175Y1081525D03*
X1285175Y1081525D03*
X1235175Y1066525D03*
X1195175Y1066525D03*
D16*
X1210175Y1036525D03*
X1220175Y1046525D03*
X1230175Y1036525D03*
D14*
X1192675Y1004025D03*
X1232675Y1004025D03*
X1242675Y1029025D03*
X1282675Y1029025D03*
X1242675Y1019025D03*
X1282675Y1019025D03*
D16*
X1270175Y1054025D03*
X1260175Y1044025D03*
X1250175Y1054025D03*
D14*
X1245175Y1071525D03*
X1285175Y1071525D03*
X1192675Y994025D03*
X1232675Y994025D03*
X1242675Y994025D03*
X1282675Y994025D03*
X1192675Y984025D03*
X1232675Y984025D03*
X1232675Y974025D03*
X1192675Y974025D03*
X1232675Y964025D03*
X1192675Y964025D03*
D17*
X717675Y1279025D03*
X725175Y1279025D03*
X810175Y1311525D03*
X810175Y1304025D03*
X1135175Y1134025D03*
X1127675Y1134025D03*
X1120175Y1134025D03*
X1120175Y1146525D03*
X1127675Y1146525D03*
X1135175Y1146525D03*
D14*
X747675Y886525D03*
X752675Y896525D03*
X757675Y886525D03*
X762675Y896525D03*
X767675Y886525D03*
X772675Y896525D03*
X777675Y886525D03*
X782675Y896525D03*
X787675Y886525D03*
X792675Y896525D03*
X797675Y886525D03*
X802675Y896525D03*
X807675Y886525D03*
X812675Y896525D03*
X817675Y886525D03*
X822675Y896525D03*
D14*
X1152675Y889025D03*
X1157675Y899025D03*
X1162675Y889025D03*
X1167675Y899025D03*
X1172675Y889025D03*
X1177675Y899025D03*
X1182675Y889025D03*
X1187675Y899025D03*
X1192675Y889025D03*
X1197675Y899025D03*
X1202675Y889025D03*
X1207675Y899025D03*
X1212675Y889025D03*
X1217675Y899025D03*
X1222675Y889025D03*
X1227675Y899025D03*
D19*
X797675Y954025D03*
X797675Y961525D03*
D15*
X720175Y924025D03*
X700175Y924025D03*
X1255175Y1094025D03*
X1275175Y1094025D03*
D14*
X1017675Y1059025D03*
X1007675Y1059025D03*
X1017675Y1049025D03*
X987675Y1049025D03*
X997675Y1049025D03*
X997675Y1059025D03*
X1027675Y1026525D03*
X1017675Y1026525D03*
X1017675Y1016525D03*
X995175Y1016525D03*
X1005175Y1016525D03*
X1005175Y1026525D03*
X1067675Y974025D03*
X1077675Y974025D03*
X1077675Y984025D03*
X1057675Y984025D03*
X1047675Y984025D03*
X1047675Y974025D03*
X1067675Y954025D03*
X1057675Y954025D03*
X1057675Y944025D03*
X1127675Y1086525D03*
X1117675Y1086525D03*
X1127675Y1076525D03*
X1095175Y1076525D03*
X1105175Y1076525D03*
X1105175Y1086525D03*
X1130175Y1026525D03*
X1120175Y1026525D03*
X1120175Y1016525D03*
X1097675Y1016525D03*
X1107675Y1016525D03*
X1107675Y1026525D03*
X1170175Y974025D03*
X1180175Y974025D03*
X1180175Y984025D03*
X1160175Y984025D03*
X1150175Y984025D03*
X1150175Y974025D03*
X1170175Y954025D03*
X1160175Y954025D03*
X1160175Y944025D03*
X1230175Y1086525D03*
X1220175Y1086525D03*
X1230175Y1076525D03*
X1197675Y1076525D03*
X1207675Y1076525D03*
X1207675Y1086525D03*
X1232675Y1026525D03*
X1222675Y1026525D03*
X1222675Y1016525D03*
X1200175Y1016525D03*
X1210175Y1016525D03*
X1210175Y1026525D03*
X1272675Y974025D03*
X1282675Y974025D03*
X1282675Y984025D03*
X1262675Y984025D03*
X1252675Y984025D03*
X1252675Y974025D03*
X1282675Y944025D03*
X1282675Y954025D03*
X1272675Y954025D03*
X810175Y1324025D03*
X800175Y1324025D03*
X790175Y1324025D03*
X780175Y1324025D03*
X770175Y1324025D03*
X760175Y1324025D03*
X750175Y1324025D03*
X740175Y1324025D03*
X730175Y1324025D03*
X720175Y1324025D03*
X1162675Y1261525D03*
X1172675Y1261525D03*
X1172675Y1271525D03*
X797675Y941525D03*
X797675Y931525D03*
X797675Y921525D03*
X797675Y911525D03*
X827675Y911525D03*
X827675Y921525D03*
X827675Y931525D03*
X827675Y941525D03*
X547675Y939025D03*
X557675Y939025D03*
X567675Y939025D03*
X577675Y939025D03*
X587675Y939025D03*
X597675Y939025D03*
X607675Y939025D03*
X617675Y939025D03*
X627675Y939025D03*
X637675Y939025D03*
X647675Y939025D03*
X657675Y939025D03*
X667675Y939025D03*
X677675Y939025D03*
X687675Y939025D03*
X697675Y939025D03*
X707675Y939025D03*
X717675Y939025D03*
X727675Y939025D03*
X737675Y939025D03*
X737675Y999025D03*
X727675Y999025D03*
X717675Y999025D03*
X707675Y999025D03*
X697675Y999025D03*
X687675Y999025D03*
X677675Y999025D03*
X667675Y999025D03*
X657675Y999025D03*
X647675Y999025D03*
X637675Y999025D03*
X627675Y999025D03*
X617675Y999025D03*
X607675Y999025D03*
X597675Y999025D03*
X587675Y999025D03*
X577675Y999025D03*
X567675Y999025D03*
X557675Y999025D03*
X547675Y999025D03*
X567675Y1014025D03*
X577675Y1014025D03*
X587675Y1014025D03*
X597675Y1014025D03*
X607675Y1014025D03*
X617675Y1014025D03*
X627675Y1014025D03*
X637675Y1014025D03*
X647675Y1014025D03*
X657675Y1014025D03*
X657675Y1044025D03*
X647675Y1044025D03*
X637675Y1044025D03*
X627675Y1044025D03*
X617675Y1044025D03*
X607675Y1044025D03*
X597675Y1044025D03*
X587675Y1044025D03*
X577675Y1044025D03*
X567675Y1044025D03*
X577675Y1059025D03*
X587675Y1059025D03*
X597675Y1059025D03*
X607675Y1059025D03*
X617675Y1059025D03*
X627675Y1059025D03*
X637675Y1059025D03*
X647675Y1059025D03*
X657675Y1059025D03*
X667675Y1059025D03*
X677675Y1059025D03*
X687675Y1059025D03*
X697675Y1059025D03*
X707675Y1059025D03*
X707675Y1119025D03*
X697675Y1119025D03*
X687675Y1119025D03*
X677675Y1119025D03*
X667675Y1119025D03*
X657675Y1119025D03*
X647675Y1119025D03*
X637675Y1119025D03*
X627675Y1119025D03*
X617675Y1119025D03*
X607675Y1119025D03*
X597675Y1119025D03*
X587675Y1119025D03*
X577675Y1119025D03*
X607675Y879025D03*
X617675Y879025D03*
X627675Y879025D03*
X637675Y879025D03*
X647675Y879025D03*
X657675Y879025D03*
X667675Y879025D03*
X667675Y909025D03*
X657675Y909025D03*
X647675Y909025D03*
X637675Y909025D03*
X627675Y909025D03*
X617675Y909025D03*
X607675Y909025D03*
X937675Y931525D03*
X937675Y921525D03*
X937675Y911525D03*
X937675Y901525D03*
X967675Y901525D03*
X967675Y911525D03*
X967675Y921525D03*
X967675Y931525D03*
X752675Y1029025D03*
X752675Y1019025D03*
X752675Y1009025D03*
X752675Y999025D03*
X752675Y989025D03*
X752675Y979025D03*
X752675Y969025D03*
X752675Y959025D03*
X752675Y949025D03*
X752675Y939025D03*
X752675Y929025D03*
X752675Y919025D03*
X782675Y919025D03*
X782675Y929025D03*
X782675Y939025D03*
X782675Y949025D03*
X782675Y959025D03*
X782675Y969025D03*
X782675Y979025D03*
X782675Y989025D03*
X782675Y999025D03*
X782675Y1009025D03*
X782675Y1019025D03*
X782675Y1029025D03*
X842675Y941525D03*
X842675Y931525D03*
X842675Y921525D03*
X842675Y911525D03*
X842675Y901525D03*
X842675Y891525D03*
X842675Y881525D03*
X872675Y881525D03*
X872675Y891525D03*
X872675Y901525D03*
X872675Y911525D03*
X872675Y921525D03*
X872675Y931525D03*
X872675Y941525D03*
X887675Y941525D03*
X887675Y931525D03*
X887675Y921525D03*
X887675Y911525D03*
X887675Y901525D03*
X887675Y891525D03*
X887675Y881525D03*
X917675Y881525D03*
X917675Y891525D03*
X917675Y901525D03*
X917675Y911525D03*
X917675Y921525D03*
X917675Y931525D03*
X917675Y941525D03*
X547675Y1134025D03*
X557675Y1134025D03*
X567675Y1134025D03*
X577675Y1134025D03*
X587675Y1134025D03*
X597675Y1134025D03*
X607675Y1134025D03*
X617675Y1134025D03*
X627675Y1134025D03*
X637675Y1134025D03*
X637675Y1164025D03*
X627675Y1164025D03*
X617675Y1164025D03*
X607675Y1164025D03*
X597675Y1164025D03*
X587675Y1164025D03*
X577675Y1164025D03*
X567675Y1164025D03*
X557675Y1164025D03*
X547675Y1164025D03*
X1100175Y1234025D03*
X1100175Y1224025D03*
X1100175Y1214025D03*
X1100175Y1204025D03*
X1100175Y1194025D03*
X1100175Y1184025D03*
X1100175Y1174025D03*
X1100175Y1164025D03*
X1130175Y1164025D03*
X1130175Y1174025D03*
X1130175Y1184025D03*
X1130175Y1194025D03*
X1130175Y1204025D03*
X1130175Y1214025D03*
X1130175Y1224025D03*
X1130175Y1234025D03*
X547675Y1179025D03*
X557675Y1179025D03*
X567675Y1179025D03*
X577675Y1179025D03*
X587675Y1179025D03*
X597675Y1179025D03*
X607675Y1179025D03*
X617675Y1179025D03*
X627675Y1179025D03*
X637675Y1179025D03*
X637675Y1209025D03*
X627675Y1209025D03*
X617675Y1209025D03*
X607675Y1209025D03*
X597675Y1209025D03*
X587675Y1209025D03*
X577675Y1209025D03*
X567675Y1209025D03*
X557675Y1209025D03*
X547675Y1209025D03*
X662675Y1204025D03*
X662675Y1194025D03*
X662675Y1184025D03*
X662675Y1174025D03*
X662675Y1164025D03*
X662675Y1154025D03*
X662675Y1144025D03*
X662675Y1134025D03*
X692675Y1134025D03*
X692675Y1144025D03*
X692675Y1154025D03*
X692675Y1164025D03*
X692675Y1174025D03*
X692675Y1184025D03*
X692675Y1194025D03*
X692675Y1204025D03*
X547675Y1224025D03*
X557675Y1224025D03*
X567675Y1224025D03*
X577675Y1224025D03*
X587675Y1224025D03*
X597675Y1224025D03*
X607675Y1224025D03*
X617675Y1224025D03*
X627675Y1224025D03*
X637675Y1224025D03*
X647675Y1224025D03*
X657675Y1224025D03*
X657675Y1254025D03*
X647675Y1254025D03*
X637675Y1254025D03*
X627675Y1254025D03*
X617675Y1254025D03*
X607675Y1254025D03*
X597675Y1254025D03*
X587675Y1254025D03*
X577675Y1254025D03*
X567675Y1254025D03*
X557675Y1254025D03*
X547675Y1254025D03*
X735175Y1309025D03*
X735175Y1299025D03*
X735175Y1289025D03*
X735175Y1279025D03*
X735175Y1269025D03*
X735175Y1259025D03*
X735175Y1249025D03*
X735175Y1239025D03*
X735175Y1229025D03*
X735175Y1219025D03*
X735175Y1209025D03*
X735175Y1199025D03*
X735175Y1189025D03*
X735175Y1179025D03*
X735175Y1169025D03*
X735175Y1159025D03*
X735175Y1149025D03*
X735175Y1139025D03*
X735175Y1129025D03*
X735175Y1119025D03*
X735175Y1109025D03*
X735175Y1099025D03*
X735175Y1089025D03*
X735175Y1079025D03*
X795175Y1079025D03*
X795175Y1089025D03*
X795175Y1099025D03*
X795175Y1109025D03*
X795175Y1119025D03*
X795175Y1129025D03*
X795175Y1139025D03*
X795175Y1149025D03*
X795175Y1159025D03*
X795175Y1169025D03*
X795175Y1179025D03*
X795175Y1189025D03*
X795175Y1199025D03*
X795175Y1209025D03*
X795175Y1219025D03*
X795175Y1229025D03*
X795175Y1239025D03*
X795175Y1249025D03*
X795175Y1259025D03*
X795175Y1269025D03*
X795175Y1279025D03*
X795175Y1289025D03*
X795175Y1299025D03*
X795175Y1309025D03*
X830175Y1279025D03*
X830175Y1269025D03*
X830175Y1259025D03*
X830175Y1249025D03*
X830175Y1239025D03*
X830175Y1229025D03*
X830175Y1219025D03*
X830175Y1209025D03*
X830175Y1199025D03*
X830175Y1189025D03*
X830175Y1179025D03*
X830175Y1169025D03*
X830175Y1159025D03*
X830175Y1149025D03*
X890175Y1149025D03*
X890175Y1159025D03*
X890175Y1169025D03*
X890175Y1179025D03*
X890175Y1189025D03*
X890175Y1199025D03*
X890175Y1209025D03*
X890175Y1219025D03*
X890175Y1229025D03*
X890175Y1239025D03*
X890175Y1249025D03*
X890175Y1259025D03*
X890175Y1269025D03*
X890175Y1279025D03*
X980175Y1279025D03*
X980175Y1269025D03*
X980175Y1259025D03*
X980175Y1249025D03*
X980175Y1239025D03*
X980175Y1229025D03*
X980175Y1219025D03*
X980175Y1209025D03*
X980175Y1199025D03*
X980175Y1189025D03*
X980175Y1179025D03*
X980175Y1169025D03*
X980175Y1159025D03*
X980175Y1149025D03*
X1040175Y1149025D03*
X1040175Y1159025D03*
X1040175Y1169025D03*
X1040175Y1179025D03*
X1040175Y1189025D03*
X1040175Y1199025D03*
X1040175Y1209025D03*
X1040175Y1219025D03*
X1040175Y1229025D03*
X1040175Y1239025D03*
X1040175Y1249025D03*
X1040175Y1259025D03*
X1040175Y1269025D03*
X1040175Y1279025D03*
X830175Y1129025D03*
X830175Y1119025D03*
X830175Y1109025D03*
X830175Y1099025D03*
X830175Y1089025D03*
X830175Y1079025D03*
X830175Y1069025D03*
X830175Y1059025D03*
X860175Y1059025D03*
X860175Y1069025D03*
X860175Y1079025D03*
X860175Y1089025D03*
X860175Y1099025D03*
X860175Y1109025D03*
X860175Y1119025D03*
X860175Y1129025D03*
X875175Y1104025D03*
X885175Y1104025D03*
X895175Y1104025D03*
X905175Y1104025D03*
X915175Y1104025D03*
X925175Y1104025D03*
X935175Y1104025D03*
X945175Y1104025D03*
X945175Y1134025D03*
X935175Y1134025D03*
X925175Y1134025D03*
X915175Y1134025D03*
X905175Y1134025D03*
X895175Y1134025D03*
X885175Y1134025D03*
X875175Y1134025D03*
X920175Y1089025D03*
X920175Y1079025D03*
X920175Y1069025D03*
X920175Y1059025D03*
X920175Y1049025D03*
X920175Y1039025D03*
X920175Y1029025D03*
X920175Y1019025D03*
X950175Y1019025D03*
X950175Y1029025D03*
X950175Y1039025D03*
X950175Y1049025D03*
X950175Y1059025D03*
X950175Y1069025D03*
X950175Y1079025D03*
X950175Y1089025D03*
X1217675Y1291525D03*
X1227675Y1291525D03*
X1237675Y1291525D03*
X1247675Y1291525D03*
X1257675Y1291525D03*
X1267675Y1291525D03*
X1277675Y1291525D03*
X1277675Y1321525D03*
X1267675Y1321525D03*
X1257675Y1321525D03*
X1247675Y1321525D03*
X1237675Y1321525D03*
X1227675Y1321525D03*
X1217675Y1321525D03*
X1012675Y924025D03*
X1022675Y924025D03*
X1032675Y924025D03*
X1042675Y924025D03*
X1042675Y954025D03*
X1032675Y954025D03*
X1022675Y954025D03*
X1012675Y954025D03*
X837675Y1294025D03*
X847675Y1294025D03*
X857675Y1294025D03*
X867675Y1294025D03*
X877675Y1294025D03*
X887675Y1294025D03*
X897675Y1294025D03*
X907675Y1294025D03*
X917675Y1294025D03*
X927675Y1294025D03*
X937675Y1294025D03*
X947675Y1294025D03*
X947675Y1324025D03*
X937675Y1324025D03*
X927675Y1324025D03*
X917675Y1324025D03*
X907675Y1324025D03*
X897675Y1324025D03*
X887675Y1324025D03*
X877675Y1324025D03*
X867675Y1324025D03*
X857675Y1324025D03*
X847675Y1324025D03*
X837675Y1324025D03*
X905175Y1279025D03*
X905175Y1269025D03*
X905175Y1259025D03*
X905175Y1249025D03*
X905175Y1239025D03*
X905175Y1229025D03*
X905175Y1219025D03*
X905175Y1209025D03*
X905175Y1199025D03*
X905175Y1189025D03*
X905175Y1179025D03*
X905175Y1169025D03*
X905175Y1159025D03*
X905175Y1149025D03*
X965175Y1149025D03*
X965175Y1159025D03*
X965175Y1169025D03*
X965175Y1179025D03*
X965175Y1189025D03*
X965175Y1199025D03*
X965175Y1209025D03*
X965175Y1219025D03*
X965175Y1229025D03*
X965175Y1239025D03*
X965175Y1249025D03*
X965175Y1259025D03*
X965175Y1269025D03*
X965175Y1279025D03*
X1137675Y1291525D03*
X1147675Y1291525D03*
X1157675Y1291525D03*
X1167675Y1291525D03*
X1177675Y1291525D03*
X1187675Y1291525D03*
X1197675Y1291525D03*
X1197675Y1321525D03*
X1187675Y1321525D03*
X1177675Y1321525D03*
X1167675Y1321525D03*
X1157675Y1321525D03*
X1147675Y1321525D03*
X1137675Y1321525D03*
X1057675Y1291525D03*
X1067675Y1291525D03*
X1077675Y1291525D03*
X1087675Y1291525D03*
X1097675Y1291525D03*
X1107675Y1291525D03*
X1117675Y1291525D03*
X1117675Y1321525D03*
X1107675Y1321525D03*
X1097675Y1321525D03*
X1087675Y1321525D03*
X1077675Y1321525D03*
X1067675Y1321525D03*
X1057675Y1321525D03*
X1055175Y1244025D03*
X1055175Y1234025D03*
X1055175Y1224025D03*
X1055175Y1214025D03*
X1055175Y1204025D03*
X1055175Y1194025D03*
X1055175Y1184025D03*
X1055175Y1174025D03*
X1055175Y1164025D03*
X1055175Y1154025D03*
X1055175Y1144025D03*
X1055175Y1134025D03*
X1085175Y1134025D03*
X1085175Y1144025D03*
X1085175Y1154025D03*
X1085175Y1164025D03*
X1085175Y1174025D03*
X1085175Y1184025D03*
X1085175Y1194025D03*
X1085175Y1204025D03*
X1085175Y1214025D03*
X1085175Y1224025D03*
X1085175Y1234025D03*
X1085175Y1244025D03*
X1147675Y1244025D03*
X1147675Y1234025D03*
X1147675Y1224025D03*
X1147675Y1214025D03*
X1147675Y1204025D03*
X1147675Y1194025D03*
X1147675Y1184025D03*
X1147675Y1174025D03*
X1147675Y1164025D03*
X1147675Y1154025D03*
X1147675Y1144025D03*
X1147675Y1134025D03*
X1177675Y1134025D03*
X1177675Y1144025D03*
X1177675Y1154025D03*
X1177675Y1164025D03*
X1177675Y1174025D03*
X1177675Y1184025D03*
X1177675Y1194025D03*
X1177675Y1204025D03*
X1177675Y1214025D03*
X1177675Y1224025D03*
X1177675Y1234025D03*
X1177675Y1244025D03*
X1247675Y1204025D03*
X1247675Y1194025D03*
X1247675Y1184025D03*
X1247675Y1174025D03*
X1247675Y1164025D03*
X1247675Y1154025D03*
X1247675Y1144025D03*
X1247675Y1134025D03*
X1277675Y1134025D03*
X1277675Y1144025D03*
X1277675Y1154025D03*
X1277675Y1164025D03*
X1277675Y1174025D03*
X1277675Y1184025D03*
X1277675Y1194025D03*
X1277675Y1204025D03*
X1115175Y924025D03*
X1125175Y924025D03*
X1135175Y924025D03*
X1145175Y924025D03*
X1145175Y954025D03*
X1135175Y954025D03*
X1125175Y954025D03*
X1115175Y954025D03*
X1197675Y1204025D03*
X1197675Y1194025D03*
X1197675Y1184025D03*
X1197675Y1174025D03*
X1197675Y1164025D03*
X1197675Y1154025D03*
X1197675Y1144025D03*
X1197675Y1134025D03*
X1227675Y1134025D03*
X1227675Y1144025D03*
X1227675Y1154025D03*
X1227675Y1164025D03*
X1227675Y1174025D03*
X1227675Y1184025D03*
X1227675Y1194025D03*
X1227675Y1204025D03*
X1227675Y924025D03*
X1237675Y924025D03*
X1247675Y924025D03*
X1257675Y924025D03*
X1257675Y954025D03*
X1247675Y954025D03*
X1237675Y954025D03*
X1227675Y954025D03*
X1185175Y871525D03*
X1145175Y871525D03*
D15*
X1267675Y1219025D03*
X1247675Y1219025D03*
X1197675Y1219025D03*
X1217675Y1219025D03*
X1097675Y1249025D03*
X1117675Y1249025D03*
D14*
X1232675Y914025D03*
X1272675Y914025D03*
X1180175Y921525D03*
X1180175Y961525D03*
X1077675Y921525D03*
X1077675Y961525D03*
X850175Y996525D03*
X850175Y1016525D03*
X875175Y1006525D03*
X875175Y976525D03*
X885175Y1006525D03*
X885175Y976525D03*
X917675Y996525D03*
X917675Y956525D03*
X1017675Y911525D03*
X1017675Y871525D03*
X962675Y886525D03*
X932675Y886525D03*
X962675Y876525D03*
X932675Y876525D03*
X1057675Y911525D03*
X1057675Y871525D03*
X1047675Y871525D03*
X1047675Y881525D03*
X1047675Y909025D03*
X1047675Y899025D03*
D15*
X1095175Y1126525D03*
X1095175Y1146525D03*
D20*
X545175Y1341525D03*
X1277675Y874025D03*
D14*
X840175Y996525D03*
X840175Y956525D03*
X850175Y966525D03*
X850175Y956525D03*
D16*
X852675Y979025D03*
D19*
X675175Y891525D03*
X600175Y896525D03*
X602675Y994025D03*
X672675Y1054025D03*
X702675Y1076525D03*
X755175Y1179025D03*
X755175Y1154025D03*
X617675Y1156525D03*
X755175Y1179025D03*
X685175Y1016525D03*
X582675Y1094025D03*
X735175Y1066525D03*
X572675Y1084025D03*
X740175Y1054025D03*
X667675Y1091525D03*
X627675Y1151525D03*
X750175Y1146525D03*
X750175Y1169025D03*
X750175Y1169025D03*
X740175Y1046525D03*
X732675Y1034025D03*
X722675Y1024025D03*
X712675Y1024025D03*
X740175Y1061525D03*
X577675Y1089025D03*
X692675Y1019025D03*
X680175Y986525D03*
X707675Y1019025D03*
X717675Y1019025D03*
X725175Y1031525D03*
X735175Y1041525D03*
X637675Y896525D03*
X632675Y874025D03*
X652675Y874025D03*
X765175Y1269025D03*
X667675Y981525D03*
X1155175Y1189025D03*
X1110175Y1241525D03*
X1155175Y1189025D03*
X692675Y1106525D03*
X675175Y1181525D03*
X965175Y1134025D03*
X1067675Y1129025D03*
X762675Y911525D03*
X837675Y1224025D03*
X772675Y1224025D03*
X1205175Y929025D03*
X1202675Y951525D03*
X1112675Y936525D03*
X1042675Y936525D03*
X1112675Y936525D03*
X1042675Y936525D03*
X1265175Y1011525D03*
X1222675Y1009025D03*
X1107675Y974025D03*
X1122675Y1009025D03*
X1162675Y1011525D03*
X1020175Y1009025D03*
X1060175Y1011525D03*
X1182675Y879025D03*
X1217675Y919025D03*
X1005175Y984025D03*
X980175Y984025D03*
X1212675Y984025D03*
X1215175Y1126525D03*
X642675Y1096525D03*
X792675Y1071525D03*
X785175Y1171525D03*
X777675Y1309025D03*
X937675Y966525D03*
X787675Y1244025D03*
X782675Y1194025D03*
X647675Y1234025D03*
X592675Y1234025D03*
X602675Y1304025D03*
X612675Y1294025D03*
X622675Y1284025D03*
X632675Y1274025D03*
X652675Y1111525D03*
X810175Y1084025D03*
X852675Y1094025D03*
X857675Y1199025D03*
X875175Y1204025D03*
X1245175Y1239025D03*
X922675Y1229025D03*
X1270175Y1209025D03*
X932675Y1236525D03*
X1262675Y1199025D03*
X942675Y1274025D03*
X820175Y1264025D03*
X817675Y1119025D03*
X835175Y1234025D03*
X842675Y1094025D03*
X835175Y1244025D03*
X812675Y1099025D03*
X817675Y1254025D03*
X822675Y1271525D03*
X767675Y1279025D03*
X725175Y1314025D03*
X842675Y1169025D03*
X845175Y1159025D03*
X847675Y1149025D03*
X922675Y1151525D03*
X987675Y1154025D03*
X1140175Y1206525D03*
X1257675Y1174025D03*
X1252675Y1169025D03*
X912675Y1154025D03*
X1075175Y1209025D03*
X1182675Y1219025D03*
X867675Y1174025D03*
X1027675Y1174025D03*
X1070175Y1214025D03*
X1062675Y1304025D03*
X1110175Y1111525D03*
X1065175Y1029025D03*
X1017675Y929025D03*
X1140175Y929025D03*
X1167675Y1029025D03*
X1275175Y1119025D03*
X1247675Y989025D03*
X1270175Y1029025D03*
X1262675Y1206525D03*
X685175Y1206525D03*
X685175Y1149025D03*
X787675Y1104025D03*
X787675Y1036525D03*
X880175Y1036525D03*
X685175Y1206525D03*
X720175Y964025D03*
X855175Y926525D03*
X965175Y1124025D03*
X812675Y944025D03*
X870175Y1044025D03*
X782675Y1044025D03*
X782675Y1089025D03*
X702675Y1094025D03*
X847675Y1076525D03*
X642675Y954025D03*
X860175Y931525D03*
M02*
