G70*
%FSLAX55Y55*%
%ADD11C,0.01200*%
%ADD12C,0.04000*%
%ADD13C,0.05000*%
%ADD14C,0.15000*%
%ADD15C,0.08000*%
%ADD16C,0.10000*%
%ADD17C,0.06000*%
%ADD18R,0.06000X0.06000*%
%ADD19C,0.05500*%
%ADD20C,0.05000*%
%AMUSER21*
1, 1, 0.05000, 0.0, 0.0*
1, 0, 0.02000, 0.0, 0.0*%
%ADD21USER21*%
D11*
X700175Y924025D02*
X705175Y926525D01*
X717675Y939025*
X682675Y929025D02*
X687675Y924025D01*
X700175Y924025*
X727675Y939025D02*
X720175Y931525D01*
X720175Y924025*
X737675Y929025D02*
X727675Y939025D01*
X567675Y939025D02*
X567675Y929025D01*
X547675Y939025D02*
X547675Y929025D01*
X677675Y939025D02*
X687675Y939025D01*
X677675Y939025D02*
X665175Y926525D01*
X665175Y916525*
X657675Y909025*
X675175Y891525D02*
X657675Y909025D01*
X665175Y916525*
X665175Y926525*
X677675Y939025*
X687675Y939025*
X687675Y941525*
X742675Y996525*
X742675Y1019025*
X752675Y1029025*
X617675Y929025D02*
X617675Y939025D01*
X600175Y896525D02*
X600175Y936525D01*
X597675Y939025*
X657675Y999025D02*
X655175Y999025D01*
X642675Y1011525*
X642675Y1084025*
X637675Y1089025*
X637675Y1119025*
X697675Y939025D02*
X707675Y949025D01*
X722675Y949025*
X752675Y979025*
X735175Y1299025D02*
X760175Y1274025D01*
X760175Y986525*
X752675Y979025*
X587675Y1119025D02*
X587675Y1084025D01*
X602675Y1069025*
X602675Y994025*
X672675Y1054025D02*
X672675Y1019025D01*
X685175Y1006525*
X690175Y1006525*
X697675Y999025*
X717675Y999025D02*
X702675Y1014025D01*
X702675Y1076525*
X717675Y1279025D02*
X717675Y1274025D01*
X745175Y1274025*
X745175Y1144025*
X747675Y1141525*
X747675Y1041525*
X717675Y1011525*
X717675Y999025*
X755175Y1179025D02*
X755175Y1154025D01*
X617675Y1156525D02*
X617675Y1141525D01*
X612675Y1136525*
X612675Y1124025*
X607675Y1119025*
X737675Y999025D02*
X737675Y1021525D01*
X755175Y1039025*
X755175Y1179025*
X685175Y1016525D02*
X682675Y1019025D01*
X682675Y1114025*
X677675Y1119025*
X617675Y1134025D02*
X617675Y1136525D01*
X622675Y1141525*
X622675Y1166525*
X617675Y1171525*
X617675Y1179025*
X617675Y1014025D02*
X622675Y1019025D01*
X622675Y1064025*
X602675Y1084025*
X602675Y1129025*
X597675Y1134025*
X602675Y1139025*
X602675Y1166525*
X597675Y1171525*
X597675Y1179025*
X597675Y1014025D02*
X592675Y1019025D01*
X592675Y1074025*
X582675Y1084025*
X582675Y1129025*
X577675Y1134025*
X577675Y1179025D02*
X572675Y1174025D01*
X572675Y1151525*
X577675Y1146525*
X577675Y1134025*
X597675Y1014025D02*
X592675Y1019025D01*
X592675Y1074025*
X582675Y1084025*
X582675Y1094025*
X735175Y1066525D02*
X740175Y1071525D01*
X740175Y1134025*
X735175Y1139025*
X577675Y1014025D02*
X572675Y1019025D01*
X572675Y1084025*
X557675Y1134025D02*
X557675Y1146525D01*
X552675Y1151525*
X552675Y1174025*
X557675Y1179025*
X740175Y1054025D02*
X745175Y1059025D01*
X745175Y1139025*
X742675Y1141525*
X742675Y1151525*
X735175Y1159025*
X557675Y1134025D02*
X570175Y1121525D01*
X570175Y1109025*
X572675Y1106525*
X572675Y1019025*
X577675Y1014025*
X667675Y1091525D02*
X662675Y1086525D01*
X662675Y1054025*
X667675Y1049025*
X667675Y1019025*
X687675Y999025*
X627675Y1119025D02*
X632675Y1114025D01*
X632675Y994025*
X635175Y991525*
X665175Y991525*
X675175Y981525*
X690175Y981525*
X707675Y999025*
X617675Y1119025D02*
X622675Y1124025D01*
X622675Y1136525*
X627675Y1141525*
X627675Y1151525*
X750175Y1146525D02*
X750175Y1169025D01*
X750175Y1039025*
X727675Y1016525*
X727675Y999025*
X735175Y1189025D02*
X730175Y1184025D01*
X730175Y1056525*
X740175Y1046525*
X735175Y1209025D02*
X725175Y1199025D01*
X725175Y1041525*
X732675Y1034025*
X735175Y1229025D02*
X720175Y1214025D01*
X720175Y1026525*
X722675Y1024025*
X735175Y1249025D02*
X715175Y1229025D01*
X715175Y1026525*
X712675Y1024025*
X740175Y1061525D02*
X742675Y1064025D01*
X742675Y1136525*
X740175Y1139025*
X740175Y1144025*
X735175Y1149025*
X587675Y1014025D02*
X582675Y1019025D01*
X582675Y1079025*
X577675Y1084025*
X577675Y1109025*
X572675Y1114025*
X572675Y1129025*
X567675Y1134025*
X567675Y1146525*
X562675Y1151525*
X562675Y1174025*
X567675Y1179025*
X587675Y1014025D02*
X582675Y1019025D01*
X582675Y1079025*
X577675Y1084025*
X577675Y1089025*
X607675Y1014025D02*
X612675Y1019025D01*
X612675Y1066525*
X592675Y1086525*
X592675Y1129025*
X587675Y1134025*
X587675Y1179025D02*
X587675Y1171525D01*
X592675Y1166525*
X592675Y1139025*
X587675Y1134025*
X687675Y1119025D02*
X687675Y1096525D01*
X692675Y1091525*
X692675Y1019025*
X607675Y1134025D02*
X607675Y1154025D01*
X612675Y1159025*
X612675Y1166525*
X607675Y1171525*
X607675Y1179025*
X667675Y1119025D02*
X652675Y1104025D01*
X652675Y1019025*
X647675Y1014025*
X627675Y1179025D02*
X627675Y1171525D01*
X632675Y1166525*
X632675Y1139025*
X627675Y1134025*
X680175Y986525D02*
X667675Y999025D01*
X735175Y1259025D02*
X712675Y1236525D01*
X712675Y1031525*
X707675Y1026525*
X707675Y1019025*
X735175Y1239025D02*
X717675Y1221525D01*
X717675Y1019025*
X735175Y1219025D02*
X722675Y1206525D01*
X722675Y1034025*
X725175Y1031525*
X735175Y1041525D02*
X727675Y1049025D01*
X727675Y1191525*
X735175Y1199025*
X832675Y1014025D02*
X832675Y1024025D01*
X832675Y1014025D02*
X832675Y991525D01*
X837675Y989025*
X860175Y989025*
X862675Y986525*
X862675Y969025*
X855175Y964025*
X855175Y941525*
X850175Y936525*
X840175Y936525*
X835175Y931525*
X835175Y924025*
X827675Y921525*
X657675Y919025D02*
X657675Y929025D01*
X617675Y879025D02*
X607675Y879025D01*
X647675Y879025D02*
X637675Y879025D01*
X637675Y896525D02*
X647675Y886525D01*
X647675Y879025*
X557675Y939025D02*
X557675Y929025D01*
X577675Y939025D02*
X577675Y929025D01*
X647675Y999025D02*
X647675Y996525D01*
X650175Y994025*
X660175Y994025*
X662675Y996525*
X662675Y1039025*
X657675Y1044025*
X627675Y939025D02*
X627675Y921525D01*
X622675Y916525*
X622675Y884025*
X627675Y879025*
X637675Y939025D02*
X632675Y934025D01*
X632675Y874025*
X647675Y939025D02*
X642675Y934025D01*
X642675Y899025*
X652675Y889025*
X652675Y874025*
X707675Y939025D02*
X715175Y946525D01*
X730175Y946525*
X752675Y969025*
X765175Y1269025D02*
X765175Y981525D01*
X752675Y969025*
X657675Y939025D02*
X652675Y934025D01*
X652675Y894025*
X657675Y889025*
X657675Y879025*
X667675Y981525D02*
X667675Y939025D01*
X822675Y896525D02*
X837675Y911525D01*
X837675Y926525*
X842675Y931525*
X900175Y966525D02*
X900175Y956525D01*
X887675Y931525D02*
X900175Y944025D01*
X900175Y956525*
X887675Y921525D02*
X907675Y941525D01*
X907675Y1021525*
X915175Y1029025*
X915175Y1054025*
X922675Y1054025*
X935175Y1066525*
X935175Y1104025*
X935175Y1066525*
X922675Y1054025*
X915175Y1054025*
X915175Y1029025*
X920175Y1029025*
X1155175Y1189025D02*
X1155175Y1236525D01*
X1147675Y1244025*
X1100175Y1194025D02*
X1110175Y1204025D01*
X1110175Y1241525*
X1147675Y1244025D02*
X1147675Y1269025D01*
X1142675Y1274025*
X1142675Y1296525*
X1117675Y1321525*
X1155175Y1189025D02*
X1155175Y1236525D01*
X1147675Y1244025*
X692675Y1106525D02*
X692675Y1124025D01*
X675175Y1141525*
X675175Y1181525*
X935175Y1104025D02*
X935175Y1106525D01*
X960175Y1131525*
X965175Y1134025*
X1067675Y1129025D02*
X1067675Y1166525D01*
X1080175Y1179025*
X1090175Y1179025*
X1092675Y1181525*
X1092675Y1186525*
X1100175Y1194025*
X762675Y896525D02*
X762675Y911525D01*
X917675Y921525D02*
X912675Y926525D01*
X912675Y951525*
X917675Y956525*
X1055175Y1234025D02*
X1047675Y1226525D01*
X1047675Y1146525*
X1042675Y1141525*
X1020175Y1141525*
X967675Y1089025*
X967675Y1039025*
X957675Y1029025*
X957675Y1001525*
X952675Y996525*
X937675Y996525*
X922675Y981525*
X922675Y886525*
X917675Y881525*
X1057675Y1291525D02*
X1050175Y1284025D01*
X1050175Y1239025*
X1055175Y1234025*
X1137675Y1291525D02*
X1140175Y1289025D01*
X1140175Y1241525*
X1147675Y1234025*
X847675Y1294025D02*
X847675Y1234025D01*
X837675Y1224025*
X772675Y1224025D02*
X772675Y896525D01*
D12*
X1205175Y929025D02*
X1205175Y949025D01*
X1202675Y951525*
X1090175Y974025D02*
X1107675Y974025D01*
X1107675Y951525*
X1112675Y946525*
X1112675Y936525*
X1042675Y924025D02*
X1042675Y936525D01*
X1112675Y936525D02*
X1112675Y946525D01*
X1107675Y951525*
X1107675Y974025*
X1090175Y974025*
X1042675Y936525D02*
X1042675Y924025D01*
X1265175Y1011525D02*
X1227675Y1011525D01*
X1222675Y1009025*
X1090175Y974025D02*
X1107675Y974025D01*
X1122675Y1009025D02*
X1125175Y1011525D01*
X1162675Y1011525*
X1020175Y1009025D02*
X1025175Y1011525D01*
X1060175Y1011525*
X1182675Y879025D02*
X1137675Y879025D01*
X1132675Y874025*
X1192675Y984025D02*
X1200175Y984025D01*
X1200175Y1004025*
X1192675Y1004025*
X1212675Y954025D02*
X1212675Y924025D01*
X1217675Y919025*
X1090175Y1004025D02*
X1097675Y1004025D01*
X1097675Y984025*
X1090175Y984025*
X1005175Y984025D02*
X987675Y984025D01*
X980175Y984025D02*
X987675Y984025D01*
X1192675Y1106525D02*
X1182675Y1099025D01*
X1180175Y1099025*
X1165175Y1106525*
X1165175Y1259025*
X1162675Y1261525*
X1212675Y984025D02*
X1192675Y984025D01*
X1227675Y1229025D02*
X1227675Y1204025D01*
X1215175Y1126525D02*
X1215175Y1204025D01*
X1227675Y1204025*
D11*
X1172675Y1281525D02*
X1172675Y1271525D01*
X637675Y1164025D02*
X642675Y1159025D01*
X642675Y1096525*
X792675Y1071525D02*
X800175Y1064025D01*
X800175Y1019025*
X790175Y1019025*
X787675Y1016525*
X787675Y974025*
X782675Y969025*
X782675Y959025D02*
X777675Y964025D01*
X777675Y1164025*
X785175Y1171525*
X782675Y949025D02*
X775175Y956525D01*
X775175Y1166525*
X777675Y1169025*
X777675Y1309025*
X997675Y871525D02*
X992675Y876525D01*
X982675Y876525*
X977675Y871525*
X937675Y966525D02*
X937675Y976525D01*
X947675Y986525*
X820175Y976525D02*
X820175Y964025D01*
X827675Y954025*
X827675Y941525*
X797675Y931525D02*
X792675Y936525D01*
X792675Y959025*
X797675Y961525*
X797675Y954025D02*
X797675Y941525D01*
X800175Y976525D02*
X805175Y974025D01*
X805175Y959025*
X797675Y954025*
X787675Y1244025D02*
X787675Y1236525D01*
X795175Y1229025*
X782675Y1194025D02*
X782675Y1196525D01*
X795175Y1209025*
X577675Y1224025D02*
X572675Y1219025D01*
X572675Y1194025*
X582675Y1184025*
X582675Y1169025*
X587675Y1164025*
X587675Y1224025D02*
X582675Y1219025D01*
X582675Y1194025*
X592675Y1184025*
X592675Y1171525*
X597675Y1166525*
X597675Y1164025*
X597675Y1224025D02*
X597675Y1219025D01*
X592675Y1214025*
X592675Y1194025*
X602675Y1184025*
X602675Y1171525*
X607675Y1166525*
X607675Y1164025*
X617675Y1164025D02*
X617675Y1166525D01*
X612675Y1171525*
X612675Y1184025*
X602675Y1194025*
X602675Y1214025*
X607675Y1219025*
X607675Y1224025*
X627675Y1164025D02*
X627675Y1166525D01*
X622675Y1171525*
X622675Y1184025*
X612675Y1194025*
X612675Y1211525*
X617675Y1216525*
X617675Y1224025*
X657675Y1254025D02*
X647675Y1234025D01*
X592675Y1234025D02*
X592675Y1219025D01*
X587675Y1214025*
X587675Y1209025*
X597675Y1209025D02*
X597675Y1214025D01*
X602675Y1219025*
X602675Y1304025*
X607675Y1209025D02*
X607675Y1214025D01*
X612675Y1219025*
X612675Y1294025*
X622675Y1284025D02*
X622675Y1214025D01*
X617675Y1209025*
X632675Y1274025D02*
X632675Y1214025D01*
X627675Y1209025*
X647675Y1254025D02*
X640175Y1246525D01*
X640175Y1231525*
X642675Y1229025*
X642675Y1214025*
X645175Y1211525*
X645175Y1131525*
X652675Y1126525*
X652675Y1111525*
X810175Y1084025D02*
X845175Y1084025D01*
X852675Y1094025*
X847675Y1324025D02*
X847675Y1316525D01*
X800175Y1269025*
X800175Y1174025*
X795175Y1169025*
X857675Y1324025D02*
X857675Y1321525D01*
X802675Y1266525*
X802675Y1166525*
X795175Y1159025*
X830175Y1189025D02*
X852675Y1211525D01*
X852675Y1279025*
X862675Y1289025*
X862675Y1319025*
X867675Y1324025*
X877675Y1324025D02*
X872675Y1319025D01*
X872675Y1289025*
X857675Y1274025*
X857675Y1199025*
X875175Y1204025D02*
X882675Y1211525D01*
X882675Y1319025*
X887675Y1324025*
X897675Y1324025D02*
X912675Y1309025D01*
X912675Y1226525*
X905175Y1219025*
X1245175Y1239025D02*
X1245175Y1231525D01*
X1255175Y1221525*
X1255175Y1181525*
X1247675Y1174025*
X922675Y1229025D02*
X922675Y1309025D01*
X907675Y1324025*
X1277675Y1144025D02*
X1270175Y1151525D01*
X1270175Y1209025*
X932675Y1236525D02*
X932675Y1309025D01*
X917675Y1324025*
X1262675Y1199025D02*
X1262675Y1149025D01*
X1277675Y1134025*
X927675Y1324025D02*
X942675Y1309025D01*
X942675Y1274025*
X795175Y1139025D02*
X810175Y1154025D01*
X810175Y1259025*
X815175Y1264025*
X820175Y1264025*
X795175Y1129025D02*
X812675Y1146525D01*
X812675Y1256525*
X815175Y1259025*
X825175Y1259025*
X825175Y1264025*
X830175Y1269025*
X817675Y1119025D02*
X822675Y1124025D01*
X822675Y1234025*
X835175Y1234025*
X842675Y1094025D02*
X847675Y1096525D01*
X847675Y1139025*
X855175Y1146525*
X855175Y1174025*
X890175Y1209025*
X835175Y1244025D02*
X820175Y1244025D01*
X820175Y1129025*
X812675Y1121525*
X812675Y1099025*
X795175Y1089025D02*
X805175Y1099025D01*
X805175Y1124025*
X815175Y1134025*
X815175Y1251525*
X817675Y1254025*
X830175Y1259025D02*
X817675Y1246525D01*
X817675Y1131525*
X807675Y1121525*
X807675Y1091525*
X795175Y1079025*
X822675Y1271525D02*
X817675Y1271525D01*
X807675Y1261525*
X807675Y1156525*
X800175Y1149025*
X795175Y1149025*
X725175Y1279025D02*
X735175Y1279025D01*
X810175Y1311525D02*
X802675Y1311525D01*
X802675Y1284025*
X790175Y1284025*
X790175Y1274025*
X795175Y1269025*
X790175Y1324025D02*
X790175Y1294025D01*
X795175Y1289025*
X780175Y1324025D02*
X767675Y1311525D01*
X767675Y1279025*
X735175Y1289025D02*
X725175Y1299025D01*
X725175Y1314025*
X830175Y1119025D02*
X837675Y1126525D01*
X837675Y1171525*
X830175Y1179025*
X830175Y1109025D02*
X840175Y1119025D01*
X840175Y1166525*
X842675Y1169025*
X845175Y1159025D02*
X842675Y1156525D01*
X842675Y1111525*
X830175Y1099025*
X847675Y1149025D02*
X845175Y1146525D01*
X845175Y1104025*
X830175Y1089025*
X890175Y1159025D02*
X880175Y1149025D01*
X880175Y1089025*
X860175Y1069025*
X890175Y1169025D02*
X867675Y1146525D01*
X867675Y1086525*
X860175Y1079025*
X890175Y1179025D02*
X865175Y1154025D01*
X865175Y1094025*
X860175Y1089025*
X890175Y1189025D02*
X862675Y1161525D01*
X862675Y1144025*
X852675Y1134025*
X852675Y1116525*
X860175Y1109025*
X885175Y1104025D02*
X890175Y1109025D01*
X890175Y1136525*
X895175Y1141525*
X895175Y1169025*
X905175Y1179025*
X905175Y1169025D02*
X900175Y1164025D01*
X900175Y1109025*
X895175Y1104025*
X905175Y1104025D02*
X905175Y1109025D01*
X910175Y1114025*
X910175Y1136525*
X917675Y1144025*
X917675Y1159025*
X905175Y1159025*
X915175Y1104025D02*
X915175Y1106525D01*
X940175Y1131525*
X940175Y1136525*
X952675Y1149025*
X965175Y1149025*
X935175Y1134025D02*
X935175Y1136525D01*
X957675Y1159025*
X965175Y1159025*
X965175Y1169025D02*
X957675Y1169025D01*
X925175Y1136525*
X925175Y1134025*
X965175Y1179025D02*
X957675Y1179025D01*
X915175Y1136525*
X915175Y1134025*
X965175Y1189025D02*
X960175Y1189025D01*
X922675Y1151525*
X920175Y1079025D02*
X910175Y1089025D01*
X910175Y1106525*
X920175Y1116525*
X920175Y1136525*
X957675Y1174025*
X975175Y1174025*
X980175Y1179025*
X920175Y1069025D02*
X925175Y1074025D01*
X925175Y1096525*
X920175Y1101525*
X920175Y1106525*
X942675Y1129025*
X947675Y1129025*
X962675Y1144025*
X970175Y1144025*
X970175Y1169025*
X980175Y1169025*
X920175Y1059025D02*
X930175Y1069025D01*
X930175Y1106525*
X962675Y1139025*
X972675Y1139025*
X972675Y1159025*
X980175Y1159025*
X920175Y1049025D02*
X922675Y1049025D01*
X940175Y1066525*
X940175Y1106525*
X962675Y1129025*
X967675Y1129025*
X975175Y1136525*
X975175Y1154025*
X987675Y1154025*
X1040175Y1159025D02*
X1032675Y1159025D01*
X965175Y1091525*
X965175Y1044025*
X950175Y1029025*
X1040175Y1169025D02*
X1037675Y1169025D01*
X962675Y1094025*
X962675Y1051525*
X950175Y1039025*
X950175Y1049025D02*
X960175Y1059025D01*
X960175Y1096525*
X1030175Y1166525*
X1030175Y1169025*
X1040175Y1179025*
X1040175Y1189025D02*
X1030175Y1189025D01*
X1022675Y1181525*
X1022675Y1169025*
X955175Y1101525*
X955175Y1074025*
X950175Y1069025*
X1085175Y1144025D02*
X1080175Y1146525D01*
X1080175Y1169025*
X1095175Y1169025*
X1100175Y1174025*
X1100175Y1164025D02*
X1090175Y1154025D01*
X1085175Y1154025*
X1100175Y1204025D02*
X1092675Y1196525D01*
X1092675Y1191525*
X1085175Y1184025*
X1085175Y1194025D02*
X1092675Y1201525D01*
X1092675Y1206525*
X1100175Y1214025*
X1140175Y1206525D02*
X1140175Y1194025D01*
X1130175Y1184025*
X1257675Y1174025D02*
X1257675Y1144025D01*
X1247675Y1134025*
X1252675Y1169025D02*
X1252675Y1149025D01*
X1247675Y1144025*
X1177675Y1154025D02*
X1172675Y1149025D01*
X1172675Y1129025*
X1192675Y1129025*
X1197675Y1134025*
X1147675Y1184025D02*
X1160175Y1184025D01*
X1160175Y1246525*
X1152675Y1254025*
X1152675Y1269025*
X1147675Y1274025*
X1147675Y1291525*
X912675Y1154025D02*
X912675Y1146525D01*
X905175Y1139025*
X905175Y1134025*
X1127675Y1134025D02*
X1127675Y1139025D01*
X1142675Y1139025*
X1142675Y1149025*
X1147675Y1154025*
X1075175Y1209025D02*
X1075175Y1281525D01*
X1082675Y1289025*
X1082675Y1306525*
X1067675Y1321525*
X1227675Y1291525D02*
X1217675Y1301525D01*
X1197675Y1301525*
X1192675Y1296525*
X1192675Y1284025*
X1182675Y1274025*
X1182675Y1219025*
X860175Y1099025D02*
X850175Y1109025D01*
X850175Y1136525*
X860175Y1146525*
X860175Y1166525*
X867675Y1174025*
X1055175Y1174025D02*
X1065175Y1184025D01*
X1065175Y1249025*
X1055175Y1259025*
X1055175Y1274025*
X1067675Y1286525*
X1067675Y1291525*
X950175Y1059025D02*
X957675Y1066525D01*
X957675Y1099025*
X1027675Y1169025*
X1027675Y1174025*
X1147675Y1321525D02*
X1142675Y1326525D01*
X1062675Y1326525*
X1062675Y1314025*
X1072675Y1304025*
X1072675Y1286525*
X1070175Y1284025*
X1070175Y1214025*
X1062675Y1304025D02*
X1062675Y1289025D01*
X1052675Y1279025*
X1052675Y1256525*
X1062675Y1246525*
X1062675Y1231525*
X1055175Y1224025*
X1130175Y1204025D02*
X1135175Y1209025D01*
X1135175Y1256525*
X1125175Y1256525*
X1117675Y1264025*
X1110175Y1111525D02*
X1110175Y1149025D01*
X1122675Y1161525*
X1122675Y1206525*
X1130175Y1214025*
X997675Y1059025D02*
X1002675Y1054025D01*
X1012675Y1054025*
X1017675Y1059025*
X1030175Y1039025D02*
X1027675Y1051525D01*
X1017675Y1026525D02*
X1005175Y1039025D01*
X990175Y1039025*
X1077675Y1019025D02*
X1075175Y1019025D01*
X1065175Y1029025*
X1055175Y1044025D02*
X1045175Y1054025D01*
X1027675Y984025D02*
X1032675Y979025D01*
X1042675Y979025*
X1047675Y984025*
X1037675Y964025D02*
X1047675Y974025D01*
X1022675Y924025D02*
X1027675Y929025D01*
X1027675Y964025*
X987675Y964025D02*
X995175Y964025D01*
X1005175Y954025*
X1005175Y941525*
X1017675Y929025*
X1140175Y929025D02*
X1152675Y929025D01*
X1177675Y904025*
X1192675Y904025*
X1197675Y899025*
X1157675Y1044025D02*
X1147675Y1054025D01*
X1142675Y1081525D02*
X1132675Y1081525D01*
X1127675Y1086525*
X1140175Y964025D02*
X1150175Y974025D01*
X1125175Y924025D02*
X1125175Y929025D01*
X1140175Y944025*
X1140175Y964025*
X1212675Y889025D02*
X1207675Y884025D01*
X1132675Y884025*
X1122675Y894025*
X1122675Y904025*
X1120175Y906525*
X1120175Y911525*
X1105175Y926525*
X1105175Y946525*
X1102675Y949025*
X1102675Y951525*
X1090175Y964025*
X1150175Y984025D02*
X1145175Y979025D01*
X1135175Y979025*
X1130175Y984025*
X1180175Y1019025D02*
X1177675Y1019025D01*
X1167675Y1029025*
X1120175Y1026525D02*
X1127675Y1036525D01*
X1117675Y1046525*
X1117675Y1086525D02*
X1117675Y1089025D01*
X1110175Y1096525*
X1275175Y1119025D02*
X1282675Y1126525D01*
X1282675Y1169025*
X1272675Y1169025*
X1272675Y1179025*
X1277675Y1184025*
X1282675Y1239025D02*
X1280175Y1239025D01*
X1270175Y1249025*
X1277675Y1174025D02*
X1285175Y1181525D01*
X1285175Y1236525*
X1282675Y1239025*
X1237675Y1241525D02*
X1237675Y1226525D01*
X1232675Y1221525*
X1232675Y1179025*
X1227675Y1174025*
X1227675Y1184025D02*
X1222675Y1179025D01*
X1222675Y1169025*
X1235175Y1169025*
X1235175Y1124025*
X1242675Y1116525*
X1247675Y989025D02*
X1247675Y954025D01*
X1220175Y1086525D02*
X1220175Y1089025D01*
X1212675Y1096525*
X1245175Y1081525D02*
X1235175Y1081525D01*
X1230175Y1086525*
X1230175Y1036525D02*
X1222675Y1026525D01*
X1220175Y1046525D02*
X1230175Y1036525D01*
X1272675Y974025D02*
X1252675Y974025D01*
X1242675Y964025D02*
X1242675Y929025D01*
X1237675Y924025*
X1227675Y899025D02*
X1222675Y904025D01*
X1217675Y904025*
X1200175Y921525*
X1200175Y926525*
X1185175Y941525*
X1185175Y956525*
X1192675Y964025*
X1107675Y1036525D02*
X1107675Y1054025D01*
X1095175Y1066525*
X1092675Y1066525*
X1210175Y1036525D02*
X1210175Y1054025D01*
X1197675Y1066525*
X1195175Y1066525*
X1260175Y1044025D02*
X1250175Y1054025D01*
X1282675Y1019025D02*
X1280175Y1019025D01*
X1270175Y1029025*
X842675Y921525D02*
X860175Y939025D01*
X860175Y956525*
X1097675Y1249025D02*
X1097675Y1236525D01*
X1100175Y1234025*
X1267675Y1219025D02*
X1262675Y1214025D01*
X1262675Y1206525*
X685175Y1206525D02*
X685175Y1149025D01*
X787675Y1104025D02*
X787675Y1154025D01*
X800175Y1154025*
X805175Y1159025*
X805175Y1264025*
X835175Y1294025*
X837675Y1294025*
X835175Y1294025*
X805175Y1264025*
X805175Y1159025*
X800175Y1154025*
X787675Y1154025*
X787675Y1036525*
X880175Y1036525D02*
X880175Y1016525D01*
X892675Y1011525*
X892675Y971525*
X890175Y969025*
X890175Y951525*
X880175Y944025*
X880175Y899025*
X887675Y891525*
X692675Y1134025D02*
X685175Y1139025D01*
X685175Y1206525*
X720175Y964025D02*
X715175Y964025D01*
X692675Y941525*
X692675Y934025*
X677675Y934025*
X667675Y924025*
X667675Y909025*
X1272675Y914025D02*
X1272675Y934025D01*
X1282675Y944025*
X1017675Y871525D02*
X1017675Y901525D01*
X1027675Y911525*
X855175Y926525D02*
X855175Y904025D01*
X872675Y891525*
X947675Y1324025D02*
X960175Y1311525D01*
X980175Y1311525*
X1000175Y1291525*
X1000175Y1151525*
X942675Y1094025*
X942675Y1031525*
X910175Y999025*
X910175Y919025*
X917675Y911525*
X937675Y1324025D02*
X952675Y1309025D01*
X977675Y1309025*
X997675Y1289025*
X997675Y1154025*
X967675Y1124025*
X965175Y1124025*
X812675Y944025D02*
X812675Y916525D01*
X800175Y904025*
X790175Y904025*
X782675Y896525*
X872675Y931525D02*
X877675Y934025D01*
X877675Y949025*
X870175Y954025*
X870175Y1044025*
X782675Y1044025D02*
X782675Y1089025D01*
X702675Y1094025D02*
X702675Y1134025D01*
X697675Y1136525*
X697675Y1161525*
X692675Y1164025*
X847675Y1076525D02*
X847675Y1059025D01*
X867675Y1039025*
X867675Y924025*
X872675Y921525*
X557675Y1224025D02*
X552675Y1216525D01*
X540175Y1216525*
X535175Y1214025*
X535175Y969025*
X570175Y954025*
X642675Y954025*
X860175Y931525D02*
X862675Y929025D01*
X862675Y919025*
X872675Y911525*
X850175Y966525D02*
X850175Y974025D01*
X852675Y979025*
X850175Y966525D02*
X842675Y966525D01*
X835175Y961525*
X835175Y939025*
X827675Y931525*
D13*
G36*
X522675Y1336525D02*
X522675Y1364025D01*
X550175Y1364025*
X550175Y1366525*
X520175Y1366525*
X520175Y1336525*
X522675Y1336525*
G37*
X522675Y1364025*
X550175Y1364025*
X550175Y1366525*
X520175Y1366525*
X520175Y1336525*
X522675Y1336525*
G36*
X825175Y1366525D02*
X825175Y1364025D01*
X840175Y1364025*
X840175Y1351525*
X857675Y1351525*
X857675Y1354025*
X842675Y1354025*
X842675Y1366525*
X825175Y1366525*
G37*
X825175Y1364025*
X840175Y1364025*
X840175Y1351525*
X857675Y1351525*
X857675Y1354025*
X842675Y1354025*
X842675Y1366525*
X825175Y1366525*
G36*
X967675Y1351525D02*
X985175Y1351525D01*
X985175Y1364025*
X1000175Y1364025*
X1000175Y1366525*
X982675Y1366525*
X982675Y1354025*
X967675Y1354025*
X967675Y1351525*
G37*
X985175Y1351525*
X985175Y1364025*
X1000175Y1364025*
X1000175Y1366525*
X982675Y1366525*
X982675Y1354025*
X967675Y1354025*
X967675Y1351525*
G36*
X1272675Y1366525D02*
X1272675Y1364025D01*
X1300175Y1364025*
X1300175Y1336525*
X1302675Y1336525*
X1302675Y1366525*
X1272675Y1366525*
G37*
X1272675Y1364025*
X1300175Y1364025*
X1300175Y1336525*
X1302675Y1336525*
X1302675Y1366525*
X1272675Y1366525*
G36*
X1302675Y879025D02*
X1300175Y879025D01*
X1300175Y851525*
X1272675Y851525*
X1272675Y849025*
X1302675Y849025*
X1302675Y879025*
G37*
X1300175Y879025*
X1300175Y851525*
X1272675Y851525*
X1272675Y849025*
X1302675Y849025*
X1302675Y879025*
G36*
X550175Y851525D02*
X550175Y849025D01*
X520175Y849025*
X520175Y879025*
X522675Y879025*
X522675Y851525*
X550175Y851525*
G37*
X550175Y849025*
X520175Y849025*
X520175Y879025*
X522675Y879025*
X522675Y851525*
X550175Y851525*
D14*
X685175Y1246525D03*
X1005175Y1336525D03*
X1197675Y1256525D03*
X555175Y1094025D03*
X900175Y1049025D03*
D15*
X1127675Y909025D03*
X1107675Y909025D03*
X1212675Y954025D03*
X1192675Y954025D03*
X1195175Y1036525D03*
X1195175Y1056525D03*
X1097675Y944025D03*
X1097675Y924025D03*
X1092675Y1036525D03*
X1092675Y1056525D03*
X997675Y949025D03*
X977675Y949025D03*
X977675Y1044025D03*
X977675Y1064025D03*
X1132675Y894025D03*
X1132675Y874025D03*
X1282675Y934025D03*
X1282675Y914025D03*
X1285175Y1039025D03*
X1285175Y1059025D03*
X1192675Y944025D03*
X1192675Y924025D03*
X1182675Y1039025D03*
X1182675Y1059025D03*
X1087675Y954025D03*
X1087675Y934025D03*
X1080175Y1039025D03*
X1080175Y1059025D03*
X1115175Y874025D03*
X1115175Y894025D03*
X592675Y909025D03*
X592675Y889025D03*
X550175Y1029025D03*
X550175Y1009025D03*
X562675Y1119025D03*
X542675Y1119025D03*
X705175Y1161525D03*
X705175Y1141525D03*
X652675Y1206525D03*
X652675Y1186525D03*
X822675Y1324025D03*
X822675Y1304025D03*
X975175Y1299025D03*
X975175Y1319025D03*
X1125175Y1334025D03*
X1145175Y1334025D03*
X1185175Y1334025D03*
X1205175Y1334025D03*
X1247675Y1334025D03*
X1267675Y1334025D03*
X812675Y1074025D03*
X812675Y1054025D03*
X947675Y1004025D03*
X927675Y1004025D03*
D16*
X820175Y976525D03*
X800175Y976525D03*
D17*
X737675Y929025D03*
X737675Y909025D03*
X682675Y929025D03*
X682675Y909025D03*
X900175Y966525D03*
X880175Y966525D03*
D15*
X1097675Y879025D03*
X1067675Y879025D03*
X1097675Y904025D03*
X1067675Y904025D03*
D17*
X927675Y901525D03*
X927675Y921525D03*
X937675Y946525D03*
X937675Y966525D03*
D15*
X1082675Y1264025D03*
X1062675Y1264025D03*
X1117675Y1264025D03*
X1097675Y1264025D03*
X1127675Y1269025D03*
X1127675Y1249025D03*
X1050175Y1094025D03*
X1070175Y1094025D03*
D17*
X1027675Y1051525D03*
X1027675Y1071525D03*
X1007675Y1071525D03*
X987675Y1071525D03*
X1037675Y1004025D03*
X1057675Y1004025D03*
X1037675Y984025D03*
X1037675Y964025D03*
X1067675Y964025D03*
X1047675Y964025D03*
D15*
X1270175Y1249025D03*
X1270175Y1269025D03*
X1257675Y1249025D03*
X1257675Y1269025D03*
X1277675Y1229025D03*
X1257675Y1229025D03*
X1152675Y1094025D03*
X1172675Y1094025D03*
D17*
X1120175Y1096525D03*
X1140175Y1096525D03*
X1110175Y1096525D03*
X1090175Y1096525D03*
X1140175Y1004025D03*
X1160175Y1004025D03*
X1140175Y984025D03*
X1140175Y964025D03*
X1170175Y964025D03*
X1150175Y964025D03*
D15*
X1225175Y1244025D03*
X1225175Y1264025D03*
X1247675Y1249025D03*
X1247675Y1269025D03*
X1227675Y1229025D03*
X1207675Y1229025D03*
D17*
X1222675Y1096525D03*
X1242675Y1096525D03*
X1212675Y1096525D03*
X1192675Y1096525D03*
X1242675Y1004025D03*
X1262675Y1004025D03*
X1242675Y984025D03*
X1242675Y964025D03*
X1282675Y964025D03*
X1262675Y964025D03*
X1182675Y909025D03*
X1222675Y909025D03*
X1195175Y879025D03*
X1235175Y879025D03*
X1082675Y1279025D03*
X1122675Y1279025D03*
X1282675Y1279025D03*
X1282675Y1239025D03*
X1237675Y1281525D03*
X1237675Y1241525D03*
X547675Y919025D03*
X547675Y929025D03*
X557675Y919025D03*
X557675Y929025D03*
X567675Y919025D03*
X567675Y929025D03*
X577675Y919025D03*
X577675Y929025D03*
X587675Y919025D03*
X587675Y929025D03*
X1182675Y1281525D03*
X1222675Y1281525D03*
X1172675Y1281525D03*
X1132675Y1281525D03*
X792675Y1014025D03*
X832675Y1014025D03*
X617675Y919025D03*
X657675Y919025D03*
X832675Y1024025D03*
X792675Y1024025D03*
X657675Y929025D03*
X617675Y929025D03*
X977675Y911525D03*
X977675Y871525D03*
X1007675Y871525D03*
X1007675Y911525D03*
X1037675Y911525D03*
X1037675Y871525D03*
X947675Y946525D03*
X947675Y986525D03*
X957675Y986525D03*
X957675Y946525D03*
X1077675Y1116525D03*
X1037675Y1116525D03*
X1077675Y1106525D03*
X1037675Y1106525D03*
X860175Y956525D03*
X900175Y956525D03*
X987675Y911525D03*
X987675Y871525D03*
X997675Y911525D03*
X997675Y871525D03*
X1027675Y911525D03*
X1027675Y871525D03*
X1032675Y1091525D03*
X992675Y1091525D03*
X987675Y1081525D03*
X1027675Y1081525D03*
X1040175Y1081525D03*
X1080175Y1081525D03*
X1030175Y1039025D03*
X990175Y1039025D03*
X987675Y1004025D03*
X1027675Y1004025D03*
X1037675Y1029025D03*
X1077675Y1029025D03*
X1037675Y1019025D03*
X1077675Y1019025D03*
D16*
X1065175Y1054025D03*
X1055175Y1044025D03*
X1045175Y1054025D03*
D17*
X1040175Y1071525D03*
X1080175Y1071525D03*
X987675Y994025D03*
X1027675Y994025D03*
X1037675Y994025D03*
X1077675Y994025D03*
X987675Y984025D03*
X1027675Y984025D03*
X1027675Y974025D03*
X987675Y974025D03*
X1027675Y964025D03*
X987675Y964025D03*
X1180175Y1116525D03*
X1140175Y1116525D03*
X1180175Y1106525D03*
X1140175Y1106525D03*
X1130175Y1116525D03*
X1090175Y1116525D03*
X1090175Y1106525D03*
X1130175Y1106525D03*
X1142675Y1081525D03*
X1182675Y1081525D03*
X1132675Y1066525D03*
X1092675Y1066525D03*
D16*
X1107675Y1036525D03*
X1117675Y1046525D03*
X1127675Y1036525D03*
D17*
X1090175Y1004025D03*
X1130175Y1004025D03*
X1140175Y1029025D03*
X1180175Y1029025D03*
X1140175Y1019025D03*
X1180175Y1019025D03*
D16*
X1167675Y1054025D03*
X1157675Y1044025D03*
X1147675Y1054025D03*
D17*
X1142675Y1071525D03*
X1182675Y1071525D03*
X1090175Y994025D03*
X1130175Y994025D03*
X1140175Y994025D03*
X1180175Y994025D03*
X1090175Y984025D03*
X1130175Y984025D03*
X1130175Y974025D03*
X1090175Y974025D03*
X1130175Y964025D03*
X1090175Y964025D03*
X1282675Y1116525D03*
X1242675Y1116525D03*
X1282675Y1106525D03*
X1242675Y1106525D03*
X1232675Y1116525D03*
X1192675Y1116525D03*
X1192675Y1106525D03*
X1232675Y1106525D03*
X1245175Y1081525D03*
X1285175Y1081525D03*
X1235175Y1066525D03*
X1195175Y1066525D03*
D16*
X1210175Y1036525D03*
X1220175Y1046525D03*
X1230175Y1036525D03*
D17*
X1192675Y1004025D03*
X1232675Y1004025D03*
X1242675Y1029025D03*
X1282675Y1029025D03*
X1242675Y1019025D03*
X1282675Y1019025D03*
D16*
X1270175Y1054025D03*
X1260175Y1044025D03*
X1250175Y1054025D03*
D17*
X1245175Y1071525D03*
X1285175Y1071525D03*
X1192675Y994025D03*
X1232675Y994025D03*
X1242675Y994025D03*
X1282675Y994025D03*
X1192675Y984025D03*
X1232675Y984025D03*
X1232675Y974025D03*
X1192675Y974025D03*
X1232675Y964025D03*
X1192675Y964025D03*
D18*
X717675Y1279025D03*
X725175Y1279025D03*
X810175Y1311525D03*
X810175Y1304025D03*
X1135175Y1134025D03*
X1127675Y1134025D03*
X1120175Y1134025D03*
X1120175Y1146525D03*
X1127675Y1146525D03*
X1135175Y1146525D03*
D17*
X747675Y886525D03*
X752675Y896525D03*
X757675Y886525D03*
X762675Y896525D03*
X767675Y886525D03*
X772675Y896525D03*
X777675Y886525D03*
X782675Y896525D03*
X787675Y886525D03*
X792675Y896525D03*
X797675Y886525D03*
X802675Y896525D03*
X807675Y886525D03*
X812675Y896525D03*
X817675Y886525D03*
X822675Y896525D03*
D17*
X1152675Y889025D03*
X1157675Y899025D03*
X1162675Y889025D03*
X1167675Y899025D03*
X1172675Y889025D03*
X1177675Y899025D03*
X1182675Y889025D03*
X1187675Y899025D03*
X1192675Y889025D03*
X1197675Y899025D03*
X1202675Y889025D03*
X1207675Y899025D03*
X1212675Y889025D03*
X1217675Y899025D03*
X1222675Y889025D03*
X1227675Y899025D03*
D20*
X797675Y954025D03*
X797675Y961525D03*
D15*
X720175Y924025D03*
X700175Y924025D03*
X1255175Y1094025D03*
X1275175Y1094025D03*
D17*
X1017675Y1059025D03*
X1007675Y1059025D03*
X1017675Y1049025D03*
X987675Y1049025D03*
X997675Y1049025D03*
X997675Y1059025D03*
X1027675Y1026525D03*
X1017675Y1026525D03*
X1017675Y1016525D03*
X995175Y1016525D03*
X1005175Y1016525D03*
X1005175Y1026525D03*
X1067675Y974025D03*
X1077675Y974025D03*
X1077675Y984025D03*
X1057675Y984025D03*
X1047675Y984025D03*
X1047675Y974025D03*
X1067675Y954025D03*
X1057675Y954025D03*
X1057675Y944025D03*
X1127675Y1086525D03*
X1117675Y1086525D03*
X1127675Y1076525D03*
X1095175Y1076525D03*
X1105175Y1076525D03*
X1105175Y1086525D03*
X1130175Y1026525D03*
X1120175Y1026525D03*
X1120175Y1016525D03*
X1097675Y1016525D03*
X1107675Y1016525D03*
X1107675Y1026525D03*
X1170175Y974025D03*
X1180175Y974025D03*
X1180175Y984025D03*
X1160175Y984025D03*
X1150175Y984025D03*
X1150175Y974025D03*
X1170175Y954025D03*
X1160175Y954025D03*
X1160175Y944025D03*
X1230175Y1086525D03*
X1220175Y1086525D03*
X1230175Y1076525D03*
X1197675Y1076525D03*
X1207675Y1076525D03*
X1207675Y1086525D03*
X1232675Y1026525D03*
X1222675Y1026525D03*
X1222675Y1016525D03*
X1200175Y1016525D03*
X1210175Y1016525D03*
X1210175Y1026525D03*
X1272675Y974025D03*
X1282675Y974025D03*
X1282675Y984025D03*
X1262675Y984025D03*
X1252675Y984025D03*
X1252675Y974025D03*
X1282675Y944025D03*
X1282675Y954025D03*
X1272675Y954025D03*
X810175Y1324025D03*
X800175Y1324025D03*
X790175Y1324025D03*
X780175Y1324025D03*
X770175Y1324025D03*
X760175Y1324025D03*
X750175Y1324025D03*
X740175Y1324025D03*
X730175Y1324025D03*
X720175Y1324025D03*
X1162675Y1261525D03*
X1172675Y1261525D03*
X1172675Y1271525D03*
X797675Y941525D03*
X797675Y931525D03*
X797675Y921525D03*
X797675Y911525D03*
X827675Y911525D03*
X827675Y921525D03*
X827675Y931525D03*
X827675Y941525D03*
X547675Y939025D03*
X557675Y939025D03*
X567675Y939025D03*
X577675Y939025D03*
X587675Y939025D03*
X597675Y939025D03*
X607675Y939025D03*
X617675Y939025D03*
X627675Y939025D03*
X637675Y939025D03*
X647675Y939025D03*
X657675Y939025D03*
X667675Y939025D03*
X677675Y939025D03*
X687675Y939025D03*
X697675Y939025D03*
X707675Y939025D03*
X717675Y939025D03*
X727675Y939025D03*
X737675Y939025D03*
X737675Y999025D03*
X727675Y999025D03*
X717675Y999025D03*
X707675Y999025D03*
X697675Y999025D03*
X687675Y999025D03*
X677675Y999025D03*
X667675Y999025D03*
X657675Y999025D03*
X647675Y999025D03*
X637675Y999025D03*
X627675Y999025D03*
X617675Y999025D03*
X607675Y999025D03*
X597675Y999025D03*
X587675Y999025D03*
X577675Y999025D03*
X567675Y999025D03*
X557675Y999025D03*
X547675Y999025D03*
X567675Y1014025D03*
X577675Y1014025D03*
X587675Y1014025D03*
X597675Y1014025D03*
X607675Y1014025D03*
X617675Y1014025D03*
X627675Y1014025D03*
X637675Y1014025D03*
X647675Y1014025D03*
X657675Y1014025D03*
X657675Y1044025D03*
X647675Y1044025D03*
X637675Y1044025D03*
X627675Y1044025D03*
X617675Y1044025D03*
X607675Y1044025D03*
X597675Y1044025D03*
X587675Y1044025D03*
X577675Y1044025D03*
X567675Y1044025D03*
X577675Y1059025D03*
X587675Y1059025D03*
X597675Y1059025D03*
X607675Y1059025D03*
X617675Y1059025D03*
X627675Y1059025D03*
X637675Y1059025D03*
X647675Y1059025D03*
X657675Y1059025D03*
X667675Y1059025D03*
X677675Y1059025D03*
X687675Y1059025D03*
X697675Y1059025D03*
X707675Y1059025D03*
X707675Y1119025D03*
X697675Y1119025D03*
X687675Y1119025D03*
X677675Y1119025D03*
X667675Y1119025D03*
X657675Y1119025D03*
X647675Y1119025D03*
X637675Y1119025D03*
X627675Y1119025D03*
X617675Y1119025D03*
X607675Y1119025D03*
X597675Y1119025D03*
X587675Y1119025D03*
X577675Y1119025D03*
X607675Y879025D03*
X617675Y879025D03*
X627675Y879025D03*
X637675Y879025D03*
X647675Y879025D03*
X657675Y879025D03*
X667675Y879025D03*
X667675Y909025D03*
X657675Y909025D03*
X647675Y909025D03*
X637675Y909025D03*
X627675Y909025D03*
X617675Y909025D03*
X607675Y909025D03*
X937675Y931525D03*
X937675Y921525D03*
X937675Y911525D03*
X937675Y901525D03*
X967675Y901525D03*
X967675Y911525D03*
X967675Y921525D03*
X967675Y931525D03*
X752675Y1029025D03*
X752675Y1019025D03*
X752675Y1009025D03*
X752675Y999025D03*
X752675Y989025D03*
X752675Y979025D03*
X752675Y969025D03*
X752675Y959025D03*
X752675Y949025D03*
X752675Y939025D03*
X752675Y929025D03*
X752675Y919025D03*
X782675Y919025D03*
X782675Y929025D03*
X782675Y939025D03*
X782675Y949025D03*
X782675Y959025D03*
X782675Y969025D03*
X782675Y979025D03*
X782675Y989025D03*
X782675Y999025D03*
X782675Y1009025D03*
X782675Y1019025D03*
X782675Y1029025D03*
X842675Y941525D03*
X842675Y931525D03*
X842675Y921525D03*
X842675Y911525D03*
X842675Y901525D03*
X842675Y891525D03*
X842675Y881525D03*
X872675Y881525D03*
X872675Y891525D03*
X872675Y901525D03*
X872675Y911525D03*
X872675Y921525D03*
X872675Y931525D03*
X872675Y941525D03*
X887675Y941525D03*
X887675Y931525D03*
X887675Y921525D03*
X887675Y911525D03*
X887675Y901525D03*
X887675Y891525D03*
X887675Y881525D03*
X917675Y881525D03*
X917675Y891525D03*
X917675Y901525D03*
X917675Y911525D03*
X917675Y921525D03*
X917675Y931525D03*
X917675Y941525D03*
X547675Y1134025D03*
X557675Y1134025D03*
X567675Y1134025D03*
X577675Y1134025D03*
X587675Y1134025D03*
X597675Y1134025D03*
X607675Y1134025D03*
X617675Y1134025D03*
X627675Y1134025D03*
X637675Y1134025D03*
X637675Y1164025D03*
X627675Y1164025D03*
X617675Y1164025D03*
X607675Y1164025D03*
X597675Y1164025D03*
X587675Y1164025D03*
X577675Y1164025D03*
X567675Y1164025D03*
X557675Y1164025D03*
X547675Y1164025D03*
X1100175Y1234025D03*
X1100175Y1224025D03*
X1100175Y1214025D03*
X1100175Y1204025D03*
X1100175Y1194025D03*
X1100175Y1184025D03*
X1100175Y1174025D03*
X1100175Y1164025D03*
X1130175Y1164025D03*
X1130175Y1174025D03*
X1130175Y1184025D03*
X1130175Y1194025D03*
X1130175Y1204025D03*
X1130175Y1214025D03*
X1130175Y1224025D03*
X1130175Y1234025D03*
X547675Y1179025D03*
X557675Y1179025D03*
X567675Y1179025D03*
X577675Y1179025D03*
X587675Y1179025D03*
X597675Y1179025D03*
X607675Y1179025D03*
X617675Y1179025D03*
X627675Y1179025D03*
X637675Y1179025D03*
X637675Y1209025D03*
X627675Y1209025D03*
X617675Y1209025D03*
X607675Y1209025D03*
X597675Y1209025D03*
X587675Y1209025D03*
X577675Y1209025D03*
X567675Y1209025D03*
X557675Y1209025D03*
X547675Y1209025D03*
X662675Y1204025D03*
X662675Y1194025D03*
X662675Y1184025D03*
X662675Y1174025D03*
X662675Y1164025D03*
X662675Y1154025D03*
X662675Y1144025D03*
X662675Y1134025D03*
X692675Y1134025D03*
X692675Y1144025D03*
X692675Y1154025D03*
X692675Y1164025D03*
X692675Y1174025D03*
X692675Y1184025D03*
X692675Y1194025D03*
X692675Y1204025D03*
X547675Y1224025D03*
X557675Y1224025D03*
X567675Y1224025D03*
X577675Y1224025D03*
X587675Y1224025D03*
X597675Y1224025D03*
X607675Y1224025D03*
X617675Y1224025D03*
X627675Y1224025D03*
X637675Y1224025D03*
X647675Y1224025D03*
X657675Y1224025D03*
X657675Y1254025D03*
X647675Y1254025D03*
X637675Y1254025D03*
X627675Y1254025D03*
X617675Y1254025D03*
X607675Y1254025D03*
X597675Y1254025D03*
X587675Y1254025D03*
X577675Y1254025D03*
X567675Y1254025D03*
X557675Y1254025D03*
X547675Y1254025D03*
X735175Y1309025D03*
X735175Y1299025D03*
X735175Y1289025D03*
X735175Y1279025D03*
X735175Y1269025D03*
X735175Y1259025D03*
X735175Y1249025D03*
X735175Y1239025D03*
X735175Y1229025D03*
X735175Y1219025D03*
X735175Y1209025D03*
X735175Y1199025D03*
X735175Y1189025D03*
X735175Y1179025D03*
X735175Y1169025D03*
X735175Y1159025D03*
X735175Y1149025D03*
X735175Y1139025D03*
X735175Y1129025D03*
X735175Y1119025D03*
X735175Y1109025D03*
X735175Y1099025D03*
X735175Y1089025D03*
X735175Y1079025D03*
X795175Y1079025D03*
X795175Y1089025D03*
X795175Y1099025D03*
X795175Y1109025D03*
X795175Y1119025D03*
X795175Y1129025D03*
X795175Y1139025D03*
X795175Y1149025D03*
X795175Y1159025D03*
X795175Y1169025D03*
X795175Y1179025D03*
X795175Y1189025D03*
X795175Y1199025D03*
X795175Y1209025D03*
X795175Y1219025D03*
X795175Y1229025D03*
X795175Y1239025D03*
X795175Y1249025D03*
X795175Y1259025D03*
X795175Y1269025D03*
X795175Y1279025D03*
X795175Y1289025D03*
X795175Y1299025D03*
X795175Y1309025D03*
X830175Y1279025D03*
X830175Y1269025D03*
X830175Y1259025D03*
X830175Y1249025D03*
X830175Y1239025D03*
X830175Y1229025D03*
X830175Y1219025D03*
X830175Y1209025D03*
X830175Y1199025D03*
X830175Y1189025D03*
X830175Y1179025D03*
X830175Y1169025D03*
X830175Y1159025D03*
X830175Y1149025D03*
X890175Y1149025D03*
X890175Y1159025D03*
X890175Y1169025D03*
X890175Y1179025D03*
X890175Y1189025D03*
X890175Y1199025D03*
X890175Y1209025D03*
X890175Y1219025D03*
X890175Y1229025D03*
X890175Y1239025D03*
X890175Y1249025D03*
X890175Y1259025D03*
X890175Y1269025D03*
X890175Y1279025D03*
X980175Y1279025D03*
X980175Y1269025D03*
X980175Y1259025D03*
X980175Y1249025D03*
X980175Y1239025D03*
X980175Y1229025D03*
X980175Y1219025D03*
X980175Y1209025D03*
X980175Y1199025D03*
X980175Y1189025D03*
X980175Y1179025D03*
X980175Y1169025D03*
X980175Y1159025D03*
X980175Y1149025D03*
X1040175Y1149025D03*
X1040175Y1159025D03*
X1040175Y1169025D03*
X1040175Y1179025D03*
X1040175Y1189025D03*
X1040175Y1199025D03*
X1040175Y1209025D03*
X1040175Y1219025D03*
X1040175Y1229025D03*
X1040175Y1239025D03*
X1040175Y1249025D03*
X1040175Y1259025D03*
X1040175Y1269025D03*
X1040175Y1279025D03*
X830175Y1129025D03*
X830175Y1119025D03*
X830175Y1109025D03*
X830175Y1099025D03*
X830175Y1089025D03*
X830175Y1079025D03*
X830175Y1069025D03*
X830175Y1059025D03*
X860175Y1059025D03*
X860175Y1069025D03*
X860175Y1079025D03*
X860175Y1089025D03*
X860175Y1099025D03*
X860175Y1109025D03*
X860175Y1119025D03*
X860175Y1129025D03*
X875175Y1104025D03*
X885175Y1104025D03*
X895175Y1104025D03*
X905175Y1104025D03*
X915175Y1104025D03*
X925175Y1104025D03*
X935175Y1104025D03*
X945175Y1104025D03*
X945175Y1134025D03*
X935175Y1134025D03*
X925175Y1134025D03*
X915175Y1134025D03*
X905175Y1134025D03*
X895175Y1134025D03*
X885175Y1134025D03*
X875175Y1134025D03*
X920175Y1089025D03*
X920175Y1079025D03*
X920175Y1069025D03*
X920175Y1059025D03*
X920175Y1049025D03*
X920175Y1039025D03*
X920175Y1029025D03*
X920175Y1019025D03*
X950175Y1019025D03*
X950175Y1029025D03*
X950175Y1039025D03*
X950175Y1049025D03*
X950175Y1059025D03*
X950175Y1069025D03*
X950175Y1079025D03*
X950175Y1089025D03*
X1217675Y1291525D03*
X1227675Y1291525D03*
X1237675Y1291525D03*
X1247675Y1291525D03*
X1257675Y1291525D03*
X1267675Y1291525D03*
X1277675Y1291525D03*
X1277675Y1321525D03*
X1267675Y1321525D03*
X1257675Y1321525D03*
X1247675Y1321525D03*
X1237675Y1321525D03*
X1227675Y1321525D03*
X1217675Y1321525D03*
X1012675Y924025D03*
X1022675Y924025D03*
X1032675Y924025D03*
X1042675Y924025D03*
X1042675Y954025D03*
X1032675Y954025D03*
X1022675Y954025D03*
X1012675Y954025D03*
X837675Y1294025D03*
X847675Y1294025D03*
X857675Y1294025D03*
X867675Y1294025D03*
X877675Y1294025D03*
X887675Y1294025D03*
X897675Y1294025D03*
X907675Y1294025D03*
X917675Y1294025D03*
X927675Y1294025D03*
X937675Y1294025D03*
X947675Y1294025D03*
X947675Y1324025D03*
X937675Y1324025D03*
X927675Y1324025D03*
X917675Y1324025D03*
X907675Y1324025D03*
X897675Y1324025D03*
X887675Y1324025D03*
X877675Y1324025D03*
X867675Y1324025D03*
X857675Y1324025D03*
X847675Y1324025D03*
X837675Y1324025D03*
X905175Y1279025D03*
X905175Y1269025D03*
X905175Y1259025D03*
X905175Y1249025D03*
X905175Y1239025D03*
X905175Y1229025D03*
X905175Y1219025D03*
X905175Y1209025D03*
X905175Y1199025D03*
X905175Y1189025D03*
X905175Y1179025D03*
X905175Y1169025D03*
X905175Y1159025D03*
X905175Y1149025D03*
X965175Y1149025D03*
X965175Y1159025D03*
X965175Y1169025D03*
X965175Y1179025D03*
X965175Y1189025D03*
X965175Y1199025D03*
X965175Y1209025D03*
X965175Y1219025D03*
X965175Y1229025D03*
X965175Y1239025D03*
X965175Y1249025D03*
X965175Y1259025D03*
X965175Y1269025D03*
X965175Y1279025D03*
X1137675Y1291525D03*
X1147675Y1291525D03*
X1157675Y1291525D03*
X1167675Y1291525D03*
X1177675Y1291525D03*
X1187675Y1291525D03*
X1197675Y1291525D03*
X1197675Y1321525D03*
X1187675Y1321525D03*
X1177675Y1321525D03*
X1167675Y1321525D03*
X1157675Y1321525D03*
X1147675Y1321525D03*
X1137675Y1321525D03*
X1057675Y1291525D03*
X1067675Y1291525D03*
X1077675Y1291525D03*
X1087675Y1291525D03*
X1097675Y1291525D03*
X1107675Y1291525D03*
X1117675Y1291525D03*
X1117675Y1321525D03*
X1107675Y1321525D03*
X1097675Y1321525D03*
X1087675Y1321525D03*
X1077675Y1321525D03*
X1067675Y1321525D03*
X1057675Y1321525D03*
X1055175Y1244025D03*
X1055175Y1234025D03*
X1055175Y1224025D03*
X1055175Y1214025D03*
X1055175Y1204025D03*
X1055175Y1194025D03*
X1055175Y1184025D03*
X1055175Y1174025D03*
X1055175Y1164025D03*
X1055175Y1154025D03*
X1055175Y1144025D03*
X1055175Y1134025D03*
X1085175Y1134025D03*
X1085175Y1144025D03*
X1085175Y1154025D03*
X1085175Y1164025D03*
X1085175Y1174025D03*
X1085175Y1184025D03*
X1085175Y1194025D03*
X1085175Y1204025D03*
X1085175Y1214025D03*
X1085175Y1224025D03*
X1085175Y1234025D03*
X1085175Y1244025D03*
X1147675Y1244025D03*
X1147675Y1234025D03*
X1147675Y1224025D03*
X1147675Y1214025D03*
X1147675Y1204025D03*
X1147675Y1194025D03*
X1147675Y1184025D03*
X1147675Y1174025D03*
X1147675Y1164025D03*
X1147675Y1154025D03*
X1147675Y1144025D03*
X1147675Y1134025D03*
X1177675Y1134025D03*
X1177675Y1144025D03*
X1177675Y1154025D03*
X1177675Y1164025D03*
X1177675Y1174025D03*
X1177675Y1184025D03*
X1177675Y1194025D03*
X1177675Y1204025D03*
X1177675Y1214025D03*
X1177675Y1224025D03*
X1177675Y1234025D03*
X1177675Y1244025D03*
X1247675Y1204025D03*
X1247675Y1194025D03*
X1247675Y1184025D03*
X1247675Y1174025D03*
X1247675Y1164025D03*
X1247675Y1154025D03*
X1247675Y1144025D03*
X1247675Y1134025D03*
X1277675Y1134025D03*
X1277675Y1144025D03*
X1277675Y1154025D03*
X1277675Y1164025D03*
X1277675Y1174025D03*
X1277675Y1184025D03*
X1277675Y1194025D03*
X1277675Y1204025D03*
X1115175Y924025D03*
X1125175Y924025D03*
X1135175Y924025D03*
X1145175Y924025D03*
X1145175Y954025D03*
X1135175Y954025D03*
X1125175Y954025D03*
X1115175Y954025D03*
X1197675Y1204025D03*
X1197675Y1194025D03*
X1197675Y1184025D03*
X1197675Y1174025D03*
X1197675Y1164025D03*
X1197675Y1154025D03*
X1197675Y1144025D03*
X1197675Y1134025D03*
X1227675Y1134025D03*
X1227675Y1144025D03*
X1227675Y1154025D03*
X1227675Y1164025D03*
X1227675Y1174025D03*
X1227675Y1184025D03*
X1227675Y1194025D03*
X1227675Y1204025D03*
X1227675Y924025D03*
X1237675Y924025D03*
X1247675Y924025D03*
X1257675Y924025D03*
X1257675Y954025D03*
X1247675Y954025D03*
X1237675Y954025D03*
X1227675Y954025D03*
X1185175Y871525D03*
X1145175Y871525D03*
D15*
X1267675Y1219025D03*
X1247675Y1219025D03*
X1197675Y1219025D03*
X1217675Y1219025D03*
X1097675Y1249025D03*
X1117675Y1249025D03*
D17*
X1232675Y914025D03*
X1272675Y914025D03*
X1180175Y921525D03*
X1180175Y961525D03*
X1077675Y921525D03*
X1077675Y961525D03*
X850175Y996525D03*
X850175Y1016525D03*
X875175Y1006525D03*
X875175Y976525D03*
X885175Y1006525D03*
X885175Y976525D03*
X917675Y996525D03*
X917675Y956525D03*
X1017675Y911525D03*
X1017675Y871525D03*
X962675Y886525D03*
X932675Y886525D03*
X962675Y876525D03*
X932675Y876525D03*
X1057675Y911525D03*
X1057675Y871525D03*
X1047675Y871525D03*
X1047675Y881525D03*
X1047675Y909025D03*
X1047675Y899025D03*
D15*
X1095175Y1126525D03*
X1095175Y1146525D03*
D21*
X545175Y1341525D03*
X1277675Y874025D03*
D17*
X840175Y996525D03*
X840175Y956525D03*
X850175Y966525D03*
X850175Y956525D03*
D16*
X852675Y979025D03*
D20*
X675175Y891525D03*
X600175Y896525D03*
X602675Y994025D03*
X672675Y1054025D03*
X702675Y1076525D03*
X755175Y1179025D03*
X755175Y1154025D03*
X617675Y1156525D03*
X755175Y1179025D03*
X685175Y1016525D03*
X582675Y1094025D03*
X735175Y1066525D03*
X572675Y1084025D03*
X740175Y1054025D03*
X667675Y1091525D03*
X627675Y1151525D03*
X750175Y1146525D03*
X750175Y1169025D03*
X750175Y1169025D03*
X740175Y1046525D03*
X732675Y1034025D03*
X722675Y1024025D03*
X712675Y1024025D03*
X740175Y1061525D03*
X577675Y1089025D03*
X692675Y1019025D03*
X680175Y986525D03*
X707675Y1019025D03*
X717675Y1019025D03*
X725175Y1031525D03*
X735175Y1041525D03*
X637675Y896525D03*
X632675Y874025D03*
X652675Y874025D03*
X765175Y1269025D03*
X667675Y981525D03*
X1155175Y1189025D03*
X1110175Y1241525D03*
X1155175Y1189025D03*
X692675Y1106525D03*
X675175Y1181525D03*
X965175Y1134025D03*
X1067675Y1129025D03*
X762675Y911525D03*
X837675Y1224025D03*
X772675Y1224025D03*
X1205175Y929025D03*
X1202675Y951525D03*
X1112675Y936525D03*
X1042675Y936525D03*
X1112675Y936525D03*
X1042675Y936525D03*
X1265175Y1011525D03*
X1222675Y1009025D03*
X1107675Y974025D03*
X1122675Y1009025D03*
X1162675Y1011525D03*
X1020175Y1009025D03*
X1060175Y1011525D03*
X1182675Y879025D03*
X1217675Y919025D03*
X1005175Y984025D03*
X980175Y984025D03*
X1212675Y984025D03*
X1215175Y1126525D03*
X642675Y1096525D03*
X792675Y1071525D03*
X785175Y1171525D03*
X777675Y1309025D03*
X937675Y966525D03*
X787675Y1244025D03*
X782675Y1194025D03*
X647675Y1234025D03*
X592675Y1234025D03*
X602675Y1304025D03*
X612675Y1294025D03*
X622675Y1284025D03*
X632675Y1274025D03*
X652675Y1111525D03*
X810175Y1084025D03*
X852675Y1094025D03*
X857675Y1199025D03*
X875175Y1204025D03*
X1245175Y1239025D03*
X922675Y1229025D03*
X1270175Y1209025D03*
X932675Y1236525D03*
X1262675Y1199025D03*
X942675Y1274025D03*
X820175Y1264025D03*
X817675Y1119025D03*
X835175Y1234025D03*
X842675Y1094025D03*
X835175Y1244025D03*
X812675Y1099025D03*
X817675Y1254025D03*
X822675Y1271525D03*
X767675Y1279025D03*
X725175Y1314025D03*
X842675Y1169025D03*
X845175Y1159025D03*
X847675Y1149025D03*
X922675Y1151525D03*
X987675Y1154025D03*
X1140175Y1206525D03*
X1257675Y1174025D03*
X1252675Y1169025D03*
X912675Y1154025D03*
X1075175Y1209025D03*
X1182675Y1219025D03*
X867675Y1174025D03*
X1027675Y1174025D03*
X1070175Y1214025D03*
X1062675Y1304025D03*
X1110175Y1111525D03*
X1065175Y1029025D03*
X1017675Y929025D03*
X1140175Y929025D03*
X1167675Y1029025D03*
X1275175Y1119025D03*
X1247675Y989025D03*
X1270175Y1029025D03*
X1262675Y1206525D03*
X685175Y1206525D03*
X685175Y1149025D03*
X787675Y1104025D03*
X787675Y1036525D03*
X880175Y1036525D03*
X685175Y1206525D03*
X720175Y964025D03*
X855175Y926525D03*
X965175Y1124025D03*
X812675Y944025D03*
X870175Y1044025D03*
X782675Y1044025D03*
X782675Y1089025D03*
X702675Y1094025D03*
X847675Y1076525D03*
X642675Y954025D03*
X860175Y931525D03*
M02*
