G04 Created by GerbView*
%FSLAX25Y25*%
%MOIN*%
G75*
%ADD10C,0.0010*%
%ADD11C,0.0120*%
%LNEXPORT*%
D02*
D10*
D11*
X669550Y1345587D02*
Y1351525D01*
X672675Y1347775D01*
X668300D01*
X660800Y1346212D02*
X661425Y1345587D01*
X664550D01*
X665175Y1346212D01*
Y1350900D01*
X664550Y1351525D01*
X661425D01*
X660800Y1350900D01*
Y1346212D01*
X665175D02*
X660800Y1350900D01*
X653301Y1346212D02*
X653926Y1345587D01*
X657051D01*
X657676Y1346212D01*
Y1350900D01*
X657051Y1351525D01*
X653926D01*
X653301Y1350900D01*
Y1346212D01*
X657676D02*
X653301Y1350900D01*
X650176Y1346212D02*
Y1348087D01*
X649551Y1348712D01*
X646426D01*
X645801Y1349337D01*
Y1350900D01*
X646426Y1351525D01*
X649551D01*
X650176Y1350900D01*
Y1349337D01*
X649551Y1348712D01*
X646426D01*
X645801Y1348087D01*
Y1346212D01*
X646426Y1345587D01*
X649551D01*
X650176Y1346212D01*
X634084Y1345587D02*
Y1351525D01*
X634709Y1350275D01*
X630334Y1345587D02*
Y1351525D01*
X630959Y1350275D01*
X627678Y1351525D02*
X623303D01*
X627053Y1345587D01*
X608304Y1346212D02*
X608929Y1345587D01*
X612054D01*
X612679Y1346212D01*
Y1350900D01*
X612054Y1351525D01*
X608929D01*
X608304Y1350900D01*
Y1346212D01*
X612679D02*
X608304Y1350900D01*
X605179Y1346212D02*
X604554Y1345587D01*
X601429D01*
X600804Y1346212D01*
Y1348400D01*
X601429Y1349025D01*
X604554D01*
X605179Y1348400D01*
Y1351525D01*
X600804D01*
X593305Y1346212D02*
X593930Y1345587D01*
X597055D01*
X597680Y1346212D01*
Y1350900D01*
X597055Y1351525D01*
X593930D01*
X593305Y1350900D01*
Y1346212D01*
X597680D02*
X593305Y1350900D01*
X590180Y1351525D02*
X585805D01*
X589555Y1345587D01*
X582681Y1350900D02*
X582056Y1351525D01*
X578931D01*
X578306Y1350900D01*
Y1349650D01*
X578931Y1349025D01*
X582681Y1345587D01*
X578306D01*
D02*
M02*
