G70*
%FSLAX55Y55*%
%ADD11C,0.05000*%
%ADD12C,0.06000*%
%ADD13C,0.08000*%
%ADD14C,0.10000*%
%ADD15R,0.06000X0.06000*%
%ADD16C,0.05500*%
%ADD17C,0.05000*%
%AMUSER18*
1, 1, 0.05000, 0.0, 0.0*
1, 0, 0.02000, 0.0, 0.0*%
%ADD18USER18*%
D11*
G36*
X545175Y1084025D02*
X545175Y1104025D01*
X565175Y1104025*
X565175Y1084025*
X545175Y1084025*
G37*
X545175Y1104025*
X565175Y1104025*
X565175Y1084025*
X545175Y1084025*
G36*
X540175Y904025D02*
X580175Y904025D01*
X580175Y846525*
X540175Y846525*
X540175Y904025*
G37*
X580175Y904025*
X580175Y846525*
X540175Y846525*
X540175Y904025*
G36*
X1242675Y904025D02*
X1282675Y904025D01*
X1282675Y846525*
X1242675Y846525*
X1242675Y904025*
G37*
X1282675Y904025*
X1282675Y846525*
X1242675Y846525*
X1242675Y904025*
G36*
X890175Y1039025D02*
X890175Y1059025D01*
X910175Y1059025*
X910175Y1039025*
X890175Y1039025*
G37*
X890175Y1059025*
X910175Y1059025*
X910175Y1039025*
X890175Y1039025*
G36*
X675175Y1236525D02*
X675175Y1256525D01*
X695175Y1256525*
X695175Y1236525*
X675175Y1236525*
G37*
X675175Y1256525*
X695175Y1256525*
X695175Y1236525*
X675175Y1236525*
G36*
X1187675Y1246525D02*
X1187675Y1266525D01*
X1207675Y1266525*
X1207675Y1246525*
X1187675Y1246525*
G37*
X1187675Y1266525*
X1207675Y1266525*
X1207675Y1246525*
X1187675Y1246525*
G36*
X995175Y1326525D02*
X995175Y1346525D01*
X1015175Y1346525*
X1015175Y1326525*
X995175Y1326525*
G37*
X995175Y1346525*
X1015175Y1346525*
X1015175Y1326525*
X995175Y1326525*
G36*
X890175Y1039025D02*
X890175Y1059025D01*
X910175Y1059025*
X910175Y1039025*
X890175Y1039025*
G37*
X890175Y1059025*
X910175Y1059025*
X910175Y1039025*
X890175Y1039025*
G36*
X522675Y1336525D02*
X522675Y1364025D01*
X550175Y1364025*
X550175Y1366525*
X520175Y1366525*
X520175Y1336525*
X522675Y1336525*
G37*
X522675Y1364025*
X550175Y1364025*
X550175Y1366525*
X520175Y1366525*
X520175Y1336525*
X522675Y1336525*
G36*
X825175Y1366525D02*
X825175Y1364025D01*
X840175Y1364025*
X840175Y1351525*
X857675Y1351525*
X857675Y1354025*
X842675Y1354025*
X842675Y1366525*
X825175Y1366525*
G37*
X825175Y1364025*
X840175Y1364025*
X840175Y1351525*
X857675Y1351525*
X857675Y1354025*
X842675Y1354025*
X842675Y1366525*
X825175Y1366525*
G36*
X967675Y1354025D02*
X967675Y1351525D01*
X985175Y1351525*
X985175Y1364025*
X1000175Y1364025*
X1000175Y1366525*
X982675Y1366525*
X982675Y1354025*
X967675Y1354025*
G37*
X967675Y1351525*
X985175Y1351525*
X985175Y1364025*
X1000175Y1364025*
X1000175Y1366525*
X982675Y1366525*
X982675Y1354025*
X967675Y1354025*
G36*
X1300175Y1336525D02*
X1302675Y1336525D01*
X1302675Y1366525*
X1272675Y1366525*
X1272675Y1364025*
X1300175Y1364025*
X1300175Y1336525*
G37*
X1302675Y1336525*
X1302675Y1366525*
X1272675Y1366525*
X1272675Y1364025*
X1300175Y1364025*
X1300175Y1336525*
G36*
X1300175Y879025D02*
X1300175Y851525D01*
X1272675Y851525*
X1272675Y849025*
X1302675Y849025*
X1302675Y879025*
X1300175Y879025*
G37*
X1300175Y851525*
X1272675Y851525*
X1272675Y849025*
X1302675Y849025*
X1302675Y879025*
X1300175Y879025*
G36*
X522675Y879025D02*
X520175Y879025D01*
X520175Y849025*
X550175Y849025*
X550175Y851525*
X522675Y851525*
X522675Y879025*
G37*
X520175Y879025*
X520175Y849025*
X550175Y849025*
X550175Y851525*
X522675Y851525*
X522675Y879025*
D12*
X560175Y886525D03*
X1262675Y886525D03*
X685175Y1246525D03*
X1005175Y1336525D03*
X1197675Y1256525D03*
X555175Y1094025D03*
X900175Y1049025D03*
D13*
X1127675Y909025D03*
X1107675Y909025D03*
X1212675Y954025D03*
X1192675Y954025D03*
X1195175Y1036525D03*
X1195175Y1056525D03*
X1097675Y944025D03*
X1097675Y924025D03*
X1092675Y1036525D03*
X1092675Y1056525D03*
X997675Y949025D03*
X977675Y949025D03*
X977675Y1044025D03*
X977675Y1064025D03*
X1132675Y894025D03*
X1132675Y874025D03*
X1282675Y934025D03*
X1282675Y914025D03*
X1285175Y1039025D03*
X1285175Y1059025D03*
X1192675Y944025D03*
X1192675Y924025D03*
X1182675Y1039025D03*
X1182675Y1059025D03*
X1087675Y954025D03*
X1087675Y934025D03*
X1080175Y1039025D03*
X1080175Y1059025D03*
X1115175Y874025D03*
X1115175Y894025D03*
X592675Y909025D03*
X592675Y889025D03*
X550175Y1029025D03*
X550175Y1009025D03*
X562675Y1119025D03*
X542675Y1119025D03*
X705175Y1161525D03*
X705175Y1141525D03*
X652675Y1206525D03*
X652675Y1186525D03*
X822675Y1324025D03*
X822675Y1304025D03*
X975175Y1299025D03*
X975175Y1319025D03*
X1125175Y1334025D03*
X1145175Y1334025D03*
X1185175Y1334025D03*
X1205175Y1334025D03*
X1247675Y1334025D03*
X1267675Y1334025D03*
X812675Y1074025D03*
X812675Y1054025D03*
X947675Y1004025D03*
X927675Y1004025D03*
D14*
X820175Y976525D03*
X800175Y976525D03*
D12*
X737675Y929025D03*
X737675Y909025D03*
X682675Y929025D03*
X682675Y909025D03*
X900175Y966525D03*
X880175Y966525D03*
D13*
X1097675Y879025D03*
X1067675Y879025D03*
X1097675Y904025D03*
X1067675Y904025D03*
D12*
X927675Y901525D03*
X927675Y921525D03*
X937675Y946525D03*
X937675Y966525D03*
D13*
X1082675Y1264025D03*
X1062675Y1264025D03*
X1117675Y1264025D03*
X1097675Y1264025D03*
X1127675Y1269025D03*
X1127675Y1249025D03*
X1050175Y1094025D03*
X1070175Y1094025D03*
D12*
X1027675Y1051525D03*
X1027675Y1071525D03*
X1007675Y1071525D03*
X987675Y1071525D03*
X1037675Y1004025D03*
X1057675Y1004025D03*
X1037675Y984025D03*
X1037675Y964025D03*
X1067675Y964025D03*
X1047675Y964025D03*
D13*
X1270175Y1249025D03*
X1270175Y1269025D03*
X1257675Y1249025D03*
X1257675Y1269025D03*
X1277675Y1229025D03*
X1257675Y1229025D03*
X1152675Y1094025D03*
X1172675Y1094025D03*
D12*
X1120175Y1096525D03*
X1140175Y1096525D03*
X1110175Y1096525D03*
X1090175Y1096525D03*
X1140175Y1004025D03*
X1160175Y1004025D03*
X1140175Y984025D03*
X1140175Y964025D03*
X1170175Y964025D03*
X1150175Y964025D03*
D13*
X1225175Y1244025D03*
X1225175Y1264025D03*
X1247675Y1249025D03*
X1247675Y1269025D03*
X1227675Y1229025D03*
X1207675Y1229025D03*
D12*
X1222675Y1096525D03*
X1242675Y1096525D03*
X1212675Y1096525D03*
X1192675Y1096525D03*
X1242675Y1004025D03*
X1262675Y1004025D03*
X1242675Y984025D03*
X1242675Y964025D03*
X1282675Y964025D03*
X1262675Y964025D03*
X1182675Y909025D03*
X1222675Y909025D03*
X1195175Y879025D03*
X1235175Y879025D03*
X1082675Y1279025D03*
X1122675Y1279025D03*
X1282675Y1279025D03*
X1282675Y1239025D03*
X1237675Y1281525D03*
X1237675Y1241525D03*
X547675Y919025D03*
X547675Y929025D03*
X557675Y919025D03*
X557675Y929025D03*
X567675Y919025D03*
X567675Y929025D03*
X577675Y919025D03*
X577675Y929025D03*
X587675Y919025D03*
X587675Y929025D03*
X1182675Y1281525D03*
X1222675Y1281525D03*
X1172675Y1281525D03*
X1132675Y1281525D03*
X792675Y1014025D03*
X832675Y1014025D03*
X617675Y919025D03*
X657675Y919025D03*
X832675Y1024025D03*
X792675Y1024025D03*
X657675Y929025D03*
X617675Y929025D03*
X977675Y911525D03*
X977675Y871525D03*
X1007675Y871525D03*
X1007675Y911525D03*
X1037675Y911525D03*
X1037675Y871525D03*
X947675Y946525D03*
X947675Y986525D03*
X957675Y986525D03*
X957675Y946525D03*
X1077675Y1116525D03*
X1037675Y1116525D03*
X1077675Y1106525D03*
X1037675Y1106525D03*
X860175Y956525D03*
X900175Y956525D03*
X987675Y911525D03*
X987675Y871525D03*
X997675Y911525D03*
X997675Y871525D03*
X1027675Y911525D03*
X1027675Y871525D03*
X1032675Y1091525D03*
X992675Y1091525D03*
X987675Y1081525D03*
X1027675Y1081525D03*
X1040175Y1081525D03*
X1080175Y1081525D03*
X1030175Y1039025D03*
X990175Y1039025D03*
X987675Y1004025D03*
X1027675Y1004025D03*
X1037675Y1029025D03*
X1077675Y1029025D03*
X1037675Y1019025D03*
X1077675Y1019025D03*
D14*
X1065175Y1054025D03*
X1055175Y1044025D03*
X1045175Y1054025D03*
D12*
X1040175Y1071525D03*
X1080175Y1071525D03*
X987675Y994025D03*
X1027675Y994025D03*
X1037675Y994025D03*
X1077675Y994025D03*
X987675Y984025D03*
X1027675Y984025D03*
X1027675Y974025D03*
X987675Y974025D03*
X1027675Y964025D03*
X987675Y964025D03*
X1180175Y1116525D03*
X1140175Y1116525D03*
X1180175Y1106525D03*
X1140175Y1106525D03*
X1130175Y1116525D03*
X1090175Y1116525D03*
X1090175Y1106525D03*
X1130175Y1106525D03*
X1142675Y1081525D03*
X1182675Y1081525D03*
X1132675Y1066525D03*
X1092675Y1066525D03*
D14*
X1107675Y1036525D03*
X1117675Y1046525D03*
X1127675Y1036525D03*
D12*
X1090175Y1004025D03*
X1130175Y1004025D03*
X1140175Y1029025D03*
X1180175Y1029025D03*
X1140175Y1019025D03*
X1180175Y1019025D03*
D14*
X1167675Y1054025D03*
X1157675Y1044025D03*
X1147675Y1054025D03*
D12*
X1142675Y1071525D03*
X1182675Y1071525D03*
X1090175Y994025D03*
X1130175Y994025D03*
X1140175Y994025D03*
X1180175Y994025D03*
X1090175Y984025D03*
X1130175Y984025D03*
X1130175Y974025D03*
X1090175Y974025D03*
X1130175Y964025D03*
X1090175Y964025D03*
X1282675Y1116525D03*
X1242675Y1116525D03*
X1282675Y1106525D03*
X1242675Y1106525D03*
X1232675Y1116525D03*
X1192675Y1116525D03*
X1192675Y1106525D03*
X1232675Y1106525D03*
X1245175Y1081525D03*
X1285175Y1081525D03*
X1235175Y1066525D03*
X1195175Y1066525D03*
D14*
X1210175Y1036525D03*
X1220175Y1046525D03*
X1230175Y1036525D03*
D12*
X1192675Y1004025D03*
X1232675Y1004025D03*
X1242675Y1029025D03*
X1282675Y1029025D03*
X1242675Y1019025D03*
X1282675Y1019025D03*
D14*
X1270175Y1054025D03*
X1260175Y1044025D03*
X1250175Y1054025D03*
D12*
X1245175Y1071525D03*
X1285175Y1071525D03*
X1192675Y994025D03*
X1232675Y994025D03*
X1242675Y994025D03*
X1282675Y994025D03*
X1192675Y984025D03*
X1232675Y984025D03*
X1232675Y974025D03*
X1192675Y974025D03*
X1232675Y964025D03*
X1192675Y964025D03*
D15*
X717675Y1279025D03*
X725175Y1279025D03*
X810175Y1311525D03*
X810175Y1304025D03*
X1135175Y1134025D03*
X1127675Y1134025D03*
X1120175Y1134025D03*
X1120175Y1146525D03*
X1127675Y1146525D03*
X1135175Y1146525D03*
D12*
X747675Y886525D03*
X752675Y896525D03*
X757675Y886525D03*
X762675Y896525D03*
X767675Y886525D03*
X772675Y896525D03*
X777675Y886525D03*
X782675Y896525D03*
X787675Y886525D03*
X792675Y896525D03*
X797675Y886525D03*
X802675Y896525D03*
X807675Y886525D03*
X812675Y896525D03*
X817675Y886525D03*
X822675Y896525D03*
D16*
X742675Y894025D03*
D12*
X1152675Y889025D03*
X1157675Y899025D03*
X1162675Y889025D03*
X1167675Y899025D03*
X1172675Y889025D03*
X1177675Y899025D03*
X1182675Y889025D03*
X1187675Y899025D03*
X1192675Y889025D03*
X1197675Y899025D03*
X1202675Y889025D03*
X1207675Y899025D03*
X1212675Y889025D03*
X1217675Y899025D03*
X1222675Y889025D03*
X1227675Y899025D03*
D16*
X1147675Y896525D03*
D17*
X797675Y954025D03*
X797675Y961525D03*
D13*
X720175Y924025D03*
X700175Y924025D03*
X1255175Y1094025D03*
X1275175Y1094025D03*
D12*
X1017675Y1059025D03*
X1007675Y1059025D03*
X1017675Y1049025D03*
X987675Y1049025D03*
X997675Y1049025D03*
X997675Y1059025D03*
X1027675Y1026525D03*
X1017675Y1026525D03*
X1017675Y1016525D03*
X995175Y1016525D03*
X1005175Y1016525D03*
X1005175Y1026525D03*
X1067675Y974025D03*
X1077675Y974025D03*
X1077675Y984025D03*
X1057675Y984025D03*
X1047675Y984025D03*
X1047675Y974025D03*
X1067675Y954025D03*
X1057675Y954025D03*
X1057675Y944025D03*
X1127675Y1086525D03*
X1117675Y1086525D03*
X1127675Y1076525D03*
X1095175Y1076525D03*
X1105175Y1076525D03*
X1105175Y1086525D03*
X1130175Y1026525D03*
X1120175Y1026525D03*
X1120175Y1016525D03*
X1097675Y1016525D03*
X1107675Y1016525D03*
X1107675Y1026525D03*
X1170175Y974025D03*
X1180175Y974025D03*
X1180175Y984025D03*
X1160175Y984025D03*
X1150175Y984025D03*
X1150175Y974025D03*
X1170175Y954025D03*
X1160175Y954025D03*
X1160175Y944025D03*
X1230175Y1086525D03*
X1220175Y1086525D03*
X1230175Y1076525D03*
X1197675Y1076525D03*
X1207675Y1076525D03*
X1207675Y1086525D03*
X1232675Y1026525D03*
X1222675Y1026525D03*
X1222675Y1016525D03*
X1200175Y1016525D03*
X1210175Y1016525D03*
X1210175Y1026525D03*
X1272675Y974025D03*
X1282675Y974025D03*
X1282675Y984025D03*
X1262675Y984025D03*
X1252675Y984025D03*
X1252675Y974025D03*
X1282675Y944025D03*
X1282675Y954025D03*
X1272675Y954025D03*
X810175Y1324025D03*
X800175Y1324025D03*
X790175Y1324025D03*
X780175Y1324025D03*
X770175Y1324025D03*
X760175Y1324025D03*
X750175Y1324025D03*
X740175Y1324025D03*
X730175Y1324025D03*
X720175Y1324025D03*
X1162675Y1261525D03*
X1172675Y1261525D03*
X1172675Y1271525D03*
X797675Y941525D03*
X797675Y931525D03*
X797675Y921525D03*
X797675Y911525D03*
X827675Y911525D03*
X827675Y921525D03*
X827675Y931525D03*
X827675Y941525D03*
X547675Y939025D03*
X557675Y939025D03*
X567675Y939025D03*
X577675Y939025D03*
X587675Y939025D03*
X597675Y939025D03*
X607675Y939025D03*
X617675Y939025D03*
X627675Y939025D03*
X637675Y939025D03*
X647675Y939025D03*
X657675Y939025D03*
X667675Y939025D03*
X677675Y939025D03*
X687675Y939025D03*
X697675Y939025D03*
X707675Y939025D03*
X717675Y939025D03*
X727675Y939025D03*
X737675Y939025D03*
X737675Y999025D03*
X727675Y999025D03*
X717675Y999025D03*
X707675Y999025D03*
X697675Y999025D03*
X687675Y999025D03*
X677675Y999025D03*
X667675Y999025D03*
X657675Y999025D03*
X647675Y999025D03*
X637675Y999025D03*
X627675Y999025D03*
X617675Y999025D03*
X607675Y999025D03*
X597675Y999025D03*
X587675Y999025D03*
X577675Y999025D03*
X567675Y999025D03*
X557675Y999025D03*
X547675Y999025D03*
X567675Y1014025D03*
X577675Y1014025D03*
X587675Y1014025D03*
X597675Y1014025D03*
X607675Y1014025D03*
X617675Y1014025D03*
X627675Y1014025D03*
X637675Y1014025D03*
X647675Y1014025D03*
X657675Y1014025D03*
X657675Y1044025D03*
X647675Y1044025D03*
X637675Y1044025D03*
X627675Y1044025D03*
X617675Y1044025D03*
X607675Y1044025D03*
X597675Y1044025D03*
X587675Y1044025D03*
X577675Y1044025D03*
X567675Y1044025D03*
X577675Y1059025D03*
X587675Y1059025D03*
X597675Y1059025D03*
X607675Y1059025D03*
X617675Y1059025D03*
X627675Y1059025D03*
X637675Y1059025D03*
X647675Y1059025D03*
X657675Y1059025D03*
X667675Y1059025D03*
X677675Y1059025D03*
X687675Y1059025D03*
X697675Y1059025D03*
X707675Y1059025D03*
X707675Y1119025D03*
X697675Y1119025D03*
X687675Y1119025D03*
X677675Y1119025D03*
X667675Y1119025D03*
X657675Y1119025D03*
X647675Y1119025D03*
X637675Y1119025D03*
X627675Y1119025D03*
X617675Y1119025D03*
X607675Y1119025D03*
X597675Y1119025D03*
X587675Y1119025D03*
X577675Y1119025D03*
X607675Y879025D03*
X617675Y879025D03*
X627675Y879025D03*
X637675Y879025D03*
X647675Y879025D03*
X657675Y879025D03*
X667675Y879025D03*
X667675Y909025D03*
X657675Y909025D03*
X647675Y909025D03*
X637675Y909025D03*
X627675Y909025D03*
X617675Y909025D03*
X607675Y909025D03*
X937675Y931525D03*
X937675Y921525D03*
X937675Y911525D03*
X937675Y901525D03*
X967675Y901525D03*
X967675Y911525D03*
X967675Y921525D03*
X967675Y931525D03*
X752675Y1029025D03*
X752675Y1019025D03*
X752675Y1009025D03*
X752675Y999025D03*
X752675Y989025D03*
X752675Y979025D03*
X752675Y969025D03*
X752675Y959025D03*
X752675Y949025D03*
X752675Y939025D03*
X752675Y929025D03*
X752675Y919025D03*
X782675Y919025D03*
X782675Y929025D03*
X782675Y939025D03*
X782675Y949025D03*
X782675Y959025D03*
X782675Y969025D03*
X782675Y979025D03*
X782675Y989025D03*
X782675Y999025D03*
X782675Y1009025D03*
X782675Y1019025D03*
X782675Y1029025D03*
X842675Y941525D03*
X842675Y931525D03*
X842675Y921525D03*
X842675Y911525D03*
X842675Y901525D03*
X842675Y891525D03*
X842675Y881525D03*
X872675Y881525D03*
X872675Y891525D03*
X872675Y901525D03*
X872675Y911525D03*
X872675Y921525D03*
X872675Y931525D03*
X872675Y941525D03*
X887675Y941525D03*
X887675Y931525D03*
X887675Y921525D03*
X887675Y911525D03*
X887675Y901525D03*
X887675Y891525D03*
X887675Y881525D03*
X917675Y881525D03*
X917675Y891525D03*
X917675Y901525D03*
X917675Y911525D03*
X917675Y921525D03*
X917675Y931525D03*
X917675Y941525D03*
X547675Y1134025D03*
X557675Y1134025D03*
X567675Y1134025D03*
X577675Y1134025D03*
X587675Y1134025D03*
X597675Y1134025D03*
X607675Y1134025D03*
X617675Y1134025D03*
X627675Y1134025D03*
X637675Y1134025D03*
X637675Y1164025D03*
X627675Y1164025D03*
X617675Y1164025D03*
X607675Y1164025D03*
X597675Y1164025D03*
X587675Y1164025D03*
X577675Y1164025D03*
X567675Y1164025D03*
X557675Y1164025D03*
X547675Y1164025D03*
X1100175Y1234025D03*
X1100175Y1224025D03*
X1100175Y1214025D03*
X1100175Y1204025D03*
X1100175Y1194025D03*
X1100175Y1184025D03*
X1100175Y1174025D03*
X1100175Y1164025D03*
X1130175Y1164025D03*
X1130175Y1174025D03*
X1130175Y1184025D03*
X1130175Y1194025D03*
X1130175Y1204025D03*
X1130175Y1214025D03*
X1130175Y1224025D03*
X1130175Y1234025D03*
X547675Y1179025D03*
X557675Y1179025D03*
X567675Y1179025D03*
X577675Y1179025D03*
X587675Y1179025D03*
X597675Y1179025D03*
X607675Y1179025D03*
X617675Y1179025D03*
X627675Y1179025D03*
X637675Y1179025D03*
X637675Y1209025D03*
X627675Y1209025D03*
X617675Y1209025D03*
X607675Y1209025D03*
X597675Y1209025D03*
X587675Y1209025D03*
X577675Y1209025D03*
X567675Y1209025D03*
X557675Y1209025D03*
X547675Y1209025D03*
X662675Y1204025D03*
X662675Y1194025D03*
X662675Y1184025D03*
X662675Y1174025D03*
X662675Y1164025D03*
X662675Y1154025D03*
X662675Y1144025D03*
X662675Y1134025D03*
X692675Y1134025D03*
X692675Y1144025D03*
X692675Y1154025D03*
X692675Y1164025D03*
X692675Y1174025D03*
X692675Y1184025D03*
X692675Y1194025D03*
X692675Y1204025D03*
X547675Y1224025D03*
X557675Y1224025D03*
X567675Y1224025D03*
X577675Y1224025D03*
X587675Y1224025D03*
X597675Y1224025D03*
X607675Y1224025D03*
X617675Y1224025D03*
X627675Y1224025D03*
X637675Y1224025D03*
X647675Y1224025D03*
X657675Y1224025D03*
X657675Y1254025D03*
X647675Y1254025D03*
X637675Y1254025D03*
X627675Y1254025D03*
X617675Y1254025D03*
X607675Y1254025D03*
X597675Y1254025D03*
X587675Y1254025D03*
X577675Y1254025D03*
X567675Y1254025D03*
X557675Y1254025D03*
X547675Y1254025D03*
X735175Y1309025D03*
X735175Y1299025D03*
X735175Y1289025D03*
X735175Y1279025D03*
X735175Y1269025D03*
X735175Y1259025D03*
X735175Y1249025D03*
X735175Y1239025D03*
X735175Y1229025D03*
X735175Y1219025D03*
X735175Y1209025D03*
X735175Y1199025D03*
X735175Y1189025D03*
X735175Y1179025D03*
X735175Y1169025D03*
X735175Y1159025D03*
X735175Y1149025D03*
X735175Y1139025D03*
X735175Y1129025D03*
X735175Y1119025D03*
X735175Y1109025D03*
X735175Y1099025D03*
X735175Y1089025D03*
X735175Y1079025D03*
X795175Y1079025D03*
X795175Y1089025D03*
X795175Y1099025D03*
X795175Y1109025D03*
X795175Y1119025D03*
X795175Y1129025D03*
X795175Y1139025D03*
X795175Y1149025D03*
X795175Y1159025D03*
X795175Y1169025D03*
X795175Y1179025D03*
X795175Y1189025D03*
X795175Y1199025D03*
X795175Y1209025D03*
X795175Y1219025D03*
X795175Y1229025D03*
X795175Y1239025D03*
X795175Y1249025D03*
X795175Y1259025D03*
X795175Y1269025D03*
X795175Y1279025D03*
X795175Y1289025D03*
X795175Y1299025D03*
X795175Y1309025D03*
X830175Y1279025D03*
X830175Y1269025D03*
X830175Y1259025D03*
X830175Y1249025D03*
X830175Y1239025D03*
X830175Y1229025D03*
X830175Y1219025D03*
X830175Y1209025D03*
X830175Y1199025D03*
X830175Y1189025D03*
X830175Y1179025D03*
X830175Y1169025D03*
X830175Y1159025D03*
X830175Y1149025D03*
X890175Y1149025D03*
X890175Y1159025D03*
X890175Y1169025D03*
X890175Y1179025D03*
X890175Y1189025D03*
X890175Y1199025D03*
X890175Y1209025D03*
X890175Y1219025D03*
X890175Y1229025D03*
X890175Y1239025D03*
X890175Y1249025D03*
X890175Y1259025D03*
X890175Y1269025D03*
X890175Y1279025D03*
X980175Y1279025D03*
X980175Y1269025D03*
X980175Y1259025D03*
X980175Y1249025D03*
X980175Y1239025D03*
X980175Y1229025D03*
X980175Y1219025D03*
X980175Y1209025D03*
X980175Y1199025D03*
X980175Y1189025D03*
X980175Y1179025D03*
X980175Y1169025D03*
X980175Y1159025D03*
X980175Y1149025D03*
X1040175Y1149025D03*
X1040175Y1159025D03*
X1040175Y1169025D03*
X1040175Y1179025D03*
X1040175Y1189025D03*
X1040175Y1199025D03*
X1040175Y1209025D03*
X1040175Y1219025D03*
X1040175Y1229025D03*
X1040175Y1239025D03*
X1040175Y1249025D03*
X1040175Y1259025D03*
X1040175Y1269025D03*
X1040175Y1279025D03*
X830175Y1129025D03*
X830175Y1119025D03*
X830175Y1109025D03*
X830175Y1099025D03*
X830175Y1089025D03*
X830175Y1079025D03*
X830175Y1069025D03*
X830175Y1059025D03*
X860175Y1059025D03*
X860175Y1069025D03*
X860175Y1079025D03*
X860175Y1089025D03*
X860175Y1099025D03*
X860175Y1109025D03*
X860175Y1119025D03*
X860175Y1129025D03*
X875175Y1104025D03*
X885175Y1104025D03*
X895175Y1104025D03*
X905175Y1104025D03*
X915175Y1104025D03*
X925175Y1104025D03*
X935175Y1104025D03*
X945175Y1104025D03*
X945175Y1134025D03*
X935175Y1134025D03*
X925175Y1134025D03*
X915175Y1134025D03*
X905175Y1134025D03*
X895175Y1134025D03*
X885175Y1134025D03*
X875175Y1134025D03*
X920175Y1089025D03*
X920175Y1079025D03*
X920175Y1069025D03*
X920175Y1059025D03*
X920175Y1049025D03*
X920175Y1039025D03*
X920175Y1029025D03*
X920175Y1019025D03*
X950175Y1019025D03*
X950175Y1029025D03*
X950175Y1039025D03*
X950175Y1049025D03*
X950175Y1059025D03*
X950175Y1069025D03*
X950175Y1079025D03*
X950175Y1089025D03*
X1217675Y1291525D03*
X1227675Y1291525D03*
X1237675Y1291525D03*
X1247675Y1291525D03*
X1257675Y1291525D03*
X1267675Y1291525D03*
X1277675Y1291525D03*
X1277675Y1321525D03*
X1267675Y1321525D03*
X1257675Y1321525D03*
X1247675Y1321525D03*
X1237675Y1321525D03*
X1227675Y1321525D03*
X1217675Y1321525D03*
X1012675Y924025D03*
X1022675Y924025D03*
X1032675Y924025D03*
X1042675Y924025D03*
X1042675Y954025D03*
X1032675Y954025D03*
X1022675Y954025D03*
X1012675Y954025D03*
X837675Y1294025D03*
X847675Y1294025D03*
X857675Y1294025D03*
X867675Y1294025D03*
X877675Y1294025D03*
X887675Y1294025D03*
X897675Y1294025D03*
X907675Y1294025D03*
X917675Y1294025D03*
X927675Y1294025D03*
X937675Y1294025D03*
X947675Y1294025D03*
X947675Y1324025D03*
X937675Y1324025D03*
X927675Y1324025D03*
X917675Y1324025D03*
X907675Y1324025D03*
X897675Y1324025D03*
X887675Y1324025D03*
X877675Y1324025D03*
X867675Y1324025D03*
X857675Y1324025D03*
X847675Y1324025D03*
X837675Y1324025D03*
X905175Y1279025D03*
X905175Y1269025D03*
X905175Y1259025D03*
X905175Y1249025D03*
X905175Y1239025D03*
X905175Y1229025D03*
X905175Y1219025D03*
X905175Y1209025D03*
X905175Y1199025D03*
X905175Y1189025D03*
X905175Y1179025D03*
X905175Y1169025D03*
X905175Y1159025D03*
X905175Y1149025D03*
X965175Y1149025D03*
X965175Y1159025D03*
X965175Y1169025D03*
X965175Y1179025D03*
X965175Y1189025D03*
X965175Y1199025D03*
X965175Y1209025D03*
X965175Y1219025D03*
X965175Y1229025D03*
X965175Y1239025D03*
X965175Y1249025D03*
X965175Y1259025D03*
X965175Y1269025D03*
X965175Y1279025D03*
X1137675Y1291525D03*
X1147675Y1291525D03*
X1157675Y1291525D03*
X1167675Y1291525D03*
X1177675Y1291525D03*
X1187675Y1291525D03*
X1197675Y1291525D03*
X1197675Y1321525D03*
X1187675Y1321525D03*
X1177675Y1321525D03*
X1167675Y1321525D03*
X1157675Y1321525D03*
X1147675Y1321525D03*
X1137675Y1321525D03*
X1057675Y1291525D03*
X1067675Y1291525D03*
X1077675Y1291525D03*
X1087675Y1291525D03*
X1097675Y1291525D03*
X1107675Y1291525D03*
X1117675Y1291525D03*
X1117675Y1321525D03*
X1107675Y1321525D03*
X1097675Y1321525D03*
X1087675Y1321525D03*
X1077675Y1321525D03*
X1067675Y1321525D03*
X1057675Y1321525D03*
X1055175Y1244025D03*
X1055175Y1234025D03*
X1055175Y1224025D03*
X1055175Y1214025D03*
X1055175Y1204025D03*
X1055175Y1194025D03*
X1055175Y1184025D03*
X1055175Y1174025D03*
X1055175Y1164025D03*
X1055175Y1154025D03*
X1055175Y1144025D03*
X1055175Y1134025D03*
X1085175Y1134025D03*
X1085175Y1144025D03*
X1085175Y1154025D03*
X1085175Y1164025D03*
X1085175Y1174025D03*
X1085175Y1184025D03*
X1085175Y1194025D03*
X1085175Y1204025D03*
X1085175Y1214025D03*
X1085175Y1224025D03*
X1085175Y1234025D03*
X1085175Y1244025D03*
X1147675Y1244025D03*
X1147675Y1234025D03*
X1147675Y1224025D03*
X1147675Y1214025D03*
X1147675Y1204025D03*
X1147675Y1194025D03*
X1147675Y1184025D03*
X1147675Y1174025D03*
X1147675Y1164025D03*
X1147675Y1154025D03*
X1147675Y1144025D03*
X1147675Y1134025D03*
X1177675Y1134025D03*
X1177675Y1144025D03*
X1177675Y1154025D03*
X1177675Y1164025D03*
X1177675Y1174025D03*
X1177675Y1184025D03*
X1177675Y1194025D03*
X1177675Y1204025D03*
X1177675Y1214025D03*
X1177675Y1224025D03*
X1177675Y1234025D03*
X1177675Y1244025D03*
X1247675Y1204025D03*
X1247675Y1194025D03*
X1247675Y1184025D03*
X1247675Y1174025D03*
X1247675Y1164025D03*
X1247675Y1154025D03*
X1247675Y1144025D03*
X1247675Y1134025D03*
X1277675Y1134025D03*
X1277675Y1144025D03*
X1277675Y1154025D03*
X1277675Y1164025D03*
X1277675Y1174025D03*
X1277675Y1184025D03*
X1277675Y1194025D03*
X1277675Y1204025D03*
X1115175Y924025D03*
X1125175Y924025D03*
X1135175Y924025D03*
X1145175Y924025D03*
X1145175Y954025D03*
X1135175Y954025D03*
X1125175Y954025D03*
X1115175Y954025D03*
X1197675Y1204025D03*
X1197675Y1194025D03*
X1197675Y1184025D03*
X1197675Y1174025D03*
X1197675Y1164025D03*
X1197675Y1154025D03*
X1197675Y1144025D03*
X1197675Y1134025D03*
X1227675Y1134025D03*
X1227675Y1144025D03*
X1227675Y1154025D03*
X1227675Y1164025D03*
X1227675Y1174025D03*
X1227675Y1184025D03*
X1227675Y1194025D03*
X1227675Y1204025D03*
X1227675Y924025D03*
X1237675Y924025D03*
X1247675Y924025D03*
X1257675Y924025D03*
X1257675Y954025D03*
X1247675Y954025D03*
X1237675Y954025D03*
X1227675Y954025D03*
X1185175Y871525D03*
X1145175Y871525D03*
D13*
X1267675Y1219025D03*
X1247675Y1219025D03*
X1197675Y1219025D03*
X1217675Y1219025D03*
X1097675Y1249025D03*
X1117675Y1249025D03*
D12*
X1232675Y914025D03*
X1272675Y914025D03*
X1180175Y921525D03*
X1180175Y961525D03*
X1077675Y921525D03*
X1077675Y961525D03*
X850175Y996525D03*
X850175Y1016525D03*
X875175Y1006525D03*
X875175Y976525D03*
X885175Y1006525D03*
X885175Y976525D03*
X917675Y996525D03*
X917675Y956525D03*
X1017675Y911525D03*
X1017675Y871525D03*
X962675Y886525D03*
X932675Y886525D03*
X962675Y876525D03*
X932675Y876525D03*
X1057675Y911525D03*
X1057675Y871525D03*
X1047675Y871525D03*
X1047675Y881525D03*
X1047675Y909025D03*
X1047675Y899025D03*
D13*
X1095175Y1126525D03*
X1095175Y1146525D03*
D18*
X545175Y1341525D03*
X1277675Y874025D03*
D12*
X840175Y996525D03*
X840175Y956525D03*
X850175Y966525D03*
X850175Y956525D03*
D14*
X852675Y979025D03*
D17*
X675175Y891525D03*
X600175Y896525D03*
X602675Y994025D03*
X672675Y1054025D03*
X702675Y1076525D03*
X755175Y1179025D03*
X755175Y1154025D03*
X617675Y1156525D03*
X755175Y1179025D03*
X685175Y1016525D03*
X582675Y1094025D03*
X735175Y1066525D03*
X572675Y1084025D03*
X740175Y1054025D03*
X667675Y1091525D03*
X627675Y1151525D03*
X750175Y1146525D03*
X750175Y1169025D03*
X750175Y1169025D03*
X740175Y1046525D03*
X732675Y1034025D03*
X722675Y1024025D03*
X712675Y1024025D03*
X740175Y1061525D03*
X577675Y1089025D03*
X692675Y1019025D03*
X680175Y986525D03*
X707675Y1019025D03*
X717675Y1019025D03*
X725175Y1031525D03*
X735175Y1041525D03*
X637675Y896525D03*
X632675Y874025D03*
X652675Y874025D03*
X765175Y1269025D03*
X667675Y981525D03*
X1155175Y1189025D03*
X1110175Y1241525D03*
X1155175Y1189025D03*
X692675Y1106525D03*
X675175Y1181525D03*
X965175Y1134025D03*
X1067675Y1129025D03*
X762675Y911525D03*
X837675Y1224025D03*
X772675Y1224025D03*
X1205175Y929025D03*
X1202675Y951525D03*
X1112675Y936525D03*
X1042675Y936525D03*
X1112675Y936525D03*
X1042675Y936525D03*
X1265175Y1011525D03*
X1222675Y1009025D03*
X1107675Y974025D03*
X1122675Y1009025D03*
X1162675Y1011525D03*
X1020175Y1009025D03*
X1060175Y1011525D03*
X1182675Y879025D03*
X1217675Y919025D03*
X1005175Y984025D03*
X980175Y984025D03*
X1212675Y984025D03*
X1215175Y1126525D03*
X642675Y1096525D03*
X792675Y1071525D03*
X785175Y1171525D03*
X777675Y1309025D03*
X937675Y966525D03*
X787675Y1244025D03*
X782675Y1194025D03*
X647675Y1234025D03*
X592675Y1234025D03*
X602675Y1304025D03*
X612675Y1294025D03*
X622675Y1284025D03*
X632675Y1274025D03*
X652675Y1111525D03*
X810175Y1084025D03*
X852675Y1094025D03*
X857675Y1199025D03*
X875175Y1204025D03*
X1245175Y1239025D03*
X922675Y1229025D03*
X1270175Y1209025D03*
X932675Y1236525D03*
X1262675Y1199025D03*
X942675Y1274025D03*
X820175Y1264025D03*
X817675Y1119025D03*
X835175Y1234025D03*
X842675Y1094025D03*
X835175Y1244025D03*
X812675Y1099025D03*
X817675Y1254025D03*
X822675Y1271525D03*
X767675Y1279025D03*
X725175Y1314025D03*
X842675Y1169025D03*
X845175Y1159025D03*
X847675Y1149025D03*
X922675Y1151525D03*
X987675Y1154025D03*
X1140175Y1206525D03*
X1257675Y1174025D03*
X1252675Y1169025D03*
X912675Y1154025D03*
X1075175Y1209025D03*
X1182675Y1219025D03*
X867675Y1174025D03*
X1027675Y1174025D03*
X1070175Y1214025D03*
X1062675Y1304025D03*
X1110175Y1111525D03*
X1065175Y1029025D03*
X1017675Y929025D03*
X1140175Y929025D03*
X1167675Y1029025D03*
X1275175Y1119025D03*
X1247675Y989025D03*
X1270175Y1029025D03*
X1262675Y1206525D03*
X685175Y1206525D03*
X685175Y1149025D03*
X787675Y1104025D03*
X787675Y1036525D03*
X880175Y1036525D03*
X685175Y1206525D03*
X720175Y964025D03*
X855175Y926525D03*
X965175Y1124025D03*
X812675Y944025D03*
X870175Y1044025D03*
X782675Y1044025D03*
X782675Y1089025D03*
X702675Y1094025D03*
X847675Y1076525D03*
X642675Y954025D03*
X860175Y931525D03*
M02*
