%TF.GenerationSoftware,KiCad,Pcbnew,(5.1.10)-1*%
%TF.CreationDate,2023-06-12T08:51:03+01:00*%
%TF.ProjectId,pt8601_rom_adapter,70743836-3031-45f7-926f-6d5f61646170,rev?*%
%TF.SameCoordinates,Original*%
%TF.FileFunction,Soldermask,Top*%
%TF.FilePolarity,Negative*%
%FSLAX46Y46*%
G04 Gerber Fmt 4.6, Leading zero omitted, Abs format (unit mm)*
G04 Created by KiCad (PCBNEW (5.1.10)-1) date 2023-06-12 08:51:03*
%MOMM*%
%LPD*%
G01*
G04 APERTURE LIST*
%ADD10O,1.000000X1.000000*%
%ADD11C,1.000000*%
G04 APERTURE END LIST*
%TO.C,U8*%
G36*
G01*
X168580700Y-116174800D02*
X167105700Y-116174800D01*
G75*
G02*
X166955700Y-116024800I0J150000D01*
G01*
X166955700Y-115724800D01*
G75*
G02*
X167105700Y-115574800I150000J0D01*
G01*
X168580700Y-115574800D01*
G75*
G02*
X168730700Y-115724800I0J-150000D01*
G01*
X168730700Y-116024800D01*
G75*
G02*
X168580700Y-116174800I-150000J0D01*
G01*
G37*
G36*
G01*
X168580700Y-114904800D02*
X167105700Y-114904800D01*
G75*
G02*
X166955700Y-114754800I0J150000D01*
G01*
X166955700Y-114454800D01*
G75*
G02*
X167105700Y-114304800I150000J0D01*
G01*
X168580700Y-114304800D01*
G75*
G02*
X168730700Y-114454800I0J-150000D01*
G01*
X168730700Y-114754800D01*
G75*
G02*
X168580700Y-114904800I-150000J0D01*
G01*
G37*
G36*
G01*
X168580700Y-113634800D02*
X167105700Y-113634800D01*
G75*
G02*
X166955700Y-113484800I0J150000D01*
G01*
X166955700Y-113184800D01*
G75*
G02*
X167105700Y-113034800I150000J0D01*
G01*
X168580700Y-113034800D01*
G75*
G02*
X168730700Y-113184800I0J-150000D01*
G01*
X168730700Y-113484800D01*
G75*
G02*
X168580700Y-113634800I-150000J0D01*
G01*
G37*
G36*
G01*
X169644200Y-112571300D02*
X169344200Y-112571300D01*
G75*
G02*
X169194200Y-112421300I0J150000D01*
G01*
X169194200Y-110946300D01*
G75*
G02*
X169344200Y-110796300I150000J0D01*
G01*
X169644200Y-110796300D01*
G75*
G02*
X169794200Y-110946300I0J-150000D01*
G01*
X169794200Y-112421300D01*
G75*
G02*
X169644200Y-112571300I-150000J0D01*
G01*
G37*
G36*
G01*
X170914200Y-112571300D02*
X170614200Y-112571300D01*
G75*
G02*
X170464200Y-112421300I0J150000D01*
G01*
X170464200Y-110946300D01*
G75*
G02*
X170614200Y-110796300I150000J0D01*
G01*
X170914200Y-110796300D01*
G75*
G02*
X171064200Y-110946300I0J-150000D01*
G01*
X171064200Y-112421300D01*
G75*
G02*
X170914200Y-112571300I-150000J0D01*
G01*
G37*
G36*
G01*
X172184200Y-112571300D02*
X171884200Y-112571300D01*
G75*
G02*
X171734200Y-112421300I0J150000D01*
G01*
X171734200Y-110946300D01*
G75*
G02*
X171884200Y-110796300I150000J0D01*
G01*
X172184200Y-110796300D01*
G75*
G02*
X172334200Y-110946300I0J-150000D01*
G01*
X172334200Y-112421300D01*
G75*
G02*
X172184200Y-112571300I-150000J0D01*
G01*
G37*
G36*
G01*
X173454200Y-112571300D02*
X173154200Y-112571300D01*
G75*
G02*
X173004200Y-112421300I0J150000D01*
G01*
X173004200Y-110946300D01*
G75*
G02*
X173154200Y-110796300I150000J0D01*
G01*
X173454200Y-110796300D01*
G75*
G02*
X173604200Y-110946300I0J-150000D01*
G01*
X173604200Y-112421300D01*
G75*
G02*
X173454200Y-112571300I-150000J0D01*
G01*
G37*
G36*
G01*
X174724200Y-112571300D02*
X174424200Y-112571300D01*
G75*
G02*
X174274200Y-112421300I0J150000D01*
G01*
X174274200Y-110946300D01*
G75*
G02*
X174424200Y-110796300I150000J0D01*
G01*
X174724200Y-110796300D01*
G75*
G02*
X174874200Y-110946300I0J-150000D01*
G01*
X174874200Y-112421300D01*
G75*
G02*
X174724200Y-112571300I-150000J0D01*
G01*
G37*
G36*
G01*
X175994200Y-112571300D02*
X175694200Y-112571300D01*
G75*
G02*
X175544200Y-112421300I0J150000D01*
G01*
X175544200Y-110946300D01*
G75*
G02*
X175694200Y-110796300I150000J0D01*
G01*
X175994200Y-110796300D01*
G75*
G02*
X176144200Y-110946300I0J-150000D01*
G01*
X176144200Y-112421300D01*
G75*
G02*
X175994200Y-112571300I-150000J0D01*
G01*
G37*
G36*
G01*
X177264200Y-112571300D02*
X176964200Y-112571300D01*
G75*
G02*
X176814200Y-112421300I0J150000D01*
G01*
X176814200Y-110946300D01*
G75*
G02*
X176964200Y-110796300I150000J0D01*
G01*
X177264200Y-110796300D01*
G75*
G02*
X177414200Y-110946300I0J-150000D01*
G01*
X177414200Y-112421300D01*
G75*
G02*
X177264200Y-112571300I-150000J0D01*
G01*
G37*
G36*
G01*
X178534200Y-112571300D02*
X178234200Y-112571300D01*
G75*
G02*
X178084200Y-112421300I0J150000D01*
G01*
X178084200Y-110946300D01*
G75*
G02*
X178234200Y-110796300I150000J0D01*
G01*
X178534200Y-110796300D01*
G75*
G02*
X178684200Y-110946300I0J-150000D01*
G01*
X178684200Y-112421300D01*
G75*
G02*
X178534200Y-112571300I-150000J0D01*
G01*
G37*
G36*
G01*
X179804200Y-112571300D02*
X179504200Y-112571300D01*
G75*
G02*
X179354200Y-112421300I0J150000D01*
G01*
X179354200Y-110946300D01*
G75*
G02*
X179504200Y-110796300I150000J0D01*
G01*
X179804200Y-110796300D01*
G75*
G02*
X179954200Y-110946300I0J-150000D01*
G01*
X179954200Y-112421300D01*
G75*
G02*
X179804200Y-112571300I-150000J0D01*
G01*
G37*
G36*
G01*
X182042700Y-113634800D02*
X180567700Y-113634800D01*
G75*
G02*
X180417700Y-113484800I0J150000D01*
G01*
X180417700Y-113184800D01*
G75*
G02*
X180567700Y-113034800I150000J0D01*
G01*
X182042700Y-113034800D01*
G75*
G02*
X182192700Y-113184800I0J-150000D01*
G01*
X182192700Y-113484800D01*
G75*
G02*
X182042700Y-113634800I-150000J0D01*
G01*
G37*
G36*
G01*
X182042700Y-114904800D02*
X180567700Y-114904800D01*
G75*
G02*
X180417700Y-114754800I0J150000D01*
G01*
X180417700Y-114454800D01*
G75*
G02*
X180567700Y-114304800I150000J0D01*
G01*
X182042700Y-114304800D01*
G75*
G02*
X182192700Y-114454800I0J-150000D01*
G01*
X182192700Y-114754800D01*
G75*
G02*
X182042700Y-114904800I-150000J0D01*
G01*
G37*
G36*
G01*
X182042700Y-116174800D02*
X180567700Y-116174800D01*
G75*
G02*
X180417700Y-116024800I0J150000D01*
G01*
X180417700Y-115724800D01*
G75*
G02*
X180567700Y-115574800I150000J0D01*
G01*
X182042700Y-115574800D01*
G75*
G02*
X182192700Y-115724800I0J-150000D01*
G01*
X182192700Y-116024800D01*
G75*
G02*
X182042700Y-116174800I-150000J0D01*
G01*
G37*
G36*
G01*
X182042700Y-117444800D02*
X180567700Y-117444800D01*
G75*
G02*
X180417700Y-117294800I0J150000D01*
G01*
X180417700Y-116994800D01*
G75*
G02*
X180567700Y-116844800I150000J0D01*
G01*
X182042700Y-116844800D01*
G75*
G02*
X182192700Y-116994800I0J-150000D01*
G01*
X182192700Y-117294800D01*
G75*
G02*
X182042700Y-117444800I-150000J0D01*
G01*
G37*
G36*
G01*
X182042700Y-118714800D02*
X180567700Y-118714800D01*
G75*
G02*
X180417700Y-118564800I0J150000D01*
G01*
X180417700Y-118264800D01*
G75*
G02*
X180567700Y-118114800I150000J0D01*
G01*
X182042700Y-118114800D01*
G75*
G02*
X182192700Y-118264800I0J-150000D01*
G01*
X182192700Y-118564800D01*
G75*
G02*
X182042700Y-118714800I-150000J0D01*
G01*
G37*
G36*
G01*
X182042700Y-119984800D02*
X180567700Y-119984800D01*
G75*
G02*
X180417700Y-119834800I0J150000D01*
G01*
X180417700Y-119534800D01*
G75*
G02*
X180567700Y-119384800I150000J0D01*
G01*
X182042700Y-119384800D01*
G75*
G02*
X182192700Y-119534800I0J-150000D01*
G01*
X182192700Y-119834800D01*
G75*
G02*
X182042700Y-119984800I-150000J0D01*
G01*
G37*
G36*
G01*
X182042700Y-121254800D02*
X180567700Y-121254800D01*
G75*
G02*
X180417700Y-121104800I0J150000D01*
G01*
X180417700Y-120804800D01*
G75*
G02*
X180567700Y-120654800I150000J0D01*
G01*
X182042700Y-120654800D01*
G75*
G02*
X182192700Y-120804800I0J-150000D01*
G01*
X182192700Y-121104800D01*
G75*
G02*
X182042700Y-121254800I-150000J0D01*
G01*
G37*
G36*
G01*
X179804200Y-123493300D02*
X179504200Y-123493300D01*
G75*
G02*
X179354200Y-123343300I0J150000D01*
G01*
X179354200Y-121868300D01*
G75*
G02*
X179504200Y-121718300I150000J0D01*
G01*
X179804200Y-121718300D01*
G75*
G02*
X179954200Y-121868300I0J-150000D01*
G01*
X179954200Y-123343300D01*
G75*
G02*
X179804200Y-123493300I-150000J0D01*
G01*
G37*
G36*
G01*
X178534200Y-123493300D02*
X178234200Y-123493300D01*
G75*
G02*
X178084200Y-123343300I0J150000D01*
G01*
X178084200Y-121868300D01*
G75*
G02*
X178234200Y-121718300I150000J0D01*
G01*
X178534200Y-121718300D01*
G75*
G02*
X178684200Y-121868300I0J-150000D01*
G01*
X178684200Y-123343300D01*
G75*
G02*
X178534200Y-123493300I-150000J0D01*
G01*
G37*
G36*
G01*
X177264200Y-123493300D02*
X176964200Y-123493300D01*
G75*
G02*
X176814200Y-123343300I0J150000D01*
G01*
X176814200Y-121868300D01*
G75*
G02*
X176964200Y-121718300I150000J0D01*
G01*
X177264200Y-121718300D01*
G75*
G02*
X177414200Y-121868300I0J-150000D01*
G01*
X177414200Y-123343300D01*
G75*
G02*
X177264200Y-123493300I-150000J0D01*
G01*
G37*
G36*
G01*
X175994200Y-123493300D02*
X175694200Y-123493300D01*
G75*
G02*
X175544200Y-123343300I0J150000D01*
G01*
X175544200Y-121868300D01*
G75*
G02*
X175694200Y-121718300I150000J0D01*
G01*
X175994200Y-121718300D01*
G75*
G02*
X176144200Y-121868300I0J-150000D01*
G01*
X176144200Y-123343300D01*
G75*
G02*
X175994200Y-123493300I-150000J0D01*
G01*
G37*
G36*
G01*
X174724200Y-123493300D02*
X174424200Y-123493300D01*
G75*
G02*
X174274200Y-123343300I0J150000D01*
G01*
X174274200Y-121868300D01*
G75*
G02*
X174424200Y-121718300I150000J0D01*
G01*
X174724200Y-121718300D01*
G75*
G02*
X174874200Y-121868300I0J-150000D01*
G01*
X174874200Y-123343300D01*
G75*
G02*
X174724200Y-123493300I-150000J0D01*
G01*
G37*
G36*
G01*
X173454200Y-123493300D02*
X173154200Y-123493300D01*
G75*
G02*
X173004200Y-123343300I0J150000D01*
G01*
X173004200Y-121868300D01*
G75*
G02*
X173154200Y-121718300I150000J0D01*
G01*
X173454200Y-121718300D01*
G75*
G02*
X173604200Y-121868300I0J-150000D01*
G01*
X173604200Y-123343300D01*
G75*
G02*
X173454200Y-123493300I-150000J0D01*
G01*
G37*
G36*
G01*
X172184200Y-123493300D02*
X171884200Y-123493300D01*
G75*
G02*
X171734200Y-123343300I0J150000D01*
G01*
X171734200Y-121868300D01*
G75*
G02*
X171884200Y-121718300I150000J0D01*
G01*
X172184200Y-121718300D01*
G75*
G02*
X172334200Y-121868300I0J-150000D01*
G01*
X172334200Y-123343300D01*
G75*
G02*
X172184200Y-123493300I-150000J0D01*
G01*
G37*
G36*
G01*
X170914200Y-123493300D02*
X170614200Y-123493300D01*
G75*
G02*
X170464200Y-123343300I0J150000D01*
G01*
X170464200Y-121868300D01*
G75*
G02*
X170614200Y-121718300I150000J0D01*
G01*
X170914200Y-121718300D01*
G75*
G02*
X171064200Y-121868300I0J-150000D01*
G01*
X171064200Y-123343300D01*
G75*
G02*
X170914200Y-123493300I-150000J0D01*
G01*
G37*
G36*
G01*
X169644200Y-123493300D02*
X169344200Y-123493300D01*
G75*
G02*
X169194200Y-123343300I0J150000D01*
G01*
X169194200Y-121868300D01*
G75*
G02*
X169344200Y-121718300I150000J0D01*
G01*
X169644200Y-121718300D01*
G75*
G02*
X169794200Y-121868300I0J-150000D01*
G01*
X169794200Y-123343300D01*
G75*
G02*
X169644200Y-123493300I-150000J0D01*
G01*
G37*
G36*
G01*
X168580700Y-121254800D02*
X167105700Y-121254800D01*
G75*
G02*
X166955700Y-121104800I0J150000D01*
G01*
X166955700Y-120804800D01*
G75*
G02*
X167105700Y-120654800I150000J0D01*
G01*
X168580700Y-120654800D01*
G75*
G02*
X168730700Y-120804800I0J-150000D01*
G01*
X168730700Y-121104800D01*
G75*
G02*
X168580700Y-121254800I-150000J0D01*
G01*
G37*
G36*
G01*
X168580700Y-119984800D02*
X167105700Y-119984800D01*
G75*
G02*
X166955700Y-119834800I0J150000D01*
G01*
X166955700Y-119534800D01*
G75*
G02*
X167105700Y-119384800I150000J0D01*
G01*
X168580700Y-119384800D01*
G75*
G02*
X168730700Y-119534800I0J-150000D01*
G01*
X168730700Y-119834800D01*
G75*
G02*
X168580700Y-119984800I-150000J0D01*
G01*
G37*
G36*
G01*
X168580700Y-118714800D02*
X167105700Y-118714800D01*
G75*
G02*
X166955700Y-118564800I0J150000D01*
G01*
X166955700Y-118264800D01*
G75*
G02*
X167105700Y-118114800I150000J0D01*
G01*
X168580700Y-118114800D01*
G75*
G02*
X168730700Y-118264800I0J-150000D01*
G01*
X168730700Y-118564800D01*
G75*
G02*
X168580700Y-118714800I-150000J0D01*
G01*
G37*
G36*
G01*
X168580700Y-117444800D02*
X167105700Y-117444800D01*
G75*
G02*
X166955700Y-117294800I0J150000D01*
G01*
X166955700Y-116994800D01*
G75*
G02*
X167105700Y-116844800I150000J0D01*
G01*
X168580700Y-116844800D01*
G75*
G02*
X168730700Y-116994800I0J-150000D01*
G01*
X168730700Y-117294800D01*
G75*
G02*
X168580700Y-117444800I-150000J0D01*
G01*
G37*
%TD*%
%TO.C,U7*%
G36*
G01*
X168580700Y-77439800D02*
X167105700Y-77439800D01*
G75*
G02*
X166955700Y-77289800I0J150000D01*
G01*
X166955700Y-76989800D01*
G75*
G02*
X167105700Y-76839800I150000J0D01*
G01*
X168580700Y-76839800D01*
G75*
G02*
X168730700Y-76989800I0J-150000D01*
G01*
X168730700Y-77289800D01*
G75*
G02*
X168580700Y-77439800I-150000J0D01*
G01*
G37*
G36*
G01*
X168580700Y-76169800D02*
X167105700Y-76169800D01*
G75*
G02*
X166955700Y-76019800I0J150000D01*
G01*
X166955700Y-75719800D01*
G75*
G02*
X167105700Y-75569800I150000J0D01*
G01*
X168580700Y-75569800D01*
G75*
G02*
X168730700Y-75719800I0J-150000D01*
G01*
X168730700Y-76019800D01*
G75*
G02*
X168580700Y-76169800I-150000J0D01*
G01*
G37*
G36*
G01*
X168580700Y-74899800D02*
X167105700Y-74899800D01*
G75*
G02*
X166955700Y-74749800I0J150000D01*
G01*
X166955700Y-74449800D01*
G75*
G02*
X167105700Y-74299800I150000J0D01*
G01*
X168580700Y-74299800D01*
G75*
G02*
X168730700Y-74449800I0J-150000D01*
G01*
X168730700Y-74749800D01*
G75*
G02*
X168580700Y-74899800I-150000J0D01*
G01*
G37*
G36*
G01*
X169644200Y-73836300D02*
X169344200Y-73836300D01*
G75*
G02*
X169194200Y-73686300I0J150000D01*
G01*
X169194200Y-72211300D01*
G75*
G02*
X169344200Y-72061300I150000J0D01*
G01*
X169644200Y-72061300D01*
G75*
G02*
X169794200Y-72211300I0J-150000D01*
G01*
X169794200Y-73686300D01*
G75*
G02*
X169644200Y-73836300I-150000J0D01*
G01*
G37*
G36*
G01*
X170914200Y-73836300D02*
X170614200Y-73836300D01*
G75*
G02*
X170464200Y-73686300I0J150000D01*
G01*
X170464200Y-72211300D01*
G75*
G02*
X170614200Y-72061300I150000J0D01*
G01*
X170914200Y-72061300D01*
G75*
G02*
X171064200Y-72211300I0J-150000D01*
G01*
X171064200Y-73686300D01*
G75*
G02*
X170914200Y-73836300I-150000J0D01*
G01*
G37*
G36*
G01*
X172184200Y-73836300D02*
X171884200Y-73836300D01*
G75*
G02*
X171734200Y-73686300I0J150000D01*
G01*
X171734200Y-72211300D01*
G75*
G02*
X171884200Y-72061300I150000J0D01*
G01*
X172184200Y-72061300D01*
G75*
G02*
X172334200Y-72211300I0J-150000D01*
G01*
X172334200Y-73686300D01*
G75*
G02*
X172184200Y-73836300I-150000J0D01*
G01*
G37*
G36*
G01*
X173454200Y-73836300D02*
X173154200Y-73836300D01*
G75*
G02*
X173004200Y-73686300I0J150000D01*
G01*
X173004200Y-72211300D01*
G75*
G02*
X173154200Y-72061300I150000J0D01*
G01*
X173454200Y-72061300D01*
G75*
G02*
X173604200Y-72211300I0J-150000D01*
G01*
X173604200Y-73686300D01*
G75*
G02*
X173454200Y-73836300I-150000J0D01*
G01*
G37*
G36*
G01*
X174724200Y-73836300D02*
X174424200Y-73836300D01*
G75*
G02*
X174274200Y-73686300I0J150000D01*
G01*
X174274200Y-72211300D01*
G75*
G02*
X174424200Y-72061300I150000J0D01*
G01*
X174724200Y-72061300D01*
G75*
G02*
X174874200Y-72211300I0J-150000D01*
G01*
X174874200Y-73686300D01*
G75*
G02*
X174724200Y-73836300I-150000J0D01*
G01*
G37*
G36*
G01*
X175994200Y-73836300D02*
X175694200Y-73836300D01*
G75*
G02*
X175544200Y-73686300I0J150000D01*
G01*
X175544200Y-72211300D01*
G75*
G02*
X175694200Y-72061300I150000J0D01*
G01*
X175994200Y-72061300D01*
G75*
G02*
X176144200Y-72211300I0J-150000D01*
G01*
X176144200Y-73686300D01*
G75*
G02*
X175994200Y-73836300I-150000J0D01*
G01*
G37*
G36*
G01*
X177264200Y-73836300D02*
X176964200Y-73836300D01*
G75*
G02*
X176814200Y-73686300I0J150000D01*
G01*
X176814200Y-72211300D01*
G75*
G02*
X176964200Y-72061300I150000J0D01*
G01*
X177264200Y-72061300D01*
G75*
G02*
X177414200Y-72211300I0J-150000D01*
G01*
X177414200Y-73686300D01*
G75*
G02*
X177264200Y-73836300I-150000J0D01*
G01*
G37*
G36*
G01*
X178534200Y-73836300D02*
X178234200Y-73836300D01*
G75*
G02*
X178084200Y-73686300I0J150000D01*
G01*
X178084200Y-72211300D01*
G75*
G02*
X178234200Y-72061300I150000J0D01*
G01*
X178534200Y-72061300D01*
G75*
G02*
X178684200Y-72211300I0J-150000D01*
G01*
X178684200Y-73686300D01*
G75*
G02*
X178534200Y-73836300I-150000J0D01*
G01*
G37*
G36*
G01*
X179804200Y-73836300D02*
X179504200Y-73836300D01*
G75*
G02*
X179354200Y-73686300I0J150000D01*
G01*
X179354200Y-72211300D01*
G75*
G02*
X179504200Y-72061300I150000J0D01*
G01*
X179804200Y-72061300D01*
G75*
G02*
X179954200Y-72211300I0J-150000D01*
G01*
X179954200Y-73686300D01*
G75*
G02*
X179804200Y-73836300I-150000J0D01*
G01*
G37*
G36*
G01*
X182042700Y-74899800D02*
X180567700Y-74899800D01*
G75*
G02*
X180417700Y-74749800I0J150000D01*
G01*
X180417700Y-74449800D01*
G75*
G02*
X180567700Y-74299800I150000J0D01*
G01*
X182042700Y-74299800D01*
G75*
G02*
X182192700Y-74449800I0J-150000D01*
G01*
X182192700Y-74749800D01*
G75*
G02*
X182042700Y-74899800I-150000J0D01*
G01*
G37*
G36*
G01*
X182042700Y-76169800D02*
X180567700Y-76169800D01*
G75*
G02*
X180417700Y-76019800I0J150000D01*
G01*
X180417700Y-75719800D01*
G75*
G02*
X180567700Y-75569800I150000J0D01*
G01*
X182042700Y-75569800D01*
G75*
G02*
X182192700Y-75719800I0J-150000D01*
G01*
X182192700Y-76019800D01*
G75*
G02*
X182042700Y-76169800I-150000J0D01*
G01*
G37*
G36*
G01*
X182042700Y-77439800D02*
X180567700Y-77439800D01*
G75*
G02*
X180417700Y-77289800I0J150000D01*
G01*
X180417700Y-76989800D01*
G75*
G02*
X180567700Y-76839800I150000J0D01*
G01*
X182042700Y-76839800D01*
G75*
G02*
X182192700Y-76989800I0J-150000D01*
G01*
X182192700Y-77289800D01*
G75*
G02*
X182042700Y-77439800I-150000J0D01*
G01*
G37*
G36*
G01*
X182042700Y-78709800D02*
X180567700Y-78709800D01*
G75*
G02*
X180417700Y-78559800I0J150000D01*
G01*
X180417700Y-78259800D01*
G75*
G02*
X180567700Y-78109800I150000J0D01*
G01*
X182042700Y-78109800D01*
G75*
G02*
X182192700Y-78259800I0J-150000D01*
G01*
X182192700Y-78559800D01*
G75*
G02*
X182042700Y-78709800I-150000J0D01*
G01*
G37*
G36*
G01*
X182042700Y-79979800D02*
X180567700Y-79979800D01*
G75*
G02*
X180417700Y-79829800I0J150000D01*
G01*
X180417700Y-79529800D01*
G75*
G02*
X180567700Y-79379800I150000J0D01*
G01*
X182042700Y-79379800D01*
G75*
G02*
X182192700Y-79529800I0J-150000D01*
G01*
X182192700Y-79829800D01*
G75*
G02*
X182042700Y-79979800I-150000J0D01*
G01*
G37*
G36*
G01*
X182042700Y-81249800D02*
X180567700Y-81249800D01*
G75*
G02*
X180417700Y-81099800I0J150000D01*
G01*
X180417700Y-80799800D01*
G75*
G02*
X180567700Y-80649800I150000J0D01*
G01*
X182042700Y-80649800D01*
G75*
G02*
X182192700Y-80799800I0J-150000D01*
G01*
X182192700Y-81099800D01*
G75*
G02*
X182042700Y-81249800I-150000J0D01*
G01*
G37*
G36*
G01*
X182042700Y-82519800D02*
X180567700Y-82519800D01*
G75*
G02*
X180417700Y-82369800I0J150000D01*
G01*
X180417700Y-82069800D01*
G75*
G02*
X180567700Y-81919800I150000J0D01*
G01*
X182042700Y-81919800D01*
G75*
G02*
X182192700Y-82069800I0J-150000D01*
G01*
X182192700Y-82369800D01*
G75*
G02*
X182042700Y-82519800I-150000J0D01*
G01*
G37*
G36*
G01*
X179804200Y-84758300D02*
X179504200Y-84758300D01*
G75*
G02*
X179354200Y-84608300I0J150000D01*
G01*
X179354200Y-83133300D01*
G75*
G02*
X179504200Y-82983300I150000J0D01*
G01*
X179804200Y-82983300D01*
G75*
G02*
X179954200Y-83133300I0J-150000D01*
G01*
X179954200Y-84608300D01*
G75*
G02*
X179804200Y-84758300I-150000J0D01*
G01*
G37*
G36*
G01*
X178534200Y-84758300D02*
X178234200Y-84758300D01*
G75*
G02*
X178084200Y-84608300I0J150000D01*
G01*
X178084200Y-83133300D01*
G75*
G02*
X178234200Y-82983300I150000J0D01*
G01*
X178534200Y-82983300D01*
G75*
G02*
X178684200Y-83133300I0J-150000D01*
G01*
X178684200Y-84608300D01*
G75*
G02*
X178534200Y-84758300I-150000J0D01*
G01*
G37*
G36*
G01*
X177264200Y-84758300D02*
X176964200Y-84758300D01*
G75*
G02*
X176814200Y-84608300I0J150000D01*
G01*
X176814200Y-83133300D01*
G75*
G02*
X176964200Y-82983300I150000J0D01*
G01*
X177264200Y-82983300D01*
G75*
G02*
X177414200Y-83133300I0J-150000D01*
G01*
X177414200Y-84608300D01*
G75*
G02*
X177264200Y-84758300I-150000J0D01*
G01*
G37*
G36*
G01*
X175994200Y-84758300D02*
X175694200Y-84758300D01*
G75*
G02*
X175544200Y-84608300I0J150000D01*
G01*
X175544200Y-83133300D01*
G75*
G02*
X175694200Y-82983300I150000J0D01*
G01*
X175994200Y-82983300D01*
G75*
G02*
X176144200Y-83133300I0J-150000D01*
G01*
X176144200Y-84608300D01*
G75*
G02*
X175994200Y-84758300I-150000J0D01*
G01*
G37*
G36*
G01*
X174724200Y-84758300D02*
X174424200Y-84758300D01*
G75*
G02*
X174274200Y-84608300I0J150000D01*
G01*
X174274200Y-83133300D01*
G75*
G02*
X174424200Y-82983300I150000J0D01*
G01*
X174724200Y-82983300D01*
G75*
G02*
X174874200Y-83133300I0J-150000D01*
G01*
X174874200Y-84608300D01*
G75*
G02*
X174724200Y-84758300I-150000J0D01*
G01*
G37*
G36*
G01*
X173454200Y-84758300D02*
X173154200Y-84758300D01*
G75*
G02*
X173004200Y-84608300I0J150000D01*
G01*
X173004200Y-83133300D01*
G75*
G02*
X173154200Y-82983300I150000J0D01*
G01*
X173454200Y-82983300D01*
G75*
G02*
X173604200Y-83133300I0J-150000D01*
G01*
X173604200Y-84608300D01*
G75*
G02*
X173454200Y-84758300I-150000J0D01*
G01*
G37*
G36*
G01*
X172184200Y-84758300D02*
X171884200Y-84758300D01*
G75*
G02*
X171734200Y-84608300I0J150000D01*
G01*
X171734200Y-83133300D01*
G75*
G02*
X171884200Y-82983300I150000J0D01*
G01*
X172184200Y-82983300D01*
G75*
G02*
X172334200Y-83133300I0J-150000D01*
G01*
X172334200Y-84608300D01*
G75*
G02*
X172184200Y-84758300I-150000J0D01*
G01*
G37*
G36*
G01*
X170914200Y-84758300D02*
X170614200Y-84758300D01*
G75*
G02*
X170464200Y-84608300I0J150000D01*
G01*
X170464200Y-83133300D01*
G75*
G02*
X170614200Y-82983300I150000J0D01*
G01*
X170914200Y-82983300D01*
G75*
G02*
X171064200Y-83133300I0J-150000D01*
G01*
X171064200Y-84608300D01*
G75*
G02*
X170914200Y-84758300I-150000J0D01*
G01*
G37*
G36*
G01*
X169644200Y-84758300D02*
X169344200Y-84758300D01*
G75*
G02*
X169194200Y-84608300I0J150000D01*
G01*
X169194200Y-83133300D01*
G75*
G02*
X169344200Y-82983300I150000J0D01*
G01*
X169644200Y-82983300D01*
G75*
G02*
X169794200Y-83133300I0J-150000D01*
G01*
X169794200Y-84608300D01*
G75*
G02*
X169644200Y-84758300I-150000J0D01*
G01*
G37*
G36*
G01*
X168580700Y-82519800D02*
X167105700Y-82519800D01*
G75*
G02*
X166955700Y-82369800I0J150000D01*
G01*
X166955700Y-82069800D01*
G75*
G02*
X167105700Y-81919800I150000J0D01*
G01*
X168580700Y-81919800D01*
G75*
G02*
X168730700Y-82069800I0J-150000D01*
G01*
X168730700Y-82369800D01*
G75*
G02*
X168580700Y-82519800I-150000J0D01*
G01*
G37*
G36*
G01*
X168580700Y-81249800D02*
X167105700Y-81249800D01*
G75*
G02*
X166955700Y-81099800I0J150000D01*
G01*
X166955700Y-80799800D01*
G75*
G02*
X167105700Y-80649800I150000J0D01*
G01*
X168580700Y-80649800D01*
G75*
G02*
X168730700Y-80799800I0J-150000D01*
G01*
X168730700Y-81099800D01*
G75*
G02*
X168580700Y-81249800I-150000J0D01*
G01*
G37*
G36*
G01*
X168580700Y-79979800D02*
X167105700Y-79979800D01*
G75*
G02*
X166955700Y-79829800I0J150000D01*
G01*
X166955700Y-79529800D01*
G75*
G02*
X167105700Y-79379800I150000J0D01*
G01*
X168580700Y-79379800D01*
G75*
G02*
X168730700Y-79529800I0J-150000D01*
G01*
X168730700Y-79829800D01*
G75*
G02*
X168580700Y-79979800I-150000J0D01*
G01*
G37*
G36*
G01*
X168580700Y-78709800D02*
X167105700Y-78709800D01*
G75*
G02*
X166955700Y-78559800I0J150000D01*
G01*
X166955700Y-78259800D01*
G75*
G02*
X167105700Y-78109800I150000J0D01*
G01*
X168580700Y-78109800D01*
G75*
G02*
X168730700Y-78259800I0J-150000D01*
G01*
X168730700Y-78559800D01*
G75*
G02*
X168580700Y-78709800I-150000J0D01*
G01*
G37*
%TD*%
%TO.C,U4*%
G36*
G01*
X168580700Y-96489800D02*
X167105700Y-96489800D01*
G75*
G02*
X166955700Y-96339800I0J150000D01*
G01*
X166955700Y-96039800D01*
G75*
G02*
X167105700Y-95889800I150000J0D01*
G01*
X168580700Y-95889800D01*
G75*
G02*
X168730700Y-96039800I0J-150000D01*
G01*
X168730700Y-96339800D01*
G75*
G02*
X168580700Y-96489800I-150000J0D01*
G01*
G37*
G36*
G01*
X168580700Y-95219800D02*
X167105700Y-95219800D01*
G75*
G02*
X166955700Y-95069800I0J150000D01*
G01*
X166955700Y-94769800D01*
G75*
G02*
X167105700Y-94619800I150000J0D01*
G01*
X168580700Y-94619800D01*
G75*
G02*
X168730700Y-94769800I0J-150000D01*
G01*
X168730700Y-95069800D01*
G75*
G02*
X168580700Y-95219800I-150000J0D01*
G01*
G37*
G36*
G01*
X168580700Y-93949800D02*
X167105700Y-93949800D01*
G75*
G02*
X166955700Y-93799800I0J150000D01*
G01*
X166955700Y-93499800D01*
G75*
G02*
X167105700Y-93349800I150000J0D01*
G01*
X168580700Y-93349800D01*
G75*
G02*
X168730700Y-93499800I0J-150000D01*
G01*
X168730700Y-93799800D01*
G75*
G02*
X168580700Y-93949800I-150000J0D01*
G01*
G37*
G36*
G01*
X169644200Y-92886300D02*
X169344200Y-92886300D01*
G75*
G02*
X169194200Y-92736300I0J150000D01*
G01*
X169194200Y-91261300D01*
G75*
G02*
X169344200Y-91111300I150000J0D01*
G01*
X169644200Y-91111300D01*
G75*
G02*
X169794200Y-91261300I0J-150000D01*
G01*
X169794200Y-92736300D01*
G75*
G02*
X169644200Y-92886300I-150000J0D01*
G01*
G37*
G36*
G01*
X170914200Y-92886300D02*
X170614200Y-92886300D01*
G75*
G02*
X170464200Y-92736300I0J150000D01*
G01*
X170464200Y-91261300D01*
G75*
G02*
X170614200Y-91111300I150000J0D01*
G01*
X170914200Y-91111300D01*
G75*
G02*
X171064200Y-91261300I0J-150000D01*
G01*
X171064200Y-92736300D01*
G75*
G02*
X170914200Y-92886300I-150000J0D01*
G01*
G37*
G36*
G01*
X172184200Y-92886300D02*
X171884200Y-92886300D01*
G75*
G02*
X171734200Y-92736300I0J150000D01*
G01*
X171734200Y-91261300D01*
G75*
G02*
X171884200Y-91111300I150000J0D01*
G01*
X172184200Y-91111300D01*
G75*
G02*
X172334200Y-91261300I0J-150000D01*
G01*
X172334200Y-92736300D01*
G75*
G02*
X172184200Y-92886300I-150000J0D01*
G01*
G37*
G36*
G01*
X173454200Y-92886300D02*
X173154200Y-92886300D01*
G75*
G02*
X173004200Y-92736300I0J150000D01*
G01*
X173004200Y-91261300D01*
G75*
G02*
X173154200Y-91111300I150000J0D01*
G01*
X173454200Y-91111300D01*
G75*
G02*
X173604200Y-91261300I0J-150000D01*
G01*
X173604200Y-92736300D01*
G75*
G02*
X173454200Y-92886300I-150000J0D01*
G01*
G37*
G36*
G01*
X174724200Y-92886300D02*
X174424200Y-92886300D01*
G75*
G02*
X174274200Y-92736300I0J150000D01*
G01*
X174274200Y-91261300D01*
G75*
G02*
X174424200Y-91111300I150000J0D01*
G01*
X174724200Y-91111300D01*
G75*
G02*
X174874200Y-91261300I0J-150000D01*
G01*
X174874200Y-92736300D01*
G75*
G02*
X174724200Y-92886300I-150000J0D01*
G01*
G37*
G36*
G01*
X175994200Y-92886300D02*
X175694200Y-92886300D01*
G75*
G02*
X175544200Y-92736300I0J150000D01*
G01*
X175544200Y-91261300D01*
G75*
G02*
X175694200Y-91111300I150000J0D01*
G01*
X175994200Y-91111300D01*
G75*
G02*
X176144200Y-91261300I0J-150000D01*
G01*
X176144200Y-92736300D01*
G75*
G02*
X175994200Y-92886300I-150000J0D01*
G01*
G37*
G36*
G01*
X177264200Y-92886300D02*
X176964200Y-92886300D01*
G75*
G02*
X176814200Y-92736300I0J150000D01*
G01*
X176814200Y-91261300D01*
G75*
G02*
X176964200Y-91111300I150000J0D01*
G01*
X177264200Y-91111300D01*
G75*
G02*
X177414200Y-91261300I0J-150000D01*
G01*
X177414200Y-92736300D01*
G75*
G02*
X177264200Y-92886300I-150000J0D01*
G01*
G37*
G36*
G01*
X178534200Y-92886300D02*
X178234200Y-92886300D01*
G75*
G02*
X178084200Y-92736300I0J150000D01*
G01*
X178084200Y-91261300D01*
G75*
G02*
X178234200Y-91111300I150000J0D01*
G01*
X178534200Y-91111300D01*
G75*
G02*
X178684200Y-91261300I0J-150000D01*
G01*
X178684200Y-92736300D01*
G75*
G02*
X178534200Y-92886300I-150000J0D01*
G01*
G37*
G36*
G01*
X179804200Y-92886300D02*
X179504200Y-92886300D01*
G75*
G02*
X179354200Y-92736300I0J150000D01*
G01*
X179354200Y-91261300D01*
G75*
G02*
X179504200Y-91111300I150000J0D01*
G01*
X179804200Y-91111300D01*
G75*
G02*
X179954200Y-91261300I0J-150000D01*
G01*
X179954200Y-92736300D01*
G75*
G02*
X179804200Y-92886300I-150000J0D01*
G01*
G37*
G36*
G01*
X182042700Y-93949800D02*
X180567700Y-93949800D01*
G75*
G02*
X180417700Y-93799800I0J150000D01*
G01*
X180417700Y-93499800D01*
G75*
G02*
X180567700Y-93349800I150000J0D01*
G01*
X182042700Y-93349800D01*
G75*
G02*
X182192700Y-93499800I0J-150000D01*
G01*
X182192700Y-93799800D01*
G75*
G02*
X182042700Y-93949800I-150000J0D01*
G01*
G37*
G36*
G01*
X182042700Y-95219800D02*
X180567700Y-95219800D01*
G75*
G02*
X180417700Y-95069800I0J150000D01*
G01*
X180417700Y-94769800D01*
G75*
G02*
X180567700Y-94619800I150000J0D01*
G01*
X182042700Y-94619800D01*
G75*
G02*
X182192700Y-94769800I0J-150000D01*
G01*
X182192700Y-95069800D01*
G75*
G02*
X182042700Y-95219800I-150000J0D01*
G01*
G37*
G36*
G01*
X182042700Y-96489800D02*
X180567700Y-96489800D01*
G75*
G02*
X180417700Y-96339800I0J150000D01*
G01*
X180417700Y-96039800D01*
G75*
G02*
X180567700Y-95889800I150000J0D01*
G01*
X182042700Y-95889800D01*
G75*
G02*
X182192700Y-96039800I0J-150000D01*
G01*
X182192700Y-96339800D01*
G75*
G02*
X182042700Y-96489800I-150000J0D01*
G01*
G37*
G36*
G01*
X182042700Y-97759800D02*
X180567700Y-97759800D01*
G75*
G02*
X180417700Y-97609800I0J150000D01*
G01*
X180417700Y-97309800D01*
G75*
G02*
X180567700Y-97159800I150000J0D01*
G01*
X182042700Y-97159800D01*
G75*
G02*
X182192700Y-97309800I0J-150000D01*
G01*
X182192700Y-97609800D01*
G75*
G02*
X182042700Y-97759800I-150000J0D01*
G01*
G37*
G36*
G01*
X182042700Y-99029800D02*
X180567700Y-99029800D01*
G75*
G02*
X180417700Y-98879800I0J150000D01*
G01*
X180417700Y-98579800D01*
G75*
G02*
X180567700Y-98429800I150000J0D01*
G01*
X182042700Y-98429800D01*
G75*
G02*
X182192700Y-98579800I0J-150000D01*
G01*
X182192700Y-98879800D01*
G75*
G02*
X182042700Y-99029800I-150000J0D01*
G01*
G37*
G36*
G01*
X182042700Y-100299800D02*
X180567700Y-100299800D01*
G75*
G02*
X180417700Y-100149800I0J150000D01*
G01*
X180417700Y-99849800D01*
G75*
G02*
X180567700Y-99699800I150000J0D01*
G01*
X182042700Y-99699800D01*
G75*
G02*
X182192700Y-99849800I0J-150000D01*
G01*
X182192700Y-100149800D01*
G75*
G02*
X182042700Y-100299800I-150000J0D01*
G01*
G37*
G36*
G01*
X182042700Y-101569800D02*
X180567700Y-101569800D01*
G75*
G02*
X180417700Y-101419800I0J150000D01*
G01*
X180417700Y-101119800D01*
G75*
G02*
X180567700Y-100969800I150000J0D01*
G01*
X182042700Y-100969800D01*
G75*
G02*
X182192700Y-101119800I0J-150000D01*
G01*
X182192700Y-101419800D01*
G75*
G02*
X182042700Y-101569800I-150000J0D01*
G01*
G37*
G36*
G01*
X179804200Y-103808300D02*
X179504200Y-103808300D01*
G75*
G02*
X179354200Y-103658300I0J150000D01*
G01*
X179354200Y-102183300D01*
G75*
G02*
X179504200Y-102033300I150000J0D01*
G01*
X179804200Y-102033300D01*
G75*
G02*
X179954200Y-102183300I0J-150000D01*
G01*
X179954200Y-103658300D01*
G75*
G02*
X179804200Y-103808300I-150000J0D01*
G01*
G37*
G36*
G01*
X178534200Y-103808300D02*
X178234200Y-103808300D01*
G75*
G02*
X178084200Y-103658300I0J150000D01*
G01*
X178084200Y-102183300D01*
G75*
G02*
X178234200Y-102033300I150000J0D01*
G01*
X178534200Y-102033300D01*
G75*
G02*
X178684200Y-102183300I0J-150000D01*
G01*
X178684200Y-103658300D01*
G75*
G02*
X178534200Y-103808300I-150000J0D01*
G01*
G37*
G36*
G01*
X177264200Y-103808300D02*
X176964200Y-103808300D01*
G75*
G02*
X176814200Y-103658300I0J150000D01*
G01*
X176814200Y-102183300D01*
G75*
G02*
X176964200Y-102033300I150000J0D01*
G01*
X177264200Y-102033300D01*
G75*
G02*
X177414200Y-102183300I0J-150000D01*
G01*
X177414200Y-103658300D01*
G75*
G02*
X177264200Y-103808300I-150000J0D01*
G01*
G37*
G36*
G01*
X175994200Y-103808300D02*
X175694200Y-103808300D01*
G75*
G02*
X175544200Y-103658300I0J150000D01*
G01*
X175544200Y-102183300D01*
G75*
G02*
X175694200Y-102033300I150000J0D01*
G01*
X175994200Y-102033300D01*
G75*
G02*
X176144200Y-102183300I0J-150000D01*
G01*
X176144200Y-103658300D01*
G75*
G02*
X175994200Y-103808300I-150000J0D01*
G01*
G37*
G36*
G01*
X174724200Y-103808300D02*
X174424200Y-103808300D01*
G75*
G02*
X174274200Y-103658300I0J150000D01*
G01*
X174274200Y-102183300D01*
G75*
G02*
X174424200Y-102033300I150000J0D01*
G01*
X174724200Y-102033300D01*
G75*
G02*
X174874200Y-102183300I0J-150000D01*
G01*
X174874200Y-103658300D01*
G75*
G02*
X174724200Y-103808300I-150000J0D01*
G01*
G37*
G36*
G01*
X173454200Y-103808300D02*
X173154200Y-103808300D01*
G75*
G02*
X173004200Y-103658300I0J150000D01*
G01*
X173004200Y-102183300D01*
G75*
G02*
X173154200Y-102033300I150000J0D01*
G01*
X173454200Y-102033300D01*
G75*
G02*
X173604200Y-102183300I0J-150000D01*
G01*
X173604200Y-103658300D01*
G75*
G02*
X173454200Y-103808300I-150000J0D01*
G01*
G37*
G36*
G01*
X172184200Y-103808300D02*
X171884200Y-103808300D01*
G75*
G02*
X171734200Y-103658300I0J150000D01*
G01*
X171734200Y-102183300D01*
G75*
G02*
X171884200Y-102033300I150000J0D01*
G01*
X172184200Y-102033300D01*
G75*
G02*
X172334200Y-102183300I0J-150000D01*
G01*
X172334200Y-103658300D01*
G75*
G02*
X172184200Y-103808300I-150000J0D01*
G01*
G37*
G36*
G01*
X170914200Y-103808300D02*
X170614200Y-103808300D01*
G75*
G02*
X170464200Y-103658300I0J150000D01*
G01*
X170464200Y-102183300D01*
G75*
G02*
X170614200Y-102033300I150000J0D01*
G01*
X170914200Y-102033300D01*
G75*
G02*
X171064200Y-102183300I0J-150000D01*
G01*
X171064200Y-103658300D01*
G75*
G02*
X170914200Y-103808300I-150000J0D01*
G01*
G37*
G36*
G01*
X169644200Y-103808300D02*
X169344200Y-103808300D01*
G75*
G02*
X169194200Y-103658300I0J150000D01*
G01*
X169194200Y-102183300D01*
G75*
G02*
X169344200Y-102033300I150000J0D01*
G01*
X169644200Y-102033300D01*
G75*
G02*
X169794200Y-102183300I0J-150000D01*
G01*
X169794200Y-103658300D01*
G75*
G02*
X169644200Y-103808300I-150000J0D01*
G01*
G37*
G36*
G01*
X168580700Y-101569800D02*
X167105700Y-101569800D01*
G75*
G02*
X166955700Y-101419800I0J150000D01*
G01*
X166955700Y-101119800D01*
G75*
G02*
X167105700Y-100969800I150000J0D01*
G01*
X168580700Y-100969800D01*
G75*
G02*
X168730700Y-101119800I0J-150000D01*
G01*
X168730700Y-101419800D01*
G75*
G02*
X168580700Y-101569800I-150000J0D01*
G01*
G37*
G36*
G01*
X168580700Y-100299800D02*
X167105700Y-100299800D01*
G75*
G02*
X166955700Y-100149800I0J150000D01*
G01*
X166955700Y-99849800D01*
G75*
G02*
X167105700Y-99699800I150000J0D01*
G01*
X168580700Y-99699800D01*
G75*
G02*
X168730700Y-99849800I0J-150000D01*
G01*
X168730700Y-100149800D01*
G75*
G02*
X168580700Y-100299800I-150000J0D01*
G01*
G37*
G36*
G01*
X168580700Y-99029800D02*
X167105700Y-99029800D01*
G75*
G02*
X166955700Y-98879800I0J150000D01*
G01*
X166955700Y-98579800D01*
G75*
G02*
X167105700Y-98429800I150000J0D01*
G01*
X168580700Y-98429800D01*
G75*
G02*
X168730700Y-98579800I0J-150000D01*
G01*
X168730700Y-98879800D01*
G75*
G02*
X168580700Y-99029800I-150000J0D01*
G01*
G37*
G36*
G01*
X168580700Y-97759800D02*
X167105700Y-97759800D01*
G75*
G02*
X166955700Y-97609800I0J150000D01*
G01*
X166955700Y-97309800D01*
G75*
G02*
X167105700Y-97159800I150000J0D01*
G01*
X168580700Y-97159800D01*
G75*
G02*
X168730700Y-97309800I0J-150000D01*
G01*
X168730700Y-97609800D01*
G75*
G02*
X168580700Y-97759800I-150000J0D01*
G01*
G37*
%TD*%
%TO.C,U3*%
G36*
G01*
X125654700Y-67914800D02*
X124179700Y-67914800D01*
G75*
G02*
X124029700Y-67764800I0J150000D01*
G01*
X124029700Y-67464800D01*
G75*
G02*
X124179700Y-67314800I150000J0D01*
G01*
X125654700Y-67314800D01*
G75*
G02*
X125804700Y-67464800I0J-150000D01*
G01*
X125804700Y-67764800D01*
G75*
G02*
X125654700Y-67914800I-150000J0D01*
G01*
G37*
G36*
G01*
X125654700Y-66644800D02*
X124179700Y-66644800D01*
G75*
G02*
X124029700Y-66494800I0J150000D01*
G01*
X124029700Y-66194800D01*
G75*
G02*
X124179700Y-66044800I150000J0D01*
G01*
X125654700Y-66044800D01*
G75*
G02*
X125804700Y-66194800I0J-150000D01*
G01*
X125804700Y-66494800D01*
G75*
G02*
X125654700Y-66644800I-150000J0D01*
G01*
G37*
G36*
G01*
X125654700Y-65374800D02*
X124179700Y-65374800D01*
G75*
G02*
X124029700Y-65224800I0J150000D01*
G01*
X124029700Y-64924800D01*
G75*
G02*
X124179700Y-64774800I150000J0D01*
G01*
X125654700Y-64774800D01*
G75*
G02*
X125804700Y-64924800I0J-150000D01*
G01*
X125804700Y-65224800D01*
G75*
G02*
X125654700Y-65374800I-150000J0D01*
G01*
G37*
G36*
G01*
X126718200Y-64311300D02*
X126418200Y-64311300D01*
G75*
G02*
X126268200Y-64161300I0J150000D01*
G01*
X126268200Y-62686300D01*
G75*
G02*
X126418200Y-62536300I150000J0D01*
G01*
X126718200Y-62536300D01*
G75*
G02*
X126868200Y-62686300I0J-150000D01*
G01*
X126868200Y-64161300D01*
G75*
G02*
X126718200Y-64311300I-150000J0D01*
G01*
G37*
G36*
G01*
X127988200Y-64311300D02*
X127688200Y-64311300D01*
G75*
G02*
X127538200Y-64161300I0J150000D01*
G01*
X127538200Y-62686300D01*
G75*
G02*
X127688200Y-62536300I150000J0D01*
G01*
X127988200Y-62536300D01*
G75*
G02*
X128138200Y-62686300I0J-150000D01*
G01*
X128138200Y-64161300D01*
G75*
G02*
X127988200Y-64311300I-150000J0D01*
G01*
G37*
G36*
G01*
X129258200Y-64311300D02*
X128958200Y-64311300D01*
G75*
G02*
X128808200Y-64161300I0J150000D01*
G01*
X128808200Y-62686300D01*
G75*
G02*
X128958200Y-62536300I150000J0D01*
G01*
X129258200Y-62536300D01*
G75*
G02*
X129408200Y-62686300I0J-150000D01*
G01*
X129408200Y-64161300D01*
G75*
G02*
X129258200Y-64311300I-150000J0D01*
G01*
G37*
G36*
G01*
X130528200Y-64311300D02*
X130228200Y-64311300D01*
G75*
G02*
X130078200Y-64161300I0J150000D01*
G01*
X130078200Y-62686300D01*
G75*
G02*
X130228200Y-62536300I150000J0D01*
G01*
X130528200Y-62536300D01*
G75*
G02*
X130678200Y-62686300I0J-150000D01*
G01*
X130678200Y-64161300D01*
G75*
G02*
X130528200Y-64311300I-150000J0D01*
G01*
G37*
G36*
G01*
X131798200Y-64311300D02*
X131498200Y-64311300D01*
G75*
G02*
X131348200Y-64161300I0J150000D01*
G01*
X131348200Y-62686300D01*
G75*
G02*
X131498200Y-62536300I150000J0D01*
G01*
X131798200Y-62536300D01*
G75*
G02*
X131948200Y-62686300I0J-150000D01*
G01*
X131948200Y-64161300D01*
G75*
G02*
X131798200Y-64311300I-150000J0D01*
G01*
G37*
G36*
G01*
X133068200Y-64311300D02*
X132768200Y-64311300D01*
G75*
G02*
X132618200Y-64161300I0J150000D01*
G01*
X132618200Y-62686300D01*
G75*
G02*
X132768200Y-62536300I150000J0D01*
G01*
X133068200Y-62536300D01*
G75*
G02*
X133218200Y-62686300I0J-150000D01*
G01*
X133218200Y-64161300D01*
G75*
G02*
X133068200Y-64311300I-150000J0D01*
G01*
G37*
G36*
G01*
X134338200Y-64311300D02*
X134038200Y-64311300D01*
G75*
G02*
X133888200Y-64161300I0J150000D01*
G01*
X133888200Y-62686300D01*
G75*
G02*
X134038200Y-62536300I150000J0D01*
G01*
X134338200Y-62536300D01*
G75*
G02*
X134488200Y-62686300I0J-150000D01*
G01*
X134488200Y-64161300D01*
G75*
G02*
X134338200Y-64311300I-150000J0D01*
G01*
G37*
G36*
G01*
X135608200Y-64311300D02*
X135308200Y-64311300D01*
G75*
G02*
X135158200Y-64161300I0J150000D01*
G01*
X135158200Y-62686300D01*
G75*
G02*
X135308200Y-62536300I150000J0D01*
G01*
X135608200Y-62536300D01*
G75*
G02*
X135758200Y-62686300I0J-150000D01*
G01*
X135758200Y-64161300D01*
G75*
G02*
X135608200Y-64311300I-150000J0D01*
G01*
G37*
G36*
G01*
X136878200Y-64311300D02*
X136578200Y-64311300D01*
G75*
G02*
X136428200Y-64161300I0J150000D01*
G01*
X136428200Y-62686300D01*
G75*
G02*
X136578200Y-62536300I150000J0D01*
G01*
X136878200Y-62536300D01*
G75*
G02*
X137028200Y-62686300I0J-150000D01*
G01*
X137028200Y-64161300D01*
G75*
G02*
X136878200Y-64311300I-150000J0D01*
G01*
G37*
G36*
G01*
X139116700Y-65374800D02*
X137641700Y-65374800D01*
G75*
G02*
X137491700Y-65224800I0J150000D01*
G01*
X137491700Y-64924800D01*
G75*
G02*
X137641700Y-64774800I150000J0D01*
G01*
X139116700Y-64774800D01*
G75*
G02*
X139266700Y-64924800I0J-150000D01*
G01*
X139266700Y-65224800D01*
G75*
G02*
X139116700Y-65374800I-150000J0D01*
G01*
G37*
G36*
G01*
X139116700Y-66644800D02*
X137641700Y-66644800D01*
G75*
G02*
X137491700Y-66494800I0J150000D01*
G01*
X137491700Y-66194800D01*
G75*
G02*
X137641700Y-66044800I150000J0D01*
G01*
X139116700Y-66044800D01*
G75*
G02*
X139266700Y-66194800I0J-150000D01*
G01*
X139266700Y-66494800D01*
G75*
G02*
X139116700Y-66644800I-150000J0D01*
G01*
G37*
G36*
G01*
X139116700Y-67914800D02*
X137641700Y-67914800D01*
G75*
G02*
X137491700Y-67764800I0J150000D01*
G01*
X137491700Y-67464800D01*
G75*
G02*
X137641700Y-67314800I150000J0D01*
G01*
X139116700Y-67314800D01*
G75*
G02*
X139266700Y-67464800I0J-150000D01*
G01*
X139266700Y-67764800D01*
G75*
G02*
X139116700Y-67914800I-150000J0D01*
G01*
G37*
G36*
G01*
X139116700Y-69184800D02*
X137641700Y-69184800D01*
G75*
G02*
X137491700Y-69034800I0J150000D01*
G01*
X137491700Y-68734800D01*
G75*
G02*
X137641700Y-68584800I150000J0D01*
G01*
X139116700Y-68584800D01*
G75*
G02*
X139266700Y-68734800I0J-150000D01*
G01*
X139266700Y-69034800D01*
G75*
G02*
X139116700Y-69184800I-150000J0D01*
G01*
G37*
G36*
G01*
X139116700Y-70454800D02*
X137641700Y-70454800D01*
G75*
G02*
X137491700Y-70304800I0J150000D01*
G01*
X137491700Y-70004800D01*
G75*
G02*
X137641700Y-69854800I150000J0D01*
G01*
X139116700Y-69854800D01*
G75*
G02*
X139266700Y-70004800I0J-150000D01*
G01*
X139266700Y-70304800D01*
G75*
G02*
X139116700Y-70454800I-150000J0D01*
G01*
G37*
G36*
G01*
X139116700Y-71724800D02*
X137641700Y-71724800D01*
G75*
G02*
X137491700Y-71574800I0J150000D01*
G01*
X137491700Y-71274800D01*
G75*
G02*
X137641700Y-71124800I150000J0D01*
G01*
X139116700Y-71124800D01*
G75*
G02*
X139266700Y-71274800I0J-150000D01*
G01*
X139266700Y-71574800D01*
G75*
G02*
X139116700Y-71724800I-150000J0D01*
G01*
G37*
G36*
G01*
X139116700Y-72994800D02*
X137641700Y-72994800D01*
G75*
G02*
X137491700Y-72844800I0J150000D01*
G01*
X137491700Y-72544800D01*
G75*
G02*
X137641700Y-72394800I150000J0D01*
G01*
X139116700Y-72394800D01*
G75*
G02*
X139266700Y-72544800I0J-150000D01*
G01*
X139266700Y-72844800D01*
G75*
G02*
X139116700Y-72994800I-150000J0D01*
G01*
G37*
G36*
G01*
X136878200Y-75233300D02*
X136578200Y-75233300D01*
G75*
G02*
X136428200Y-75083300I0J150000D01*
G01*
X136428200Y-73608300D01*
G75*
G02*
X136578200Y-73458300I150000J0D01*
G01*
X136878200Y-73458300D01*
G75*
G02*
X137028200Y-73608300I0J-150000D01*
G01*
X137028200Y-75083300D01*
G75*
G02*
X136878200Y-75233300I-150000J0D01*
G01*
G37*
G36*
G01*
X135608200Y-75233300D02*
X135308200Y-75233300D01*
G75*
G02*
X135158200Y-75083300I0J150000D01*
G01*
X135158200Y-73608300D01*
G75*
G02*
X135308200Y-73458300I150000J0D01*
G01*
X135608200Y-73458300D01*
G75*
G02*
X135758200Y-73608300I0J-150000D01*
G01*
X135758200Y-75083300D01*
G75*
G02*
X135608200Y-75233300I-150000J0D01*
G01*
G37*
G36*
G01*
X134338200Y-75233300D02*
X134038200Y-75233300D01*
G75*
G02*
X133888200Y-75083300I0J150000D01*
G01*
X133888200Y-73608300D01*
G75*
G02*
X134038200Y-73458300I150000J0D01*
G01*
X134338200Y-73458300D01*
G75*
G02*
X134488200Y-73608300I0J-150000D01*
G01*
X134488200Y-75083300D01*
G75*
G02*
X134338200Y-75233300I-150000J0D01*
G01*
G37*
G36*
G01*
X133068200Y-75233300D02*
X132768200Y-75233300D01*
G75*
G02*
X132618200Y-75083300I0J150000D01*
G01*
X132618200Y-73608300D01*
G75*
G02*
X132768200Y-73458300I150000J0D01*
G01*
X133068200Y-73458300D01*
G75*
G02*
X133218200Y-73608300I0J-150000D01*
G01*
X133218200Y-75083300D01*
G75*
G02*
X133068200Y-75233300I-150000J0D01*
G01*
G37*
G36*
G01*
X131798200Y-75233300D02*
X131498200Y-75233300D01*
G75*
G02*
X131348200Y-75083300I0J150000D01*
G01*
X131348200Y-73608300D01*
G75*
G02*
X131498200Y-73458300I150000J0D01*
G01*
X131798200Y-73458300D01*
G75*
G02*
X131948200Y-73608300I0J-150000D01*
G01*
X131948200Y-75083300D01*
G75*
G02*
X131798200Y-75233300I-150000J0D01*
G01*
G37*
G36*
G01*
X130528200Y-75233300D02*
X130228200Y-75233300D01*
G75*
G02*
X130078200Y-75083300I0J150000D01*
G01*
X130078200Y-73608300D01*
G75*
G02*
X130228200Y-73458300I150000J0D01*
G01*
X130528200Y-73458300D01*
G75*
G02*
X130678200Y-73608300I0J-150000D01*
G01*
X130678200Y-75083300D01*
G75*
G02*
X130528200Y-75233300I-150000J0D01*
G01*
G37*
G36*
G01*
X129258200Y-75233300D02*
X128958200Y-75233300D01*
G75*
G02*
X128808200Y-75083300I0J150000D01*
G01*
X128808200Y-73608300D01*
G75*
G02*
X128958200Y-73458300I150000J0D01*
G01*
X129258200Y-73458300D01*
G75*
G02*
X129408200Y-73608300I0J-150000D01*
G01*
X129408200Y-75083300D01*
G75*
G02*
X129258200Y-75233300I-150000J0D01*
G01*
G37*
G36*
G01*
X127988200Y-75233300D02*
X127688200Y-75233300D01*
G75*
G02*
X127538200Y-75083300I0J150000D01*
G01*
X127538200Y-73608300D01*
G75*
G02*
X127688200Y-73458300I150000J0D01*
G01*
X127988200Y-73458300D01*
G75*
G02*
X128138200Y-73608300I0J-150000D01*
G01*
X128138200Y-75083300D01*
G75*
G02*
X127988200Y-75233300I-150000J0D01*
G01*
G37*
G36*
G01*
X126718200Y-75233300D02*
X126418200Y-75233300D01*
G75*
G02*
X126268200Y-75083300I0J150000D01*
G01*
X126268200Y-73608300D01*
G75*
G02*
X126418200Y-73458300I150000J0D01*
G01*
X126718200Y-73458300D01*
G75*
G02*
X126868200Y-73608300I0J-150000D01*
G01*
X126868200Y-75083300D01*
G75*
G02*
X126718200Y-75233300I-150000J0D01*
G01*
G37*
G36*
G01*
X125654700Y-72994800D02*
X124179700Y-72994800D01*
G75*
G02*
X124029700Y-72844800I0J150000D01*
G01*
X124029700Y-72544800D01*
G75*
G02*
X124179700Y-72394800I150000J0D01*
G01*
X125654700Y-72394800D01*
G75*
G02*
X125804700Y-72544800I0J-150000D01*
G01*
X125804700Y-72844800D01*
G75*
G02*
X125654700Y-72994800I-150000J0D01*
G01*
G37*
G36*
G01*
X125654700Y-71724800D02*
X124179700Y-71724800D01*
G75*
G02*
X124029700Y-71574800I0J150000D01*
G01*
X124029700Y-71274800D01*
G75*
G02*
X124179700Y-71124800I150000J0D01*
G01*
X125654700Y-71124800D01*
G75*
G02*
X125804700Y-71274800I0J-150000D01*
G01*
X125804700Y-71574800D01*
G75*
G02*
X125654700Y-71724800I-150000J0D01*
G01*
G37*
G36*
G01*
X125654700Y-70454800D02*
X124179700Y-70454800D01*
G75*
G02*
X124029700Y-70304800I0J150000D01*
G01*
X124029700Y-70004800D01*
G75*
G02*
X124179700Y-69854800I150000J0D01*
G01*
X125654700Y-69854800D01*
G75*
G02*
X125804700Y-70004800I0J-150000D01*
G01*
X125804700Y-70304800D01*
G75*
G02*
X125654700Y-70454800I-150000J0D01*
G01*
G37*
G36*
G01*
X125654700Y-69184800D02*
X124179700Y-69184800D01*
G75*
G02*
X124029700Y-69034800I0J150000D01*
G01*
X124029700Y-68734800D01*
G75*
G02*
X124179700Y-68584800I150000J0D01*
G01*
X125654700Y-68584800D01*
G75*
G02*
X125804700Y-68734800I0J-150000D01*
G01*
X125804700Y-69034800D01*
G75*
G02*
X125654700Y-69184800I-150000J0D01*
G01*
G37*
%TD*%
D10*
%TO.C,J1*%
X113614200Y-69265800D03*
X113614200Y-67995800D03*
D11*
X113614200Y-66725800D03*
%TD*%
%TO.C,C4*%
G36*
G01*
X161198799Y-118046600D02*
X162498801Y-118046600D01*
G75*
G02*
X162748800Y-118296599I0J-249999D01*
G01*
X162748800Y-118946601D01*
G75*
G02*
X162498801Y-119196600I-249999J0D01*
G01*
X161198799Y-119196600D01*
G75*
G02*
X160948800Y-118946601I0J249999D01*
G01*
X160948800Y-118296599D01*
G75*
G02*
X161198799Y-118046600I249999J0D01*
G01*
G37*
G36*
G01*
X161198799Y-115096600D02*
X162498801Y-115096600D01*
G75*
G02*
X162748800Y-115346599I0J-249999D01*
G01*
X162748800Y-115996601D01*
G75*
G02*
X162498801Y-116246600I-249999J0D01*
G01*
X161198799Y-116246600D01*
G75*
G02*
X160948800Y-115996601I0J249999D01*
G01*
X160948800Y-115346599D01*
G75*
G02*
X161198799Y-115096600I249999J0D01*
G01*
G37*
%TD*%
%TO.C,C3*%
G36*
G01*
X161198799Y-98361600D02*
X162498801Y-98361600D01*
G75*
G02*
X162748800Y-98611599I0J-249999D01*
G01*
X162748800Y-99261601D01*
G75*
G02*
X162498801Y-99511600I-249999J0D01*
G01*
X161198799Y-99511600D01*
G75*
G02*
X160948800Y-99261601I0J249999D01*
G01*
X160948800Y-98611599D01*
G75*
G02*
X161198799Y-98361600I249999J0D01*
G01*
G37*
G36*
G01*
X161198799Y-95411600D02*
X162498801Y-95411600D01*
G75*
G02*
X162748800Y-95661599I0J-249999D01*
G01*
X162748800Y-96311601D01*
G75*
G02*
X162498801Y-96561600I-249999J0D01*
G01*
X161198799Y-96561600D01*
G75*
G02*
X160948800Y-96311601I0J249999D01*
G01*
X160948800Y-95661599D01*
G75*
G02*
X161198799Y-95411600I249999J0D01*
G01*
G37*
%TD*%
%TO.C,C2*%
G36*
G01*
X161198799Y-79311600D02*
X162498801Y-79311600D01*
G75*
G02*
X162748800Y-79561599I0J-249999D01*
G01*
X162748800Y-80211601D01*
G75*
G02*
X162498801Y-80461600I-249999J0D01*
G01*
X161198799Y-80461600D01*
G75*
G02*
X160948800Y-80211601I0J249999D01*
G01*
X160948800Y-79561599D01*
G75*
G02*
X161198799Y-79311600I249999J0D01*
G01*
G37*
G36*
G01*
X161198799Y-76361600D02*
X162498801Y-76361600D01*
G75*
G02*
X162748800Y-76611599I0J-249999D01*
G01*
X162748800Y-77261601D01*
G75*
G02*
X162498801Y-77511600I-249999J0D01*
G01*
X161198799Y-77511600D01*
G75*
G02*
X160948800Y-77261601I0J249999D01*
G01*
X160948800Y-76611599D01*
G75*
G02*
X161198799Y-76361600I249999J0D01*
G01*
G37*
%TD*%
%TO.C,C1*%
G36*
G01*
X118272799Y-69786600D02*
X119572801Y-69786600D01*
G75*
G02*
X119822800Y-70036599I0J-249999D01*
G01*
X119822800Y-70686601D01*
G75*
G02*
X119572801Y-70936600I-249999J0D01*
G01*
X118272799Y-70936600D01*
G75*
G02*
X118022800Y-70686601I0J249999D01*
G01*
X118022800Y-70036599D01*
G75*
G02*
X118272799Y-69786600I249999J0D01*
G01*
G37*
G36*
G01*
X118272799Y-66836600D02*
X119572801Y-66836600D01*
G75*
G02*
X119822800Y-67086599I0J-249999D01*
G01*
X119822800Y-67736601D01*
G75*
G02*
X119572801Y-67986600I-249999J0D01*
G01*
X118272799Y-67986600D01*
G75*
G02*
X118022800Y-67736601I0J249999D01*
G01*
X118022800Y-67086599D01*
G75*
G02*
X118272799Y-66836600I249999J0D01*
G01*
G37*
%TD*%
M02*
