%TF.GenerationSoftware,KiCad,Pcbnew,(5.1.10)-1*%
%TF.CreationDate,2023-06-12T08:51:03+01:00*%
%TF.ProjectId,pt8601_rom_adapter,70743836-3031-45f7-926f-6d5f61646170,rev?*%
%TF.SameCoordinates,Original*%
%TF.FileFunction,Legend,Top*%
%TF.FilePolarity,Positive*%
%FSLAX46Y46*%
G04 Gerber Fmt 4.6, Leading zero omitted, Abs format (unit mm)*
G04 Created by KiCad (PCBNEW (5.1.10)-1) date 2023-06-12 08:51:03*
%MOMM*%
%LPD*%
G01*
G04 APERTURE LIST*
%ADD10C,0.120000*%
G04 APERTURE END LIST*
D10*
%TO.C,U8*%
X168651418Y-122969800D02*
X168934200Y-122969800D01*
X167479200Y-121797582D02*
X168651418Y-122969800D01*
X167479200Y-121514800D02*
X167479200Y-121797582D01*
X181669200Y-111319800D02*
X180214200Y-111319800D01*
X181669200Y-112774800D02*
X181669200Y-111319800D01*
X181669200Y-122969800D02*
X180214200Y-122969800D01*
X181669200Y-121514800D02*
X181669200Y-122969800D01*
X167479200Y-111319800D02*
X168934200Y-111319800D01*
X167479200Y-112774800D02*
X167479200Y-111319800D01*
%TO.C,U7*%
X168651418Y-84234800D02*
X168934200Y-84234800D01*
X167479200Y-83062582D02*
X168651418Y-84234800D01*
X167479200Y-82779800D02*
X167479200Y-83062582D01*
X181669200Y-72584800D02*
X180214200Y-72584800D01*
X181669200Y-74039800D02*
X181669200Y-72584800D01*
X181669200Y-84234800D02*
X180214200Y-84234800D01*
X181669200Y-82779800D02*
X181669200Y-84234800D01*
X167479200Y-72584800D02*
X168934200Y-72584800D01*
X167479200Y-74039800D02*
X167479200Y-72584800D01*
%TO.C,U4*%
X168651418Y-103284800D02*
X168934200Y-103284800D01*
X167479200Y-102112582D02*
X168651418Y-103284800D01*
X167479200Y-101829800D02*
X167479200Y-102112582D01*
X181669200Y-91634800D02*
X180214200Y-91634800D01*
X181669200Y-93089800D02*
X181669200Y-91634800D01*
X181669200Y-103284800D02*
X180214200Y-103284800D01*
X181669200Y-101829800D02*
X181669200Y-103284800D01*
X167479200Y-91634800D02*
X168934200Y-91634800D01*
X167479200Y-93089800D02*
X167479200Y-91634800D01*
%TO.C,U3*%
X125725418Y-74709800D02*
X126008200Y-74709800D01*
X124553200Y-73537582D02*
X125725418Y-74709800D01*
X124553200Y-73254800D02*
X124553200Y-73537582D01*
X138743200Y-63059800D02*
X137288200Y-63059800D01*
X138743200Y-64514800D02*
X138743200Y-63059800D01*
X138743200Y-74709800D02*
X137288200Y-74709800D01*
X138743200Y-73254800D02*
X138743200Y-74709800D01*
X124553200Y-63059800D02*
X126008200Y-63059800D01*
X124553200Y-64514800D02*
X124553200Y-63059800D01*
%TO.C,C4*%
X162758800Y-116435348D02*
X162758800Y-117857852D01*
X160938800Y-116435348D02*
X160938800Y-117857852D01*
%TO.C,C3*%
X162758800Y-96750348D02*
X162758800Y-98172852D01*
X160938800Y-96750348D02*
X160938800Y-98172852D01*
%TO.C,C2*%
X162758800Y-77700348D02*
X162758800Y-79122852D01*
X160938800Y-77700348D02*
X160938800Y-79122852D01*
%TO.C,C1*%
X119832800Y-68175348D02*
X119832800Y-69597852D01*
X118012800Y-68175348D02*
X118012800Y-69597852D01*
%TD*%
M02*
