M48
; DRILL file {KiCad (5.1.10)-1} date 06/12/23 08:50:45
; FORMAT={-:-/ absolute / inch / decimal}
; #@! TF.CreationDate,2023-06-12T08:50:45+01:00
; #@! TF.GenerationSoftware,Kicad,Pcbnew,(5.1.10)-1
; #@! TF.FileFunction,Plated,1,2,PTH
FMAT,2
INCH
T1C0.0157
T2C0.0197
%
G90
G05
T1
X4.483Y-2.922
X4.518Y-2.492
X4.553Y-2.797
X4.573Y-2.642
X4.648Y-2.562
X4.713Y-2.562
X4.783Y-2.707
X4.788Y-2.507
X5.008Y-2.797
X5.233Y-2.612
X5.313Y-2.572
X5.348Y-2.842
X5.388Y-2.687
X5.483Y-2.9025
X5.753Y-2.687
X5.873Y-2.842
X6.218Y-3.147
X6.283Y-3.187
X6.338Y-2.937
X6.348Y-3.962
X6.373Y-3.182
X6.373Y-3.232
X6.413Y-2.937
X6.483Y-3.672
X6.483Y-3.872
X6.483Y-4.452
X6.483Y-4.652
X6.488Y-3.127
X6.538Y-4.662
X7.023Y-2.917
X7.023Y-2.987
X7.023Y-3.667
X7.023Y-3.737
X7.023Y-4.442
X7.023Y-4.512
X7.173Y-3.2775
X7.173Y-4.0275
X7.173Y-4.802
X7.193Y-3.652
X7.203Y-2.897
X7.208Y-4.422
X7.648Y-3.652
X7.653Y-2.897
X7.663Y-4.422
T2
X4.473Y-2.627
X4.473Y-2.677
X4.473Y-2.727
T2
G00X4.6623Y-2.412
M15
G01X4.7037Y-2.412
M16
G05
G00X4.6623Y-3.012
M15
G01X4.7037Y-3.012
M16
G05
G00X4.7623Y-2.412
M15
G01X4.8037Y-2.412
M16
G05
G00X4.7623Y-3.012
M15
G01X4.8037Y-3.012
M16
G05
G00X4.8623Y-2.412
M15
G01X4.9037Y-2.412
M16
G05
G00X4.8623Y-3.012
M15
G01X4.9037Y-3.012
M16
G05
G00X4.9623Y-2.412
M15
G01X5.0037Y-2.412
M16
G05
G00X4.9623Y-3.012
M15
G01X5.0037Y-3.012
M16
G05
G00X5.0623Y-2.412
M15
G01X5.1037Y-2.412
M16
G05
G00X5.0623Y-3.012
M15
G01X5.1037Y-3.012
M16
G05
G00X5.1623Y-2.412
M15
G01X5.2037Y-2.412
M16
G05
G00X5.1623Y-3.012
M15
G01X5.2037Y-3.012
M16
G05
G00X5.2623Y-2.412
M15
G01X5.3037Y-2.412
M16
G05
G00X5.2623Y-3.012
M15
G01X5.3037Y-3.012
M16
G05
G00X5.3623Y-2.412
M15
G01X5.4037Y-2.412
M16
G05
G00X5.3623Y-3.012
M15
G01X5.4037Y-3.012
M16
G05
G00X5.4623Y-2.412
M15
G01X5.5037Y-2.412
M16
G05
G00X5.4623Y-3.012
M15
G01X5.5037Y-3.012
M16
G05
G00X5.5623Y-2.412
M15
G01X5.6037Y-2.412
M16
G05
G00X5.5623Y-3.012
M15
G01X5.6037Y-3.012
M16
G05
G00X5.6623Y-2.412
M15
G01X5.7037Y-2.412
M16
G05
G00X5.6623Y-3.012
M15
G01X5.7037Y-3.012
M16
G05
G00X5.7623Y-2.412
M15
G01X5.8037Y-2.412
M16
G05
G00X5.7623Y-3.012
M15
G01X5.8037Y-3.012
M16
G05
G00X5.8623Y-2.412
M15
G01X5.9037Y-2.412
M16
G05
G00X5.8623Y-3.012
M15
G01X5.9037Y-3.012
M16
G05
G00X5.9623Y-2.412
M15
G01X6.0037Y-2.412
M16
G05
G00X5.9623Y-3.012
M15
G01X6.0037Y-3.012
M16
G05
G00X6.3523Y-2.787
M15
G01X6.3937Y-2.787
M16
G05
G00X6.3523Y-3.387
M15
G01X6.3937Y-3.387
M16
G05
G00X6.3523Y-3.537
M15
G01X6.3937Y-3.537
M16
G05
G00X6.3523Y-4.137
M15
G01X6.3937Y-4.137
M16
G05
G00X6.3523Y-4.312
M15
G01X6.3937Y-4.312
M16
G05
G00X6.3523Y-4.912
M15
G01X6.3937Y-4.912
M16
G05
G00X6.4523Y-2.787
M15
G01X6.4937Y-2.787
M16
G05
G00X6.4523Y-3.387
M15
G01X6.4937Y-3.387
M16
G05
G00X6.4523Y-3.537
M15
G01X6.4937Y-3.537
M16
G05
G00X6.4523Y-4.137
M15
G01X6.4937Y-4.137
M16
G05
G00X6.4523Y-4.312
M15
G01X6.4937Y-4.312
M16
G05
G00X6.4523Y-4.912
M15
G01X6.4937Y-4.912
M16
G05
G00X6.5523Y-2.787
M15
G01X6.5937Y-2.787
M16
G05
G00X6.5523Y-3.387
M15
G01X6.5937Y-3.387
M16
G05
G00X6.5523Y-3.537
M15
G01X6.5937Y-3.537
M16
G05
G00X6.5523Y-4.137
M15
G01X6.5937Y-4.137
M16
G05
G00X6.5523Y-4.312
M15
G01X6.5937Y-4.312
M16
G05
G00X6.5523Y-4.912
M15
G01X6.5937Y-4.912
M16
G05
G00X6.6523Y-2.787
M15
G01X6.6937Y-2.787
M16
G05
G00X6.6523Y-3.387
M15
G01X6.6937Y-3.387
M16
G05
G00X6.6523Y-3.537
M15
G01X6.6937Y-3.537
M16
G05
G00X6.6523Y-4.137
M15
G01X6.6937Y-4.137
M16
G05
G00X6.6523Y-4.312
M15
G01X6.6937Y-4.312
M16
G05
G00X6.6523Y-4.912
M15
G01X6.6937Y-4.912
M16
G05
G00X6.7523Y-2.787
M15
G01X6.7937Y-2.787
M16
G05
G00X6.7523Y-3.387
M15
G01X6.7937Y-3.387
M16
G05
G00X6.7523Y-3.537
M15
G01X6.7937Y-3.537
M16
G05
G00X6.7523Y-4.137
M15
G01X6.7937Y-4.137
M16
G05
G00X6.7523Y-4.312
M15
G01X6.7937Y-4.312
M16
G05
G00X6.7523Y-4.912
M15
G01X6.7937Y-4.912
M16
G05
G00X6.8523Y-2.787
M15
G01X6.8937Y-2.787
M16
G05
G00X6.8523Y-3.387
M15
G01X6.8937Y-3.387
M16
G05
G00X6.8523Y-3.537
M15
G01X6.8937Y-3.537
M16
G05
G00X6.8523Y-4.137
M15
G01X6.8937Y-4.137
M16
G05
G00X6.8523Y-4.312
M15
G01X6.8937Y-4.312
M16
G05
G00X6.8523Y-4.912
M15
G01X6.8937Y-4.912
M16
G05
G00X6.9523Y-2.787
M15
G01X6.9937Y-2.787
M16
G05
G00X6.9523Y-3.387
M15
G01X6.9937Y-3.387
M16
G05
G00X6.9523Y-3.537
M15
G01X6.9937Y-3.537
M16
G05
G00X6.9523Y-4.137
M15
G01X6.9937Y-4.137
M16
G05
G00X6.9523Y-4.312
M15
G01X6.9937Y-4.312
M16
G05
G00X6.9523Y-4.912
M15
G01X6.9937Y-4.912
M16
G05
G00X7.0523Y-2.787
M15
G01X7.0937Y-2.787
M16
G05
G00X7.0523Y-3.387
M15
G01X7.0937Y-3.387
M16
G05
G00X7.0523Y-3.537
M15
G01X7.0937Y-3.537
M16
G05
G00X7.0523Y-4.137
M15
G01X7.0937Y-4.137
M16
G05
G00X7.0523Y-4.312
M15
G01X7.0937Y-4.312
M16
G05
G00X7.0523Y-4.912
M15
G01X7.0937Y-4.912
M16
G05
G00X7.1523Y-2.787
M15
G01X7.1937Y-2.787
M16
G05
G00X7.1523Y-3.387
M15
G01X7.1937Y-3.387
M16
G05
G00X7.1523Y-3.537
M15
G01X7.1937Y-3.537
M16
G05
G00X7.1523Y-4.137
M15
G01X7.1937Y-4.137
M16
G05
G00X7.1523Y-4.312
M15
G01X7.1937Y-4.312
M16
G05
G00X7.1523Y-4.912
M15
G01X7.1937Y-4.912
M16
G05
G00X7.2523Y-2.787
M15
G01X7.2937Y-2.787
M16
G05
G00X7.2523Y-3.387
M15
G01X7.2937Y-3.387
M16
G05
G00X7.2523Y-3.537
M15
G01X7.2937Y-3.537
M16
G05
G00X7.2523Y-4.137
M15
G01X7.2937Y-4.137
M16
G05
G00X7.2523Y-4.312
M15
G01X7.2937Y-4.312
M16
G05
G00X7.2523Y-4.912
M15
G01X7.2937Y-4.912
M16
G05
G00X7.3523Y-2.787
M15
G01X7.3937Y-2.787
M16
G05
G00X7.3523Y-3.387
M15
G01X7.3937Y-3.387
M16
G05
G00X7.3523Y-3.537
M15
G01X7.3937Y-3.537
M16
G05
G00X7.3523Y-4.137
M15
G01X7.3937Y-4.137
M16
G05
G00X7.3523Y-4.312
M15
G01X7.3937Y-4.312
M16
G05
G00X7.3523Y-4.912
M15
G01X7.3937Y-4.912
M16
G05
G00X7.4523Y-2.787
M15
G01X7.4937Y-2.787
M16
G05
G00X7.4523Y-3.387
M15
G01X7.4937Y-3.387
M16
G05
G00X7.4523Y-3.537
M15
G01X7.4937Y-3.537
M16
G05
G00X7.4523Y-4.137
M15
G01X7.4937Y-4.137
M16
G05
G00X7.4523Y-4.312
M15
G01X7.4937Y-4.312
M16
G05
G00X7.4523Y-4.912
M15
G01X7.4937Y-4.912
M16
G05
G00X7.5523Y-2.787
M15
G01X7.5937Y-2.787
M16
G05
G00X7.5523Y-3.387
M15
G01X7.5937Y-3.387
M16
G05
G00X7.5523Y-3.537
M15
G01X7.5937Y-3.537
M16
G05
G00X7.5523Y-4.137
M15
G01X7.5937Y-4.137
M16
G05
G00X7.5523Y-4.312
M15
G01X7.5937Y-4.312
M16
G05
G00X7.5523Y-4.912
M15
G01X7.5937Y-4.912
M16
G05
G00X7.6523Y-2.787
M15
G01X7.6937Y-2.787
M16
G05
G00X7.6523Y-3.387
M15
G01X7.6937Y-3.387
M16
G05
G00X7.6523Y-3.537
M15
G01X7.6937Y-3.537
M16
G05
G00X7.6523Y-4.137
M15
G01X7.6937Y-4.137
M16
G05
G00X7.6523Y-4.312
M15
G01X7.6937Y-4.312
M16
G05
G00X7.6523Y-4.912
M15
G01X7.6937Y-4.912
M16
G05
T0
M30
