%TF.GenerationSoftware,KiCad,Pcbnew,8.0.6*%
%TF.CreationDate,2025-10-07T09:04:44+01:00*%
%TF.ProjectId,PCF84C00Adapter,50434638-3443-4303-9041-646170746572,rev?*%
%TF.SameCoordinates,Original*%
%TF.FileFunction,Legend,Bot*%
%TF.FilePolarity,Positive*%
%FSLAX46Y46*%
G04 Gerber Fmt 4.6, Leading zero omitted, Abs format (unit mm)*
G04 Created by KiCad (PCBNEW 8.0.6) date 2025-10-07 09:04:44*
%MOMM*%
%LPD*%
G01*
G04 APERTURE LIST*
%ADD10C,0.150000*%
%ADD11C,0.120000*%
G04 APERTURE END LIST*
D10*
X126089580Y-86320333D02*
X126137200Y-86272714D01*
X126137200Y-86272714D02*
X126184819Y-86129857D01*
X126184819Y-86129857D02*
X126184819Y-86034619D01*
X126184819Y-86034619D02*
X126137200Y-85891762D01*
X126137200Y-85891762D02*
X126041961Y-85796524D01*
X126041961Y-85796524D02*
X125946723Y-85748905D01*
X125946723Y-85748905D02*
X125756247Y-85701286D01*
X125756247Y-85701286D02*
X125613390Y-85701286D01*
X125613390Y-85701286D02*
X125422914Y-85748905D01*
X125422914Y-85748905D02*
X125327676Y-85796524D01*
X125327676Y-85796524D02*
X125232438Y-85891762D01*
X125232438Y-85891762D02*
X125184819Y-86034619D01*
X125184819Y-86034619D02*
X125184819Y-86129857D01*
X125184819Y-86129857D02*
X125232438Y-86272714D01*
X125232438Y-86272714D02*
X125280057Y-86320333D01*
X126184819Y-87272714D02*
X126184819Y-86701286D01*
X126184819Y-86987000D02*
X125184819Y-86987000D01*
X125184819Y-86987000D02*
X125327676Y-86891762D01*
X125327676Y-86891762D02*
X125422914Y-86796524D01*
X125422914Y-86796524D02*
X125470533Y-86701286D01*
X126150666Y-113516580D02*
X126198285Y-113564200D01*
X126198285Y-113564200D02*
X126341142Y-113611819D01*
X126341142Y-113611819D02*
X126436380Y-113611819D01*
X126436380Y-113611819D02*
X126579237Y-113564200D01*
X126579237Y-113564200D02*
X126674475Y-113468961D01*
X126674475Y-113468961D02*
X126722094Y-113373723D01*
X126722094Y-113373723D02*
X126769713Y-113183247D01*
X126769713Y-113183247D02*
X126769713Y-113040390D01*
X126769713Y-113040390D02*
X126722094Y-112849914D01*
X126722094Y-112849914D02*
X126674475Y-112754676D01*
X126674475Y-112754676D02*
X126579237Y-112659438D01*
X126579237Y-112659438D02*
X126436380Y-112611819D01*
X126436380Y-112611819D02*
X126341142Y-112611819D01*
X126341142Y-112611819D02*
X126198285Y-112659438D01*
X126198285Y-112659438D02*
X126150666Y-112707057D01*
X125769713Y-112707057D02*
X125722094Y-112659438D01*
X125722094Y-112659438D02*
X125626856Y-112611819D01*
X125626856Y-112611819D02*
X125388761Y-112611819D01*
X125388761Y-112611819D02*
X125293523Y-112659438D01*
X125293523Y-112659438D02*
X125245904Y-112707057D01*
X125245904Y-112707057D02*
X125198285Y-112802295D01*
X125198285Y-112802295D02*
X125198285Y-112897533D01*
X125198285Y-112897533D02*
X125245904Y-113040390D01*
X125245904Y-113040390D02*
X125817332Y-113611819D01*
X125817332Y-113611819D02*
X125198285Y-113611819D01*
D11*
%TO.C,U1*%
X115685000Y-78874000D02*
X115685000Y-114674000D01*
X115685000Y-114674000D02*
X135775000Y-114674000D01*
X119385000Y-78934000D02*
X119385000Y-114614000D01*
X119385000Y-114614000D02*
X132075000Y-114614000D01*
X124730000Y-78934000D02*
X119385000Y-78934000D01*
X132075000Y-78934000D02*
X126730000Y-78934000D01*
X132075000Y-114614000D02*
X132075000Y-78934000D01*
X135775000Y-78874000D02*
X115685000Y-78874000D01*
X135775000Y-114674000D02*
X135775000Y-78874000D01*
X126730000Y-78934000D02*
G75*
G02*
X124730000Y-78934000I-1000000J0D01*
G01*
%TO.C,C1*%
X124820000Y-83847252D02*
X124820000Y-82424748D01*
X126640000Y-83847252D02*
X126640000Y-82424748D01*
%TO.C,C2*%
X128750748Y-112247000D02*
X130173252Y-112247000D01*
X128750748Y-114067000D02*
X130173252Y-114067000D01*
%TD*%
M02*
