M48
; DRILL file {KiCad 8.0.6} date 2025-10-07T09:04:46+0100
; FORMAT={-:-/ absolute / inch / decimal}
; #@! TF.CreationDate,2025-10-07T09:04:46+01:00
; #@! TF.GenerationSoftware,Kicad,Pcbnew,8.0.6
; #@! TF.FileFunction,Plated,1,2,PTH
FMAT,2
INCH
; #@! TA.AperFunction,Plated,PTH,ViaDrill
T1C0.0157
%
G90
G05
T1
X4.585Y-4.42
X4.585Y-4.5
X4.72Y-4.145
X4.7285Y-3.9838
X4.732Y-4.2126
X4.7335Y-4.255
X4.745Y-4.2946
X4.7465Y-4.176
X4.76Y-3.955
X4.7801Y-3.8003
X4.7865Y-3.9258
X4.79Y-3.8402
X4.7972Y-3.8878
X4.8123Y-3.7777
X4.825Y-4.4
X4.8386Y-4.2215
X4.85Y-3.185
X4.85Y-3.32
X4.85Y-3.365
X4.85Y-3.41
X4.85Y-3.455
X4.8502Y-3.2753
X4.8506Y-3.23
X4.8649Y-4.3794
X4.8686Y-4.196
X4.87Y-3.5
X4.87Y-3.54
X4.87Y-3.58
X4.87Y-3.62
X4.8702Y-3.6602
X4.875Y-4.49
X4.89Y-3.155
X4.8985Y-3.705
X4.9043Y-4.38
X4.9441Y-4.3605
X4.9484Y-3.6877
X4.95Y-3.365
X4.9523Y-3.7448
X4.9531Y-3.7842
X4.9722Y-3.6218
X4.9815Y-4.3439
X4.9823Y-3.6677
X4.9893Y-3.7997
X5.005Y-3.6
X5.015Y-3.525
X5.0249Y-3.5651
X5.025Y-3.8163
X5.0396Y-4.3549
X5.0465Y-3.8493
X5.0498Y-3.3648
X5.0498Y-3.4548
X5.05Y-3.275
X5.05Y-3.23
X5.05Y-3.32
X5.05Y-3.41
X5.05Y-3.5
X5.0765Y-4.3688
X5.0898Y-4.2552
X5.105Y-4.15
X5.12Y-4.29
X5.165Y-3.1519
X5.1652Y-4.2498
X5.17Y-4.375
M30
