%TF.GenerationSoftware,KiCad,Pcbnew,8.0.6*%
%TF.CreationDate,2025-10-07T09:04:44+01:00*%
%TF.ProjectId,PCF84C00Adapter,50434638-3443-4303-9041-646170746572,rev?*%
%TF.SameCoordinates,Original*%
%TF.FileFunction,Legend,Top*%
%TF.FilePolarity,Positive*%
%FSLAX46Y46*%
G04 Gerber Fmt 4.6, Leading zero omitted, Abs format (unit mm)*
G04 Created by KiCad (PCBNEW 8.0.6) date 2025-10-07 09:04:44*
%MOMM*%
%LPD*%
G01*
G04 APERTURE LIST*
%ADD10C,0.150000*%
%ADD11C,0.120000*%
G04 APERTURE END LIST*
D10*
X124953095Y-87465819D02*
X124953095Y-88275342D01*
X124953095Y-88275342D02*
X125000714Y-88370580D01*
X125000714Y-88370580D02*
X125048333Y-88418200D01*
X125048333Y-88418200D02*
X125143571Y-88465819D01*
X125143571Y-88465819D02*
X125334047Y-88465819D01*
X125334047Y-88465819D02*
X125429285Y-88418200D01*
X125429285Y-88418200D02*
X125476904Y-88370580D01*
X125476904Y-88370580D02*
X125524523Y-88275342D01*
X125524523Y-88275342D02*
X125524523Y-87465819D01*
X125953095Y-87561057D02*
X126000714Y-87513438D01*
X126000714Y-87513438D02*
X126095952Y-87465819D01*
X126095952Y-87465819D02*
X126334047Y-87465819D01*
X126334047Y-87465819D02*
X126429285Y-87513438D01*
X126429285Y-87513438D02*
X126476904Y-87561057D01*
X126476904Y-87561057D02*
X126524523Y-87656295D01*
X126524523Y-87656295D02*
X126524523Y-87751533D01*
X126524523Y-87751533D02*
X126476904Y-87894390D01*
X126476904Y-87894390D02*
X125905476Y-88465819D01*
X125905476Y-88465819D02*
X126524523Y-88465819D01*
X125095095Y-107531819D02*
X125095095Y-108341342D01*
X125095095Y-108341342D02*
X125142714Y-108436580D01*
X125142714Y-108436580D02*
X125190333Y-108484200D01*
X125190333Y-108484200D02*
X125285571Y-108531819D01*
X125285571Y-108531819D02*
X125476047Y-108531819D01*
X125476047Y-108531819D02*
X125571285Y-108484200D01*
X125571285Y-108484200D02*
X125618904Y-108436580D01*
X125618904Y-108436580D02*
X125666523Y-108341342D01*
X125666523Y-108341342D02*
X125666523Y-107531819D01*
X126047476Y-107531819D02*
X126666523Y-107531819D01*
X126666523Y-107531819D02*
X126333190Y-107912771D01*
X126333190Y-107912771D02*
X126476047Y-107912771D01*
X126476047Y-107912771D02*
X126571285Y-107960390D01*
X126571285Y-107960390D02*
X126618904Y-108008009D01*
X126618904Y-108008009D02*
X126666523Y-108103247D01*
X126666523Y-108103247D02*
X126666523Y-108341342D01*
X126666523Y-108341342D02*
X126618904Y-108436580D01*
X126618904Y-108436580D02*
X126571285Y-108484200D01*
X126571285Y-108484200D02*
X126476047Y-108531819D01*
X126476047Y-108531819D02*
X126190333Y-108531819D01*
X126190333Y-108531819D02*
X126095095Y-108484200D01*
X126095095Y-108484200D02*
X126047476Y-108436580D01*
%TO.C,U2*%
X120015000Y-79259000D02*
X120015000Y-79509000D01*
X120015000Y-79259000D02*
X131415000Y-79259000D01*
X120015000Y-79509000D02*
X117690000Y-79509000D01*
X120015000Y-101059000D02*
X120015000Y-100709000D01*
X120015000Y-101059000D02*
X131415000Y-101059000D01*
X131415000Y-79259000D02*
X131415000Y-79609000D01*
X131415000Y-101059000D02*
X131415000Y-100709000D01*
D11*
%TO.C,U3*%
X116670000Y-104344000D02*
X116915000Y-104344000D01*
X116670000Y-108204000D02*
X116670000Y-104344000D01*
X116670000Y-108204000D02*
X116670000Y-112064000D01*
X116670000Y-112064000D02*
X116915000Y-112064000D01*
X134790000Y-104344000D02*
X134545000Y-104344000D01*
X134790000Y-108204000D02*
X134790000Y-104344000D01*
X134790000Y-108204000D02*
X134790000Y-112064000D01*
X134790000Y-112064000D02*
X134545000Y-112064000D01*
X135015000Y-103831500D02*
X134545000Y-103491500D01*
X135015000Y-103151500D01*
X135015000Y-103831500D01*
G36*
X135015000Y-103831500D02*
G01*
X134545000Y-103491500D01*
X135015000Y-103151500D01*
X135015000Y-103831500D01*
G37*
%TD*%
M02*
