%TF.GenerationSoftware,KiCad,Pcbnew,8.0.6*%
%TF.CreationDate,2025-10-07T09:04:44+01:00*%
%TF.ProjectId,PCF84C00Adapter,50434638-3443-4303-9041-646170746572,rev?*%
%TF.SameCoordinates,Original*%
%TF.FileFunction,Soldermask,Top*%
%TF.FilePolarity,Negative*%
%FSLAX46Y46*%
G04 Gerber Fmt 4.6, Leading zero omitted, Abs format (unit mm)*
G04 Created by KiCad (PCBNEW 8.0.6) date 2025-10-07 09:04:44*
%MOMM*%
%LPD*%
G01*
G04 APERTURE LIST*
G04 Aperture macros list*
%AMRoundRect*
0 Rectangle with rounded corners*
0 $1 Rounding radius*
0 $2 $3 $4 $5 $6 $7 $8 $9 X,Y pos of 4 corners*
0 Add a 4 corners polygon primitive as box body*
4,1,4,$2,$3,$4,$5,$6,$7,$8,$9,$2,$3,0*
0 Add four circle primitives for the rounded corners*
1,1,$1+$1,$2,$3*
1,1,$1+$1,$4,$5*
1,1,$1+$1,$6,$7*
1,1,$1+$1,$8,$9*
0 Add four rect primitives between the rounded corners*
20,1,$1+$1,$2,$3,$4,$5,0*
20,1,$1+$1,$4,$5,$6,$7,0*
20,1,$1+$1,$6,$7,$8,$9,0*
20,1,$1+$1,$8,$9,$2,$3,0*%
G04 Aperture macros list end*
%ADD10R,2.100000X0.400000*%
%ADD11RoundRect,0.150000X-0.150000X0.875000X-0.150000X-0.875000X0.150000X-0.875000X0.150000X0.875000X0*%
G04 APERTURE END LIST*
D10*
%TO.C,U2*%
X118715000Y-80034000D03*
X118715000Y-80784000D03*
X118715000Y-81534000D03*
X118715000Y-82284000D03*
X118715000Y-83034000D03*
X118715000Y-83784000D03*
X118715000Y-84534000D03*
X118715000Y-85284000D03*
X118715000Y-86034000D03*
X118715000Y-86784000D03*
X118715000Y-87534000D03*
X118715000Y-88284000D03*
X118715000Y-89034000D03*
X118715000Y-89784000D03*
X118715000Y-90534000D03*
X118715000Y-91284000D03*
X118715000Y-92034000D03*
X118715000Y-92784000D03*
X118715000Y-93534000D03*
X118715000Y-94284000D03*
X118715000Y-95034000D03*
X118715000Y-95784000D03*
X118715000Y-96534000D03*
X118715000Y-97284000D03*
X118715000Y-98034000D03*
X118715000Y-98784000D03*
X118715000Y-99534000D03*
X118715000Y-100284000D03*
X132715000Y-100284000D03*
X132715000Y-99534000D03*
X132715000Y-98784000D03*
X132715000Y-98034000D03*
X132715000Y-97284000D03*
X132715000Y-96534000D03*
X132715000Y-95784000D03*
X132715000Y-95034000D03*
X132715000Y-94284000D03*
X132715000Y-93534000D03*
X132715000Y-92784000D03*
X132715000Y-92034000D03*
X132715000Y-91284000D03*
X132715000Y-90534000D03*
X132715000Y-89784000D03*
X132715000Y-89034000D03*
X132715000Y-88284000D03*
X132715000Y-87534000D03*
X132715000Y-86784000D03*
X132715000Y-86034000D03*
X132715000Y-85284000D03*
X132715000Y-84534000D03*
X132715000Y-83784000D03*
X132715000Y-83034000D03*
X132715000Y-82284000D03*
X132715000Y-81534000D03*
X132715000Y-80784000D03*
X132715000Y-80034000D03*
%TD*%
D11*
%TO.C,U3*%
X133985000Y-103554000D03*
X132715000Y-103554000D03*
X131445000Y-103554000D03*
X130175000Y-103554000D03*
X128905000Y-103554000D03*
X127635000Y-103554000D03*
X126365000Y-103554000D03*
X125095000Y-103554000D03*
X123825000Y-103554000D03*
X122555000Y-103554000D03*
X121285000Y-103554000D03*
X120015000Y-103554000D03*
X118745000Y-103554000D03*
X117475000Y-103554000D03*
X117475000Y-112854000D03*
X118745000Y-112854000D03*
X120015000Y-112854000D03*
X121285000Y-112854000D03*
X122555000Y-112854000D03*
X123825000Y-112854000D03*
X125095000Y-112854000D03*
X126365000Y-112854000D03*
X127635000Y-112854000D03*
X128905000Y-112854000D03*
X130175000Y-112854000D03*
X131445000Y-112854000D03*
X132715000Y-112854000D03*
X133985000Y-112854000D03*
%TD*%
M02*
