%TF.GenerationSoftware,KiCad,Pcbnew,(5.1.10)-1*%
%TF.CreationDate,2023-09-23T06:26:34+01:00*%
%TF.ProjectId,PCF84C00Adapter,50434638-3443-4303-9041-646170746572,rev?*%
%TF.SameCoordinates,Original*%
%TF.FileFunction,Soldermask,Top*%
%TF.FilePolarity,Negative*%
%FSLAX46Y46*%
G04 Gerber Fmt 4.6, Leading zero omitted, Abs format (unit mm)*
G04 Created by KiCad (PCBNEW (5.1.10)-1) date 2023-09-23 06:26:34*
%MOMM*%
%LPD*%
G01*
G04 APERTURE LIST*
%ADD10O,1.600000X1.600000*%
%ADD11R,1.600000X1.600000*%
%ADD12R,2.100000X0.400000*%
G04 APERTURE END LIST*
D10*
%TO.C,U3*%
X113792000Y-80264000D03*
X98552000Y-113284000D03*
X113792000Y-82804000D03*
X98552000Y-110744000D03*
X113792000Y-85344000D03*
X98552000Y-108204000D03*
X113792000Y-87884000D03*
X98552000Y-105664000D03*
X113792000Y-90424000D03*
X98552000Y-103124000D03*
X113792000Y-92964000D03*
X98552000Y-100584000D03*
X113792000Y-95504000D03*
X98552000Y-98044000D03*
X113792000Y-98044000D03*
X98552000Y-95504000D03*
X113792000Y-100584000D03*
X98552000Y-92964000D03*
X113792000Y-103124000D03*
X98552000Y-90424000D03*
X113792000Y-105664000D03*
X98552000Y-87884000D03*
X113792000Y-108204000D03*
X98552000Y-85344000D03*
X113792000Y-110744000D03*
X98552000Y-82804000D03*
X113792000Y-113284000D03*
D11*
X98552000Y-80264000D03*
%TD*%
D12*
%TO.C,U2*%
X132730000Y-82204000D03*
X132730000Y-82954000D03*
X132730000Y-83704000D03*
X132730000Y-84454000D03*
X132730000Y-85204000D03*
X132730000Y-85954000D03*
X132730000Y-86704000D03*
X132730000Y-87454000D03*
X132730000Y-88204000D03*
X132730000Y-88954000D03*
X132730000Y-89704000D03*
X132730000Y-90454000D03*
X132730000Y-91204000D03*
X132730000Y-91954000D03*
X132730000Y-92704000D03*
X132730000Y-93454000D03*
X132730000Y-94204000D03*
X132730000Y-94954000D03*
X132730000Y-95704000D03*
X132730000Y-96454000D03*
X132730000Y-97204000D03*
X132730000Y-97954000D03*
X132730000Y-98704000D03*
X132730000Y-99454000D03*
X132730000Y-100204000D03*
X132730000Y-100954000D03*
X132730000Y-101704000D03*
X132730000Y-102454000D03*
X118730000Y-102454000D03*
X118730000Y-101704000D03*
X118730000Y-100954000D03*
X118730000Y-100204000D03*
X118730000Y-99454000D03*
X118730000Y-98704000D03*
X118730000Y-97954000D03*
X118730000Y-97204000D03*
X118730000Y-96454000D03*
X118730000Y-95704000D03*
X118730000Y-94954000D03*
X118730000Y-94204000D03*
X118730000Y-93454000D03*
X118730000Y-92704000D03*
X118730000Y-91954000D03*
X118730000Y-91204000D03*
X118730000Y-90454000D03*
X118730000Y-89704000D03*
X118730000Y-88954000D03*
X118730000Y-88204000D03*
X118730000Y-87454000D03*
X118730000Y-86704000D03*
X118730000Y-85954000D03*
X118730000Y-85204000D03*
X118730000Y-84454000D03*
X118730000Y-83704000D03*
X118730000Y-82954000D03*
X118730000Y-82204000D03*
%TD*%
%TO.C,C2*%
G36*
G01*
X105194000Y-84058999D02*
X105194000Y-85359001D01*
G75*
G02*
X104944001Y-85609000I-249999J0D01*
G01*
X104293999Y-85609000D01*
G75*
G02*
X104044000Y-85359001I0J249999D01*
G01*
X104044000Y-84058999D01*
G75*
G02*
X104293999Y-83809000I249999J0D01*
G01*
X104944001Y-83809000D01*
G75*
G02*
X105194000Y-84058999I0J-249999D01*
G01*
G37*
G36*
G01*
X108144000Y-84058999D02*
X108144000Y-85359001D01*
G75*
G02*
X107894001Y-85609000I-249999J0D01*
G01*
X107243999Y-85609000D01*
G75*
G02*
X106994000Y-85359001I0J249999D01*
G01*
X106994000Y-84058999D01*
G75*
G02*
X107243999Y-83809000I249999J0D01*
G01*
X107894001Y-83809000D01*
G75*
G02*
X108144000Y-84058999I0J-249999D01*
G01*
G37*
%TD*%
%TO.C,C1*%
G36*
G01*
X125035000Y-79486999D02*
X125035000Y-80787001D01*
G75*
G02*
X124785001Y-81037000I-249999J0D01*
G01*
X124134999Y-81037000D01*
G75*
G02*
X123885000Y-80787001I0J249999D01*
G01*
X123885000Y-79486999D01*
G75*
G02*
X124134999Y-79237000I249999J0D01*
G01*
X124785001Y-79237000D01*
G75*
G02*
X125035000Y-79486999I0J-249999D01*
G01*
G37*
G36*
G01*
X127985000Y-79486999D02*
X127985000Y-80787001D01*
G75*
G02*
X127735001Y-81037000I-249999J0D01*
G01*
X127084999Y-81037000D01*
G75*
G02*
X126835000Y-80787001I0J249999D01*
G01*
X126835000Y-79486999D01*
G75*
G02*
X127084999Y-79237000I249999J0D01*
G01*
X127735001Y-79237000D01*
G75*
G02*
X127985000Y-79486999I0J-249999D01*
G01*
G37*
%TD*%
M02*
