M48
; DRILL file {KiCad (5.1.10)-1} date 09/23/23 06:26:36
; FORMAT={-:-/ absolute / inch / decimal}
; #@! TF.CreationDate,2023-09-23T06:26:36+01:00
; #@! TF.GenerationSoftware,Kicad,Pcbnew,(5.1.10)-1
; #@! TF.FileFunction,Plated,1,2,PTH
FMAT,2
INCH
T1C0.0157
T2C0.0315
%
G90
G05
T1
X3.965Y-3.875
X3.995Y-3.395
X4.0115Y-3.755
X4.0115Y-3.815
X4.065Y-3.335
X4.15Y-3.715
X4.17Y-4.075
X4.19Y-3.745
X4.19Y-4.165
X4.23Y-4.25
X4.235Y-3.275
X4.235Y-3.815
X4.24Y-3.61
X4.265Y-4.055
X4.295Y-3.595
X4.355Y-3.95
X4.36Y-3.655
X4.395Y-3.57
X4.395Y-3.765
X4.58Y-4.475
X4.67Y-4.475
X4.715Y-4.31
X4.735Y-4.11
X4.735Y-4.17
X4.7465Y-3.87
X4.7665Y-3.965
X4.85Y-3.185
X4.85Y-3.32
X4.85Y-3.365
X4.85Y-3.41
X4.85Y-3.455
X4.85Y-3.59
X4.85Y-3.635
X4.8502Y-3.5002
X4.8502Y-3.2753
X4.8506Y-3.23
X4.8506Y-3.5445
X4.86Y-3.68
X4.86Y-4.465
X4.8735Y-3.725
X4.9Y-3.155
X4.9025Y-3.9275
X4.915Y-3.83
X4.925Y-4.175
X4.9273Y-4.0573
X4.935Y-4.395
X4.945Y-3.405
X4.945Y-3.76
X4.945Y-3.885
X4.97Y-4.36
X4.9748Y-4.0348
X4.995Y-3.83
X5.005Y-4.23
X5.005Y-4.325
X5.0161Y-3.155
X5.02Y-3.77
X5.02Y-4.155
X5.035Y-3.725
X5.04Y-4.29
X5.0498Y-3.3648
X5.0498Y-3.4548
X5.05Y-3.275
X5.05Y-3.23
X5.05Y-3.32
X5.05Y-3.41
X5.05Y-3.545
X5.05Y-3.5902
X5.05Y-3.635
X5.05Y-3.68
X5.05Y-3.5
X5.0775Y-4.2525
X5.0798Y-3.1402
X5.1Y-4.46
T2
X3.88Y-3.16
X3.88Y-3.26
X3.88Y-3.36
X3.88Y-3.46
X3.88Y-3.56
X3.88Y-3.66
X3.88Y-3.76
X3.88Y-3.86
X3.88Y-3.96
X3.88Y-4.06
X3.88Y-4.16
X3.88Y-4.26
X3.88Y-4.36
X3.88Y-4.46
X4.48Y-3.16
X4.48Y-3.26
X4.48Y-3.36
X4.48Y-3.46
X4.48Y-3.56
X4.48Y-3.66
X4.48Y-3.76
X4.48Y-3.86
X4.48Y-3.96
X4.48Y-4.06
X4.48Y-4.16
X4.48Y-4.26
X4.48Y-4.36
X4.48Y-4.46
T0
M30
