%TF.GenerationSoftware,KiCad,Pcbnew,(5.1.10)-1*%
%TF.CreationDate,2023-09-23T06:26:34+01:00*%
%TF.ProjectId,PCF84C00Adapter,50434638-3443-4303-9041-646170746572,rev?*%
%TF.SameCoordinates,Original*%
%TF.FileFunction,Soldermask,Bot*%
%TF.FilePolarity,Negative*%
%FSLAX46Y46*%
G04 Gerber Fmt 4.6, Leading zero omitted, Abs format (unit mm)*
G04 Created by KiCad (PCBNEW (5.1.10)-1) date 2023-09-23 06:26:34*
%MOMM*%
%LPD*%
G01*
G04 APERTURE LIST*
%ADD10O,1.600000X1.600000*%
%ADD11R,1.600000X1.600000*%
%ADD12R,3.100000X1.600000*%
G04 APERTURE END LIST*
D10*
%TO.C,U3*%
X113792000Y-80264000D03*
X98552000Y-113284000D03*
X113792000Y-82804000D03*
X98552000Y-110744000D03*
X113792000Y-85344000D03*
X98552000Y-108204000D03*
X113792000Y-87884000D03*
X98552000Y-105664000D03*
X113792000Y-90424000D03*
X98552000Y-103124000D03*
X113792000Y-92964000D03*
X98552000Y-100584000D03*
X113792000Y-95504000D03*
X98552000Y-98044000D03*
X113792000Y-98044000D03*
X98552000Y-95504000D03*
X113792000Y-100584000D03*
X98552000Y-92964000D03*
X113792000Y-103124000D03*
X98552000Y-90424000D03*
X113792000Y-105664000D03*
X98552000Y-87884000D03*
X113792000Y-108204000D03*
X98552000Y-85344000D03*
X113792000Y-110744000D03*
X98552000Y-82804000D03*
X113792000Y-113284000D03*
D11*
X98552000Y-80264000D03*
%TD*%
D12*
%TO.C,U1*%
X133985000Y-80264000D03*
X117475000Y-113284000D03*
X133985000Y-82804000D03*
X117475000Y-110744000D03*
X133985000Y-85344000D03*
X117475000Y-108204000D03*
X133985000Y-87884000D03*
X117475000Y-105664000D03*
X133985000Y-90424000D03*
X117475000Y-103124000D03*
X133985000Y-92964000D03*
X117475000Y-100584000D03*
X133985000Y-95504000D03*
X117475000Y-98044000D03*
X133985000Y-98044000D03*
X117475000Y-95504000D03*
X133985000Y-100584000D03*
X117475000Y-92964000D03*
X133985000Y-103124000D03*
X117475000Y-90424000D03*
X133985000Y-105664000D03*
X117475000Y-87884000D03*
X133985000Y-108204000D03*
X117475000Y-85344000D03*
X133985000Y-110744000D03*
X117475000Y-82804000D03*
X133985000Y-113284000D03*
X117475000Y-80264000D03*
%TD*%
M02*
