M48
INCH
T1C00.012
T2C00.020
T3C00.028
T4C00.032
T5C00.036
T6C00.040
T7C00.126
%
T1
X5.70966Y9.0855
X5.85966Y9.9755
X5.95966Y9.3655
X6.05966Y9.7555
X6.05966Y9.8055
X6.10966Y9.5355
X6.15966Y9.6805
X6.25466Y9.6305
X6.25966Y10.0305
X6.25966Y9.7555
X6.25966Y9.3805
X6.30966Y9.6805
X6.36966Y9.7055
X6.46966Y9.6555
X6.49466Y9.6005
X6.64966Y9.5355
X6.64966Y9.4155
X6.65466Y9.5855
X6.65966Y9.9455
X6.70966Y9.5455
X6.80966Y9.5105
X6.81966Y10.0005
X6.89466Y9.9605
X6.91966Y9.4305
X6.97466Y9.4705
X8.18966Y9.3205
X5.28466Y10.1355
X5.70966Y10.1605
X5.80966Y10.3355
X6.14466Y10.5455
X6.15966Y10.2905
X6.35466Y10.3005
X6.35966Y10.2555
X6.40966Y10.5455
X6.45966Y10.2555
X6.50966Y10.3405
X6.60966Y10.4705
X6.75966Y10.3005
X6.84966Y10.2105
X6.85966Y10.5055
X7.15466Y10.0655
X5.73466Y10.7005
T2
X5.80966Y10.4355
X5.51466Y9.8605
X5.04466Y8.8655
T3
X4.85966Y8.8105
T4
X4.85966Y8.9105
X5.15966Y8.9105
X7.00966Y8.8255
X7.10966Y8.8255
X7.20966Y8.8255
X7.30966Y8.8255
X7.49866Y8.9445
X7.59866Y8.9445
X7.69866Y8.9445
X7.79866Y8.9445
X7.89866Y8.9445
X7.99866Y8.9445
X8.09866Y8.9445
X8.30966Y8.8855
X8.40966Y8.8855
X8.50966Y8.8855
X4.85966Y9.4105
X4.85966Y9.1605
X5.15966Y9.4105
X5.15966Y9.1605
X5.34966Y9.3605
X5.34966Y9.4605
X5.34966Y9.2605
X5.64966Y9.4605
X5.64966Y9.3605
X5.64966Y9.2605
X5.80966Y9.2855
X5.90966Y9.2855
X6.00966Y9.2855
X6.10966Y9.2855
X6.20966Y9.2855
X6.30966Y9.2855
X6.40966Y9.2855
X6.50966Y9.2855
X6.60966Y9.2855
X6.70966Y9.2855
X6.80966Y9.2855
X6.90966Y9.2855
X7.00966Y9.2855
X7.00966Y9.1255
X7.10966Y9.2855
X7.10966Y9.1255
X7.20966Y9.1255
X7.30966Y9.1255
X7.49866Y9.2445
X7.55966Y9.3855
X7.59866Y9.2445
X7.65966Y9.3855
X7.69866Y9.2445
X7.75966Y9.3855
X7.79866Y9.2445
X7.85966Y9.3855
X7.89866Y9.2445
X7.95966Y9.3855
X7.99866Y9.2445
X8.05966Y9.3855
X8.09866Y9.2445
X8.15966Y9.3855
X8.30966Y9.1855
X8.40966Y9.1855
X8.50966Y9.1855
X4.85966Y9.6605
X4.88466Y9.8605
X5.08466Y9.8605
X5.15966Y9.6605
X5.34966Y9.5605
X5.34966Y9.9605
X5.34966Y9.6605
X5.34966Y9.7605
X5.34966Y9.8605
X5.64966Y9.6605
X5.64966Y9.5605
X5.64966Y9.8605
X5.64966Y9.9605
X5.64966Y9.7605
X5.80966Y9.8855
X5.90966Y9.8855
X6.00966Y9.8855
X6.10966Y9.8855
X6.20966Y9.8855
X6.30966Y9.8855
X6.40966Y9.8855
X6.50966Y9.8855
X6.60966Y9.8855
X6.70966Y9.8855
X6.80966Y9.8855
X6.90966Y9.8855
X7.00966Y9.8855
X7.10966Y9.8855
X7.55966Y9.6855
X7.55966Y9.7605
X7.65966Y9.6855
X7.65966Y9.7605
X7.75966Y9.6855
X7.75966Y9.7605
X7.85966Y9.6855
X7.85966Y9.7605
X7.95966Y9.6855
X7.95966Y9.7605
X8.05966Y9.6855
X8.05966Y9.7605
X8.15966Y9.7605
X8.15966Y9.6855
X4.88466Y10.0605
X4.98466Y10.1855
X5.08466Y10.0605
X5.18466Y10.1855
X5.18466Y10.3855
X5.35966Y10.2105
X5.35966Y10.4105
X5.55966Y10.3605
X5.55966Y10.2105
X5.80966Y10.1355
X5.90966Y10.1355
X6.00966Y10.1355
X6.10966Y10.1355
X6.20966Y10.1355
X6.30966Y10.1355
X6.40966Y10.1355
X6.50966Y10.1355
X6.60966Y10.1355
X6.70966Y10.1355
X6.80966Y10.1355
X6.90966Y10.1355
X7.00966Y10.1355
X7.10966Y10.1355
X7.50966Y10.3855
X7.55966Y10.0605
X7.65966Y10.0605
X7.75966Y10.0605
X7.85966Y10.0605
X7.95966Y10.0605
X8.05966Y10.0605
X8.15966Y10.0605
X5.18466Y10.5785
X5.35966Y10.6105
X5.55966Y10.5605
X5.80966Y10.7355
X5.90966Y10.7355
X6.00966Y10.7355
X6.10966Y10.7355
X6.20966Y10.7355
X6.30966Y10.7355
X6.40966Y10.7355
X6.50966Y10.7355
X6.60966Y10.7355
X6.70966Y10.7355
X6.80966Y10.7355
X6.90966Y10.7355
X7.00966Y10.7355
X7.50966Y10.5855
X7.10966Y10.7355
T5
X5.25966Y9.2105
X6.70966Y8.7605
X6.70966Y9.1605
X6.80966Y8.7605
X6.80966Y9.1605
X5.00966Y10.2855
X5.25966Y9.6105
X7.30966Y10.1855
X7.30966Y10.1105
X7.30966Y9.7105
X7.40966Y9.7105
X7.40966Y10.1855
X7.40966Y10.1105
X8.04466Y10.2555
X8.04466Y10.1555
X8.14466Y10.2555
X5.00966Y10.6855
X5.45966Y10.7105
X5.45966Y10.3105
X5.65966Y10.3105
X7.30966Y10.5855
X7.40966Y10.5855
X5.65966Y10.7105
T6
X5.70866Y8.9205
X5.81766Y8.9205
X5.92666Y8.9205
X6.03566Y8.9205
X5.65466Y9.0205
X5.76366Y9.0205
X5.87266Y9.0205
X5.98166Y9.0205
X6.09066Y9.0205
X7.84466Y10.5005
X7.84466Y10.4005
X7.94466Y10.5005
X7.94466Y10.4005
X8.04466Y10.4005
X8.04466Y10.5005
X8.14466Y10.5005
X8.14466Y10.4005
X8.24466Y10.4005
X8.24466Y10.5005
T7
X5.37966Y8.9805
X6.36466Y8.9805
M30
