G70*
%FSLAX55Y55*%
%ADD11C,0.01200*%
D11*
X553466Y1048550D02*
X554924Y1045217*
X554507Y1045633D01*
X554507Y1048133*
X554924Y1048550*
X558049Y1048550*
X558466Y1048133*
X558466Y1045633*
X558049Y1045217*
X554507Y1042821D02*
X558466Y1042821D01*
X557632Y1043238*
X495466Y937550D02*
X498799Y939008*
X498382Y938592D01*
X495882Y938592*
X495466Y939008*
X495466Y942133*
X495882Y942550*
X498382Y942550*
X498799Y942133*
X501194Y938592D02*
X501194Y942550D01*
X500778Y941717*
X505882Y939008D02*
X505465Y938592D01*
X503382Y938592*
X502965Y939008*
X502965Y942133*
X503382Y942550*
X505465Y942550*
X505882Y942133*
X505882Y939008*
X502965Y939008D02*
X505882Y942133D01*
X494966Y887550D02*
X498299Y889008*
X497882Y888592D01*
X495382Y888592*
X494966Y889008*
X494966Y892133*
X495382Y892550*
X497882Y892550*
X498299Y892133*
X500694Y888592D02*
X500694Y892550D01*
X500278Y891717*
X503194Y888592D02*
X503194Y892550D01*
X502777Y891717*
X533466Y1056050D02*
X534924Y1052717*
X534507Y1053133D01*
X534507Y1055633*
X534924Y1056050*
X538049Y1056050*
X538466Y1055633*
X538466Y1053133*
X538049Y1052717*
X538049Y1051051D02*
X538466Y1050634D01*
X538466Y1048551*
X538049Y1048134*
X537216Y1048134*
X536799Y1048551*
X534507Y1051051*
X534507Y1048134*
X503466Y1016050D02*
X506799Y1017508*
X506382Y1017092D01*
X503882Y1017092*
X503466Y1017508*
X503466Y1020633*
X503882Y1021050*
X506382Y1021050*
X506799Y1020633*
X508465Y1020633D02*
X508882Y1021050D01*
X510965Y1021050*
X511382Y1020633*
X511382Y1019592*
X510965Y1019175*
X509715Y1019175*
X510965Y1019175*
X511382Y1018758*
X511382Y1017717*
X510965Y1017092*
X508882Y1017092*
X508465Y1017508*
X497466Y963050D02*
X500799Y964508*
X500382Y964092D01*
X497882Y964092*
X497466Y964508*
X497466Y967633*
X497882Y968050*
X500382Y968050*
X500799Y967633*
X504549Y964092D02*
X504549Y968050D01*
X502465Y965550*
X505382Y965550*
X503466Y993550D02*
X506799Y995008*
X506382Y994592D01*
X503882Y994592*
X503466Y995008*
X503466Y998133*
X503882Y998550*
X506382Y998550*
X506799Y998133*
X508465Y995008D02*
X508882Y994592D01*
X510965Y994592*
X511382Y995008*
X511382Y996467*
X510965Y996883*
X508882Y996883*
X508465Y996467*
X508465Y998550*
X511382Y998550*
X748466Y1053550D02*
X749924Y1050217*
X749507Y1050633D01*
X749507Y1053133*
X749924Y1053550*
X753049Y1053550*
X753466Y1053133*
X753466Y1050633*
X753049Y1050217*
X751382Y1048551D02*
X751799Y1048134D01*
X751799Y1046051*
X751382Y1045634*
X749924Y1045634*
X749507Y1046051*
X749507Y1048134*
X749924Y1048551*
X753049Y1048551*
X753466Y1048134*
X753466Y1046051*
X753049Y1045634*
X485966Y998550D02*
X487424Y995217*
X487007Y995633D01*
X487007Y998133*
X487424Y998550*
X490549Y998550*
X490966Y998133*
X490966Y995633*
X490549Y995217*
X490966Y993551D02*
X490966Y990634D01*
X487007Y993134*
X540966Y1018550D02*
X544299Y1020008*
X543882Y1019592D01*
X541382Y1019592*
X540966Y1020008*
X540966Y1023133*
X541382Y1023550*
X543882Y1023550*
X544299Y1023133*
X545965Y1020008D02*
X545965Y1021258D01*
X546382Y1021675*
X548465Y1021675*
X548882Y1022092*
X548882Y1023133*
X548465Y1023550*
X546382Y1023550*
X545965Y1023133*
X545965Y1022092*
X546382Y1021675*
X548465Y1021675*
X548882Y1021258*
X548882Y1020008*
X548465Y1019592*
X546382Y1019592*
X545965Y1020008*
X497466Y912550D02*
X500799Y914008*
X500382Y913592D01*
X497882Y913592*
X497466Y914008*
X497466Y917133*
X497882Y917550*
X500382Y917550*
X500799Y917133*
X505382Y915883D02*
X504965Y915467D01*
X502674Y915467*
X502465Y915883*
X502465Y917133*
X502882Y917550*
X504965Y917550*
X505382Y917133*
X505382Y914008*
X504965Y913592*
X502882Y913592*
X502465Y914008*
X752966Y993050D02*
X757966Y993050*
X757966Y990967D01*
X757549Y990133*
X756716Y989717*
X755257Y989717*
X754424Y990133*
X754007Y990967*
X754007Y993050*
X754007Y992217D02*
X757966Y992217D01*
X754007Y987321D02*
X757966Y987321D01*
X757132Y987738*
X773466Y996050D02*
X778466Y996050*
X778466Y993967D01*
X778049Y993133*
X777216Y992717*
X775757Y992717*
X774924Y993133*
X774507Y993967*
X774507Y996050*
X774507Y995217D02*
X778466Y995217D01*
X774507Y990321D02*
X778466Y990321D01*
X777632Y990738*
X774924Y985634D02*
X774507Y986051D01*
X774507Y988134*
X774924Y988551*
X778049Y988551*
X778466Y988134*
X778466Y986051*
X778049Y985634*
X774924Y985634*
X774924Y988551D02*
X778049Y985634D01*
X783466Y996050D02*
X788466Y996050*
X788466Y993967D01*
X788049Y993133*
X787216Y992717*
X785757Y992717*
X784924Y993133*
X784507Y993967*
X784507Y996050*
X784507Y995217D02*
X788466Y995217D01*
X784507Y990321D02*
X788466Y990321D01*
X787632Y990738*
X784507Y987822D02*
X788466Y987822D01*
X787632Y988238*
X793466Y996050D02*
X798466Y996050*
X798466Y993967D01*
X798049Y993133*
X797216Y992717*
X795757Y992717*
X794924Y993133*
X794507Y993967*
X794507Y996050*
X794507Y995217D02*
X798466Y995217D01*
X794507Y990321D02*
X798466Y990321D01*
X797632Y990738*
X798049Y988551D02*
X798466Y988134D01*
X798466Y986051*
X798049Y985634*
X797216Y985634*
X796799Y986051*
X794507Y988551*
X794507Y985634*
X803466Y996050D02*
X808466Y996050*
X808466Y993967D01*
X808049Y993133*
X807216Y992717*
X805757Y992717*
X804924Y993133*
X804507Y993967*
X804507Y996050*
X804507Y995217D02*
X808466Y995217D01*
X804507Y990321D02*
X808466Y990321D01*
X807632Y990738*
X808049Y988551D02*
X808466Y988134D01*
X808466Y986051*
X808049Y985634*
X807007Y985634*
X806591Y986051*
X806591Y987301*
X806591Y986051*
X806174Y985634*
X805132Y985634*
X804507Y986051*
X804507Y988134*
X804924Y988551*
X813466Y996050D02*
X818466Y996050*
X818466Y993967D01*
X818049Y993133*
X817216Y992717*
X815757Y992717*
X814924Y993133*
X814507Y993967*
X814507Y996050*
X814507Y995217D02*
X818466Y995217D01*
X814507Y990321D02*
X818466Y990321D01*
X817632Y990738*
X814507Y986468D02*
X818466Y986468D01*
X815966Y988551*
X815966Y985634*
X698466Y900050D02*
X703466Y900050*
X703466Y897967D01*
X703049Y897133*
X702216Y896717*
X700757Y896717*
X699924Y897133*
X699507Y897967*
X699507Y900050*
X699507Y899217D02*
X703466Y899217D01*
X703049Y895051D02*
X703466Y894634D01*
X703466Y892551*
X703049Y892134*
X702216Y892134*
X701799Y892551*
X699507Y895051*
X699507Y892134*
X708466Y900050D02*
X713466Y900050*
X713466Y897967D01*
X713049Y897133*
X712216Y896717*
X710757Y896717*
X709924Y897133*
X709507Y897967*
X709507Y900050*
X709507Y899217D02*
X713466Y899217D01*
X713049Y895051D02*
X713466Y894634D01*
X713466Y892551*
X713049Y892134*
X712007Y892134*
X711591Y892551*
X711591Y893801*
X711591Y892551*
X711174Y892134*
X710132Y892134*
X709507Y892551*
X709507Y894634*
X709924Y895051*
X718466Y900050D02*
X723466Y900050*
X723466Y897967D01*
X723049Y897133*
X722216Y896717*
X720757Y896717*
X719924Y897133*
X719507Y897967*
X719507Y900050*
X719507Y899217D02*
X723466Y899217D01*
X719507Y892967D02*
X723466Y892967D01*
X720966Y895051*
X720966Y892134*
X728466Y900050D02*
X733466Y900050*
X733466Y897967D01*
X733049Y897133*
X732216Y896717*
X730757Y896717*
X729924Y897133*
X729507Y897967*
X729507Y900050*
X729507Y899217D02*
X733466Y899217D01*
X729924Y895051D02*
X729507Y894634D01*
X729507Y892551*
X729924Y892134*
X731382Y892134*
X731799Y892551*
X731799Y894634*
X731382Y895051*
X733466Y895051*
X733466Y892134*
X828466Y906050D02*
X833466Y906050*
X833466Y903967D01*
X833049Y903133*
X832216Y902717*
X830757Y902717*
X829924Y903133*
X829507Y903967*
X829507Y906050*
X829507Y905217D02*
X833466Y905217D01*
X831382Y901051D02*
X831799Y900634D01*
X831799Y898551*
X831382Y898134*
X829924Y898134*
X829507Y898551*
X829507Y900634*
X829924Y901051*
X833049Y901051*
X833466Y900634*
X833466Y898551*
X833049Y898134*
X838466Y906050D02*
X843466Y906050*
X843466Y903967D01*
X843049Y903133*
X842216Y902717*
X840757Y902717*
X839924Y903133*
X839507Y903967*
X839507Y906050*
X839507Y905217D02*
X843466Y905217D01*
X843466Y901051D02*
X843466Y898134D01*
X839507Y900634*
X848466Y906050D02*
X853466Y906050*
X853466Y903967D01*
X853049Y903133*
X852216Y902717*
X850757Y902717*
X849924Y903133*
X849507Y903967*
X849507Y906050*
X849507Y905217D02*
X853466Y905217D01*
X849924Y901051D02*
X851174Y901051D01*
X851591Y900634*
X851591Y898551*
X852007Y898134*
X853049Y898134*
X853466Y898551*
X853466Y900634*
X853049Y901051*
X852007Y901051*
X851591Y900634*
X851591Y898551*
X851174Y898134*
X849924Y898134*
X849507Y898551*
X849507Y900634*
X849924Y901051*
X763466Y996050D02*
X768466Y996050*
X768466Y993967D01*
X768049Y993133*
X767216Y992717*
X765757Y992717*
X764924Y993133*
X764507Y993967*
X764507Y996050*
X764507Y995217D02*
X768466Y995217D01*
X766799Y988134D02*
X766382Y988551D01*
X766382Y990842*
X766799Y991051*
X768049Y991051*
X768466Y990634*
X768466Y988551*
X768049Y988134*
X764924Y988134*
X764507Y988551*
X764507Y990634*
X764924Y991051*
X490966Y874050D02*
X490966Y875092*
X490966Y879050D01*
X490966Y877175D02*
X494299Y877175D01*
X494299Y879050D02*
X494299Y875092D01*
X496694Y875092D02*
X496694Y879050D01*
X496278Y878217*
X805966Y1018550D02*
X809299Y1020425*
X808674Y1019592D01*
X806591Y1019592*
X805966Y1020217*
X805966Y1022925*
X806591Y1023550*
X808674Y1023550*
X809299Y1022925*
X809299Y1020217*
X808466Y1020008D02*
X809299Y1019383D01*
X811694Y1019592D02*
X811694Y1023550D01*
X811278Y1022717*
X743466Y1033550D02*
X742424Y1033550*
X738466Y1033550D01*
X738466Y1036467*
X738883Y1036883*
X739924Y1036883*
X740341Y1036467*
X740341Y1033550*
X740341Y1036050D02*
X740341Y1036467D01*
X742424Y1036883*
X742424Y1039279D02*
X738466Y1039279D01*
X739299Y1038862*
X738466Y993550D02*
X739507Y993550*
X743466Y993550D01*
X743466Y990633*
X743049Y990217*
X742007Y990217*
X741591Y990633*
X741591Y993550*
X741591Y991050D02*
X741591Y990633D01*
X739507Y990217*
X743049Y988551D02*
X743466Y988134D01*
X743466Y986051*
X743049Y985634*
X742216Y985634*
X741799Y986051*
X739507Y988551*
X739507Y985634*
X733466Y1033550D02*
X732424Y1033550*
X728466Y1033550D01*
X728466Y1036467*
X728883Y1036883*
X729924Y1036883*
X730341Y1036467*
X730341Y1033550*
X730341Y1036050D02*
X730341Y1036467D01*
X732424Y1036883*
X728883Y1038549D02*
X728466Y1038966D01*
X728466Y1041049*
X728883Y1041466*
X729924Y1041466*
X730341Y1041049*
X730341Y1039799*
X730341Y1041049*
X730758Y1041466*
X731799Y1041466*
X732424Y1041049*
X732424Y1038966*
X732008Y1038549*
X728466Y993550D02*
X729507Y993550*
X733466Y993550D01*
X733466Y990633*
X733049Y990217*
X732007Y990217*
X731591Y990633*
X731591Y993550*
X731591Y991050D02*
X731591Y990633D01*
X729507Y990217*
X729507Y986467D02*
X733466Y986467D01*
X730966Y988551*
X730966Y985634*
X543466Y1056050D02*
X544507Y1056050*
X548466Y1056050D01*
X548466Y1053133*
X548049Y1052717*
X547007Y1052717*
X546591Y1053133*
X546591Y1056050*
X546591Y1053550D02*
X546591Y1053133D01*
X544507Y1052717*
X544924Y1051051D02*
X544507Y1050634D01*
X544507Y1048551*
X544924Y1048134*
X546382Y1048134*
X546799Y1048551*
X546799Y1050634*
X546382Y1051051*
X548466Y1051051*
X548466Y1048134*
X498466Y1053550D02*
X499507Y1053550*
X503466Y1053550D01*
X503466Y1050633*
X503049Y1050217*
X502007Y1050217*
X501591Y1050633*
X501591Y1053550*
X501591Y1051050D02*
X501591Y1050633D01*
X499507Y1050217*
X501382Y1048551D02*
X501799Y1048134D01*
X501799Y1046051*
X501382Y1045634*
X499924Y1045634*
X499507Y1046051*
X499507Y1048134*
X499924Y1048551*
X503049Y1048551*
X503466Y1048134*
X503466Y1046051*
X503049Y1045634*
X563466Y1056050D02*
X564507Y1056050*
X568466Y1056050D01*
X568466Y1053133*
X568049Y1052717*
X567007Y1052717*
X566591Y1053133*
X566591Y1056050*
X566591Y1053550D02*
X566591Y1053133D01*
X564507Y1052717*
X568466Y1051051D02*
X568466Y1048134D01*
X564507Y1050634*
X678466Y901050D02*
X679507Y901050*
X683466Y901050D01*
X683466Y898133*
X683049Y897717*
X682007Y897717*
X681591Y898133*
X681591Y901050*
X681591Y898550D02*
X681591Y898133D01*
X679507Y897717*
X679924Y896051D02*
X681174Y896051D01*
X681591Y895634*
X681591Y893551*
X682007Y893134*
X683049Y893134*
X683466Y893551*
X683466Y895634*
X683049Y896051*
X682007Y896051*
X681591Y895634*
X681591Y893551*
X681174Y893134*
X679924Y893134*
X679507Y893551*
X679507Y895634*
X679924Y896051*
X668466Y901050D02*
X669507Y901050*
X673466Y901050D01*
X673466Y898133*
X673049Y897717*
X672007Y897717*
X671591Y898133*
X671591Y901050*
X671591Y898550D02*
X671591Y898133D01*
X669507Y897717*
X671799Y893134D02*
X671382Y893551D01*
X671382Y895842*
X671799Y896051*
X673049Y896051*
X673466Y895634*
X673466Y893551*
X673049Y893134*
X669924Y893134*
X669507Y893551*
X669507Y895634*
X669924Y896051*
X488466Y1073550D02*
X488466Y1074592*
X488466Y1078550D01*
X491382Y1078550*
X491799Y1078133*
X491799Y1077092*
X491382Y1076675*
X488466Y1076675*
X490966Y1076675D02*
X491382Y1076675D01*
X491799Y1074592*
X496382Y1074592D02*
X493465Y1074592D01*
X493465Y1078550*
X496382Y1078550*
X496382Y1076675D02*
X493465Y1076675D01*
X498465Y1074592D02*
X498465Y1078550D01*
X501381Y1078550*
X501381Y1076675D02*
X498465Y1076675D01*
X504193Y1074592D02*
X504193Y1078550D01*
X503776Y1077717*
X825966Y873550D02*
X825966Y874592*
X825966Y878550D01*
X828882Y878550*
X829299Y878133*
X829299Y877092*
X828882Y876675*
X825966Y876675*
X828466Y876675D02*
X828882Y876675D01*
X829299Y874592*
X833882Y874592D02*
X830965Y874592D01*
X830965Y878550*
X833882Y878550*
X833882Y876675D02*
X830965Y876675D01*
X835965Y874592D02*
X835965Y878550D01*
X838881Y878550*
X838881Y876675D02*
X835965Y876675D01*
X840964Y878133D02*
X841381Y878550D01*
X843464Y878550*
X843881Y878133*
X843881Y877300*
X843464Y876883*
X840964Y874592*
X843881Y874592*
X773066Y875450D02*
X773066Y876908*
X773482Y876492D01*
X775566Y876492*
X775982Y876908*
X775982Y878158*
X775566Y878575*
X773482Y878575*
X773066Y878992*
X773066Y880033*
X773482Y880450*
X775566Y880450*
X775982Y880033*
X778794Y876492D02*
X778794Y880450D01*
X778378Y879617*
X781966Y957050D02*
X781966Y958508*
X782382Y958092D01*
X784466Y958092*
X784882Y958508*
X784882Y959758*
X784466Y960175*
X782382Y960175*
X781966Y960592*
X781966Y961633*
X782382Y962050*
X784466Y962050*
X784882Y961633*
X786965Y961633D02*
X787382Y962050D01*
X789465Y962050*
X789882Y961633*
X789882Y960800*
X789465Y960383*
X786965Y958092*
X789882Y958092*
X703466Y976050D02*
X704924Y976050*
X704507Y975633D01*
X704507Y973550*
X704924Y973133*
X706174Y973133*
X706591Y973550*
X706591Y975633*
X707007Y976050*
X708049Y976050*
X708466Y975633*
X708466Y973550*
X708049Y973133*
X704507Y971051D02*
X708466Y971051D01*
X708466Y968134*
X708049Y967717*
X707007Y967717*
X706591Y968134*
X706591Y971051*
X704507Y965322D02*
X708466Y965322D01*
X707632Y965739*
X703466Y951050D02*
X704924Y951050*
X704507Y950633D01*
X704507Y948550*
X704924Y948133*
X706174Y948133*
X706591Y948550*
X706591Y950633*
X707007Y951050*
X708049Y951050*
X708466Y950633*
X708466Y948550*
X708049Y948133*
X704507Y946051D02*
X708466Y946051D01*
X708466Y943134*
X708049Y942717*
X707007Y942717*
X706591Y943134*
X706591Y946051*
X708049Y941051D02*
X708466Y940635D01*
X708466Y938551*
X708049Y938135*
X707216Y938135*
X706799Y938551*
X704507Y941051*
X704507Y938135*
X504966Y875050D02*
X504966Y876508*
X505382Y876092D01*
X507466Y876092*
X507882Y876508*
X507882Y877758*
X507466Y878175*
X505382Y878175*
X504966Y878592*
X504966Y879633*
X505382Y880050*
X507466Y880050*
X507882Y879633*
X509965Y876092D02*
X509965Y880050D01*
X512882Y880050*
X513299Y879633*
X513299Y878592*
X512882Y878175*
X509965Y878175*
X514965Y879633D02*
X515381Y880050D01*
X517465Y880050*
X517881Y879633*
X517881Y878592*
X517465Y878175*
X516215Y878175*
X517465Y878175*
X517881Y877758*
X517881Y876717*
X517465Y876092*
X515381Y876092*
X514965Y876508*
X638466Y956050D02*
X638466Y961050*
X640132Y957092D01*
X641799Y961050*
X644194Y957092D02*
X644194Y961050D01*
X643778Y960217*
X638466Y1041050D02*
X638466Y1046050*
X640132Y1042092D01*
X641799Y1046050*
X643465Y1045633D02*
X643882Y1046050D01*
X645965Y1046050*
X646382Y1045633*
X646382Y1044800*
X645965Y1044383*
X643465Y1042092*
X646382Y1042092*
X543466Y958050D02*
X543466Y963050*
X545132Y959092D01*
X546799Y963050*
X548465Y962633D02*
X548882Y963050D01*
X550965Y963050*
X551382Y962633*
X551382Y961592*
X550965Y961175*
X549715Y961175*
X550965Y961175*
X551382Y960758*
X551382Y959717*
X550965Y959092*
X548882Y959092*
X548465Y959508*
X515966Y1046050D02*
X515966Y1047092*
X519299Y1051050D01*
X515966Y1051050D02*
X519299Y1047092D01*
X521694Y1047092D02*
X521694Y1051050D01*
X521278Y1050217*
X801966Y1072550D02*
X803007Y1072550*
X806966Y1069217D01*
X806966Y1072550D02*
X803007Y1069217D01*
X806966Y1067551D02*
X806966Y1065467D01*
X806549Y1064634*
X805716Y1064217*
X804257Y1064217*
X803424Y1064634*
X803007Y1065467*
X803007Y1067551*
X803007Y1066717D02*
X806966Y1066717D01*
X803007Y1061822D02*
X806966Y1061822D01*
X806132Y1062239*
X578566Y836850D02*
X578566Y837892*
X581899Y841850D01*
X578566Y841850D02*
X581899Y837892D01*
X586482Y837892D02*
X583565Y837892D01*
X583565Y841850*
X586482Y841850*
X586482Y839975D02*
X583565Y839975D01*
X589294Y837892D02*
X589294Y841850D01*
X588877Y841017*
X523466Y946050D02*
X524507Y946050*
X528466Y946050D01*
X528466Y943133*
X528049Y942717*
X527007Y942717*
X526591Y943133*
X526591Y946050*
X526591Y943550D02*
X526591Y943133D01*
X524507Y942717*
X524507Y940321D02*
X528466Y940321D01*
X527632Y940738*
X524924Y935634D02*
X524507Y936051D01*
X524507Y938134*
X524924Y938551*
X528049Y938551*
X528466Y938134*
X528466Y936051*
X528049Y935634*
X524924Y935634*
X524924Y938551D02*
X528049Y935634D01*
M02*
