G70*
%FSLAX55Y55*%
%ADD11C,0.04000*%
%ADD12C,0.01200*%
%ADD13C,0.05000*%
%ADD14C,0.02000*%
%ADD15C,0.02500*%
%ADD16C,0.06000*%
%ADD17C,0.08000*%
%ADD18R,0.08000X0.08000*%
%ADD19R,0.06000X0.06000*%
%ADD20C,0.05000*%
%ADD21C,0.19700*%
%ADD22C,0.02800*%
D11*
X488466Y986050D02*
X495966Y978550D01*
X495966Y951050*
X485966Y941050*
X565966Y1071050D02*
X565966Y1066050D01*
X571966Y1060050*
X729466Y1060050*
X730966Y1058550*
D12*
X590966Y928550D02*
X588466Y923550D01*
X575966Y923550*
X568466Y931050*
X555966Y931050*
X543466Y946550*
X543466Y1000550*
X537966Y1003550*
X525966Y1003550*
X518466Y1011050*
X518466Y1018550*
X518466Y1038550D02*
X529466Y1049550D01*
X586966Y1049550*
X589466Y1047050*
X660966Y1047050*
X528466Y1013550D02*
X533466Y1008550D01*
X539466Y1008550*
X546966Y1004050*
X546966Y962550*
X555966Y951050*
X573966Y951050*
X580966Y944050*
X580966Y928550*
X685966Y1050550D02*
X755466Y1050550D01*
X775966Y1071050*
X815966Y1071050*
X824466Y1062050*
X824466Y1050050*
X680966Y1013550D02*
X674466Y1003050D01*
X625966Y1003050*
X625966Y975550D02*
X605966Y975550D01*
X685966Y1050550D02*
X592466Y1050550D01*
X588966Y1053550*
X558466Y1053550*
X555966Y1056050*
X740966Y971050D02*
X733466Y979050D01*
X705466Y979050*
X700966Y983550*
X700966Y988550*
X730966Y971050D02*
X727966Y974050D01*
X697966Y974050*
X690966Y980550*
X690966Y988550*
X689466Y996050D02*
X821466Y996550D01*
X824466Y999550*
X824466Y1040050*
X625966Y938050D02*
X627966Y936050D01*
X738466Y936050*
X741466Y933050*
X817466Y933050*
X818966Y932050*
X590966Y1013550D02*
X590966Y1007050D01*
X602466Y996050*
X613466Y996050*
X620966Y988550*
X625466Y963050D02*
X636966Y963050D01*
X645466Y971550*
X684966Y971550*
X688466Y968050*
X719966Y968050*
X727966Y960550*
X802966Y960550*
X815966Y947550*
X815966Y938550*
X646966Y965550D02*
X648966Y967050D01*
X683466Y967050*
X685466Y965050*
X717466Y965050*
X724966Y957550*
X796966Y957550*
X805966Y948550*
X805966Y938550*
X640966Y988550D02*
X633466Y980550D01*
X605966Y980550*
X640966Y1054550D02*
X614466Y1054550D01*
X649466Y960050D02*
X652466Y963050D01*
X682466Y963050*
X683966Y961550*
X715466Y961550*
X722466Y954550*
X788966Y954550*
X795966Y947550*
X795966Y938550*
X785966Y938550D02*
X785966Y945550D01*
X779966Y951550*
X719966Y951550*
X713466Y958550*
X665466Y958550*
X660966Y988550D02*
X653466Y996050D01*
X619966Y996050*
X610966Y1005050*
X610966Y1013550*
X635466Y1030050D02*
X675966Y1030050D01*
X670966Y954550D02*
X711466Y954550D01*
X717466Y948550*
X770966Y948550*
X775966Y943550*
X775966Y938550*
X765966Y938550D02*
X765966Y940550D01*
X761466Y945550*
X714466Y945550*
X708966Y951050*
X680966Y951050*
X680966Y988550D02*
X681466Y988050D01*
X681466Y992050*
X674466Y999050*
X623466Y999050*
X620966Y1001550*
X620966Y1013550*
X635966Y1025550D02*
X645966Y1025550D01*
X665966Y994550D02*
X665966Y975550D01*
X642466Y975550*
X636966Y970550*
X755966Y976050D02*
X751966Y976050D01*
X749966Y973550*
X749966Y967050*
X747466Y964550*
X728966Y964550*
X722466Y971050*
X691466Y971050*
X686966Y975550*
X641966Y975550*
X636966Y970550*
X630966Y968050D02*
X615966Y968050D01*
X615966Y1029050D02*
X624466Y1029050D01*
X632466Y1021050*
X684966Y1021050*
X691966Y943050D02*
X671466Y943050D01*
X668466Y946050*
X624966Y946050*
X620966Y941550*
X620966Y928550*
X697466Y947050D02*
X674966Y947050D01*
X672466Y949550*
X620966Y949550*
X610966Y939550*
X610966Y928550*
X565966Y1031050D02*
X578466Y1031050D01*
X580966Y1033550*
X830966Y918550D02*
X825966Y918550D01*
X814466Y930050*
X741966Y930050*
X730966Y919050*
X730966Y912550*
X700966Y912550D02*
X694966Y921050D01*
X680466Y921050*
X670966Y928550*
X681966Y1000050D02*
X744466Y1000050D01*
X747966Y1003550*
X747966Y1017050*
X756466Y1025550*
X804466Y1025550*
X755966Y938550D02*
X754966Y939050D01*
X667966Y939050*
X664966Y941550*
X664966Y953550D02*
X610966Y953550D01*
X573466Y1070050D02*
X576966Y1066550D01*
X638466Y1066550*
X640966Y1069050*
X640966Y1073550*
X630966Y1013550D02*
X630966Y1015050D01*
X624466Y1021550*
X588966Y1021550*
X585966Y1018550*
X585966Y997550*
X570966Y1016050D02*
X588966Y1034050D01*
X650966Y1034050*
X534966Y996050D02*
X528466Y996050D01*
X526566Y993550*
X526566Y973550*
X515966Y966050*
X534966Y956050D02*
X525966Y948550D01*
X525966Y933050*
X515966Y922550*
X515966Y916050*
X700966Y882550D02*
X737466Y907550D01*
X744966Y907550*
X749866Y912750*
X749866Y924450*
X710966Y882550D02*
X739966Y905050D01*
X753466Y905050*
X759866Y911450*
X759866Y924450*
X720966Y882550D02*
X742466Y902550D01*
X762766Y902550*
X769866Y909650*
X769866Y924450*
X730966Y882550D02*
X744966Y900050D01*
X772966Y900050*
X779866Y907050*
X779866Y924450*
X789866Y924450D02*
X789866Y911950D01*
X798466Y903550*
X821966Y903550*
X830966Y888550*
X840966Y888550D02*
X829966Y907550D01*
X805966Y907550*
X799866Y913850*
X799866Y924450*
X809866Y924450D02*
X809966Y914350D01*
X812766Y911550*
X835966Y911550*
X850966Y888550*
X576366Y902050D02*
X576366Y909750D01*
X595966Y923550*
X595966Y954050*
X583966Y966050*
X564966Y966050*
X576366Y902050D02*
X576366Y909750D01*
X595966Y923550*
X595966Y936550*
X570966Y908550D02*
X543466Y936050D01*
X534966Y936050*
X534966Y926050D02*
X547466Y926050D01*
X558466Y916050*
X558466Y889550*
X564466Y883550*
X592666Y883550*
X592666Y892050*
X592666Y883550*
X581766Y883550*
X608466Y883550*
X615966Y891050*
X615966Y913550*
X620966Y918550*
X648466Y918550*
X663466Y906050*
X670966Y876050*
X564966Y976050D02*
X587966Y976050D01*
X605966Y958050*
X605966Y918050*
X605766Y916750*
X587266Y908250*
X587266Y902050*
D13*
X535966Y1021050D02*
X535966Y1031050D01*
X545966Y1031050*
X488466Y1006050D02*
X508466Y1006050D01*
X564966Y986050D02*
X553966Y986050D01*
X553966Y1010050*
X540966Y1021050*
X535966Y1021050*
X508466Y1006050D02*
X498466Y1006050D01*
X498466Y1018550*
D14*
X690966Y1013550D02*
X691066Y1020150D01*
X690966Y1008550*
X692966Y1006550*
X715466Y1006550*
D13*
X564966Y986050D02*
X577966Y986050D01*
X580966Y988550*
X750966Y1038550D02*
X750966Y1040550D01*
X690966Y1040550*
X690966Y1013550*
X535966Y1041050D02*
X535966Y1028550D01*
X515966Y1028550*
X505966Y1018550*
X498466Y1018550*
X579866Y1043550D02*
X538466Y1043550D01*
X535966Y1041050*
X535966Y1031050*
X545966Y1031050*
X504466Y886550D02*
X504466Y891050D01*
X485966Y891050*
X535966Y1041050D02*
X535966Y1031050D01*
X545966Y1031050*
X750966Y1038550D02*
X750966Y1040550D01*
X755466Y1040550*
X778466Y1063550*
X805966Y1063550*
X814366Y1054950*
X814466Y1040050*
X690966Y1013550D02*
X690966Y1040550D01*
X583966Y1040550*
X580966Y1043550*
X538466Y1043550*
X535966Y1041050*
X535966Y1021050*
X540966Y1021050*
X551466Y1010050*
X551466Y986050*
X577966Y986050*
X580966Y988550*
X579966Y987550*
X577966Y986050*
D15*
X569466Y986050D01*
D13*
X552566Y986050D01*
X485966Y891050D02*
X504466Y891050D01*
X504466Y969550*
X519466Y978550*
X519466Y997050*
X509966Y1006050*
X488466Y1006050*
D12*
G36*
X622966Y911550D02*
X647966Y911550D01*
X647966Y870050*
X622966Y870050*
X622966Y911550*
G37*
X647966Y911550*
X647966Y870050*
X622966Y870050*
X622966Y911550*
G36*
X526966Y870050D02*
X526966Y911550D01*
X551966Y911550*
X551966Y870050*
X526966Y870050*
G37*
X526966Y911550*
X551966Y911550*
X551966Y870050*
X526966Y870050*
D16*
X555966Y1036050D03*
X555966Y1056050D03*
D17*
X485966Y941050D03*
X515966Y941050D03*
X515966Y891050D03*
X485966Y891050D03*
D16*
X535966Y1061050D03*
X535966Y1041050D03*
X518466Y1018550D03*
X498466Y1018550D03*
D17*
X515966Y966050D03*
X485966Y966050D03*
D18*
X508466Y986050D03*
D17*
X508466Y1006050D03*
D16*
X750966Y1058550D03*
X750966Y1038550D03*
X488466Y986050D03*
X488466Y1006050D03*
X555966Y1021050D03*
X535966Y1021050D03*
D17*
X485966Y916050D03*
X515966Y916050D03*
D19*
X755966Y1006050D03*
D16*
X755966Y976050D03*
D19*
X775966Y1006050D03*
D16*
X775966Y976050D03*
D19*
X785966Y1006050D03*
D16*
X785966Y976050D03*
D19*
X795966Y1006050D03*
D16*
X795966Y976050D03*
D19*
X805966Y1006050D03*
D16*
X805966Y976050D03*
D19*
X815966Y1006050D03*
D16*
X815966Y976050D03*
D19*
X700966Y912550D03*
D16*
X700966Y882550D03*
D19*
X710966Y912550D03*
D16*
X710966Y882550D03*
D19*
X720966Y912550D03*
D16*
X720966Y882550D03*
D19*
X730966Y912550D03*
D16*
X730966Y882550D03*
D19*
X830966Y918550D03*
D16*
X830966Y888550D03*
D19*
X840966Y918550D03*
D16*
X840966Y888550D03*
D19*
X850966Y918550D03*
D16*
X850966Y888550D03*
D19*
X765966Y1006050D03*
D16*
X765966Y976050D03*
D20*
X485966Y881050D03*
D16*
X814466Y1025550D03*
X804466Y1025550D03*
X804466Y1015550D03*
X740966Y1058550D03*
X740966Y1018550D03*
X740966Y1011050D03*
X740966Y971050D03*
X730966Y1058550D03*
X730966Y1018550D03*
X730966Y1011050D03*
X730966Y971050D03*
X545966Y1071050D03*
X545966Y1031050D03*
X500966Y1068550D03*
X500966Y1028550D03*
X565966Y1071050D03*
X565966Y1031050D03*
X680966Y916050D03*
X680966Y876050D03*
X670966Y916050D03*
X670966Y876050D03*
D20*
X483466Y1073550D03*
X848466Y878550D03*
D19*
X749866Y894450D03*
D16*
X759866Y894450D03*
X769866Y894450D03*
X779866Y894450D03*
X789866Y894450D03*
X799866Y894450D03*
X809866Y894450D03*
X809866Y924450D03*
X799866Y924450D03*
X789866Y924450D03*
X779866Y924450D03*
X769866Y924450D03*
X759866Y924450D03*
X749866Y924450D03*
D19*
X755966Y938550D03*
D16*
X765966Y938550D03*
X775966Y938550D03*
X785966Y938550D03*
X795966Y938550D03*
X805966Y938550D03*
X815966Y938550D03*
X815966Y968550D03*
X805966Y968550D03*
X795966Y968550D03*
X785966Y968550D03*
X775966Y968550D03*
X765966Y968550D03*
X755966Y968550D03*
D19*
X710966Y988550D03*
D16*
X700966Y988550D03*
X690966Y988550D03*
X680966Y988550D03*
X670966Y988550D03*
X660966Y988550D03*
X650966Y988550D03*
X640966Y988550D03*
X630966Y988550D03*
X620966Y988550D03*
X610966Y988550D03*
X600966Y988550D03*
X590966Y988550D03*
X580966Y988550D03*
X580966Y928550D03*
X590966Y928550D03*
X600966Y928550D03*
X610966Y928550D03*
X620966Y928550D03*
X630966Y928550D03*
X640966Y928550D03*
X650966Y928550D03*
X660966Y928550D03*
X670966Y928550D03*
X680966Y928550D03*
X690966Y928550D03*
X700966Y928550D03*
X710966Y928550D03*
D19*
X710966Y1073550D03*
D16*
X700966Y1073550D03*
X690966Y1073550D03*
X680966Y1073550D03*
X670966Y1073550D03*
X660966Y1073550D03*
X650966Y1073550D03*
X640966Y1073550D03*
X630966Y1073550D03*
X620966Y1073550D03*
X610966Y1073550D03*
X600966Y1073550D03*
X590966Y1073550D03*
X580966Y1073550D03*
X580966Y1013550D03*
X590966Y1013550D03*
X600966Y1013550D03*
X610966Y1013550D03*
X620966Y1013550D03*
X630966Y1013550D03*
X640966Y1013550D03*
X650966Y1013550D03*
X660966Y1013550D03*
X670966Y1013550D03*
X680966Y1013550D03*
X690966Y1013550D03*
X700966Y1013550D03*
X710966Y1013550D03*
D19*
X534966Y996050D03*
D16*
X534966Y986050D03*
X534966Y976050D03*
X534966Y966050D03*
X534966Y956050D03*
X534966Y946050D03*
X534966Y936050D03*
X534966Y926050D03*
X564966Y926050D03*
X564966Y936050D03*
X564966Y946050D03*
X564966Y956050D03*
X564966Y966050D03*
X564966Y976050D03*
X564966Y986050D03*
X564966Y996050D03*
D17*
X518466Y1038550D03*
X518466Y1057850D03*
D19*
X784466Y1040050D03*
D16*
X784466Y1050050D03*
X794466Y1040050D03*
X794466Y1050050D03*
X804466Y1040050D03*
X804466Y1050050D03*
X814466Y1040050D03*
X814466Y1050050D03*
X824466Y1040050D03*
X824466Y1050050D03*
X565466Y902050D03*
X576366Y902050D03*
X587266Y902050D03*
X598166Y902050D03*
X609066Y902050D03*
X570866Y892050D03*
X581766Y892050D03*
X592666Y892050D03*
X603566Y892050D03*
D21*
X636466Y898050D03*
X537966Y898050D03*
D16*
X525966Y961050D03*
X525966Y921050D03*
D22*
X660966Y1047050D03*
X528466Y1013550D03*
X685966Y1050550D03*
X625966Y1003050D03*
X625966Y975550D03*
X605966Y975550D03*
X685966Y1050550D03*
X689466Y996050D03*
X625966Y938050D03*
X818966Y932050D03*
X625466Y963050D03*
X646966Y965550D03*
X605966Y980550D03*
X640966Y1054550D03*
X614466Y1054550D03*
X649466Y960050D03*
X665466Y958550D03*
X635466Y1030050D03*
X675966Y1030050D03*
X670966Y954550D03*
X680966Y951050D03*
X635966Y1025550D03*
X645966Y1025550D03*
X665966Y994550D03*
X636966Y970550D03*
X636966Y970550D03*
X630966Y968050D03*
X615966Y968050D03*
X615966Y1029050D03*
X684966Y1021050D03*
X691966Y943050D03*
X697466Y947050D03*
X580966Y1033550D03*
X681966Y1000050D03*
X664966Y941550D03*
X664966Y953550D03*
X610966Y953550D03*
X573466Y1070050D03*
X585966Y997550D03*
X570966Y1016050D03*
X650966Y1034050D03*
X595966Y936550D03*
X570966Y908550D03*
X715466Y1006550D03*
X580966Y1043550D03*
X504466Y886550D03*
X551466Y986050D03*
M02*
