M48
INCH
T1C00.028
T2C00.032
T3C00.036
T4C00.040
T5C00.126
%
T1
X6.1755Y11.19275
X6.6945Y11.44275
X6.3005Y12.29275
X6.3255Y12.19275
X6.3505Y12.09275
X7.1505Y11.69275
X7.2505Y11.69275
X7.3505Y11.69275
X7.4505Y11.69275
X8.1075Y12.16975
X8.3005Y12.21775
X8.4005Y11.74275
X8.4255Y11.91775
X8.5005Y11.91775
X8.6005Y11.91775
X8.3755Y12.71775
X8.4005Y12.86775
X8.6005Y12.76775
X8.6755Y12.76775
X9.0755Y12.99275
T2
X6.8525Y11.28275
X6.9375Y11.28275
X7.0225Y11.28275
X7.1075Y11.28275
X7.1925Y11.28275
X7.2775Y11.28275
X7.3625Y11.28275
X7.4475Y11.28275
X7.5325Y11.28275
X7.6175Y11.28275
X7.7025Y11.28275
X7.7875Y11.28275
X8.5755Y11.29275
X8.7755Y11.29275
X6.2005Y11.79275
X6.5005Y11.79275
X6.8525Y11.45175
X6.9375Y11.45175
X7.0005Y11.74275
X7.0225Y11.45175
X7.1005Y11.74275
X7.1075Y11.45175
X7.1925Y11.45175
X7.2005Y11.74275
X7.2775Y11.45175
X7.3005Y11.74275
X7.3625Y11.45175
X7.4005Y11.74275
X7.4475Y11.45175
X7.5005Y11.74275
X7.5325Y11.45175
X7.6005Y11.74275
X7.6175Y11.45175
X7.7005Y11.74275
X7.7025Y11.45175
X7.7875Y11.45175
X7.8005Y11.74275
X7.9005Y11.74275
X8.2005Y11.76775
X8.6505Y11.61775
X8.8005Y11.76775
X8.8505Y11.61775
X9.0055Y11.33275
X9.0055Y11.63275
X9.1055Y11.63275
X9.1055Y11.33275
X9.2055Y11.33275
X9.2055Y11.63275
X9.3055Y11.33275
X9.3055Y11.63275
X9.3255Y11.76775
X9.4055Y11.33275
X9.4055Y11.63275
X9.4255Y11.76775
X9.5055Y11.33275
X9.5055Y11.63275
X9.6005Y11.76775
X9.6055Y11.33275
X9.6055Y11.63275
X6.2005Y12.19275
X6.2005Y12.09275
X6.2005Y11.89275
X6.2005Y12.29275
X6.2005Y11.99275
X6.5005Y12.09275
X6.5005Y11.89275
X6.5005Y12.19275
X6.5005Y11.99275
X6.5005Y12.29275
X6.6755Y11.98275
X6.6755Y12.18275
X6.8505Y12.14275
X6.8505Y11.94275
X6.8505Y12.31775
X7.0005Y12.24275
X7.0005Y12.04275
X7.1005Y12.04275
X7.1005Y12.24275
X7.2005Y12.24275
X7.2005Y12.04275
X7.3005Y12.24275
X7.3005Y12.04275
X7.4005Y12.24275
X7.4005Y12.04275
X7.5005Y12.24275
X7.5005Y12.04275
X7.6005Y12.04275
X7.6005Y12.24275
X7.7005Y12.24275
X7.7005Y12.04275
X7.8005Y12.04275
X7.8005Y12.24275
X7.9005Y12.04275
X7.9005Y12.24275
X8.0255Y12.29275
X8.2005Y11.86775
X8.2005Y12.26775
X8.2005Y12.16775
X8.2005Y12.06775
X8.2005Y11.96775
X8.8005Y12.16775
X8.8005Y11.86775
X8.8005Y12.26775
X8.8005Y11.96775
X8.8005Y12.06775
X9.0255Y12.24275
X9.1255Y11.84975
X9.1255Y12.04275
X9.2255Y12.24275
X9.3255Y12.06775
X9.3505Y12.19275
X9.4255Y12.06775
X9.4505Y12.19275
X9.5505Y12.19275
X9.6005Y12.06775
X9.6505Y12.19275
X9.8005Y11.86775
X9.8005Y12.26775
X9.8005Y12.06775
X6.2005Y12.69275
X6.2005Y12.59275
X6.2005Y12.49275
X6.2005Y12.39275
X6.3005Y12.81775
X6.4005Y12.81775
X6.5005Y12.49275
X6.5005Y12.81775
X6.5005Y12.69275
X6.5005Y12.39275
X6.5005Y12.59275
X6.6005Y12.81775
X6.7005Y12.81775
X6.8005Y12.81775
X6.8505Y12.51775
X6.9005Y12.81775
X7.0005Y12.54275
X7.0755Y12.81775
X7.1005Y12.54275
X7.2005Y12.54275
X7.2255Y12.81775
X7.3005Y12.54275
X7.3255Y12.81775
X7.4005Y12.54275
X7.4255Y12.81775
X7.5005Y12.54275
X7.5255Y12.81775
X7.6005Y12.54275
X7.6255Y12.81775
X7.7005Y12.54275
X7.7255Y12.81775
X7.8005Y12.54275
X7.8255Y12.81775
X7.9005Y12.54275
X8.0255Y12.49275
X8.2005Y12.56775
X8.2005Y12.76775
X8.2005Y12.36775
X8.2005Y12.46775
X8.2005Y12.66775
X8.8005Y12.46775
X8.8005Y12.56775
X8.8005Y12.36775
X8.8005Y12.76775
X8.8005Y12.66775
X9.3505Y12.49275
X9.4505Y12.49275
X9.5505Y12.49275
X9.6505Y12.49275
X9.8005Y12.46775
X6.3005Y13.11775
X6.4005Y13.11775
X6.5005Y13.11775
X6.6005Y13.11775
X6.7005Y13.11775
X6.8005Y13.11775
X6.9005Y13.11775
X7.0755Y13.11775
X7.2255Y13.11775
X7.3255Y13.11775
X7.4255Y13.11775
X7.5255Y13.11775
X7.6255Y13.11775
X7.7255Y13.11775
X8.2005Y12.96775
X8.2005Y13.06775
X8.2005Y12.86775
X8.8005Y13.06775
X8.8005Y12.86775
X8.8005Y12.96775
X7.8255Y13.11775
T3
X8.4755Y11.39275
X8.4755Y11.49275
X8.8755Y11.39275
X8.8755Y11.49275
X6.6255Y12.69275
X7.0255Y12.69275
X7.1255Y12.69275
X7.5255Y12.69275
X7.6255Y12.69275
X8.0255Y11.74275
X8.0255Y12.14275
X8.0255Y12.69275
X8.9505Y12.69275
X8.9505Y12.59275
X8.9755Y12.11775
X8.9755Y11.71775
X9.3505Y12.69275
X9.3505Y12.59275
X9.4505Y12.59275
X9.4505Y12.69275
X9.8505Y12.59275
X9.8505Y12.69275
T4
X9.1605Y12.78275
X9.2605Y12.78275
X9.3605Y12.78275
X9.4605Y12.78275
X9.5605Y12.78275
X9.1605Y12.88275
X9.2605Y12.88275
X9.3605Y12.88275
X9.4605Y12.88275
X9.5605Y12.88275
T5
X6.3985Y11.36775
X8.2405Y11.36775
M30
