G70*
%FSLAX55Y55*%
%ADD11C,0.01200*%
%ADD12C,0.01000*%
%ADD13C,0.01500*%
%ADD14C,0.06000*%
%ADD15R,0.08000X0.08000*%
%ADD16C,0.08000*%
%ADD17R,0.06000X0.06000*%
%ADD18C,0.05000*%
%ADD19C,0.05500*%
%ADD20C,0.02000*%
D11*
X897550Y1171775D02*
X885050Y1171775D01*
X885050Y1161775*
X897550Y1171775D02*
X912550Y1184775D01*
X912550Y1184975*
X885050Y1161775D02*
X885050Y1171775D01*
X880050Y1176775*
X897550Y1211775D02*
X897550Y1204275D01*
X912550Y1204275*
X897550Y1211775D02*
X902550Y1224275D01*
X897550Y1211775D02*
X897550Y1196775D01*
X887550Y1186775*
X880050Y1186775*
X847550Y1139275D02*
X857550Y1139275D01*
X857550Y1166775*
X867550Y1176775*
X872550Y1194275*
X880050Y1196775*
X857550Y1129275D02*
X857550Y1139275D01*
X847550Y1139275*
X880050Y1196775D02*
X890050Y1204275D01*
X890050Y1241775*
X907550Y1256775*
X907550Y1299275*
X820050Y1296775D02*
X847550Y1296775D01*
X855050Y1289275*
X872550Y1289275*
X875050Y1291775*
X892550Y1291775*
X900050Y1284275*
X900050Y1264275*
X895050Y1259275*
X820050Y1286775D02*
X827550Y1291775D01*
X845050Y1291775*
X852550Y1284275*
X872550Y1284275*
X875050Y1281775*
X885050Y1281775*
X895050Y1269275*
X926050Y1278275D02*
X926050Y1288275D01*
X936050Y1278275D02*
X936050Y1288275D01*
X936050Y1278275D02*
X940050Y1274275D01*
X940050Y1259275*
X935050Y1259275*
X945050Y1259275*
X867550Y1276775D02*
X872550Y1269275D01*
X872550Y1261775*
X880050Y1256775*
X860050Y1276775D02*
X869050Y1264275D01*
X869050Y1254275*
X880050Y1246775*
X820050Y1276775D02*
X810050Y1276775D01*
X807550Y1274275*
X807550Y1264275*
X805050Y1261775*
X795050Y1261775*
X790050Y1254275*
X820050Y1206775D02*
X814550Y1206775D01*
X810750Y1216975*
X820050Y1266775D02*
X815050Y1266775D01*
X805050Y1256775*
X800050Y1256775*
X795050Y1249275*
X785050Y1249275*
X780050Y1254275*
X820050Y1216775D02*
X812550Y1224275D01*
X807550Y1234275*
X740050Y1234275*
X730050Y1254275*
X820050Y1256775D02*
X815050Y1256775D01*
X807550Y1244275*
X775050Y1244275*
X770050Y1254275*
X820050Y1236775D02*
X815050Y1236775D01*
X812550Y1239275*
X760050Y1239275*
X750050Y1254275*
X712550Y1269275D02*
X710050Y1261775D01*
X710050Y1254275*
X722550Y1281775D02*
X732550Y1281775D01*
X712550Y1269275D02*
X722550Y1281775D01*
X732550Y1281775D02*
X732550Y1291775D01*
X752550Y1304275*
X752550Y1311775*
X762550Y1269275D02*
X772550Y1281775D01*
X820050Y1246775D02*
X815050Y1246775D01*
X812550Y1241775*
X767550Y1241775*
X760050Y1254275*
X640050Y1311775D02*
X640050Y1299275D01*
X635050Y1294275*
X635050Y1259275*
X645050Y1239275*
X650050Y1239275*
X837550Y1271775D02*
X837550Y1189275D01*
X840050Y1186775*
X865050Y1186775*
X872550Y1206775*
X880050Y1206775*
X872550Y1206775*
X865050Y1186775*
X847550Y1186775*
X847550Y1149275*
X740050Y1254275D02*
X750050Y1236775D01*
X810050Y1236775*
X820050Y1226775*
X710050Y1224275D02*
X710050Y1216775D01*
X705050Y1211775*
X705050Y1191775*
X710050Y1186775*
X710050Y1174275*
X720050Y1224275D02*
X720050Y1216775D01*
X715050Y1211775*
X715050Y1191775*
X720050Y1186775*
X720050Y1174275*
X730050Y1174275D02*
X730050Y1186775D01*
X725050Y1191775*
X725050Y1211775*
X730050Y1216775*
X730050Y1224275*
X740050Y1224275D02*
X740050Y1216775D01*
X735050Y1211775*
X735050Y1191775*
X740050Y1186775*
X740050Y1174275*
X750050Y1174275D02*
X750050Y1186775D01*
X745050Y1191775*
X745050Y1211775*
X750050Y1216775*
X750050Y1224275*
X760050Y1224275D02*
X760050Y1216775D01*
X755050Y1211775*
X755050Y1191775*
X760050Y1186775*
X760050Y1174275*
X770050Y1174275D02*
X770050Y1186775D01*
X765050Y1191775*
X765050Y1211775*
X770050Y1216775*
X770050Y1224275*
X780050Y1224275D02*
X780050Y1216775D01*
X775050Y1211775*
X775050Y1191775*
X780050Y1186775*
X780050Y1174275*
X650050Y1249275D02*
X645050Y1249275D01*
X640050Y1259275*
X640050Y1281775*
X880050Y1236775D02*
X864550Y1247775D01*
X864550Y1258775*
X840050Y1286775*
X620050Y1189275D02*
X622550Y1189275D01*
X627550Y1184275*
X627550Y1166775*
X632550Y1161775*
X672550Y1161775*
X677550Y1156775*
X677550Y1142775*
X681550Y1138275*
X698050Y1138275*
X702250Y1145175*
X693750Y1145175D02*
X687550Y1151775D01*
X675050Y1164275*
X635050Y1164275*
X630050Y1169275*
X630050Y1186775*
X620050Y1199275*
X635050Y1209275D02*
X635050Y1204275D01*
X640050Y1196775*
X640050Y1179275*
X645050Y1174275*
X685050Y1174275*
X700050Y1159275*
X735050Y1159275*
X744750Y1145175*
X736250Y1145175D02*
X727550Y1156775D01*
X697550Y1156775*
X682550Y1171775*
X642550Y1171775*
X637550Y1176775*
X637550Y1194275*
X630050Y1204275*
X630050Y1216775*
X632550Y1219275*
X630050Y1229275D02*
X627550Y1224275D01*
X627550Y1201775*
X635050Y1191775*
X635050Y1174275*
X640050Y1169275*
X680050Y1169275*
X695050Y1154275*
X720050Y1154275*
X727750Y1145175*
X620050Y1239275D02*
X625050Y1236775D01*
X625050Y1199275*
X632550Y1189275*
X632550Y1171775*
X637550Y1166775*
X677550Y1166775*
X692550Y1151775*
X714550Y1151775*
X719250Y1145175*
X710750Y1145175D02*
X705050Y1135775D01*
X679550Y1135775*
X675050Y1140775*
X675050Y1154275*
X670050Y1159275*
X630050Y1159275*
X625050Y1164275*
X625050Y1181775*
X622550Y1184275*
X617550Y1184275*
X615050Y1186775*
X615050Y1244275*
X620050Y1249275*
X744750Y1128275D02*
X749050Y1134275D01*
X749050Y1140275*
D12*
X749050Y1150275D01*
D11*
X749050Y1154275D01*
X742550Y1161775*
X702550Y1161775*
X687550Y1176775*
X675050Y1176775*
X667550Y1184275*
X645050Y1184275*
X642550Y1186775*
X642550Y1229275*
X627550Y1259275*
X620050Y1259275*
X780050Y1204275D02*
X780050Y1191775D01*
X785050Y1186775*
X785050Y1169275*
X778750Y1164275*
X778750Y1145175*
X770050Y1204275D02*
X770050Y1191775D01*
X775050Y1186775*
X775050Y1169275*
X770250Y1164275*
X770250Y1145175*
X760050Y1204275D02*
X760050Y1191775D01*
X765050Y1186775*
X765050Y1169275*
X761750Y1164275*
X761750Y1145175*
X750050Y1204275D02*
X750050Y1191775D01*
X755050Y1186775*
X755050Y1169275*
X753250Y1164275*
X753250Y1145175*
X740050Y1204275D02*
X740050Y1191775D01*
X745050Y1186775*
X745050Y1169275*
X735050Y1169275D02*
X735050Y1186775D01*
X730050Y1191775*
X730050Y1204275*
X720050Y1204275D02*
X720050Y1191775D01*
X725050Y1186775*
X725050Y1169275*
X715050Y1169275D02*
X715050Y1186775D01*
X710050Y1191775*
X710050Y1204275*
X910550Y1163275D02*
X900550Y1163275D01*
X920550Y1163275D02*
X910550Y1163275D01*
X840050Y1174275D02*
X830050Y1184275D01*
X830050Y1221775*
X930550Y1163275D02*
X920550Y1163275D01*
X950550Y1163275D02*
X940550Y1163275D01*
X960550Y1163275D02*
X950550Y1163275D01*
X880050Y1296775D02*
X867550Y1296775D01*
X820050Y1306775D02*
X807550Y1306775D01*
X805050Y1301775*
X800050Y1301775*
X842550Y1191775D02*
X842550Y1196775D01*
X847550Y1201775*
X857550Y1204275*
X870050Y1231775*
X882550Y1231775*
X885050Y1234275*
X885050Y1261775*
X880050Y1266775*
X850050Y1191775D02*
X850050Y1196775D01*
X860050Y1199275*
X872550Y1226775*
X880050Y1226775*
X880050Y1276775D02*
X887550Y1269275D01*
X887550Y1214275*
X885050Y1211775*
X870050Y1211775*
X862550Y1194275*
X860050Y1191775*
X660050Y1281775D02*
X660050Y1311775D01*
X790050Y1204275D02*
X790050Y1214275D01*
X785050Y1219275*
X785050Y1226775*
X780050Y1231775*
X735050Y1231775*
X730050Y1239275*
X675050Y1239275*
X672550Y1244275*
X672550Y1269275*
X660050Y1281775*
X680050Y1311775D02*
X675050Y1304275D01*
X660050Y1304275*
X660050Y1311775*
X650050Y1281775D02*
X662550Y1269275D01*
X935050Y1219275D02*
X935050Y1214275D01*
X937550Y1209275*
X937550Y1199275*
X966550Y1182275*
X966550Y1154275*
X940550Y1144275*
X940550Y1133275*
X920550Y1133275D02*
X920550Y1145775D01*
X935550Y1156775*
X935550Y1168275*
X960050Y1171775*
X960050Y1176775*
X650550Y1144275D02*
X669450Y1144275D01*
D13*
X620050Y1179275D02*
X620050Y1164275D01*
X627550Y1156275*
X650050Y1156275*
X652550Y1153975*
X660550Y1153975*
X660550Y1151775*
X860050Y1296775D02*
X860050Y1314275D01*
X930050Y1314275*
X946050Y1299275*
X946050Y1288275*
X800050Y1309275D02*
X800050Y1317275D01*
X809550Y1317275*
X812550Y1314275*
X860050Y1314275*
X860050Y1296775*
X800050Y1309275D02*
X800050Y1317275D01*
X727050Y1317275*
X722550Y1311775*
D11*
X660550Y1151775D02*
X660550Y1144275D01*
G36*
X653950Y1149275D02*
X653950Y1110275D01*
X625950Y1110275*
X625950Y1149275*
X653950Y1149275*
G37*
X653950Y1110275*
X625950Y1110275*
X625950Y1149275*
X653950Y1149275*
G36*
X838550Y1110275D02*
X809550Y1110275D01*
X809550Y1159275*
X838550Y1159275*
X838550Y1110275*
G37*
X809550Y1110275*
X809550Y1159275*
X838550Y1159275*
X838550Y1110275*
D14*
X877550Y1129275D03*
X857550Y1129275D03*
X885050Y1161775D03*
X865050Y1161775D03*
X902550Y1224275D03*
X922550Y1224275D03*
D15*
X667550Y1218275D03*
D16*
X667550Y1198275D03*
D15*
X980050Y1246775D03*
D16*
X980050Y1226775D03*
D14*
X802550Y1249275D03*
X802550Y1229275D03*
X685050Y1194275D03*
X685050Y1214275D03*
X685050Y1251775D03*
X685050Y1231775D03*
D15*
X980050Y1206775D03*
D16*
X980050Y1186775D03*
D17*
X707550Y1281775D03*
D14*
X707550Y1311775D03*
D17*
X932550Y1176775D03*
D14*
X932550Y1206775D03*
D17*
X960050Y1176775D03*
D14*
X960050Y1206775D03*
D17*
X945050Y1219275D03*
D14*
X945050Y1249275D03*
D17*
X935050Y1219275D03*
D14*
X935050Y1249275D03*
D17*
X955050Y1219275D03*
D14*
X955050Y1249275D03*
D17*
X965050Y1219275D03*
D14*
X965050Y1249275D03*
D18*
X617550Y1119275D03*
D14*
X985050Y1259275D03*
X945050Y1259275D03*
X702550Y1269275D03*
X662550Y1269275D03*
X802550Y1269275D03*
X762550Y1269275D03*
X935050Y1259275D03*
X895050Y1259275D03*
X985050Y1269275D03*
X945050Y1269275D03*
X935050Y1269275D03*
X895050Y1269275D03*
X847550Y1139275D03*
X887550Y1139275D03*
X897550Y1171775D03*
X897550Y1211775D03*
X752550Y1269275D03*
X712550Y1269275D03*
X802550Y1174275D03*
X802550Y1214275D03*
X847550Y1149275D03*
X887550Y1149275D03*
D18*
X612550Y1139275D03*
X987550Y1306775D03*
D17*
X900550Y1133275D03*
D14*
X910550Y1133275D03*
X920550Y1133275D03*
X930550Y1133275D03*
X940550Y1133275D03*
X950550Y1133275D03*
X960550Y1133275D03*
X960550Y1163275D03*
X950550Y1163275D03*
X940550Y1163275D03*
X930550Y1163275D03*
X920550Y1163275D03*
X910550Y1163275D03*
X900550Y1163275D03*
D17*
X867550Y1296775D03*
X860050Y1296775D03*
X800050Y1301775D03*
X800050Y1309275D03*
X660550Y1151775D03*
X660550Y1144275D03*
X820050Y1306775D03*
D14*
X820050Y1296775D03*
X820050Y1286775D03*
X820050Y1276775D03*
X820050Y1266775D03*
X820050Y1256775D03*
X820050Y1246775D03*
X820050Y1236775D03*
X820050Y1226775D03*
X820050Y1216775D03*
X820050Y1206775D03*
X820050Y1196775D03*
X820050Y1186775D03*
X820050Y1176775D03*
X880050Y1176775D03*
X880050Y1186775D03*
X880050Y1196775D03*
X880050Y1206775D03*
X880050Y1216775D03*
X880050Y1226775D03*
X880050Y1236775D03*
X880050Y1246775D03*
X880050Y1256775D03*
X880050Y1266775D03*
X880050Y1276775D03*
X880050Y1286775D03*
X880050Y1296775D03*
X880050Y1306775D03*
D17*
X690050Y1311775D03*
D14*
X680050Y1311775D03*
X670050Y1311775D03*
X660050Y1311775D03*
X650050Y1311775D03*
X640050Y1311775D03*
X630050Y1311775D03*
X630050Y1281775D03*
X640050Y1281775D03*
X650050Y1281775D03*
X660050Y1281775D03*
X670050Y1281775D03*
X680050Y1281775D03*
X690050Y1281775D03*
D17*
X782550Y1311775D03*
D14*
X772550Y1311775D03*
X762550Y1311775D03*
X752550Y1311775D03*
X742550Y1311775D03*
X732550Y1311775D03*
X722550Y1311775D03*
X722550Y1281775D03*
X732550Y1281775D03*
X742550Y1281775D03*
X752550Y1281775D03*
X762550Y1281775D03*
X772550Y1281775D03*
X782550Y1281775D03*
D17*
X700050Y1224275D03*
D14*
X710050Y1224275D03*
X720050Y1224275D03*
X730050Y1224275D03*
X740050Y1224275D03*
X750050Y1224275D03*
X760050Y1224275D03*
X770050Y1224275D03*
X780050Y1224275D03*
X790050Y1224275D03*
X790050Y1254275D03*
X780050Y1254275D03*
X770050Y1254275D03*
X760050Y1254275D03*
X750050Y1254275D03*
X740050Y1254275D03*
X730050Y1254275D03*
X720050Y1254275D03*
X710050Y1254275D03*
X700050Y1254275D03*
D17*
X790050Y1204275D03*
D14*
X780050Y1204275D03*
X770050Y1204275D03*
X760050Y1204275D03*
X750050Y1204275D03*
X740050Y1204275D03*
X730050Y1204275D03*
X720050Y1204275D03*
X710050Y1204275D03*
X700050Y1204275D03*
X700050Y1174275D03*
X710050Y1174275D03*
X720050Y1174275D03*
X730050Y1174275D03*
X740050Y1174275D03*
X750050Y1174275D03*
X760050Y1174275D03*
X770050Y1174275D03*
X780050Y1174275D03*
X790050Y1174275D03*
D17*
X620050Y1269275D03*
D14*
X620050Y1259275D03*
X620050Y1249275D03*
X620050Y1239275D03*
X620050Y1229275D03*
X620050Y1219275D03*
X620050Y1209275D03*
X620050Y1199275D03*
X620050Y1189275D03*
X620050Y1179275D03*
X650050Y1179275D03*
X650050Y1189275D03*
X650050Y1199275D03*
X650050Y1209275D03*
X650050Y1219275D03*
X650050Y1229275D03*
X650050Y1239275D03*
X650050Y1249275D03*
X650050Y1259275D03*
X650050Y1269275D03*
D16*
X912550Y1204275D03*
X912550Y1184975D03*
D17*
X916050Y1278275D03*
D14*
X916050Y1288275D03*
X926050Y1278275D03*
X926050Y1288275D03*
X936050Y1278275D03*
X936050Y1288275D03*
X946050Y1278275D03*
X946050Y1288275D03*
X956050Y1278275D03*
X956050Y1288275D03*
D19*
X778750Y1145175D03*
X770250Y1145175D03*
X761750Y1145175D03*
X753250Y1145175D03*
X744750Y1145175D03*
X736250Y1145175D03*
X727750Y1145175D03*
X719250Y1145175D03*
X710750Y1145175D03*
X702250Y1145175D03*
X693750Y1145175D03*
X685250Y1145175D03*
X778750Y1128275D03*
X770250Y1128275D03*
X761750Y1128275D03*
X753250Y1128275D03*
X744750Y1128275D03*
X736250Y1128275D03*
X727750Y1128275D03*
X719250Y1128275D03*
X710750Y1128275D03*
X702250Y1128275D03*
X693750Y1128275D03*
X685250Y1128275D03*
D17*
X942550Y1176775D03*
D14*
X942550Y1206775D03*
D11*
X590050Y1421775D02*
X590050Y1423337*
X590050Y1429275D01*
X594425Y1429275*
X595050Y1428650*
X595050Y1427087*
X594425Y1426462*
X590050Y1426462*
X602550Y1423962D02*
X601925Y1423337D01*
X598175Y1423337*
X597550Y1423962*
X597550Y1428650*
X598175Y1429275*
X601925Y1429275*
X602550Y1428650*
X605049Y1423337D02*
X605049Y1429275D01*
X609424Y1429275*
X610049Y1428650*
X610049Y1427087*
X609424Y1426462*
X605049Y1426462D02*
X609424Y1426462D01*
X610049Y1425837*
X610049Y1423962*
X609424Y1423337*
X605049Y1423337*
X617549Y1421775D02*
X620048Y1423337*
X620048Y1429275D01*
X624423Y1429275*
X625048Y1428650*
X625048Y1427087*
X624423Y1426462*
X620048Y1426462*
X623798Y1426462D02*
X624423Y1426462D01*
X625048Y1423337*
X631923Y1423337D02*
X627548Y1423337D01*
X627548Y1429275*
X631923Y1429275*
X631923Y1426462D02*
X627548Y1426462D01*
X635047Y1429275D02*
X640047Y1429275D01*
X637547Y1429275D02*
X637547Y1423337D01*
X642547Y1429275D02*
X647547Y1429275D01*
X645047Y1429275D02*
X645047Y1423337D01*
X654421Y1423337D02*
X650046Y1423337D01*
X650046Y1429275*
X654421Y1429275*
X654421Y1426462D02*
X650046Y1426462D01*
X657546Y1429275D02*
X662546Y1429275D01*
X660046Y1429275D02*
X660046Y1423337D01*
X670045Y1421775D02*
X672545Y1429275*
X675670Y1429275D01*
X676920Y1428650*
X677545Y1427400*
X677545Y1425212*
X676920Y1423962*
X675670Y1423337*
X672545Y1423337*
X673795Y1423337D02*
X673795Y1429275D01*
X684419Y1423337D02*
X680044Y1423337D01*
X680044Y1429275*
X684419Y1429275*
X684419Y1426462D02*
X680044Y1426462D01*
X687544Y1423337D02*
X687544Y1429275D01*
X692544Y1423337*
X692544Y1429275*
X695981Y1423337D02*
X695825Y1423337D01*
X695825Y1423650*
X695981Y1423650*
X695981Y1423337*
X695981Y1426462D02*
X695825Y1426462D01*
X695825Y1426775*
X695981Y1426775*
X695981Y1426462*
X702550Y1471775D02*
X702550Y1473337*
X705050Y1479275D01*
X707550Y1473337*
X703487Y1475525D02*
X706612Y1475525D01*
X775050Y1401775D02*
X775050Y1403337*
X775050Y1409275D01*
X779425Y1409275*
X780050Y1408650*
X780050Y1407087*
X779425Y1406462*
X775050Y1406462*
X782550Y1403337D02*
X782550Y1409275D01*
X785362Y1403337*
X788175Y1409275*
X788175Y1403337*
X870050Y1401775D02*
X870050Y1403962*
X870675Y1403337D01*
X873800Y1403337*
X874425Y1403962*
X874425Y1405837*
X873800Y1406462*
X870675Y1406462*
X870050Y1407087*
X870050Y1408650*
X870675Y1409275*
X873800Y1409275*
X874425Y1408650*
X882550Y1403962D02*
X881925Y1403337D01*
X878175Y1403337*
X877550Y1403962*
X877550Y1408650*
X878175Y1409275*
X881925Y1409275*
X882550Y1408650*
X885049Y1403337D02*
X885049Y1409275D01*
X887862Y1403337*
X890674Y1409275*
X890674Y1403337*
X897549Y1401775D02*
X900048Y1403337*
X900048Y1409275D01*
X904423Y1409275*
X905048Y1408650*
X905048Y1407087*
X904423Y1406462*
X900048Y1406462*
X903798Y1406462D02*
X904423Y1406462D01*
X905048Y1403337*
X911923Y1403337D02*
X907548Y1403337D01*
X907548Y1409275*
X911923Y1409275*
X911923Y1406462D02*
X907548Y1406462D01*
X915047Y1403337D02*
X915047Y1409275D01*
X919422Y1409275*
X919422Y1406462D02*
X915047Y1406462D01*
X923484Y1403337D02*
X923328Y1403337D01*
X923328Y1403650*
X923484Y1403650*
X923484Y1403337*
X927234Y1403337D02*
X927078Y1403337D01*
X927078Y1403650*
X927234Y1403650*
X927234Y1403337*
X927234Y1406462D02*
X927078Y1406462D01*
X927078Y1406775*
X927234Y1406775*
X927234Y1406462*
X1032550Y1461775D02*
X1028175Y1463337*
X1032550Y1463337D01*
X1032550Y1469275*
X1023957Y1463337D02*
X1023957Y1469275D01*
X1024582Y1468025*
X1021301Y1466150D02*
X1020676Y1466775D01*
X1017551Y1466775*
X1016926Y1466150*
X1016926Y1463962*
X1017551Y1463337*
X1020676Y1463337*
X1021301Y1463962*
X1021301Y1468650*
X1020676Y1469275*
X1017551Y1469275*
X1016926Y1468650*
X1013176Y1465837D02*
X1009426Y1465837D01*
X1013176Y1467087D02*
X1009426Y1467087D01*
X590050Y1401775D02*
X590050Y1403337*
X590050Y1409275D01*
X594425Y1409275*
X595050Y1408650*
X595050Y1407087*
X594425Y1406462*
X590050Y1406462*
X602550Y1403962D02*
X601925Y1403337D01*
X598175Y1403337*
X597550Y1403962*
X597550Y1408650*
X598175Y1409275*
X601925Y1409275*
X602550Y1408650*
X605049Y1403337D02*
X605049Y1409275D01*
X609424Y1409275*
X610049Y1408650*
X610049Y1407087*
X609424Y1406462*
X605049Y1406462D02*
X609424Y1406462D01*
X610049Y1405837*
X610049Y1403962*
X609424Y1403337*
X605049Y1403337*
X617549Y1401775D02*
X620048Y1403337*
X620048Y1409275D01*
X624423Y1409275*
X625048Y1408650*
X625048Y1407087*
X624423Y1406462*
X620048Y1406462*
X623798Y1406462D02*
X624423Y1406462D01*
X625048Y1403337*
X631923Y1403337D02*
X627548Y1403337D01*
X627548Y1409275*
X631923Y1409275*
X631923Y1406462D02*
X627548Y1406462D01*
X635047Y1403337D02*
X635047Y1409275D01*
X639422Y1409275*
X639422Y1406462D02*
X635047Y1406462D01*
X643484Y1403337D02*
X643328Y1403337D01*
X643328Y1403650*
X643484Y1403650*
X643484Y1403337*
X647234Y1403337D02*
X647078Y1403337D01*
X647078Y1403650*
X647234Y1403650*
X647234Y1403337*
X647234Y1406462D02*
X647078Y1406462D01*
X647078Y1406775*
X647234Y1406775*
X647234Y1406462*
D20*
X690050Y1371775D02*
X690050Y1384275*
X695258Y1384275D01*
X697342Y1383233*
X698383Y1381150*
X698383Y1377504*
X697342Y1375421*
X695258Y1374379*
X690050Y1374379*
X692133Y1374379D02*
X692133Y1384275D01*
D11*
X787550Y1371775D02*
X791925Y1373337*
X787550Y1373337D01*
X787550Y1379275*
X795050Y1373337D02*
X797550Y1379275D01*
X800050Y1373337*
X795987Y1375525D02*
X799112Y1375525D01*
X802549Y1379275D02*
X805049Y1376462D01*
X807549Y1379275*
X805049Y1376462D02*
X805049Y1373337D01*
X814424Y1373337D02*
X810049Y1373337D01*
X810049Y1379275*
X814424Y1379275*
X814424Y1376462D02*
X810049Y1376462D01*
X817548Y1373337D02*
X817548Y1379275D01*
X821923Y1379275*
X822548Y1378650*
X822548Y1377087*
X821923Y1376462*
X817548Y1376462*
X821298Y1376462D02*
X821923Y1376462D01*
X822548Y1373337*
X882550Y1371775D02*
X882550Y1373337*
X885050Y1379275D01*
X887550Y1373337*
X883487Y1375525D02*
X886612Y1375525D01*
X890050Y1373337D02*
X890050Y1379275D01*
X894425Y1379275*
X894425Y1376462D02*
X890050Y1376462D01*
X857550Y1371775D02*
X860675Y1373337*
X860675Y1379275D01*
X857550Y1375525*
X861925Y1375525*
X902550Y1371775D02*
X905675Y1373337*
X905675Y1379275D01*
X902550Y1375525*
X906925Y1375525*
X617550Y1471775D02*
X617550Y1473337*
X620050Y1479275D01*
X622550Y1473337*
X618487Y1475525D02*
X621612Y1475525D01*
X625050Y1473337D02*
X625050Y1479275D01*
X629425Y1479275*
X630050Y1478650*
X630050Y1477087*
X629425Y1476462*
X625050Y1476462*
X628800Y1476462D02*
X629425Y1476462D01*
X630050Y1473337*
X632549Y1473337D02*
X632549Y1479275D01*
X632549Y1476462D02*
X632862Y1476462D01*
X636924Y1479275*
X632862Y1476462D02*
X636924Y1473337D01*
X641299Y1473337D02*
X641299Y1479275D01*
X640674Y1473337D02*
X641924Y1473337D01*
X640674Y1479275D02*
X641924Y1479275D01*
X643798Y1479275D02*
X646298Y1473337D01*
X648798Y1479275*
X656298Y1471775D02*
X658797Y1473337*
X658797Y1479275D01*
X663797Y1473337*
X663797Y1479275*
X666297Y1473337D02*
X668797Y1479275D01*
X671297Y1473337*
X667234Y1475525D02*
X670359Y1475525D01*
X673796Y1479275D02*
X676296Y1473337D01*
X678796Y1479275*
X681296Y1473337D02*
X681296Y1479275D01*
X686296Y1473337*
X686296Y1479275*
X692350Y1472375D02*
X693287Y1473937*
X693131Y1473937D01*
X693131Y1474250*
X693287Y1474250*
X693287Y1473937*
X693287Y1477062D02*
X693131Y1477062D01*
X693131Y1477375*
X693287Y1477375*
X693287Y1477062*
X780150Y1421875D02*
X780150Y1423437*
X785150Y1429375D01*
X797550Y1401775D02*
X797550Y1403962*
X798175Y1403337D01*
X801300Y1403337*
X801925Y1403962*
X801925Y1406150*
X801300Y1406775*
X798175Y1406775*
X797550Y1406150*
X797550Y1409275*
X801925Y1409275*
X805050Y1406150D02*
X805675Y1406775D01*
X808800Y1406775*
X809425Y1406150*
X809425Y1403962*
X808800Y1403337*
X805675Y1403337*
X805050Y1403962*
X805050Y1408650*
X805675Y1409275*
X808800Y1409275*
X809425Y1408650*
X812549Y1403962D02*
X813174Y1403337D01*
X816299Y1403337*
X816924Y1403962*
X816924Y1406150*
X816299Y1406775*
X813174Y1406775*
X812549Y1406150*
X812549Y1409275*
X816924Y1409275*
X820049Y1403962D02*
X820674Y1403337D01*
X823799Y1403337*
X824424Y1403962*
X824424Y1406150*
X823799Y1406775*
X820674Y1406775*
X820049Y1406150*
X820049Y1409275*
X824424Y1409275*
X780050Y1471775D02*
X780050Y1473337*
X780050Y1479275D01*
X784425Y1479275*
X785050Y1478650*
X785050Y1477087*
X784425Y1476462*
X780050Y1476462D02*
X784425Y1476462D01*
X785050Y1475837*
X785050Y1473962*
X784425Y1473337*
X780050Y1473337*
X792550Y1474275D02*
X791612Y1473337D01*
X788487Y1473337*
X787550Y1474275*
X787550Y1478337*
X788487Y1479275*
X791612Y1479275*
X792550Y1478337*
X792550Y1474275*
X795049Y1473337D02*
X797549Y1479275D01*
X800049Y1473337*
X795987Y1475525D02*
X799112Y1475525D01*
X807549Y1471775D02*
X815048Y1471775*
X818798Y1473337*
X818798Y1479275D01*
X818173Y1473337D02*
X819423Y1473337D01*
X818173Y1479275D02*
X819423Y1479275D01*
X825672Y1473337D02*
X821297Y1473337D01*
X821297Y1479275*
X825672Y1479275*
X825672Y1476462D02*
X821297Y1476462D01*
X833172Y1473337D02*
X828797Y1473337D01*
X828797Y1479275*
X833172Y1479275*
X833172Y1476462D02*
X828797Y1476462D01*
X840671Y1473337D02*
X836296Y1473337D01*
X836296Y1479275*
X840671Y1479275*
X840671Y1476462D02*
X836296Y1476462D01*
X937550Y1401775D02*
X940675Y1403337*
X940675Y1409275D01*
X937550Y1405525*
X941925Y1405525*
X949425Y1403962D02*
X948800Y1403337D01*
X945675Y1403337*
X945050Y1403962*
X945050Y1408650*
X945675Y1409275*
X948800Y1409275*
X949425Y1408650*
X949425Y1403962*
X945050Y1403962D02*
X949425Y1408650D01*
X956924Y1403962D02*
X956299Y1403337D01*
X953174Y1403337*
X952549Y1403962*
X952549Y1408650*
X953174Y1409275*
X956299Y1409275*
X956924Y1408650*
X956924Y1403962*
X952549Y1403962D02*
X956924Y1408650D01*
X960049Y1403962D02*
X960049Y1405837D01*
X960674Y1406462*
X963799Y1406462*
X964424Y1407087*
X964424Y1408650*
X963799Y1409275*
X960674Y1409275*
X960049Y1408650*
X960049Y1407087*
X960674Y1406462*
X963799Y1406462*
X964424Y1405837*
X964424Y1403962*
X963799Y1403337*
X960674Y1403337*
X960049Y1403962*
X972548Y1401775D02*
X976141Y1403337*
X976141Y1409275D01*
X975516Y1408025*
X983172Y1403962D02*
X982547Y1403337D01*
X979422Y1403337*
X978797Y1403962*
X978797Y1408650*
X979422Y1409275*
X982547Y1409275*
X983172Y1408650*
X983172Y1403962*
X978797Y1403962D02*
X983172Y1408650D01*
X990672Y1406775D02*
X990047Y1406150D01*
X986609Y1406150*
X986297Y1406775*
X986297Y1408650*
X986922Y1409275*
X990047Y1409275*
X990672Y1408650*
X990672Y1403962*
X990047Y1403337*
X986922Y1403337*
X986297Y1403962*
X998796Y1401775D02*
X1001296Y1403962*
X1001296Y1405837D01*
X1001921Y1406462*
X1005046Y1406462*
X1005671Y1407087*
X1005671Y1408650*
X1005046Y1409275*
X1001921Y1409275*
X1001296Y1408650*
X1001296Y1407087*
X1001921Y1406462*
X1005046Y1406462*
X1005671Y1405837*
X1005671Y1403962*
X1005046Y1403337*
X1001921Y1403337*
X1001296Y1403962*
X1009889Y1403337D02*
X1009889Y1409275D01*
X1009264Y1408025*
X1013639Y1403337D02*
X1013639Y1409275D01*
X1013014Y1408025*
X1020670Y1403962D02*
X1020045Y1403337D01*
X1016920Y1403337*
X1016295Y1403962*
X1016295Y1408650*
X1016920Y1409275*
X1020045Y1409275*
X1020670Y1408650*
X1020670Y1403962*
X1016295Y1403962D02*
X1020670Y1408650D01*
X852550Y1299275D02*
X852550Y1300733*
X852133Y1300317D01*
X850050Y1300317*
X849633Y1300733*
X849633Y1301983*
X850050Y1302400*
X852133Y1302400*
X852550Y1302817*
X852550Y1303858*
X852133Y1304275*
X850050Y1304275*
X849633Y1303858*
X847551Y1300317D02*
X847551Y1304275D01*
X844634Y1304275*
X844217Y1303858*
X844217Y1302817*
X844634Y1302400*
X847551Y1302400*
X841822Y1300317D02*
X841822Y1304275D01*
X842239Y1303442*
X662550Y1121775D02*
X664008Y1121775*
X663592Y1122192D01*
X663592Y1124275*
X664008Y1124692*
X665258Y1124692*
X665675Y1124275*
X665675Y1122192*
X666092Y1121775*
X667133Y1121775*
X667550Y1122192*
X667550Y1124275*
X667133Y1124692*
X663592Y1126774D02*
X667550Y1126774D01*
X667550Y1129691*
X667133Y1130108*
X666092Y1130108*
X665675Y1129691*
X665675Y1126774*
X667133Y1131774D02*
X667550Y1132190D01*
X667550Y1134274*
X667133Y1134690*
X666092Y1134690*
X665675Y1134274*
X665675Y1133024*
X665675Y1134274*
X665258Y1134690*
X664217Y1134690*
X663592Y1134274*
X663592Y1132190*
X664008Y1131774*
X772550Y1421775D02*
X772550Y1423962*
X773175Y1423337D01*
X775050Y1423337*
X775675Y1423962*
X775675Y1429275*
X785050Y1424275D02*
X784112Y1423337D01*
X780987Y1423337*
X780050Y1424275*
X780050Y1428337*
X780987Y1429275*
X784112Y1429275*
X785050Y1428337*
X785050Y1424275*
X787549Y1423337D02*
X787549Y1429275D01*
X791924Y1429275*
X792549Y1428650*
X792549Y1427087*
X791924Y1426462*
X787549Y1426462*
X795049Y1423337D02*
X800049Y1429275D01*
X802548Y1423962D02*
X803173Y1423337D01*
X805048Y1423337*
X805673Y1423962*
X805673Y1429275*
X810048Y1423337D02*
X810048Y1429275D01*
X812860Y1423337*
X815673Y1429275*
X815673Y1423337*
X821922Y1423337D02*
X817547Y1423337D01*
X817547Y1429275*
X825047Y1423337D02*
X830047Y1429275D01*
X832546Y1423962D02*
X833171Y1423337D01*
X836296Y1423337*
X836921Y1423962*
X836921Y1425837*
X836296Y1426462*
X833171Y1426462*
X832546Y1427087*
X832546Y1428650*
X833171Y1429275*
X836296Y1429275*
X836921Y1428650*
X840046Y1423337D02*
X840046Y1429275D01*
X842858Y1423337*
X845671Y1429275*
X845671Y1423337*
X847545Y1426462D02*
X848170Y1427087D01*
X850670Y1427087*
X851295Y1426462*
X851295Y1423337*
X851295Y1423962D02*
X851295Y1423337D01*
X848170Y1423337*
X847545Y1423962*
X847545Y1424587*
X848170Y1425212*
X851295Y1425212*
X855045Y1423337D02*
X860045Y1429275D01*
X862544Y1423962D02*
X863169Y1423337D01*
X865044Y1423337*
X865669Y1423962*
X865669Y1429275*
X870044Y1423337D02*
X870044Y1429275D01*
X872856Y1423337*
X875669Y1429275*
X875669Y1423337*
X881918Y1423337D02*
X877543Y1423337D01*
X877543Y1429275*
X794050Y1313775D02*
X792592Y1313775*
X793008Y1313358D01*
X793008Y1311275*
X792592Y1310858*
X791342Y1310858*
X790925Y1311275*
X790925Y1313358*
X790508Y1313775*
X789467Y1313775*
X789050Y1313358*
X789050Y1311275*
X789467Y1310858*
X793008Y1308776D02*
X789050Y1308776D01*
X789050Y1305859*
X789467Y1305442*
X790508Y1305442*
X790925Y1305859*
X790925Y1308776*
X789467Y1303776D02*
X789050Y1303360D01*
X789050Y1301276*
X789467Y1300860*
X790300Y1300860*
X790717Y1301276*
X793008Y1303776*
X793008Y1300860*
X705050Y1421775D02*
X709425Y1426775*
X708800Y1426150D01*
X705362Y1426150*
X705050Y1426775*
X705050Y1428650*
X705675Y1429275*
X708800Y1429275*
X709425Y1428650*
X709425Y1423962*
X708800Y1423337*
X705675Y1423337*
X705050Y1423962*
X712550Y1429275D02*
X716925Y1429275D01*
X713175Y1423337*
X720674Y1426462D02*
X724424Y1426462D01*
X728642Y1423337D02*
X728642Y1429275D01*
X728017Y1428025*
X732392Y1423337D02*
X732392Y1429275D01*
X731767Y1428025*
X735673Y1426462D02*
X739423Y1426462D01*
X743641Y1423337D02*
X743641Y1429275D01*
X743016Y1428025*
X750672Y1423962D02*
X750047Y1423337D01*
X746922Y1423337*
X746297Y1423962*
X746297Y1428650*
X746922Y1429275*
X750047Y1429275*
X750672Y1428650*
X750672Y1423962*
X746297Y1423962D02*
X750672Y1428650D01*
X1000050Y1461775D02*
X1000050Y1463962*
X999425Y1463337D01*
X996300Y1463337*
X995675Y1463962*
X995675Y1465837*
X996300Y1466462*
X999425Y1466462*
X1000050Y1467087*
X1000050Y1468650*
X999425Y1469275*
X996300Y1469275*
X995675Y1468650*
X991300Y1463337D02*
X991300Y1469275D01*
X991925Y1463337D02*
X990675Y1463337D01*
X991925Y1469275D02*
X990675Y1469275D01*
X986301Y1465837D02*
X983801Y1465837D01*
X983801Y1463962*
X984426Y1463337*
X988176Y1463337*
X988801Y1463962*
X988801Y1468650*
X988176Y1469275*
X984426Y1469275*
X983801Y1468650*
X981301Y1463337D02*
X981301Y1469275D01*
X976301Y1463337*
X976301Y1469275*
X973802Y1463337D02*
X971302Y1469275D01*
X968802Y1463337*
X972864Y1465525D02*
X969739Y1465525D01*
X961927Y1463337D02*
X966302Y1463337D01*
X966302Y1469275*
X953803Y1461775D02*
X946928Y1463337*
X951303Y1463337D01*
X951303Y1469275*
X943804Y1463337D02*
X941304Y1469275D01*
X938804Y1463337*
X942866Y1465525D02*
X939741Y1465525D01*
X936304Y1469275D02*
X933804Y1466462D01*
X931304Y1469275*
X933804Y1466462D02*
X933804Y1463337D01*
X924429Y1463337D02*
X928804Y1463337D01*
X928804Y1469275*
X924429Y1469275*
X924429Y1466462D02*
X928804Y1466462D01*
X921305Y1463337D02*
X921305Y1469275D01*
X916930Y1469275*
X916305Y1468650*
X916305Y1467087*
X916930Y1466462*
X921305Y1466462*
X917555Y1466462D02*
X916930Y1466462D01*
X916305Y1463337*
X908805Y1461775D02*
X906306Y1468650*
X905681Y1469275D01*
X902556Y1469275*
X901931Y1468650*
X901931Y1467400*
X902556Y1466775*
X906306Y1463337*
X901931Y1463337*
X893806Y1461775D02*
X890682Y1466462*
X886932Y1466462D01*
X888807Y1464587D02*
X888807Y1468337D01*
X878807Y1461775D02*
X876308Y1463962*
X876308Y1465837D01*
X875683Y1466462*
X872558Y1466462*
X871933Y1467087*
X871933Y1468650*
X872558Y1469275*
X875683Y1469275*
X876308Y1468650*
X876308Y1467087*
X875683Y1466462*
X872558Y1466462*
X871933Y1465837*
X871933Y1463962*
X872558Y1463337*
X875683Y1463337*
X876308Y1463962*
X799350Y1108575D02*
X796225Y1110137*
X796225Y1116075D01*
X799350Y1112325*
X794975Y1112325*
X787475Y1110762D02*
X788100Y1110137D01*
X791225Y1110137*
X791850Y1110762*
X791850Y1115450*
X791225Y1116075*
X788100Y1116075*
X787475Y1115450*
X787475Y1110762*
X791850Y1110762D02*
X787475Y1115450D01*
X779976Y1110762D02*
X780601Y1110137D01*
X783726Y1110137*
X784351Y1110762*
X784351Y1115450*
X783726Y1116075*
X780601Y1116075*
X779976Y1115450*
X779976Y1110762*
X784351Y1110762D02*
X779976Y1115450D01*
X776851Y1110762D02*
X776851Y1112637D01*
X776226Y1113262*
X773101Y1113262*
X772476Y1113887*
X772476Y1115450*
X773101Y1116075*
X776226Y1116075*
X776851Y1115450*
X776851Y1113887*
X776226Y1113262*
X773101Y1113262*
X772476Y1112637*
X772476Y1110762*
X773101Y1110137*
X776226Y1110137*
X776851Y1110762*
X764352Y1108575D02*
X760759Y1110137*
X760759Y1116075D01*
X761384Y1114825*
X757009Y1110137D02*
X757009Y1116075D01*
X757634Y1114825*
X754353Y1116075D02*
X749978Y1116075D01*
X753728Y1110137*
X741853Y1108575D02*
X734979Y1110762*
X735604Y1110137D01*
X738729Y1110137*
X739354Y1110762*
X739354Y1115450*
X738729Y1116075*
X735604Y1116075*
X734979Y1115450*
X734979Y1110762*
X739354Y1110762D02*
X734979Y1115450D01*
X731854Y1112950D02*
X731229Y1113575D01*
X728104Y1113575*
X727479Y1112950*
X727479Y1110762*
X728104Y1110137*
X731229Y1110137*
X731854Y1110762*
X731854Y1115450*
X731229Y1116075*
X728104Y1116075*
X727479Y1115450*
X724355Y1112950D02*
X723730Y1113575D01*
X720605Y1113575*
X719980Y1112950*
X719980Y1110762*
X720605Y1110137*
X723730Y1110137*
X724355Y1110762*
X724355Y1115450*
X723730Y1116075*
X720605Y1116075*
X719980Y1115450*
X715761Y1110137D02*
X715761Y1116075D01*
X716386Y1114825*
X713105Y1115450D02*
X712480Y1116075D01*
X709355Y1116075*
X708730Y1115450*
X708730Y1114200*
X709355Y1113575*
X713105Y1110137*
X708730Y1110137*
X662550Y1401775D02*
X665675Y1403337*
X665675Y1409275D01*
X662550Y1405525*
X666925Y1405525*
X674425Y1403962D02*
X673800Y1403337D01*
X670675Y1403337*
X670050Y1403962*
X670050Y1408650*
X670675Y1409275*
X673800Y1409275*
X674425Y1408650*
X674425Y1403962*
X670050Y1403962D02*
X674425Y1408650D01*
X681924Y1403962D02*
X681299Y1403337D01*
X678174Y1403337*
X677549Y1403962*
X677549Y1408650*
X678174Y1409275*
X681299Y1409275*
X681924Y1408650*
X681924Y1403962*
X677549Y1403962D02*
X681924Y1408650D01*
X685049Y1403962D02*
X685049Y1405837D01*
X685674Y1406462*
X688799Y1406462*
X689424Y1407087*
X689424Y1408650*
X688799Y1409275*
X685674Y1409275*
X685049Y1408650*
X685049Y1407087*
X685674Y1406462*
X688799Y1406462*
X689424Y1405837*
X689424Y1403962*
X688799Y1403337*
X685674Y1403337*
X685049Y1403962*
X697548Y1401775D02*
X701141Y1403337*
X701141Y1409275D01*
X700516Y1408025*
X704891Y1403337D02*
X704891Y1409275D01*
X704266Y1408025*
X707547Y1409275D02*
X711922Y1409275D01*
X708172Y1403337*
X720047Y1401775D02*
X726921Y1403962*
X726296Y1403337D01*
X723171Y1403337*
X722546Y1403962*
X722546Y1408650*
X723171Y1409275*
X726296Y1409275*
X726921Y1408650*
X726921Y1403962*
X722546Y1403962D02*
X726921Y1408650D01*
X730046Y1406150D02*
X730671Y1406775D01*
X733796Y1406775*
X734421Y1406150*
X734421Y1403962*
X733796Y1403337*
X730671Y1403337*
X730046Y1403962*
X730046Y1408650*
X730671Y1409275*
X733796Y1409275*
X734421Y1408650*
X737545Y1406150D02*
X738170Y1406775D01*
X741295Y1406775*
X741920Y1406150*
X741920Y1403962*
X741295Y1403337*
X738170Y1403337*
X737545Y1403962*
X737545Y1408650*
X738170Y1409275*
X741295Y1409275*
X741920Y1408650*
X746139Y1403337D02*
X746139Y1409275D01*
X745514Y1408025*
X748795Y1408650D02*
X749420Y1409275D01*
X752545Y1409275*
X753170Y1408650*
X753170Y1407400*
X752545Y1406775*
X748795Y1403337*
X753170Y1403337*
X712550Y1471775D02*
X716925Y1473962*
X716300Y1473337D01*
X713175Y1473337*
X712550Y1473962*
X712550Y1478650*
X713175Y1479275*
X716300Y1479275*
X716925Y1478650*
X716925Y1473962*
X712550Y1473962D02*
X716925Y1478650D01*
X720050Y1476150D02*
X720675Y1476775D01*
X723800Y1476775*
X724425Y1476150*
X724425Y1473962*
X723800Y1473337*
X720675Y1473337*
X720050Y1473962*
X720050Y1478650*
X720675Y1479275*
X723800Y1479275*
X724425Y1478650*
X727549Y1476150D02*
X728174Y1476775D01*
X731299Y1476775*
X731924Y1476150*
X731924Y1473962*
X731299Y1473337*
X728174Y1473337*
X727549Y1473962*
X727549Y1478650*
X728174Y1479275*
X731299Y1479275*
X731924Y1478650*
X736142Y1473337D02*
X736142Y1479275D01*
X735517Y1478025*
X738798Y1478650D02*
X739423Y1479275D01*
X742548Y1479275*
X743173Y1478650*
X743173Y1477400*
X742548Y1476775*
X738798Y1473337*
X743173Y1473337*
D18*
X907550Y1299275D03*
X867550Y1276775D03*
X860050Y1276775D03*
X810750Y1216975D03*
X837550Y1271775D03*
X840050Y1286775D03*
X635050Y1209275D03*
X632550Y1219275D03*
X630050Y1229275D03*
X745050Y1169275D03*
X735050Y1169275D03*
X725050Y1169275D03*
X715050Y1169275D03*
X840050Y1174275D03*
X830050Y1221775D03*
X842550Y1191775D03*
X850050Y1191775D03*
X860050Y1191775D03*
X669450Y1144275D03*
M02*
