G70*
%FSLAX55Y55*%
%ADD11C,0.01200*%
%ADD12C,0.01000*%
%ADD13C,0.06000*%
%ADD14R,0.08000X0.08000*%
%ADD15C,0.08000*%
%ADD16R,0.06000X0.06000*%
%ADD17C,0.05000*%
%ADD18C,0.05500*%
D11*
X880050Y1286775D02*
X907550Y1286775D01*
X915050Y1296775*
X947550Y1296775*
X951050Y1294275*
X951050Y1283275*
X956050Y1278275*
X907550Y1299275D02*
X912550Y1301775D01*
X950050Y1301775*
X956050Y1296775*
X956050Y1288275*
X926050Y1278275D02*
X926050Y1277775D01*
X935050Y1269275*
X945050Y1269275*
X772550Y1311775D02*
X777550Y1304275D01*
X790050Y1304275*
X797550Y1291775*
X807550Y1291775*
X815050Y1301775*
X835050Y1301775*
X857550Y1289275*
X862550Y1289275*
X867550Y1276775*
X772550Y1311775D02*
X762550Y1311775D01*
X782550Y1311775D02*
X777550Y1316775D01*
X745050Y1316775*
X742550Y1311775*
X732550Y1311775D02*
X732550Y1304275D01*
X712550Y1304275*
X707550Y1311775*
X732550Y1311775D02*
X732550Y1304275D01*
X735050Y1301775*
X787550Y1301775*
X795050Y1289275*
X812550Y1289275*
X815050Y1291775*
X845050Y1291775*
X855050Y1286775*
X860050Y1276775*
X820050Y1276775D02*
X840050Y1276775D01*
X852550Y1271775*
X885050Y1271775*
X890050Y1264275*
X957550Y1264275*
X965050Y1249275*
X810750Y1216975D02*
X810750Y1212275D01*
X797550Y1196775*
X737550Y1196775*
X735050Y1199275*
X735050Y1209275*
X725050Y1219275*
X725050Y1234275*
X720050Y1244275*
X720050Y1254275*
X820050Y1206775D02*
X870050Y1206775D01*
X875050Y1211775*
X887550Y1211775*
X892550Y1219275*
X920050Y1219275*
X932550Y1206775*
X820050Y1266775D02*
X845050Y1266775D01*
X850050Y1261775*
X885050Y1261775*
X890050Y1254275*
X950050Y1254275*
X955050Y1249275*
X820050Y1216775D02*
X865050Y1216775D01*
X870050Y1221775*
X887550Y1221775*
X895050Y1231775*
X935050Y1231775*
X940050Y1226775*
X940050Y1211775*
X942550Y1206775*
X820050Y1256775D02*
X845050Y1256775D01*
X850050Y1251775*
X887550Y1251775*
X890050Y1249275*
X935050Y1249275*
X820050Y1236775D02*
X842550Y1236775D01*
X847550Y1231775*
X887550Y1231775*
X895050Y1236775*
X950050Y1236775*
X960050Y1226775*
X960050Y1206775*
X650050Y1311775D02*
X655050Y1304275D01*
X670050Y1304275*
X670050Y1311775*
X670050Y1304275*
X680050Y1291775*
X717550Y1291775*
X722550Y1281775*
X762550Y1269275D02*
X757550Y1261775D01*
X717550Y1261775*
X715050Y1259275*
X715050Y1241775*
X700050Y1231775*
X700050Y1224275*
X820050Y1246775D02*
X842550Y1246775D01*
X847550Y1241775*
X940050Y1241775*
X945050Y1249275*
X650050Y1199275D02*
X642550Y1199275D01*
X640050Y1201775*
X640050Y1211775*
X637550Y1216775*
X637550Y1259275*
X642550Y1264275*
X685050Y1264275*
X700050Y1281775*
X707550Y1281775*
X640050Y1311775D02*
X645050Y1316775D01*
X682550Y1316775*
X685050Y1314275*
X685050Y1304275*
X690050Y1296775*
X782550Y1296775*
X790050Y1284275*
X807550Y1284275*
X815050Y1271775*
X837550Y1271775*
X820050Y1196775D02*
X812550Y1196775D01*
X805050Y1189275*
X707550Y1189275*
X705050Y1191775*
X705050Y1206775*
X702550Y1209275*
X697550Y1209275*
X693550Y1206775*
X682550Y1206775*
X677550Y1214775*
X677550Y1219275*
X673050Y1224775*
X660050Y1224775*
X655050Y1214275*
X647550Y1214275*
X645050Y1216775*
X642550Y1221775*
X642550Y1244275*
X650050Y1249275*
X820050Y1186775D02*
X812550Y1186775D01*
X810050Y1184275*
X702550Y1184275*
X692550Y1194275*
X692550Y1199275*
X690050Y1201775*
X677550Y1201775*
X674050Y1207775*
X658050Y1207775*
X655050Y1204275*
X645050Y1204275*
X642550Y1206775*
X642550Y1214275*
X640050Y1219275*
X640050Y1251775*
X650050Y1259275*
X840050Y1286775D02*
X830050Y1286775D01*
X825050Y1281775*
X817550Y1281775*
X812550Y1286775*
X792550Y1286775*
X785050Y1299275*
X697550Y1299275*
X690050Y1311775*
X620050Y1209275D02*
X635050Y1209275D01*
X632550Y1219275D02*
X620050Y1219275D01*
X620050Y1229275D02*
X630050Y1229275D01*
X745050Y1169275D02*
X748550Y1167275D01*
X778050Y1167275*
X784050Y1160775*
X784050Y1134275*
X778750Y1128275*
X770250Y1128275D02*
X774550Y1134275D01*
X774550Y1140275*
D12*
X774550Y1150275D01*
D11*
X774550Y1159775D01*
X769550Y1164775*
X740550Y1164775*
X735050Y1169275*
X725050Y1169275D02*
X733050Y1162275D01*
X761050Y1162275*
X766050Y1158275*
X766050Y1150275*
D12*
X766050Y1140275D01*
D11*
X766050Y1134275D01*
X761750Y1128275*
X753250Y1128275D02*
X757550Y1134275D01*
X757550Y1140275*
D12*
X757550Y1150275D01*
D11*
X757550Y1156775D01*
X753050Y1159775*
X730550Y1159775*
X725550Y1164275*
X720050Y1164275*
X715050Y1169275*
X900550Y1163275D02*
X887550Y1169275D01*
X875050Y1169275*
X867550Y1174275*
X840050Y1174275*
X830050Y1221775D02*
X815050Y1221775D01*
X812550Y1224275*
X812550Y1264275*
X807550Y1274275*
X780050Y1274275*
X777550Y1276775*
X777550Y1286775*
X775050Y1289275*
X747550Y1289275*
X742550Y1281775*
X940550Y1163275D02*
X930550Y1163275D01*
X650050Y1209275D02*
X656550Y1210775D01*
X676050Y1210775*
X680050Y1204275*
X692550Y1204275*
X695050Y1201775*
X695050Y1196775*
X705050Y1186775*
X807550Y1186775*
X812550Y1191775*
X842550Y1191775*
X650050Y1219275D02*
X657550Y1227275D01*
X675550Y1227275*
X682550Y1219275*
X687550Y1219275*
X692550Y1214275*
X710050Y1214275*
X715050Y1209275*
X715050Y1196775*
X720050Y1191775*
X802550Y1191775*
X812550Y1201775*
X845050Y1201775*
X850050Y1196775*
X850050Y1191775*
X650050Y1229275D02*
X655050Y1229275D01*
X656550Y1230275*
X677550Y1230275*
X685050Y1221775*
X690050Y1221775*
X695050Y1216775*
X720050Y1216775*
X725050Y1209275*
X725050Y1199275*
X730050Y1194275*
X800050Y1194275*
X815050Y1211775*
X867550Y1211775*
X872550Y1216775*
X880050Y1216775*
X860050Y1191775D02*
X850050Y1181775D01*
X700050Y1181775*
X690050Y1191775*
X690050Y1196775*
X687550Y1199275*
X675050Y1199275*
X671550Y1204775*
X660050Y1204775*
X655050Y1194275*
X650050Y1189275*
X802550Y1214275D02*
X797550Y1219275D01*
X797550Y1261775*
X772550Y1271775*
X762550Y1281775*
X752550Y1281775*
X747550Y1276775*
X717550Y1276775*
X712550Y1289275*
X660050Y1289275*
X660050Y1281775*
X620050Y1269275D02*
X620050Y1284275D01*
X627550Y1291775*
X657550Y1291775*
X660050Y1289275*
X660050Y1281775*
X630050Y1281775D02*
X635050Y1286775D01*
X645050Y1286775*
X650050Y1281775*
X960550Y1133275D02*
X960550Y1144775D01*
X966550Y1151775*
X966550Y1179275*
X965550Y1181275*
X965550Y1219275*
X965050Y1219275*
X950550Y1133275D02*
X950550Y1144775D01*
X955550Y1156775*
X955550Y1219275*
X955050Y1219275*
X930550Y1133275D02*
X930550Y1144275D01*
X945550Y1156775*
X945550Y1169275*
X950550Y1172275*
X950550Y1210275*
X945050Y1214275*
X945050Y1219275*
X900550Y1133275D02*
X900550Y1144775D01*
X915550Y1151775*
X915550Y1166775*
X925050Y1176775*
X932550Y1176775*
X910550Y1133275D02*
X910550Y1144275D01*
X925550Y1151775*
X925550Y1168275*
X942550Y1171775*
X942550Y1176775*
X669450Y1144275D02*
X674350Y1145175D01*
X685250Y1145175*
G36*
X809550Y1110275D02*
X809550Y1159275D01*
X838550Y1159275*
X838550Y1110275*
X809550Y1110275*
G37*
X809550Y1159275*
X838550Y1159275*
X838550Y1110275*
X809550Y1110275*
G36*
X653950Y1159275D02*
X653950Y1110275D01*
X625950Y1110275*
X625950Y1159275*
X653950Y1159275*
G37*
X653950Y1110275*
X625950Y1110275*
X625950Y1159275*
X653950Y1159275*
D13*
X877550Y1129275D03*
X857550Y1129275D03*
X885050Y1161775D03*
X865050Y1161775D03*
X902550Y1224275D03*
X922550Y1224275D03*
D14*
X667550Y1218275D03*
D15*
X667550Y1198275D03*
D14*
X980050Y1246775D03*
D15*
X980050Y1226775D03*
D13*
X802550Y1249275D03*
X802550Y1229275D03*
X685050Y1194275D03*
X685050Y1214275D03*
X685050Y1251775D03*
X685050Y1231775D03*
D14*
X980050Y1206775D03*
D15*
X980050Y1186775D03*
D16*
X707550Y1281775D03*
D13*
X707550Y1311775D03*
D16*
X932550Y1176775D03*
D13*
X932550Y1206775D03*
D16*
X960050Y1176775D03*
D13*
X960050Y1206775D03*
D16*
X945050Y1219275D03*
D13*
X945050Y1249275D03*
D16*
X935050Y1219275D03*
D13*
X935050Y1249275D03*
D16*
X955050Y1219275D03*
D13*
X955050Y1249275D03*
D16*
X965050Y1219275D03*
D13*
X965050Y1249275D03*
D17*
X617550Y1119275D03*
D13*
X985050Y1259275D03*
X945050Y1259275D03*
X702550Y1269275D03*
X662550Y1269275D03*
X802550Y1269275D03*
X762550Y1269275D03*
X935050Y1259275D03*
X895050Y1259275D03*
X985050Y1269275D03*
X945050Y1269275D03*
X935050Y1269275D03*
X895050Y1269275D03*
X847550Y1139275D03*
X887550Y1139275D03*
X897550Y1171775D03*
X897550Y1211775D03*
X752550Y1269275D03*
X712550Y1269275D03*
X802550Y1174275D03*
X802550Y1214275D03*
X847550Y1149275D03*
X887550Y1149275D03*
D17*
X612550Y1139275D03*
X987550Y1306775D03*
D16*
X900550Y1133275D03*
D13*
X910550Y1133275D03*
X920550Y1133275D03*
X930550Y1133275D03*
X940550Y1133275D03*
X950550Y1133275D03*
X960550Y1133275D03*
X960550Y1163275D03*
X950550Y1163275D03*
X940550Y1163275D03*
X930550Y1163275D03*
X920550Y1163275D03*
X910550Y1163275D03*
X900550Y1163275D03*
D16*
X867550Y1296775D03*
X860050Y1296775D03*
X800050Y1301775D03*
X800050Y1309275D03*
X660550Y1151775D03*
X660550Y1144275D03*
X820050Y1306775D03*
D13*
X820050Y1296775D03*
X820050Y1286775D03*
X820050Y1276775D03*
X820050Y1266775D03*
X820050Y1256775D03*
X820050Y1246775D03*
X820050Y1236775D03*
X820050Y1226775D03*
X820050Y1216775D03*
X820050Y1206775D03*
X820050Y1196775D03*
X820050Y1186775D03*
X820050Y1176775D03*
X880050Y1176775D03*
X880050Y1186775D03*
X880050Y1196775D03*
X880050Y1206775D03*
X880050Y1216775D03*
X880050Y1226775D03*
X880050Y1236775D03*
X880050Y1246775D03*
X880050Y1256775D03*
X880050Y1266775D03*
X880050Y1276775D03*
X880050Y1286775D03*
X880050Y1296775D03*
X880050Y1306775D03*
D16*
X690050Y1311775D03*
D13*
X680050Y1311775D03*
X670050Y1311775D03*
X660050Y1311775D03*
X650050Y1311775D03*
X640050Y1311775D03*
X630050Y1311775D03*
X630050Y1281775D03*
X640050Y1281775D03*
X650050Y1281775D03*
X660050Y1281775D03*
X670050Y1281775D03*
X680050Y1281775D03*
X690050Y1281775D03*
D16*
X782550Y1311775D03*
D13*
X772550Y1311775D03*
X762550Y1311775D03*
X752550Y1311775D03*
X742550Y1311775D03*
X732550Y1311775D03*
X722550Y1311775D03*
X722550Y1281775D03*
X732550Y1281775D03*
X742550Y1281775D03*
X752550Y1281775D03*
X762550Y1281775D03*
X772550Y1281775D03*
X782550Y1281775D03*
D16*
X700050Y1224275D03*
D13*
X710050Y1224275D03*
X720050Y1224275D03*
X730050Y1224275D03*
X740050Y1224275D03*
X750050Y1224275D03*
X760050Y1224275D03*
X770050Y1224275D03*
X780050Y1224275D03*
X790050Y1224275D03*
X790050Y1254275D03*
X780050Y1254275D03*
X770050Y1254275D03*
X760050Y1254275D03*
X750050Y1254275D03*
X740050Y1254275D03*
X730050Y1254275D03*
X720050Y1254275D03*
X710050Y1254275D03*
X700050Y1254275D03*
D16*
X790050Y1204275D03*
D13*
X780050Y1204275D03*
X770050Y1204275D03*
X760050Y1204275D03*
X750050Y1204275D03*
X740050Y1204275D03*
X730050Y1204275D03*
X720050Y1204275D03*
X710050Y1204275D03*
X700050Y1204275D03*
X700050Y1174275D03*
X710050Y1174275D03*
X720050Y1174275D03*
X730050Y1174275D03*
X740050Y1174275D03*
X750050Y1174275D03*
X760050Y1174275D03*
X770050Y1174275D03*
X780050Y1174275D03*
X790050Y1174275D03*
D16*
X620050Y1269275D03*
D13*
X620050Y1259275D03*
X620050Y1249275D03*
X620050Y1239275D03*
X620050Y1229275D03*
X620050Y1219275D03*
X620050Y1209275D03*
X620050Y1199275D03*
X620050Y1189275D03*
X620050Y1179275D03*
X650050Y1179275D03*
X650050Y1189275D03*
X650050Y1199275D03*
X650050Y1209275D03*
X650050Y1219275D03*
X650050Y1229275D03*
X650050Y1239275D03*
X650050Y1249275D03*
X650050Y1259275D03*
X650050Y1269275D03*
D15*
X912550Y1204275D03*
X912550Y1184975D03*
D16*
X916050Y1278275D03*
D13*
X916050Y1288275D03*
X926050Y1278275D03*
X926050Y1288275D03*
X936050Y1278275D03*
X936050Y1288275D03*
X946050Y1278275D03*
X946050Y1288275D03*
X956050Y1278275D03*
X956050Y1288275D03*
D18*
X778750Y1145175D03*
X770250Y1145175D03*
X761750Y1145175D03*
X753250Y1145175D03*
X744750Y1145175D03*
X736250Y1145175D03*
X727750Y1145175D03*
X719250Y1145175D03*
X710750Y1145175D03*
X702250Y1145175D03*
X693750Y1145175D03*
X685250Y1145175D03*
X778750Y1128275D03*
X770250Y1128275D03*
X761750Y1128275D03*
X753250Y1128275D03*
X744750Y1128275D03*
X736250Y1128275D03*
X727750Y1128275D03*
X719250Y1128275D03*
X710750Y1128275D03*
X702250Y1128275D03*
X693750Y1128275D03*
X685250Y1128275D03*
D16*
X942550Y1176775D03*
D13*
X942550Y1206775D03*
D17*
X907550Y1299275D03*
X867550Y1276775D03*
X860050Y1276775D03*
X810750Y1216975D03*
X837550Y1271775D03*
X840050Y1286775D03*
X635050Y1209275D03*
X632550Y1219275D03*
X630050Y1229275D03*
X745050Y1169275D03*
X735050Y1169275D03*
X725050Y1169275D03*
X715050Y1169275D03*
X840050Y1174275D03*
X830050Y1221775D03*
X842550Y1191775D03*
X850050Y1191775D03*
X860050Y1191775D03*
X669450Y1144275D03*
M02*
