G04 Created by GerbView*
%FSLAX25Y25*%
%MOIN*%
G75*
%ADD10C,0.0010*%
%ADD11C,0.0120*%
%ADD12C,0.0800*%
%ADD13C,0.0600*%
%ADD14R,0.1000X0.1000*%
%ADD15R,0.0800X0.0800*%
%ADD16C,0.1000*%
%ADD17R,0.0600X0.0600*%
%ADD18C,0.0700*%
%ADD19C,0.0500*%
%ADD20C,0.0750*%
%ADD21C,0.0550*%
%ADD22C,0.1460*%
%ADD23C,0.1260*%
%LNEXPORT*%
D02*
G36*
X600050Y1326775D02*
X1000050D01*
Y1104275D01*
X600050D01*
Y1326775D01*
G37*
D10*
%LPC*%
G36*
X1000050Y1326775D02*
Y1104275D01*
X625550D01*
Y1107275D01*
X995750D01*
Y1322775D01*
X603050D01*
Y1107275D01*
X625050D01*
Y1104275D01*
X600050D01*
Y1326775D01*
X1000050D01*
G37*
D11*
X1000050Y1326775D02*
Y1104275D01*
X625550D01*
Y1107275D01*
X995750D01*
Y1322775D01*
X603050D01*
Y1107275D01*
X625050D01*
Y1104275D01*
X600050D01*
Y1326775D01*
X1000050D01*
D10*
G36*
X815150Y1142075D02*
X815750Y1142975D01*
X816250Y1143575D01*
X817450Y1144775D01*
X818050Y1145275D01*
X818950Y1145875D01*
X819950Y1146375D01*
X821050Y1146775D01*
X822050Y1147075D01*
X824250Y1147275D01*
X826450Y1147075D01*
X827450Y1146775D01*
X828550Y1146375D01*
X829550Y1145875D01*
X830450Y1145275D01*
X831250Y1144575D01*
X832150Y1143675D01*
X832750Y1142975D01*
X833350Y1142075D01*
X833850Y1141075D01*
X834250Y1139975D01*
X834550Y1138975D01*
X834750Y1136775D01*
X834550Y1134575D01*
X834250Y1133575D01*
X833850Y1132475D01*
X833350Y1131475D01*
X832750Y1130575D01*
X832050Y1129775D01*
X831250Y1128975D01*
X830450Y1128275D01*
X829550Y1127675D01*
X828550Y1127175D01*
X827450Y1126775D01*
X826450Y1126475D01*
X824250Y1126275D01*
X822050Y1126475D01*
X821050Y1126775D01*
X819950Y1127175D01*
X818950Y1127675D01*
X818050Y1128275D01*
X817050Y1129175D01*
X816450Y1129775D01*
X815750Y1130575D01*
X815150Y1131475D01*
X814650Y1132475D01*
X814350Y1133275D01*
X813950Y1134575D01*
X813850Y1135575D01*
X813750Y1136775D01*
X813950Y1138975D01*
X814250Y1139975D01*
X814650Y1141075D01*
X815150Y1142075D01*
G37*
D11*
X815150Y1142075D02*
X815750Y1142975D01*
X816250Y1143575D01*
X817450Y1144775D01*
X818050Y1145275D01*
X818950Y1145875D01*
X819950Y1146375D01*
X821050Y1146775D01*
X822050Y1147075D01*
X824250Y1147275D01*
X826450Y1147075D01*
X827450Y1146775D01*
X828550Y1146375D01*
X829550Y1145875D01*
X830450Y1145275D01*
X831250Y1144575D01*
X832150Y1143675D01*
X832750Y1142975D01*
X833350Y1142075D01*
X833850Y1141075D01*
X834250Y1139975D01*
X834550Y1138975D01*
X834750Y1136775D01*
X834550Y1134575D01*
X834250Y1133575D01*
X833850Y1132475D01*
X833350Y1131475D01*
X832750Y1130575D01*
X832050Y1129775D01*
X831250Y1128975D01*
X830450Y1128275D01*
X829550Y1127675D01*
X828550Y1127175D01*
X827450Y1126775D01*
X826450Y1126475D01*
X824250Y1126275D01*
X822050Y1126475D01*
X821050Y1126775D01*
X819950Y1127175D01*
X818950Y1127675D01*
X818050Y1128275D01*
X817050Y1129175D01*
X816450Y1129775D01*
X815750Y1130575D01*
X815150Y1131475D01*
X814650Y1132475D01*
X814350Y1133275D01*
X813950Y1134575D01*
X813850Y1135575D01*
X813750Y1136775D01*
X813950Y1138975D01*
X814250Y1139975D01*
X814650Y1141075D01*
X815150Y1142075D01*
D10*
G36*
X630850Y1142075D02*
X631450Y1142975D01*
X631950Y1143575D01*
X633150Y1144775D01*
X633750Y1145275D01*
X634650Y1145875D01*
X635650Y1146375D01*
X636750Y1146775D01*
X637750Y1147075D01*
X639950Y1147275D01*
X642150Y1147075D01*
X643150Y1146775D01*
X644250Y1146375D01*
X645250Y1145875D01*
X646150Y1145275D01*
X646950Y1144575D01*
X647850Y1143675D01*
X648450Y1142975D01*
X649050Y1142075D01*
X649550Y1141075D01*
X649950Y1139975D01*
X650250Y1138975D01*
X650450Y1136775D01*
X650250Y1134575D01*
X649950Y1133575D01*
X649550Y1132475D01*
X649050Y1131475D01*
X648450Y1130575D01*
X647750Y1129775D01*
X646950Y1128975D01*
X646150Y1128275D01*
X645250Y1127675D01*
X644250Y1127175D01*
X643150Y1126775D01*
X642150Y1126475D01*
X639950Y1126275D01*
X637750Y1126475D01*
X636750Y1126775D01*
X635650Y1127175D01*
X634650Y1127675D01*
X633750Y1128275D01*
X632750Y1129175D01*
X632150Y1129775D01*
X631450Y1130575D01*
X630850Y1131475D01*
X630350Y1132475D01*
X630050Y1133275D01*
X629650Y1134575D01*
X629550Y1135575D01*
X629450Y1136775D01*
X629650Y1138975D01*
X629950Y1139975D01*
X630350Y1141075D01*
X630850Y1142075D01*
G37*
D11*
X630850Y1142075D02*
X631450Y1142975D01*
X631950Y1143575D01*
X633150Y1144775D01*
X633750Y1145275D01*
X634650Y1145875D01*
X635650Y1146375D01*
X636750Y1146775D01*
X637750Y1147075D01*
X639950Y1147275D01*
X642150Y1147075D01*
X643150Y1146775D01*
X644250Y1146375D01*
X645250Y1145875D01*
X646150Y1145275D01*
X646950Y1144575D01*
X647850Y1143675D01*
X648450Y1142975D01*
X649050Y1142075D01*
X649550Y1141075D01*
X649950Y1139975D01*
X650250Y1138975D01*
X650450Y1136775D01*
X650250Y1134575D01*
X649950Y1133575D01*
X649550Y1132475D01*
X649050Y1131475D01*
X648450Y1130575D01*
X647750Y1129775D01*
X646950Y1128975D01*
X646150Y1128275D01*
X645250Y1127675D01*
X644250Y1127175D01*
X643150Y1126775D01*
X642150Y1126475D01*
X639950Y1126275D01*
X637750Y1126475D01*
X636750Y1126775D01*
X635650Y1127175D01*
X634650Y1127675D01*
X633750Y1128275D01*
X632750Y1129175D01*
X632150Y1129775D01*
X631450Y1130575D01*
X630850Y1131475D01*
X630350Y1132475D01*
X630050Y1133275D01*
X629650Y1134575D01*
X629550Y1135575D01*
X629450Y1136775D01*
X629650Y1138975D01*
X629950Y1139975D01*
X630350Y1141075D01*
X630850Y1142075D01*
D12*
X877550Y1129275D03*
D11*
%LPD*%
D13*
X877550Y1129275D03*
D11*
%LPC*%
D12*
X857550Y1129275D03*
D11*
%LPD*%
D13*
X857550Y1129275D03*
D11*
%LPC*%
D12*
X885050Y1161775D03*
D11*
%LPD*%
D13*
X885050Y1161775D03*
D11*
%LPC*%
D12*
X865050Y1161775D03*
D11*
%LPD*%
D13*
X865050Y1161775D03*
D11*
%LPC*%
%LPD*%
G36*
X861514Y1163896D02*
X862928Y1165310D01*
X868585Y1159653D01*
X867171Y1158239D01*
X861514Y1163896D01*
G37*
%LPC*%
%LPD*%
G36*
X862928Y1158239D02*
X861514Y1159653D01*
X867171Y1165310D01*
X868585Y1163896D01*
X862928Y1158239D01*
G37*
%LPC*%
D12*
X902550Y1224275D03*
D11*
%LPD*%
D13*
X902550Y1224275D03*
D11*
%LPC*%
D12*
X922550Y1224275D03*
D11*
%LPD*%
D13*
X922550Y1224275D03*
D11*
%LPC*%
%LPD*%
G36*
X919014Y1226396D02*
X920428Y1227810D01*
X926085Y1222153D01*
X924671Y1220739D01*
X919014Y1226396D01*
G37*
%LPC*%
%LPD*%
G36*
X920428Y1220739D02*
X919014Y1222153D01*
X924671Y1227810D01*
X926085Y1226396D01*
X920428Y1220739D01*
G37*
%LPC*%
D14*
X667550Y1218275D03*
D11*
%LPD*%
D15*
X667550Y1218275D03*
D11*
%LPC*%
D16*
X667550Y1198275D03*
D11*
%LPD*%
D12*
X667550Y1198275D03*
D11*
%LPC*%
%LPD*%
G36*
X663307Y1201103D02*
X664721Y1202517D01*
X671792Y1195446D01*
X670378Y1194032D01*
X663307Y1201103D01*
G37*
%LPC*%
%LPD*%
G36*
X664721Y1194032D02*
X663307Y1195446D01*
X670378Y1202517D01*
X671792Y1201103D01*
X664721Y1194032D01*
G37*
%LPC*%
D14*
X980050Y1246775D03*
D11*
%LPD*%
D15*
X980050Y1246775D03*
D11*
%LPC*%
D16*
X980050Y1226775D03*
D11*
%LPD*%
D12*
X980050Y1226775D03*
D11*
%LPC*%
%LPD*%
G36*
X975807Y1229603D02*
X977221Y1231017D01*
X984292Y1223946D01*
X982878Y1222532D01*
X975807Y1229603D01*
G37*
%LPC*%
%LPD*%
G36*
X977221Y1222532D02*
X975807Y1223946D01*
X982878Y1231017D01*
X984292Y1229603D01*
X977221Y1222532D01*
G37*
%LPC*%
D12*
X802550Y1249275D03*
D11*
%LPD*%
D13*
X802550Y1249275D03*
D11*
%LPC*%
D12*
X802550Y1229275D03*
D11*
%LPD*%
D13*
X802550Y1229275D03*
D11*
%LPC*%
%LPD*%
G36*
X799014Y1231396D02*
X800428Y1232810D01*
X806085Y1227153D01*
X804671Y1225739D01*
X799014Y1231396D01*
G37*
%LPC*%
%LPD*%
G36*
X800428Y1225739D02*
X799014Y1227153D01*
X804671Y1232810D01*
X806085Y1231396D01*
X800428Y1225739D01*
G37*
%LPC*%
D12*
X685050Y1194275D03*
D11*
%LPD*%
D13*
X685050Y1194275D03*
D11*
%LPC*%
D12*
X685050Y1214275D03*
D11*
%LPD*%
D13*
X685050Y1214275D03*
D11*
%LPC*%
%LPD*%
G36*
X681514Y1216396D02*
X682928Y1217810D01*
X688585Y1212153D01*
X687171Y1210739D01*
X681514Y1216396D01*
G37*
%LPC*%
%LPD*%
G36*
X682928Y1210739D02*
X681514Y1212153D01*
X687171Y1217810D01*
X688585Y1216396D01*
X682928Y1210739D01*
G37*
%LPC*%
D12*
X685050Y1251775D03*
D11*
%LPD*%
D13*
X685050Y1251775D03*
D11*
%LPC*%
D12*
X685050Y1231775D03*
D11*
%LPD*%
D13*
X685050Y1231775D03*
D11*
%LPC*%
%LPD*%
G36*
X681514Y1233896D02*
X682928Y1235310D01*
X688585Y1229653D01*
X687171Y1228239D01*
X681514Y1233896D01*
G37*
%LPC*%
%LPD*%
G36*
X682928Y1228239D02*
X681514Y1229653D01*
X687171Y1235310D01*
X688585Y1233896D01*
X682928Y1228239D01*
G37*
%LPC*%
D14*
X980050Y1206775D03*
D11*
%LPD*%
D15*
X980050Y1206775D03*
D11*
%LPC*%
D16*
X980050Y1186775D03*
D11*
%LPD*%
D12*
X980050Y1186775D03*
D11*
%LPC*%
%LPD*%
G36*
X975807Y1189603D02*
X977221Y1191017D01*
X984292Y1183946D01*
X982878Y1182532D01*
X975807Y1189603D01*
G37*
%LPC*%
%LPD*%
G36*
X977221Y1182532D02*
X975807Y1183946D01*
X982878Y1191017D01*
X984292Y1189603D01*
X977221Y1182532D01*
G37*
%LPC*%
D15*
X707550Y1281775D03*
D11*
%LPD*%
D17*
X707550Y1281775D03*
D11*
%LPC*%
D12*
X707550Y1311775D03*
D11*
%LPD*%
D13*
X707550Y1311775D03*
D11*
%LPC*%
D15*
X932550Y1176775D03*
D11*
%LPD*%
D17*
X932550Y1176775D03*
D11*
%LPC*%
D12*
X932550Y1206775D03*
D11*
%LPD*%
D13*
X932550Y1206775D03*
D11*
%LPC*%
D15*
X960050Y1176775D03*
D11*
%LPD*%
D17*
X960050Y1176775D03*
D11*
%LPC*%
D12*
X960050Y1206775D03*
D11*
%LPD*%
D13*
X960050Y1206775D03*
D11*
%LPC*%
D15*
X945050Y1219275D03*
D11*
%LPD*%
D17*
X945050Y1219275D03*
D11*
%LPC*%
D12*
X945050Y1249275D03*
D11*
%LPD*%
D13*
X945050Y1249275D03*
D11*
%LPC*%
D15*
X935050Y1219275D03*
D11*
%LPD*%
D17*
X935050Y1219275D03*
D11*
%LPC*%
D12*
X935050Y1249275D03*
D11*
%LPD*%
D13*
X935050Y1249275D03*
D11*
%LPC*%
D15*
X955050Y1219275D03*
D11*
%LPD*%
D17*
X955050Y1219275D03*
D11*
%LPC*%
D12*
X955050Y1249275D03*
D11*
%LPD*%
D13*
X955050Y1249275D03*
D11*
%LPC*%
D15*
X965050Y1219275D03*
D11*
%LPD*%
D17*
X965050Y1219275D03*
D11*
%LPC*%
D12*
X965050Y1249275D03*
D11*
%LPD*%
D13*
X965050Y1249275D03*
D11*
%LPC*%
D18*
X617550Y1119275D03*
D11*
%LPD*%
D19*
X617550Y1119275D03*
D11*
%LPC*%
D12*
X985050Y1259275D03*
D11*
%LPD*%
D13*
X985050Y1259275D03*
D11*
%LPC*%
D12*
X945050Y1259275D03*
D11*
%LPD*%
D13*
X945050Y1259275D03*
D11*
%LPC*%
D12*
X702550Y1269275D03*
D11*
%LPD*%
D13*
X702550Y1269275D03*
D11*
%LPC*%
D12*
X662550Y1269275D03*
D11*
%LPD*%
D13*
X662550Y1269275D03*
D11*
%LPC*%
D12*
X802550Y1269275D03*
D11*
%LPD*%
D13*
X802550Y1269275D03*
D11*
%LPC*%
D12*
X762550Y1269275D03*
D11*
%LPD*%
D13*
X762550Y1269275D03*
D11*
%LPC*%
D12*
X935050Y1259275D03*
D11*
%LPD*%
D13*
X935050Y1259275D03*
D11*
%LPC*%
D12*
X895050Y1259275D03*
D11*
%LPD*%
D13*
X895050Y1259275D03*
D11*
%LPC*%
D12*
X985050Y1269275D03*
D11*
%LPD*%
D13*
X985050Y1269275D03*
D11*
%LPC*%
D12*
X945050Y1269275D03*
D11*
%LPD*%
D13*
X945050Y1269275D03*
D11*
%LPC*%
D12*
X935050Y1269275D03*
D11*
%LPD*%
D13*
X935050Y1269275D03*
D11*
%LPC*%
D12*
X895050Y1269275D03*
D11*
%LPD*%
D13*
X895050Y1269275D03*
D11*
%LPC*%
D12*
X847550Y1139275D03*
D11*
%LPD*%
D13*
X847550Y1139275D03*
D11*
%LPC*%
D12*
X887550Y1139275D03*
D11*
%LPD*%
D13*
X887550Y1139275D03*
D11*
%LPC*%
%LPD*%
G36*
X884014Y1141396D02*
X885428Y1142810D01*
X891085Y1137153D01*
X889671Y1135739D01*
X884014Y1141396D01*
G37*
%LPC*%
%LPD*%
G36*
X885428Y1135739D02*
X884014Y1137153D01*
X889671Y1142810D01*
X891085Y1141396D01*
X885428Y1135739D01*
G37*
%LPC*%
D12*
X897550Y1171775D03*
D11*
%LPD*%
D13*
X897550Y1171775D03*
D11*
%LPC*%
D12*
X897550Y1211775D03*
D11*
%LPD*%
D13*
X897550Y1211775D03*
D11*
%LPC*%
D12*
X752550Y1269275D03*
D11*
%LPD*%
D13*
X752550Y1269275D03*
D11*
%LPC*%
D12*
X712550Y1269275D03*
D11*
%LPD*%
D13*
X712550Y1269275D03*
D11*
%LPC*%
D12*
X802550Y1174275D03*
D11*
%LPD*%
D13*
X802550Y1174275D03*
D11*
%LPC*%
D12*
X802550Y1214275D03*
D11*
%LPD*%
D13*
X802550Y1214275D03*
D11*
%LPC*%
D12*
X847550Y1149275D03*
D11*
%LPD*%
D13*
X847550Y1149275D03*
D11*
%LPC*%
D12*
X887550Y1149275D03*
D11*
%LPD*%
D13*
X887550Y1149275D03*
D11*
%LPC*%
D18*
X612550Y1139275D03*
D11*
%LPD*%
D19*
X612550Y1139275D03*
D11*
%LPC*%
D18*
X987550Y1306775D03*
D11*
%LPD*%
D19*
X987550Y1306775D03*
D11*
%LPC*%
D15*
X900550Y1133275D03*
D11*
%LPD*%
D17*
X900550Y1133275D03*
D11*
%LPC*%
D12*
X910550Y1133275D03*
D11*
%LPD*%
D13*
X910550Y1133275D03*
D11*
%LPC*%
D12*
X920550Y1133275D03*
D11*
%LPD*%
D13*
X920550Y1133275D03*
D11*
%LPC*%
D12*
X930550Y1133275D03*
D11*
%LPD*%
D13*
X930550Y1133275D03*
D11*
%LPC*%
D12*
X940550Y1133275D03*
D11*
%LPD*%
D13*
X940550Y1133275D03*
D11*
%LPC*%
D12*
X950550Y1133275D03*
D11*
%LPD*%
D13*
X950550Y1133275D03*
D11*
%LPC*%
D12*
X960550Y1133275D03*
D11*
%LPD*%
D13*
X960550Y1133275D03*
D11*
%LPC*%
D12*
X960550Y1163275D03*
D11*
%LPD*%
D13*
X960550Y1163275D03*
D11*
%LPC*%
D12*
X950550Y1163275D03*
D11*
%LPD*%
D13*
X950550Y1163275D03*
D11*
%LPC*%
D12*
X940550Y1163275D03*
D11*
%LPD*%
D13*
X940550Y1163275D03*
D11*
%LPC*%
D12*
X930550Y1163275D03*
D11*
%LPD*%
D13*
X930550Y1163275D03*
D11*
%LPC*%
D12*
X920550Y1163275D03*
D11*
%LPD*%
D13*
X920550Y1163275D03*
D11*
%LPC*%
D12*
X910550Y1163275D03*
D11*
%LPD*%
D13*
X910550Y1163275D03*
D11*
%LPC*%
D12*
X900550Y1163275D03*
D11*
%LPD*%
D13*
X900550Y1163275D03*
D11*
%LPC*%
D15*
X867550Y1296775D03*
D11*
%LPD*%
D17*
X867550Y1296775D03*
D11*
%LPC*%
G36*
X864050Y1292775D02*
X856050D01*
Y1300775D01*
X864050D01*
Y1292775D01*
G37*
%LPD*%
G36*
X863050Y1293775D02*
X857050D01*
Y1299775D01*
X863050D01*
Y1293775D01*
G37*
%LPC*%
%LPD*%
G36*
X861050Y1292775D02*
X859050D01*
Y1300775D01*
X861050D01*
Y1292775D01*
G37*
%LPC*%
%LPD*%
G36*
X863050Y1295775D02*
X856050D01*
Y1297775D01*
X863050D01*
Y1295775D01*
G37*
%LPC*%
G36*
X664550Y1147775D02*
X656550D01*
Y1155775D01*
X664550D01*
Y1147775D01*
G37*
%LPD*%
G36*
X663550Y1148775D02*
X657550D01*
Y1154775D01*
X663550D01*
Y1148775D01*
G37*
%LPC*%
%LPD*%
G36*
X661550Y1147775D02*
X659550D01*
Y1155775D01*
X661550D01*
Y1147775D01*
G37*
%LPC*%
%LPD*%
G36*
X664550Y1150775D02*
X656550D01*
Y1152775D01*
X664550D01*
Y1150775D01*
G37*
%LPC*%
G36*
X664550Y1140275D02*
X656550D01*
Y1148275D01*
X664550D01*
Y1140275D01*
G37*
%LPD*%
G36*
X663550Y1141275D02*
X657550D01*
Y1147275D01*
X663550D01*
Y1141275D01*
G37*
%LPC*%
%LPD*%
G36*
X661550Y1140275D02*
X659550D01*
Y1148275D01*
X661550D01*
Y1140275D01*
G37*
%LPC*%
%LPD*%
G36*
X664550Y1143275D02*
X656550D01*
Y1145275D01*
X664550D01*
Y1143275D01*
G37*
%LPC*%
D15*
X820050Y1306775D03*
D11*
%LPD*%
D17*
X820050Y1306775D03*
D11*
%LPC*%
D12*
X820050Y1296775D03*
D11*
%LPD*%
D13*
X820050Y1296775D03*
D11*
%LPC*%
D12*
X820050Y1286775D03*
D11*
%LPD*%
D13*
X820050Y1286775D03*
D11*
%LPC*%
D12*
X820050Y1276775D03*
D11*
%LPD*%
D13*
X820050Y1276775D03*
D11*
%LPC*%
D12*
X820050Y1266775D03*
D11*
%LPD*%
D13*
X820050Y1266775D03*
D11*
%LPC*%
D12*
X820050Y1256775D03*
D11*
%LPD*%
D13*
X820050Y1256775D03*
D11*
%LPC*%
D12*
X820050Y1246775D03*
D11*
%LPD*%
D13*
X820050Y1246775D03*
D11*
%LPC*%
D12*
X820050Y1236775D03*
D11*
%LPD*%
D13*
X820050Y1236775D03*
D11*
%LPC*%
D12*
X820050Y1226775D03*
D11*
%LPD*%
D13*
X820050Y1226775D03*
D11*
%LPC*%
D12*
X820050Y1216775D03*
D11*
%LPD*%
D13*
X820050Y1216775D03*
D11*
%LPC*%
D12*
X820050Y1206775D03*
D11*
%LPD*%
D13*
X820050Y1206775D03*
D11*
%LPC*%
D12*
X820050Y1196775D03*
D11*
%LPD*%
D13*
X820050Y1196775D03*
D11*
%LPC*%
D12*
X820050Y1186775D03*
D11*
%LPD*%
D13*
X820050Y1186775D03*
D11*
%LPC*%
D12*
X820050Y1176775D03*
D11*
%LPD*%
D13*
X820050Y1176775D03*
D11*
%LPC*%
%LPD*%
G36*
X816514Y1178896D02*
X817928Y1180310D01*
X823585Y1174653D01*
X822171Y1173239D01*
X816514Y1178896D01*
G37*
%LPC*%
%LPD*%
G36*
X817928Y1173239D02*
X816514Y1174653D01*
X822171Y1180310D01*
X823585Y1178896D01*
X817928Y1173239D01*
G37*
%LPC*%
D12*
X880050Y1176775D03*
D11*
%LPD*%
D13*
X880050Y1176775D03*
D11*
%LPC*%
D12*
X880050Y1186775D03*
D11*
%LPD*%
D13*
X880050Y1186775D03*
D11*
%LPC*%
D12*
X880050Y1196775D03*
D11*
%LPD*%
D13*
X880050Y1196775D03*
D11*
%LPC*%
D12*
X880050Y1206775D03*
D11*
%LPD*%
D13*
X880050Y1206775D03*
D11*
%LPC*%
D12*
X880050Y1216775D03*
D11*
%LPD*%
D13*
X880050Y1216775D03*
D11*
%LPC*%
D12*
X880050Y1226775D03*
D11*
%LPD*%
D13*
X880050Y1226775D03*
D11*
%LPC*%
D12*
X880050Y1236775D03*
D11*
%LPD*%
D13*
X880050Y1236775D03*
D11*
%LPC*%
D12*
X880050Y1246775D03*
D11*
%LPD*%
D13*
X880050Y1246775D03*
D11*
%LPC*%
D12*
X880050Y1256775D03*
D11*
%LPD*%
D13*
X880050Y1256775D03*
D11*
%LPC*%
D12*
X880050Y1266775D03*
D11*
%LPD*%
D13*
X880050Y1266775D03*
D11*
%LPC*%
D12*
X880050Y1276775D03*
D11*
%LPD*%
D13*
X880050Y1276775D03*
D11*
%LPC*%
D12*
X880050Y1286775D03*
D11*
%LPD*%
D13*
X880050Y1286775D03*
D11*
%LPC*%
D12*
X880050Y1296775D03*
D11*
%LPD*%
D13*
X880050Y1296775D03*
D11*
%LPC*%
D12*
X880050Y1306775D03*
D11*
%LPD*%
D13*
X880050Y1306775D03*
D11*
%LPC*%
D15*
X690050Y1311775D03*
D11*
%LPD*%
D17*
X690050Y1311775D03*
D11*
%LPC*%
D12*
X680050Y1311775D03*
D11*
%LPD*%
D13*
X680050Y1311775D03*
D11*
%LPC*%
D12*
X670050Y1311775D03*
D11*
%LPD*%
D13*
X670050Y1311775D03*
D11*
%LPC*%
D12*
X660050Y1311775D03*
D11*
%LPD*%
D13*
X660050Y1311775D03*
D11*
%LPC*%
D12*
X650050Y1311775D03*
D11*
%LPD*%
D13*
X650050Y1311775D03*
D11*
%LPC*%
D12*
X640050Y1311775D03*
D11*
%LPD*%
D13*
X640050Y1311775D03*
D11*
%LPC*%
D12*
X630050Y1311775D03*
D11*
%LPD*%
D13*
X630050Y1311775D03*
D11*
%LPC*%
%LPD*%
G36*
X626514Y1313896D02*
X627928Y1315310D01*
X633585Y1309653D01*
X632171Y1308239D01*
X626514Y1313896D01*
G37*
%LPC*%
%LPD*%
G36*
X627928Y1308239D02*
X626514Y1309653D01*
X632171Y1315310D01*
X633585Y1313896D01*
X627928Y1308239D01*
G37*
%LPC*%
D12*
X630050Y1281775D03*
D11*
%LPD*%
D13*
X630050Y1281775D03*
D11*
%LPC*%
D12*
X640050Y1281775D03*
D11*
%LPD*%
D13*
X640050Y1281775D03*
D11*
%LPC*%
D12*
X650050Y1281775D03*
D11*
%LPD*%
D13*
X650050Y1281775D03*
D11*
%LPC*%
D12*
X660050Y1281775D03*
D11*
%LPD*%
D13*
X660050Y1281775D03*
D11*
%LPC*%
D12*
X670050Y1281775D03*
D11*
%LPD*%
D13*
X670050Y1281775D03*
D11*
%LPC*%
D12*
X680050Y1281775D03*
D11*
%LPD*%
D13*
X680050Y1281775D03*
D11*
%LPC*%
%LPD*%
G36*
X676514Y1283896D02*
X677928Y1285310D01*
X683585Y1279653D01*
X682171Y1278239D01*
X676514Y1283896D01*
G37*
%LPC*%
%LPD*%
G36*
X677928Y1278239D02*
X676514Y1279653D01*
X682171Y1285310D01*
X683585Y1283896D01*
X677928Y1278239D01*
G37*
%LPC*%
D12*
X690050Y1281775D03*
D11*
%LPD*%
D13*
X690050Y1281775D03*
D11*
%LPC*%
D15*
X782550Y1311775D03*
D11*
%LPD*%
D17*
X782550Y1311775D03*
D11*
%LPC*%
D12*
X772550Y1311775D03*
D11*
%LPD*%
D13*
X772550Y1311775D03*
D11*
%LPC*%
D12*
X762550Y1311775D03*
D11*
%LPD*%
D13*
X762550Y1311775D03*
D11*
%LPC*%
D12*
X752550Y1311775D03*
D11*
%LPD*%
D13*
X752550Y1311775D03*
D11*
%LPC*%
D12*
X742550Y1311775D03*
D11*
%LPD*%
D13*
X742550Y1311775D03*
D11*
%LPC*%
D12*
X732550Y1311775D03*
D11*
%LPD*%
D13*
X732550Y1311775D03*
D11*
%LPC*%
D12*
X722550Y1311775D03*
D11*
%LPD*%
D13*
X722550Y1311775D03*
D11*
%LPC*%
%LPD*%
G36*
X719014Y1313896D02*
X720428Y1315310D01*
X726085Y1309653D01*
X724671Y1308239D01*
X719014Y1313896D01*
G37*
%LPC*%
%LPD*%
G36*
X720428Y1308239D02*
X719014Y1309653D01*
X724671Y1315310D01*
X726085Y1313896D01*
X720428Y1308239D01*
G37*
%LPC*%
D12*
X722550Y1281775D03*
D11*
%LPD*%
D13*
X722550Y1281775D03*
D11*
%LPC*%
D12*
X732550Y1281775D03*
D11*
%LPD*%
D13*
X732550Y1281775D03*
D11*
%LPC*%
D12*
X742550Y1281775D03*
D11*
%LPD*%
D13*
X742550Y1281775D03*
D11*
%LPC*%
D12*
X752550Y1281775D03*
D11*
%LPD*%
D13*
X752550Y1281775D03*
D11*
%LPC*%
D12*
X762550Y1281775D03*
D11*
%LPD*%
D13*
X762550Y1281775D03*
D11*
%LPC*%
D12*
X772550Y1281775D03*
D11*
%LPD*%
D13*
X772550Y1281775D03*
D11*
%LPC*%
D12*
X782550Y1281775D03*
D11*
%LPD*%
D13*
X782550Y1281775D03*
D11*
%LPC*%
D15*
X700050Y1224275D03*
D11*
%LPD*%
D17*
X700050Y1224275D03*
D11*
%LPC*%
D12*
X710050Y1224275D03*
D11*
%LPD*%
D13*
X710050Y1224275D03*
D11*
%LPC*%
D12*
X720050Y1224275D03*
D11*
%LPD*%
D13*
X720050Y1224275D03*
D11*
%LPC*%
D12*
X730050Y1224275D03*
D11*
%LPD*%
D13*
X730050Y1224275D03*
D11*
%LPC*%
D12*
X740050Y1224275D03*
D11*
%LPD*%
D13*
X740050Y1224275D03*
D11*
%LPC*%
D12*
X750050Y1224275D03*
D11*
%LPD*%
D13*
X750050Y1224275D03*
D11*
%LPC*%
D12*
X760050Y1224275D03*
D11*
%LPD*%
D13*
X760050Y1224275D03*
D11*
%LPC*%
D12*
X770050Y1224275D03*
D11*
%LPD*%
D13*
X770050Y1224275D03*
D11*
%LPC*%
D12*
X780050Y1224275D03*
D11*
%LPD*%
D13*
X780050Y1224275D03*
D11*
%LPC*%
D12*
X790050Y1224275D03*
D11*
%LPD*%
D13*
X790050Y1224275D03*
D11*
%LPC*%
%LPD*%
G36*
X786514Y1226396D02*
X787928Y1227810D01*
X793585Y1222153D01*
X792171Y1220739D01*
X786514Y1226396D01*
G37*
%LPC*%
%LPD*%
G36*
X787928Y1220739D02*
X786514Y1222153D01*
X792171Y1227810D01*
X793585Y1226396D01*
X787928Y1220739D01*
G37*
%LPC*%
D12*
X790050Y1254275D03*
D11*
%LPD*%
D13*
X790050Y1254275D03*
D11*
%LPC*%
D12*
X780050Y1254275D03*
D11*
%LPD*%
D13*
X780050Y1254275D03*
D11*
%LPC*%
D12*
X770050Y1254275D03*
D11*
%LPD*%
D13*
X770050Y1254275D03*
D11*
%LPC*%
D12*
X760050Y1254275D03*
D11*
%LPD*%
D13*
X760050Y1254275D03*
D11*
%LPC*%
D12*
X750050Y1254275D03*
D11*
%LPD*%
D13*
X750050Y1254275D03*
D11*
%LPC*%
D12*
X740050Y1254275D03*
D11*
%LPD*%
D13*
X740050Y1254275D03*
D11*
%LPC*%
D12*
X730050Y1254275D03*
D11*
%LPD*%
D13*
X730050Y1254275D03*
D11*
%LPC*%
D12*
X720050Y1254275D03*
D11*
%LPD*%
D13*
X720050Y1254275D03*
D11*
%LPC*%
D12*
X710050Y1254275D03*
D11*
%LPD*%
D13*
X710050Y1254275D03*
D11*
%LPC*%
D12*
X700050Y1254275D03*
D11*
%LPD*%
D13*
X700050Y1254275D03*
D11*
%LPC*%
D15*
X790050Y1204275D03*
D11*
%LPD*%
D17*
X790050Y1204275D03*
D11*
%LPC*%
D12*
X780050Y1204275D03*
D11*
%LPD*%
D13*
X780050Y1204275D03*
D11*
%LPC*%
D12*
X770050Y1204275D03*
D11*
%LPD*%
D13*
X770050Y1204275D03*
D11*
%LPC*%
D12*
X760050Y1204275D03*
D11*
%LPD*%
D13*
X760050Y1204275D03*
D11*
%LPC*%
D12*
X750050Y1204275D03*
D11*
%LPD*%
D13*
X750050Y1204275D03*
D11*
%LPC*%
D12*
X740050Y1204275D03*
D11*
%LPD*%
D13*
X740050Y1204275D03*
D11*
%LPC*%
D12*
X730050Y1204275D03*
D11*
%LPD*%
D13*
X730050Y1204275D03*
D11*
%LPC*%
D12*
X720050Y1204275D03*
D11*
%LPD*%
D13*
X720050Y1204275D03*
D11*
%LPC*%
D12*
X710050Y1204275D03*
D11*
%LPD*%
D13*
X710050Y1204275D03*
D11*
%LPC*%
D12*
X700050Y1204275D03*
D11*
%LPD*%
D13*
X700050Y1204275D03*
D11*
%LPC*%
%LPD*%
G36*
X696514Y1206396D02*
X697928Y1207810D01*
X703585Y1202153D01*
X702171Y1200739D01*
X696514Y1206396D01*
G37*
%LPC*%
%LPD*%
G36*
X697928Y1200739D02*
X696514Y1202153D01*
X702171Y1207810D01*
X703585Y1206396D01*
X697928Y1200739D01*
G37*
%LPC*%
D12*
X700050Y1174275D03*
D11*
%LPD*%
D13*
X700050Y1174275D03*
D11*
%LPC*%
D12*
X710050Y1174275D03*
D11*
%LPD*%
D13*
X710050Y1174275D03*
D11*
%LPC*%
D12*
X720050Y1174275D03*
D11*
%LPD*%
D13*
X720050Y1174275D03*
D11*
%LPC*%
D12*
X730050Y1174275D03*
D11*
%LPD*%
D13*
X730050Y1174275D03*
D11*
%LPC*%
D12*
X740050Y1174275D03*
D11*
%LPD*%
D13*
X740050Y1174275D03*
D11*
%LPC*%
D12*
X750050Y1174275D03*
D11*
%LPD*%
D13*
X750050Y1174275D03*
D11*
%LPC*%
D12*
X760050Y1174275D03*
D11*
%LPD*%
D13*
X760050Y1174275D03*
D11*
%LPC*%
D12*
X770050Y1174275D03*
D11*
%LPD*%
D13*
X770050Y1174275D03*
D11*
%LPC*%
D12*
X780050Y1174275D03*
D11*
%LPD*%
D13*
X780050Y1174275D03*
D11*
%LPC*%
D12*
X790050Y1174275D03*
D11*
%LPD*%
D13*
X790050Y1174275D03*
D11*
%LPC*%
D15*
X620050Y1269275D03*
D11*
%LPD*%
D17*
X620050Y1269275D03*
D11*
%LPC*%
D12*
X620050Y1259275D03*
D11*
%LPD*%
D13*
X620050Y1259275D03*
D11*
%LPC*%
D12*
X620050Y1249275D03*
D11*
%LPD*%
D13*
X620050Y1249275D03*
D11*
%LPC*%
D12*
X620050Y1239275D03*
D11*
%LPD*%
D13*
X620050Y1239275D03*
D11*
%LPC*%
D12*
X620050Y1229275D03*
D11*
%LPD*%
D13*
X620050Y1229275D03*
D11*
%LPC*%
D12*
X620050Y1219275D03*
D11*
%LPD*%
D13*
X620050Y1219275D03*
D11*
%LPC*%
D12*
X620050Y1209275D03*
D11*
%LPD*%
D13*
X620050Y1209275D03*
D11*
%LPC*%
D12*
X620050Y1199275D03*
D11*
%LPD*%
D13*
X620050Y1199275D03*
D11*
%LPC*%
D12*
X620050Y1189275D03*
D11*
%LPD*%
D13*
X620050Y1189275D03*
D11*
%LPC*%
D12*
X620050Y1179275D03*
D11*
%LPD*%
D13*
X620050Y1179275D03*
D11*
%LPC*%
%LPD*%
G36*
X616514Y1181396D02*
X617928Y1182810D01*
X623585Y1177153D01*
X622171Y1175739D01*
X616514Y1181396D01*
G37*
%LPC*%
%LPD*%
G36*
X617928Y1175739D02*
X616514Y1177153D01*
X622171Y1182810D01*
X623585Y1181396D01*
X617928Y1175739D01*
G37*
%LPC*%
D12*
X650050Y1179275D03*
D11*
%LPD*%
D13*
X650050Y1179275D03*
D11*
%LPC*%
D12*
X650050Y1189275D03*
D11*
%LPD*%
D13*
X650050Y1189275D03*
D11*
%LPC*%
D12*
X650050Y1199275D03*
D11*
%LPD*%
D13*
X650050Y1199275D03*
D11*
%LPC*%
D12*
X650050Y1209275D03*
D11*
%LPD*%
D13*
X650050Y1209275D03*
D11*
%LPC*%
D12*
X650050Y1219275D03*
D11*
%LPD*%
D13*
X650050Y1219275D03*
D11*
%LPC*%
D12*
X650050Y1229275D03*
D11*
%LPD*%
D13*
X650050Y1229275D03*
D11*
%LPC*%
D12*
X650050Y1239275D03*
D11*
%LPD*%
D13*
X650050Y1239275D03*
D11*
%LPC*%
D12*
X650050Y1249275D03*
D11*
%LPD*%
D13*
X650050Y1249275D03*
D11*
%LPC*%
D12*
X650050Y1259275D03*
D11*
%LPD*%
D13*
X650050Y1259275D03*
D11*
%LPC*%
D12*
X650050Y1269275D03*
D11*
%LPD*%
D13*
X650050Y1269275D03*
D11*
%LPC*%
D16*
X912550Y1204275D03*
D11*
%LPD*%
D12*
X912550Y1204275D03*
D11*
%LPC*%
D16*
X912550Y1184975D03*
D11*
%LPD*%
D12*
X912550Y1184975D03*
D11*
%LPC*%
D15*
X916050Y1278275D03*
D11*
%LPD*%
D17*
X916050Y1278275D03*
D11*
%LPC*%
D12*
X916050Y1288275D03*
D11*
%LPD*%
D13*
X916050Y1288275D03*
D11*
%LPC*%
D12*
X926050Y1278275D03*
D11*
%LPD*%
D13*
X926050Y1278275D03*
D11*
%LPC*%
D12*
X926050Y1288275D03*
D11*
%LPD*%
D13*
X926050Y1288275D03*
D11*
%LPC*%
D12*
X936050Y1278275D03*
D11*
%LPD*%
D13*
X936050Y1278275D03*
D11*
%LPC*%
D12*
X936050Y1288275D03*
D11*
%LPD*%
D13*
X936050Y1288275D03*
D11*
%LPC*%
D12*
X946050Y1278275D03*
D11*
%LPD*%
D13*
X946050Y1278275D03*
D11*
%LPC*%
%LPD*%
G36*
X942514Y1280396D02*
X943928Y1281810D01*
X949585Y1276153D01*
X948171Y1274739D01*
X942514Y1280396D01*
G37*
%LPC*%
%LPD*%
G36*
X943928Y1274739D02*
X942514Y1276153D01*
X948171Y1281810D01*
X949585Y1280396D01*
X943928Y1274739D01*
G37*
%LPC*%
D12*
X946050Y1288275D03*
D11*
%LPD*%
D13*
X946050Y1288275D03*
D11*
%LPC*%
%LPD*%
G36*
X942514Y1290396D02*
X943928Y1291810D01*
X949585Y1286153D01*
X948171Y1284739D01*
X942514Y1290396D01*
G37*
%LPC*%
%LPD*%
G36*
X943928Y1284739D02*
X942514Y1286153D01*
X948171Y1291810D01*
X949585Y1290396D01*
X943928Y1284739D01*
G37*
%LPC*%
D12*
X956050Y1278275D03*
D11*
%LPD*%
D13*
X956050Y1278275D03*
D11*
%LPC*%
D12*
X956050Y1288275D03*
D11*
%LPD*%
D13*
X956050Y1288275D03*
D11*
%LPC*%
D20*
X778750Y1145175D03*
D11*
%LPD*%
D21*
X778750Y1145175D03*
D11*
%LPC*%
D20*
X770250Y1145175D03*
D11*
%LPD*%
D21*
X770250Y1145175D03*
D11*
%LPC*%
D20*
X761750Y1145175D03*
D11*
%LPD*%
D21*
X761750Y1145175D03*
D11*
%LPC*%
D20*
X753250Y1145175D03*
D11*
%LPD*%
D21*
X753250Y1145175D03*
D11*
%LPC*%
D20*
X744750Y1145175D03*
D11*
%LPD*%
D21*
X744750Y1145175D03*
D11*
%LPC*%
D20*
X736250Y1145175D03*
D11*
%LPD*%
D21*
X736250Y1145175D03*
D11*
%LPC*%
D20*
X727750Y1145175D03*
D11*
%LPD*%
D21*
X727750Y1145175D03*
D11*
%LPC*%
D20*
X719250Y1145175D03*
D11*
%LPD*%
D21*
X719250Y1145175D03*
D11*
%LPC*%
D20*
X710750Y1145175D03*
D11*
%LPD*%
D21*
X710750Y1145175D03*
D11*
%LPC*%
D20*
X702250Y1145175D03*
D11*
%LPD*%
D21*
X702250Y1145175D03*
D11*
%LPC*%
D20*
X693750Y1145175D03*
D11*
%LPD*%
D21*
X693750Y1145175D03*
D11*
%LPC*%
D20*
X685250Y1145175D03*
D11*
%LPD*%
D21*
X685250Y1145175D03*
D11*
%LPC*%
%LPD*%
G36*
X681891Y1147119D02*
X683305Y1148533D01*
X688608Y1143230D01*
X687194Y1141816D01*
X681891Y1147119D01*
G37*
%LPC*%
%LPD*%
G36*
X683305Y1141816D02*
X681891Y1143230D01*
X687194Y1148533D01*
X688608Y1147119D01*
X683305Y1141816D01*
G37*
%LPC*%
D20*
X778750Y1128275D03*
D11*
%LPD*%
D21*
X778750Y1128275D03*
D11*
%LPC*%
D20*
X770250Y1128275D03*
D11*
%LPD*%
D21*
X770250Y1128275D03*
D11*
%LPC*%
D20*
X761750Y1128275D03*
D11*
%LPD*%
D21*
X761750Y1128275D03*
D11*
%LPC*%
D20*
X753250Y1128275D03*
D11*
%LPD*%
D21*
X753250Y1128275D03*
D11*
%LPC*%
D20*
X744750Y1128275D03*
D11*
%LPD*%
D21*
X744750Y1128275D03*
D11*
%LPC*%
D20*
X736250Y1128275D03*
D11*
%LPD*%
D21*
X736250Y1128275D03*
D11*
%LPC*%
%LPD*%
G36*
X732891Y1130219D02*
X734305Y1131633D01*
X739608Y1126330D01*
X738194Y1124916D01*
X732891Y1130219D01*
G37*
%LPC*%
%LPD*%
G36*
X734305Y1124916D02*
X732891Y1126330D01*
X738194Y1131633D01*
X739608Y1130219D01*
X734305Y1124916D01*
G37*
%LPC*%
D20*
X727750Y1128275D03*
D11*
%LPD*%
D21*
X727750Y1128275D03*
D11*
%LPC*%
%LPD*%
G36*
X724391Y1130219D02*
X725805Y1131633D01*
X731108Y1126330D01*
X729694Y1124916D01*
X724391Y1130219D01*
G37*
%LPC*%
%LPD*%
G36*
X725805Y1124916D02*
X724391Y1126330D01*
X729694Y1131633D01*
X731108Y1130219D01*
X725805Y1124916D01*
G37*
%LPC*%
D20*
X719250Y1128275D03*
D11*
%LPD*%
D21*
X719250Y1128275D03*
D11*
%LPC*%
%LPD*%
G36*
X715891Y1130219D02*
X717305Y1131633D01*
X722608Y1126330D01*
X721194Y1124916D01*
X715891Y1130219D01*
G37*
%LPC*%
%LPD*%
G36*
X717305Y1124916D02*
X715891Y1126330D01*
X721194Y1131633D01*
X722608Y1130219D01*
X717305Y1124916D01*
G37*
%LPC*%
D20*
X710750Y1128275D03*
D11*
%LPD*%
D21*
X710750Y1128275D03*
D11*
%LPC*%
%LPD*%
G36*
X707391Y1130219D02*
X708805Y1131633D01*
X714108Y1126330D01*
X712694Y1124916D01*
X707391Y1130219D01*
G37*
%LPC*%
%LPD*%
G36*
X708805Y1124916D02*
X707391Y1126330D01*
X712694Y1131633D01*
X714108Y1130219D01*
X708805Y1124916D01*
G37*
%LPC*%
D20*
X702250Y1128275D03*
D11*
%LPD*%
D21*
X702250Y1128275D03*
D11*
%LPC*%
%LPD*%
G36*
X698891Y1130219D02*
X700305Y1131633D01*
X705608Y1126330D01*
X704194Y1124916D01*
X698891Y1130219D01*
G37*
%LPC*%
%LPD*%
G36*
X700305Y1124916D02*
X698891Y1126330D01*
X704194Y1131633D01*
X705608Y1130219D01*
X700305Y1124916D01*
G37*
%LPC*%
D20*
X693750Y1128275D03*
D11*
%LPD*%
D21*
X693750Y1128275D03*
D11*
%LPC*%
%LPD*%
G36*
X690391Y1130219D02*
X691805Y1131633D01*
X697108Y1126330D01*
X695694Y1124916D01*
X690391Y1130219D01*
G37*
%LPC*%
%LPD*%
G36*
X691805Y1124916D02*
X690391Y1126330D01*
X695694Y1131633D01*
X697108Y1130219D01*
X691805Y1124916D01*
G37*
%LPC*%
D20*
X685250Y1128275D03*
D11*
%LPD*%
D21*
X685250Y1128275D03*
D11*
%LPC*%
%LPD*%
G36*
X681891Y1130219D02*
X683305Y1131633D01*
X688608Y1126330D01*
X687194Y1124916D01*
X681891Y1130219D01*
G37*
%LPC*%
%LPD*%
G36*
X683305Y1124916D02*
X681891Y1126330D01*
X687194Y1131633D01*
X688608Y1130219D01*
X683305Y1124916D01*
G37*
%LPC*%
D22*
X824050Y1136775D03*
D11*
%LPD*%
D23*
X824050Y1136775D03*
D11*
%LPC*%
%LPD*%
G36*
X818181Y1141229D02*
X819595Y1142643D01*
X829918Y1132320D01*
X828504Y1130906D01*
X818181Y1141229D01*
G37*
%LPC*%
%LPD*%
G36*
X819595Y1130906D02*
X818181Y1132320D01*
X828504Y1142643D01*
X829918Y1141229D01*
X819595Y1130906D01*
G37*
%LPC*%
D22*
X639850Y1136775D03*
D11*
%LPD*%
D23*
X639850Y1136775D03*
D11*
%LPC*%
%LPD*%
G36*
X633981Y1141229D02*
X635395Y1142643D01*
X645718Y1132320D01*
X644304Y1130906D01*
X633981Y1141229D01*
G37*
%LPC*%
%LPD*%
G36*
X635395Y1130906D02*
X633981Y1132320D01*
X644304Y1142643D01*
X645718Y1141229D01*
X635395Y1130906D01*
G37*
%LPC*%
D15*
X942550Y1176775D03*
D11*
%LPD*%
D17*
X942550Y1176775D03*
D11*
%LPC*%
D12*
X942550Y1206775D03*
D11*
%LPD*%
D13*
X942550Y1206775D03*
D11*
%LPC*%
D15*
X800050Y1301775D03*
D11*
%LPD*%
D17*
X800050Y1301775D03*
D11*
%LPC*%
G36*
X804050Y1305275D02*
X796050D01*
Y1313275D01*
X804050D01*
Y1305275D01*
G37*
%LPD*%
G36*
X803050Y1306275D02*
X797050D01*
Y1312275D01*
X803050D01*
Y1306275D01*
G37*
%LPC*%
%LPD*%
G36*
X801050Y1306275D02*
X799050D01*
Y1313275D01*
X801050D01*
Y1306275D01*
G37*
%LPC*%
%LPD*%
G36*
X804050Y1308275D02*
X796050D01*
Y1310275D01*
X804050D01*
Y1308275D01*
G37*
%LPC*%
D18*
X907550Y1299275D03*
D11*
%LPD*%
D19*
X907550Y1299275D03*
D11*
%LPC*%
D18*
X867550Y1276775D03*
D11*
%LPD*%
D19*
X867550Y1276775D03*
D11*
%LPC*%
D18*
X860050Y1276775D03*
D11*
%LPD*%
D19*
X860050Y1276775D03*
D11*
%LPC*%
D18*
X810750Y1216975D03*
D11*
%LPD*%
D19*
X810750Y1216975D03*
D11*
%LPC*%
D18*
X837550Y1271775D03*
D11*
%LPD*%
D19*
X837550Y1271775D03*
D11*
%LPC*%
D18*
X840050Y1286775D03*
D11*
%LPD*%
D19*
X840050Y1286775D03*
D11*
%LPC*%
D18*
X635050Y1209275D03*
D11*
%LPD*%
D19*
X635050Y1209275D03*
D11*
%LPC*%
D18*
X632550Y1219275D03*
D11*
%LPD*%
D19*
X632550Y1219275D03*
D11*
%LPC*%
D18*
X630050Y1229275D03*
D11*
%LPD*%
D19*
X630050Y1229275D03*
D11*
%LPC*%
D18*
X745050Y1169275D03*
D11*
%LPD*%
D19*
X745050Y1169275D03*
D11*
%LPC*%
D18*
X735050Y1169275D03*
D11*
%LPD*%
D19*
X735050Y1169275D03*
D11*
%LPC*%
D18*
X725050Y1169275D03*
D11*
%LPD*%
D19*
X725050Y1169275D03*
D11*
%LPC*%
D18*
X715050Y1169275D03*
D11*
%LPD*%
D19*
X715050Y1169275D03*
D11*
%LPC*%
D18*
X840050Y1174275D03*
D11*
%LPD*%
D19*
X840050Y1174275D03*
D11*
%LPC*%
D18*
X830050Y1221775D03*
D11*
%LPD*%
D19*
X830050Y1221775D03*
D11*
%LPC*%
D18*
X842550Y1191775D03*
D11*
%LPD*%
D19*
X842550Y1191775D03*
D11*
%LPC*%
D18*
X850050Y1191775D03*
D11*
%LPD*%
D19*
X850050Y1191775D03*
D11*
%LPC*%
D18*
X860050Y1191775D03*
D11*
%LPD*%
D19*
X860050Y1191775D03*
D11*
%LPC*%
D18*
X669108Y1144222D03*
D11*
%LPD*%
D19*
X669108Y1144222D03*
D11*
%LPC*%
%LPD*%
G36*
X665926Y1145989D02*
X667340Y1147403D01*
X672289Y1142454D01*
X670875Y1141040D01*
X665926Y1145989D01*
G37*
%LPC*%
%LPD*%
G36*
X667340Y1141040D02*
X665926Y1142454D01*
X670875Y1147403D01*
X672289Y1145989D01*
X667340Y1141040D01*
G37*
%LPC*%
D02*
M02*
